{
  "header": {
    "PPQ": 96,
    "bpm": 120,
    "timeSignature": [
      4,
      4
    ],
    "name": "Untitled"
  },
  "tempo": [
    {
      "absoluteTime": 0,
      "seconds": 0,
      "bpm": 120
    }
  ],
  "timeSignature": [
    {
      "absoluteTime": 0,
      "seconds": 0,
      "numerator": 4,
      "denominator": 2,
      "click": 24,
      "notesQ": 8
    }
  ],
  "startTime": 0,
  "duration": 36,
  "tracks": [
    {
      "startTime": 0,
      "duration": 0,
      "length": 0,
      "notes": [],
      "controlChanges": {},
      "id": 0,
      "name": "Untitled"
    },
    {
      "startTime": 8,
      "duration": 36,
      "length": 56,
      "notes": [
        {
          "name": "C2",
          "midi": 36,
          "time": 8,
          "velocity": 0.7874015748031497,
          "duration": 0.5
        },
        {
          "name": "C2",
          "midi": 36,
          "time": 8.5,
          "velocity": 0.7874015748031497,
          "duration": 0.5
        },
        {
          "name": "C2",
          "midi": 36,
          "time": 9,
          "velocity": 0.7874015748031497,
          "duration": 0.5
        },
        {
          "name": "C2",
          "midi": 36,
          "time": 9.5,
          "velocity": 0.7874015748031497,
          "duration": 0.5
        },
        {
          "name": "C2",
          "midi": 36,
          "time": 10,
          "velocity": 0.7874015748031497,
          "duration": 0.5
        },
        {
          "name": "C2",
          "midi": 36,
          "time": 10.5,
          "velocity": 0.7874015748031497,
          "duration": 0.5
        },
        {
          "name": "C2",
          "midi": 36,
          "time": 11,
          "velocity": 0.7874015748031497,
          "duration": 0.5
        },
        {
          "name": "C2",
          "midi": 36,
          "time": 11.5,
          "velocity": 0.7874015748031497,
          "duration": 0.5
        },
        {
          "name": "C2",
          "midi": 36,
          "time": 12,
          "velocity": 0.7874015748031497,
          "duration": 0.5
        },
        {
          "name": "C2",
          "midi": 36,
          "time": 12.5,
          "velocity": 0.7874015748031497,
          "duration": 0.5
        },
        {
          "name": "C2",
          "midi": 36,
          "time": 13,
          "velocity": 0.7874015748031497,
          "duration": 0.5
        },
        {
          "name": "C2",
          "midi": 36,
          "time": 13.5,
          "velocity": 0.7874015748031497,
          "duration": 0.5
        },
        {
          "name": "C2",
          "midi": 36,
          "time": 14,
          "velocity": 0.7874015748031497,
          "duration": 0.5
        },
        {
          "name": "C2",
          "midi": 36,
          "time": 14.5,
          "velocity": 0.7874015748031497,
          "duration": 0.5
        },
        {
          "name": "C2",
          "midi": 36,
          "time": 15,
          "velocity": 0.7874015748031497,
          "duration": 0.5
        },
        {
          "name": "C2",
          "midi": 36,
          "time": 15.5,
          "velocity": 0.7874015748031497,
          "duration": 0.5
        },
        {
          "name": "C2",
          "midi": 36,
          "time": 16,
          "velocity": 0.7874015748031497,
          "duration": 0.5
        },
        {
          "name": "C2",
          "midi": 36,
          "time": 16.5,
          "velocity": 0.7874015748031497,
          "duration": 0.5
        },
        {
          "name": "C2",
          "midi": 36,
          "time": 17,
          "velocity": 0.7874015748031497,
          "duration": 0.5
        },
        {
          "name": "C2",
          "midi": 36,
          "time": 17.5,
          "velocity": 0.7874015748031497,
          "duration": 0.5
        },
        {
          "name": "C2",
          "midi": 36,
          "time": 18,
          "velocity": 0.7874015748031497,
          "duration": 0.5
        },
        {
          "name": "C2",
          "midi": 36,
          "time": 18.5,
          "velocity": 0.7874015748031497,
          "duration": 0.5
        },
        {
          "name": "C2",
          "midi": 36,
          "time": 19,
          "velocity": 0.7874015748031497,
          "duration": 0.5
        },
        {
          "name": "C2",
          "midi": 36,
          "time": 19.5,
          "velocity": 0.7874015748031497,
          "duration": 0.5
        },
        {
          "name": "C2",
          "midi": 36,
          "time": 20,
          "velocity": 0.7874015748031497,
          "duration": 0.5
        },
        {
          "name": "C2",
          "midi": 36,
          "time": 20.5,
          "velocity": 0.7874015748031497,
          "duration": 0.5
        },
        {
          "name": "C2",
          "midi": 36,
          "time": 21,
          "velocity": 0.7874015748031497,
          "duration": 0.5
        },
        {
          "name": "C2",
          "midi": 36,
          "time": 21.5,
          "velocity": 0.7874015748031497,
          "duration": 0.5
        },
        {
          "name": "C2",
          "midi": 36,
          "time": 22,
          "velocity": 0.7874015748031497,
          "duration": 0.5
        },
        {
          "name": "C2",
          "midi": 36,
          "time": 22.5,
          "velocity": 0.7874015748031497,
          "duration": 0.5
        },
        {
          "name": "C2",
          "midi": 36,
          "time": 23,
          "velocity": 0.7874015748031497,
          "duration": 0.5
        },
        {
          "name": "C2",
          "midi": 36,
          "time": 23.5,
          "velocity": 0.7874015748031497,
          "duration": 0.5
        },
        {
          "name": "C2",
          "midi": 36,
          "time": 24,
          "velocity": 0.7874015748031497,
          "duration": 0.5
        },
        {
          "name": "C2",
          "midi": 36,
          "time": 24.5,
          "velocity": 0.7874015748031497,
          "duration": 0.5
        },
        {
          "name": "C2",
          "midi": 36,
          "time": 25,
          "velocity": 0.7874015748031497,
          "duration": 0.5
        },
        {
          "name": "C2",
          "midi": 36,
          "time": 25.5,
          "velocity": 0.7874015748031497,
          "duration": 0.5
        },
        {
          "name": "C2",
          "midi": 36,
          "time": 26,
          "velocity": 0.7874015748031497,
          "duration": 0.5
        },
        {
          "name": "C2",
          "midi": 36,
          "time": 26.5,
          "velocity": 0.7874015748031497,
          "duration": 0.5
        },
        {
          "name": "C2",
          "midi": 36,
          "time": 27,
          "velocity": 0.7874015748031497,
          "duration": 0.5
        },
        {
          "name": "C2",
          "midi": 36,
          "time": 27.5,
          "velocity": 0.7874015748031497,
          "duration": 0.5
        },
        {
          "name": "C2",
          "midi": 36,
          "time": 28,
          "velocity": 0.7874015748031497,
          "duration": 0.5
        },
        {
          "name": "C2",
          "midi": 36,
          "time": 28.5,
          "velocity": 0.7874015748031497,
          "duration": 0.5
        },
        {
          "name": "C2",
          "midi": 36,
          "time": 29,
          "velocity": 0.7874015748031497,
          "duration": 0.5
        },
        {
          "name": "C2",
          "midi": 36,
          "time": 29.5,
          "velocity": 0.7874015748031497,
          "duration": 0.5
        },
        {
          "name": "C2",
          "midi": 36,
          "time": 30,
          "velocity": 0.7874015748031497,
          "duration": 0.5
        },
        {
          "name": "C2",
          "midi": 36,
          "time": 30.5,
          "velocity": 0.7874015748031497,
          "duration": 0.5
        },
        {
          "name": "C2",
          "midi": 36,
          "time": 31,
          "velocity": 0.7874015748031497,
          "duration": 0.5
        },
        {
          "name": "C2",
          "midi": 36,
          "time": 31.5,
          "velocity": 0.7874015748031497,
          "duration": 0.5
        },
        {
          "name": "C2",
          "midi": 36,
          "time": 32,
          "velocity": 0.7874015748031497,
          "duration": 0.5
        },
        {
          "name": "C2",
          "midi": 36,
          "time": 32.5,
          "velocity": 0.7874015748031497,
          "duration": 0.5
        },
        {
          "name": "C2",
          "midi": 36,
          "time": 33,
          "velocity": 0.7874015748031497,
          "duration": 0.5
        },
        {
          "name": "C2",
          "midi": 36,
          "time": 33.5,
          "velocity": 0.7874015748031497,
          "duration": 0.5
        },
        {
          "name": "C2",
          "midi": 36,
          "time": 34,
          "velocity": 0.7874015748031497,
          "duration": 0.5
        },
        {
          "name": "C2",
          "midi": 36,
          "time": 34.5,
          "velocity": 0.7874015748031497,
          "duration": 0.5
        },
        {
          "name": "C2",
          "midi": 36,
          "time": 35,
          "velocity": 0.7874015748031497,
          "duration": 0.5
        },
        {
          "name": "C2",
          "midi": 36,
          "time": 35.5,
          "velocity": 0.7874015748031497,
          "duration": 0.5
        }
      ],
      "controlChanges": {
        "7": [
          {
            "number": 7,
            "time": 0,
            "value": 1
          }
        ],
        "32": [
          {
            "number": 32,
            "time": 0,
            "value": 0
          }
        ]
      },
      "id": 1,
      "name": "Untitled",
      "instrumentNumber": 0,
      "instrument": "acoustic grand piano",
      "instrumentFamily": "piano",
      "channelNumber": 0,
      "isPercussion": false
    }
  ]
}