{
  "header": {
    "PPQ": 96,
    "bpm": 154.000154000154,
    "timeSignature": [
      4,
      4
    ],
    "name": "Untitled"
  },
  "tempo": [
    {
      "absoluteTime": 0,
      "seconds": 0,
      "bpm": 154.000154000154
    }
  ],
  "timeSignature": [
    {
      "absoluteTime": 0,
      "seconds": 0,
      "numerator": 4,
      "denominator": 2,
      "click": 24,
      "notesQ": 8
    }
  ],
  "startTime": 0,
  "duration": 173.96086500000115,
  "tracks": [
    {
      "startTime": 0,
      "duration": 0,
      "length": 0,
      "notes": [],
      "controlChanges": {},
      "id": 0,
      "name": "Untitled"
    },
    {
      "startTime": 3.11688,
      "duration": 173.96086500000115,
      "length": 295,
      "notes": [
        {
          "name": "C2",
          "midi": 36,
          "time": 3.11688,
          "velocity": 0.7874015748031497,
          "duration": 1.1688299999999998
        },
        {
          "name": "C#2",
          "midi": 37,
          "time": 4.28571,
          "velocity": 0.7874015748031497,
          "duration": 1.9480500000000003
        },
        {
          "name": "D2",
          "midi": 38,
          "time": 6.23376,
          "velocity": 0.7874015748031497,
          "duration": 0.5844149999999999
        },
        {
          "name": "C2",
          "midi": 36,
          "time": 6.818175,
          "velocity": 0.7874015748031497,
          "duration": 0.5844149999999999
        },
        {
          "name": "D#2",
          "midi": 39,
          "time": 7.40259,
          "velocity": 0.7874015748031497,
          "duration": 1.9480500000000003
        },
        {
          "name": "C2",
          "midi": 36,
          "time": 9.35064,
          "velocity": 0.7874015748031497,
          "duration": 1.1688299999999998
        },
        {
          "name": "C#2",
          "midi": 37,
          "time": 10.51947,
          "velocity": 0.7874015748031497,
          "duration": 1.1688299999999998
        },
        {
          "name": "D2",
          "midi": 38,
          "time": 11.6883,
          "velocity": 0.7874015748031497,
          "duration": 0.38960999999999935
        },
        {
          "name": "C#2",
          "midi": 37,
          "time": 12.07791,
          "velocity": 0.7874015748031497,
          "duration": 3.11688
        },
        {
          "name": "C2",
          "midi": 36,
          "time": 15.584399999999999,
          "velocity": 0.7874015748031497,
          "duration": 1.1688299999999998
        },
        {
          "name": "C#2",
          "midi": 37,
          "time": 16.75323,
          "velocity": 0.7874015748031497,
          "duration": 1.9480499999999985
        },
        {
          "name": "D2",
          "midi": 38,
          "time": 18.701279999999997,
          "velocity": 0.7874015748031497,
          "duration": 0.5844149999999999
        },
        {
          "name": "C2",
          "midi": 36,
          "time": 19.285694999999997,
          "velocity": 0.7874015748031497,
          "duration": 0.5844149999999999
        },
        {
          "name": "D#2",
          "midi": 39,
          "time": 19.870109999999997,
          "velocity": 0.7874015748031497,
          "duration": 1.9480499999999985
        },
        {
          "name": "C2",
          "midi": 36,
          "time": 21.818159999999995,
          "velocity": 0.7874015748031497,
          "duration": 1.1688299999999998
        },
        {
          "name": "C#2",
          "midi": 37,
          "time": 22.986989999999995,
          "velocity": 0.7874015748031497,
          "duration": 1.1688299999999998
        },
        {
          "name": "D2",
          "midi": 38,
          "time": 24.155819999999995,
          "velocity": 0.7874015748031497,
          "duration": 0.3896100000000011
        },
        {
          "name": "C#2",
          "midi": 37,
          "time": 24.545429999999996,
          "velocity": 0.7874015748031497,
          "duration": 3.116880000000002
        },
        {
          "name": "D#2",
          "midi": 39,
          "time": 28.831139999999998,
          "velocity": 0.7874015748031497,
          "duration": 0.3896100000000011
        },
        {
          "name": "D2",
          "midi": 38,
          "time": 29.22075,
          "velocity": 0.7874015748031497,
          "duration": 1.558440000000001
        },
        {
          "name": "C#2",
          "midi": 37,
          "time": 30.77919,
          "velocity": 0.7874015748031497,
          "duration": 0.3896100000000011
        },
        {
          "name": "C2",
          "midi": 36,
          "time": 31.1688,
          "velocity": 0.7874015748031497,
          "duration": 1.1688300000000034
        },
        {
          "name": "C#2",
          "midi": 37,
          "time": 32.337630000000004,
          "velocity": 0.7874015748031497,
          "duration": 1.1688299999999998
        },
        {
          "name": "D2",
          "midi": 38,
          "time": 33.70126500000001,
          "velocity": 0.7874015748031497,
          "duration": 0.19480500000000234
        },
        {
          "name": "C#2",
          "midi": 37,
          "time": 33.89607000000001,
          "velocity": 0.7874015748031497,
          "duration": 0.19480500000000234
        },
        {
          "name": "D2",
          "midi": 38,
          "time": 34.09087500000001,
          "velocity": 0.7874015748031497,
          "duration": 0.19480500000000234
        },
        {
          "name": "C#2",
          "midi": 37,
          "time": 34.28568000000001,
          "velocity": 0.7874015748031497,
          "duration": 1.7532449999999997
        },
        {
          "name": "C2",
          "midi": 36,
          "time": 36.233730000000016,
          "velocity": 0.7874015748031497,
          "duration": 0.38960999999999757
        },
        {
          "name": "C#2",
          "midi": 37,
          "time": 36.62334000000001,
          "velocity": 0.7874015748031497,
          "duration": 0.7792200000000022
        },
        {
          "name": "C2",
          "midi": 36,
          "time": 37.402560000000015,
          "velocity": 0.7874015748031497,
          "duration": 2.3376599999999996
        },
        {
          "name": "D#2",
          "midi": 39,
          "time": 41.29866000000001,
          "velocity": 0.7874015748031497,
          "duration": 0.38960999999999757
        },
        {
          "name": "D2",
          "midi": 38,
          "time": 41.68827000000001,
          "velocity": 0.7874015748031497,
          "duration": 1.5584399999999974
        },
        {
          "name": "C#2",
          "midi": 37,
          "time": 43.24671000000001,
          "velocity": 0.7874015748031497,
          "duration": 0.38960999999999757
        },
        {
          "name": "C2",
          "midi": 36,
          "time": 43.636320000000005,
          "velocity": 0.7874015748031497,
          "duration": 1.1688299999999998
        },
        {
          "name": "C#2",
          "midi": 37,
          "time": 44.805150000000005,
          "velocity": 0.7874015748031497,
          "duration": 1.1688299999999998
        },
        {
          "name": "D2",
          "midi": 38,
          "time": 46.16878500000001,
          "velocity": 0.7874015748031497,
          "duration": 0.19480500000000234
        },
        {
          "name": "C#2",
          "midi": 37,
          "time": 46.36359000000001,
          "velocity": 0.7874015748031497,
          "duration": 0.19480500000000234
        },
        {
          "name": "D2",
          "midi": 38,
          "time": 46.55839500000001,
          "velocity": 0.7874015748031497,
          "duration": 0.19480500000000234
        },
        {
          "name": "C#2",
          "midi": 37,
          "time": 46.753200000000014,
          "velocity": 0.7874015748031497,
          "duration": 1.7532449999999997
        },
        {
          "name": "C2",
          "midi": 36,
          "time": 48.701250000000016,
          "velocity": 0.7874015748031497,
          "duration": 0.38960999999999757
        },
        {
          "name": "C#2",
          "midi": 37,
          "time": 49.09086000000001,
          "velocity": 0.7874015748031497,
          "duration": 0.7792200000000022
        },
        {
          "name": "C2",
          "midi": 36,
          "time": 49.870080000000016,
          "velocity": 0.7874015748031497,
          "duration": 2.3376599999999996
        },
        {
          "name": "C2",
          "midi": 36,
          "time": 52.98696000000002,
          "velocity": 0.7874015748031497,
          "duration": 0.19480500000000234
        },
        {
          "name": "D2",
          "midi": 38,
          "time": 53.76618000000002,
          "velocity": 0.7874015748031497,
          "duration": 0.19480500000000234
        },
        {
          "name": "C2",
          "midi": 36,
          "time": 54.155790000000025,
          "velocity": 0.7874015748031497,
          "duration": 0.19480500000000234
        },
        {
          "name": "C2",
          "midi": 36,
          "time": 54.54540000000003,
          "velocity": 0.7874015748031497,
          "duration": 0.19480500000000234
        },
        {
          "name": "D2",
          "midi": 38,
          "time": 55.32462000000003,
          "velocity": 0.7874015748031497,
          "duration": 0.19480500000000234
        },
        {
          "name": "D2",
          "midi": 38,
          "time": 55.90903500000003,
          "velocity": 0.7874015748031497,
          "duration": 0.19480500000000234
        },
        {
          "name": "C2",
          "midi": 36,
          "time": 56.103840000000034,
          "velocity": 0.7874015748031497,
          "duration": 0.19480500000000234
        },
        {
          "name": "C2",
          "midi": 36,
          "time": 56.688255000000034,
          "velocity": 0.7874015748031497,
          "duration": 0.19480500000000234
        },
        {
          "name": "D2",
          "midi": 38,
          "time": 56.883060000000036,
          "velocity": 0.7874015748031497,
          "duration": 0.19480500000000234
        },
        {
          "name": "C2",
          "midi": 36,
          "time": 57.27267000000004,
          "velocity": 0.7874015748031497,
          "duration": 0.19480500000000234
        },
        {
          "name": "C2",
          "midi": 36,
          "time": 57.662280000000045,
          "velocity": 0.7874015748031497,
          "duration": 0.19480500000000234
        },
        {
          "name": "C2",
          "midi": 36,
          "time": 57.85708500000005,
          "velocity": 0.7874015748031497,
          "duration": 0.19480500000000234
        },
        {
          "name": "D2",
          "midi": 38,
          "time": 58.44150000000005,
          "velocity": 0.7874015748031497,
          "duration": 0.19480500000000234
        },
        {
          "name": "C2",
          "midi": 36,
          "time": 59.22072000000005,
          "velocity": 0.7874015748031497,
          "duration": 0.19480500000000234
        },
        {
          "name": "D2",
          "midi": 38,
          "time": 59.99994000000005,
          "velocity": 0.7874015748031497,
          "duration": 0.19480500000000234
        },
        {
          "name": "C2",
          "midi": 36,
          "time": 60.38955000000006,
          "velocity": 0.7874015748031497,
          "duration": 0.19480500000000234
        },
        {
          "name": "C2",
          "midi": 36,
          "time": 60.77916000000006,
          "velocity": 0.7874015748031497,
          "duration": 0.19480500000000234
        },
        {
          "name": "D2",
          "midi": 38,
          "time": 61.558380000000064,
          "velocity": 0.7874015748031497,
          "duration": 0.19480500000000234
        },
        {
          "name": "D2",
          "midi": 38,
          "time": 62.14279500000006,
          "velocity": 0.7874015748031497,
          "duration": 0.19480500000000234
        },
        {
          "name": "C2",
          "midi": 36,
          "time": 62.337600000000066,
          "velocity": 0.7874015748031497,
          "duration": 0.19480500000000234
        },
        {
          "name": "C2",
          "midi": 36,
          "time": 62.922015000000066,
          "velocity": 0.7874015748031497,
          "duration": 0.19480500000000234
        },
        {
          "name": "D2",
          "midi": 38,
          "time": 63.11682000000007,
          "velocity": 0.7874015748031497,
          "duration": 0.19480500000000234
        },
        {
          "name": "C2",
          "midi": 36,
          "time": 63.50643000000007,
          "velocity": 0.7874015748031497,
          "duration": 0.19480500000000234
        },
        {
          "name": "C2",
          "midi": 36,
          "time": 63.89604000000008,
          "velocity": 0.7874015748031497,
          "duration": 0.19480499999999523
        },
        {
          "name": "C2",
          "midi": 36,
          "time": 64.09084500000007,
          "velocity": 0.7874015748031497,
          "duration": 0.19480500000000234
        },
        {
          "name": "D2",
          "midi": 38,
          "time": 64.67526000000008,
          "velocity": 0.7874015748031497,
          "duration": 0.19480500000000234
        },
        {
          "name": "C2",
          "midi": 36,
          "time": 65.45448000000009,
          "velocity": 0.7874015748031497,
          "duration": 0.19480500000000234
        },
        {
          "name": "D#2",
          "midi": 39,
          "time": 66.2499337500001,
          "velocity": 0.7874015748031497,
          "duration": 0.19480500000000234
        },
        {
          "name": "C2",
          "midi": 36,
          "time": 66.6233100000001,
          "velocity": 0.7874015748031497,
          "duration": 0.19480500000000234
        },
        {
          "name": "C2",
          "midi": 36,
          "time": 67.01292000000011,
          "velocity": 0.7874015748031497,
          "duration": 0.19480500000000234
        },
        {
          "name": "D#2",
          "midi": 39,
          "time": 67.79214000000012,
          "velocity": 0.7874015748031497,
          "duration": 0.19480500000000234
        },
        {
          "name": "D2",
          "midi": 38,
          "time": 68.37655500000012,
          "velocity": 0.7874015748031497,
          "duration": 0.19480500000000234
        },
        {
          "name": "C2",
          "midi": 36,
          "time": 68.57136000000013,
          "velocity": 0.7874015748031497,
          "duration": 0.19480500000000234
        },
        {
          "name": "C2",
          "midi": 36,
          "time": 69.15577500000013,
          "velocity": 0.7874015748031497,
          "duration": 0.19480500000000234
        },
        {
          "name": "D#2",
          "midi": 39,
          "time": 69.35058000000014,
          "velocity": 0.7874015748031497,
          "duration": 0.19480500000000234
        },
        {
          "name": "C2",
          "midi": 36,
          "time": 69.74019000000014,
          "velocity": 0.7874015748031497,
          "duration": 0.19480500000000234
        },
        {
          "name": "C2",
          "midi": 36,
          "time": 70.12980000000015,
          "velocity": 0.7874015748031497,
          "duration": 0.19480500000000234
        },
        {
          "name": "C2",
          "midi": 36,
          "time": 70.32460500000015,
          "velocity": 0.7874015748031497,
          "duration": 0.19480500000000234
        },
        {
          "name": "D#2",
          "midi": 39,
          "time": 70.90902000000015,
          "velocity": 0.7874015748031497,
          "duration": 0.19480500000000234
        },
        {
          "name": "C2",
          "midi": 36,
          "time": 71.68824000000016,
          "velocity": 0.7874015748031497,
          "duration": 0.19480500000000234
        },
        {
          "name": "D#2",
          "midi": 39,
          "time": 72.48369375000017,
          "velocity": 0.7874015748031497,
          "duration": 0.19480500000000234
        },
        {
          "name": "C2",
          "midi": 36,
          "time": 72.85707000000018,
          "velocity": 0.7874015748031497,
          "duration": 0.19480500000000234
        },
        {
          "name": "C2",
          "midi": 36,
          "time": 73.24668000000018,
          "velocity": 0.7874015748031497,
          "duration": 0.19480500000000234
        },
        {
          "name": "D#2",
          "midi": 39,
          "time": 74.02590000000019,
          "velocity": 0.7874015748031497,
          "duration": 0.19480500000000234
        },
        {
          "name": "D#2",
          "midi": 39,
          "time": 74.6103150000002,
          "velocity": 0.7874015748031497,
          "duration": 0.19480500000000234
        },
        {
          "name": "C2",
          "midi": 36,
          "time": 74.8051200000002,
          "velocity": 0.7874015748031497,
          "duration": 0.19480500000000234
        },
        {
          "name": "C2",
          "midi": 36,
          "time": 75.38953500000021,
          "velocity": 0.7874015748031497,
          "duration": 0.19480500000000234
        },
        {
          "name": "D#2",
          "midi": 39,
          "time": 75.58434000000021,
          "velocity": 0.7874015748031497,
          "duration": 0.19480500000000234
        },
        {
          "name": "C2",
          "midi": 36,
          "time": 75.97395000000022,
          "velocity": 0.7874015748031497,
          "duration": 0.19480500000000234
        },
        {
          "name": "C2",
          "midi": 36,
          "time": 76.36356000000022,
          "velocity": 0.7874015748031497,
          "duration": 0.19480500000000234
        },
        {
          "name": "C2",
          "midi": 36,
          "time": 76.55836500000022,
          "velocity": 0.7874015748031497,
          "duration": 0.19480500000000234
        },
        {
          "name": "D#2",
          "midi": 39,
          "time": 77.14278000000023,
          "velocity": 0.7874015748031497,
          "duration": 0.19480500000000234
        },
        {
          "name": "C2",
          "midi": 36,
          "time": 77.92200000000024,
          "velocity": 0.7874015748031497,
          "duration": 0.19480500000000234
        },
        {
          "name": "D2",
          "midi": 38,
          "time": 78.70122000000025,
          "velocity": 0.7874015748031497,
          "duration": 0.19480500000000234
        },
        {
          "name": "C2",
          "midi": 36,
          "time": 79.09083000000025,
          "velocity": 0.7874015748031497,
          "duration": 0.19480500000000234
        },
        {
          "name": "C2",
          "midi": 36,
          "time": 79.48044000000026,
          "velocity": 0.7874015748031497,
          "duration": 0.19480500000000234
        },
        {
          "name": "C2",
          "midi": 36,
          "time": 79.67524500000026,
          "velocity": 0.7874015748031497,
          "duration": 0.19480500000000234
        },
        {
          "name": "D2",
          "midi": 38,
          "time": 80.25966000000027,
          "velocity": 0.7874015748031497,
          "duration": 0.19480500000000234
        },
        {
          "name": "D2",
          "midi": 38,
          "time": 80.84407500000027,
          "velocity": 0.7874015748031497,
          "duration": 0.19480500000000234
        },
        {
          "name": "C2",
          "midi": 36,
          "time": 81.03888000000028,
          "velocity": 0.7874015748031497,
          "duration": 0.19480500000000234
        },
        {
          "name": "C2",
          "midi": 36,
          "time": 81.62329500000028,
          "velocity": 0.7874015748031497,
          "duration": 0.19480500000000234
        },
        {
          "name": "D2",
          "midi": 38,
          "time": 81.81810000000029,
          "velocity": 0.7874015748031497,
          "duration": 0.19480500000000234
        },
        {
          "name": "C2",
          "midi": 36,
          "time": 82.20771000000029,
          "velocity": 0.7874015748031497,
          "duration": 0.19480500000000234
        },
        {
          "name": "C2",
          "midi": 36,
          "time": 82.5973200000003,
          "velocity": 0.7874015748031497,
          "duration": 0.19480500000000234
        },
        {
          "name": "C2",
          "midi": 36,
          "time": 82.7921250000003,
          "velocity": 0.7874015748031497,
          "duration": 0.19480500000000234
        },
        {
          "name": "D2",
          "midi": 38,
          "time": 83.3765400000003,
          "velocity": 0.7874015748031497,
          "duration": 0.19480500000000234
        },
        {
          "name": "C2",
          "midi": 36,
          "time": 84.15576000000031,
          "velocity": 0.7874015748031497,
          "duration": 0.19480500000000234
        },
        {
          "name": "D2",
          "midi": 38,
          "time": 84.93498000000032,
          "velocity": 0.7874015748031497,
          "duration": 0.19480500000000234
        },
        {
          "name": "C2",
          "midi": 36,
          "time": 85.32459000000033,
          "velocity": 0.7874015748031497,
          "duration": 0.19480500000000234
        },
        {
          "name": "C2",
          "midi": 36,
          "time": 85.71420000000033,
          "velocity": 0.7874015748031497,
          "duration": 0.19480500000000234
        },
        {
          "name": "C2",
          "midi": 36,
          "time": 85.90900500000033,
          "velocity": 0.7874015748031497,
          "duration": 0.19480500000000234
        },
        {
          "name": "D2",
          "midi": 38,
          "time": 86.49342000000034,
          "velocity": 0.7874015748031497,
          "duration": 0.19480500000000234
        },
        {
          "name": "D2",
          "midi": 38,
          "time": 87.07783500000035,
          "velocity": 0.7874015748031497,
          "duration": 0.19480500000000234
        },
        {
          "name": "C2",
          "midi": 36,
          "time": 87.27264000000035,
          "velocity": 0.7874015748031497,
          "duration": 0.19480500000000234
        },
        {
          "name": "C2",
          "midi": 36,
          "time": 87.85705500000036,
          "velocity": 0.7874015748031497,
          "duration": 0.19480500000000234
        },
        {
          "name": "D2",
          "midi": 38,
          "time": 88.05186000000036,
          "velocity": 0.7874015748031497,
          "duration": 0.19480500000000234
        },
        {
          "name": "C2",
          "midi": 36,
          "time": 88.44147000000036,
          "velocity": 0.7874015748031497,
          "duration": 0.19480500000000234
        },
        {
          "name": "C2",
          "midi": 36,
          "time": 88.83108000000037,
          "velocity": 0.7874015748031497,
          "duration": 0.19480500000000234
        },
        {
          "name": "C2",
          "midi": 36,
          "time": 89.02588500000037,
          "velocity": 0.7874015748031497,
          "duration": 0.19480500000000234
        },
        {
          "name": "D2",
          "midi": 38,
          "time": 89.61030000000038,
          "velocity": 0.7874015748031497,
          "duration": 0.19480500000000234
        },
        {
          "name": "C2",
          "midi": 36,
          "time": 90.38952000000039,
          "velocity": 0.7874015748031497,
          "duration": 0.19480500000000234
        },
        {
          "name": "D#2",
          "midi": 39,
          "time": 91.1687400000004,
          "velocity": 0.7874015748031497,
          "duration": 0.19480500000000234
        },
        {
          "name": "C2",
          "midi": 36,
          "time": 91.5583500000004,
          "velocity": 0.7874015748031497,
          "duration": 0.19480500000000234
        },
        {
          "name": "D#2",
          "midi": 39,
          "time": 91.7531550000004,
          "velocity": 0.7874015748031497,
          "duration": 0.19480500000000234
        },
        {
          "name": "C2",
          "midi": 36,
          "time": 91.9479600000004,
          "velocity": 0.7874015748031497,
          "duration": 0.19480500000000234
        },
        {
          "name": "C2",
          "midi": 36,
          "time": 92.14276500000041,
          "velocity": 0.7874015748031497,
          "duration": 0.19480500000000234
        },
        {
          "name": "D#2",
          "midi": 39,
          "time": 92.72718000000042,
          "velocity": 0.7874015748031497,
          "duration": 0.19480500000000234
        },
        {
          "name": "D#2",
          "midi": 39,
          "time": 93.31159500000042,
          "velocity": 0.7874015748031497,
          "duration": 0.19480500000000234
        },
        {
          "name": "C2",
          "midi": 36,
          "time": 93.50640000000043,
          "velocity": 0.7874015748031497,
          "duration": 0.19480500000000234
        },
        {
          "name": "C2",
          "midi": 36,
          "time": 94.09081500000043,
          "velocity": 0.7874015748031497,
          "duration": 0.19480500000000234
        },
        {
          "name": "D#2",
          "midi": 39,
          "time": 94.28562000000043,
          "velocity": 0.7874015748031497,
          "duration": 0.19480500000000234
        },
        {
          "name": "C2",
          "midi": 36,
          "time": 94.67523000000044,
          "velocity": 0.7874015748031497,
          "duration": 0.19480500000000234
        },
        {
          "name": "C2",
          "midi": 36,
          "time": 95.06484000000044,
          "velocity": 0.7874015748031497,
          "duration": 0.19480500000000234
        },
        {
          "name": "C2",
          "midi": 36,
          "time": 95.25964500000045,
          "velocity": 0.7874015748031497,
          "duration": 0.19480500000000234
        },
        {
          "name": "D#2",
          "midi": 39,
          "time": 95.84406000000045,
          "velocity": 0.7874015748031497,
          "duration": 0.19480500000000234
        },
        {
          "name": "C2",
          "midi": 36,
          "time": 96.62328000000046,
          "velocity": 0.7874015748031497,
          "duration": 0.19480500000000234
        },
        {
          "name": "D#2",
          "midi": 39,
          "time": 97.40250000000047,
          "velocity": 0.7874015748031497,
          "duration": 0.19480500000000234
        },
        {
          "name": "C2",
          "midi": 36,
          "time": 97.79211000000048,
          "velocity": 0.7874015748031497,
          "duration": 0.19480500000000234
        },
        {
          "name": "D#2",
          "midi": 39,
          "time": 97.98691500000048,
          "velocity": 0.7874015748031497,
          "duration": 0.19480500000000234
        },
        {
          "name": "C2",
          "midi": 36,
          "time": 98.18172000000048,
          "velocity": 0.7874015748031497,
          "duration": 0.19480500000000234
        },
        {
          "name": "C2",
          "midi": 36,
          "time": 98.37652500000048,
          "velocity": 0.7874015748031497,
          "duration": 0.19480500000000234
        },
        {
          "name": "D#2",
          "midi": 39,
          "time": 98.96094000000049,
          "velocity": 0.7874015748031497,
          "duration": 0.19480500000000234
        },
        {
          "name": "D#2",
          "midi": 39,
          "time": 99.5453550000005,
          "velocity": 0.7874015748031497,
          "duration": 0.19480500000000234
        },
        {
          "name": "C2",
          "midi": 36,
          "time": 99.7401600000005,
          "velocity": 0.7874015748031497,
          "duration": 0.19480500000000234
        },
        {
          "name": "C2",
          "midi": 36,
          "time": 100.32457500000051,
          "velocity": 0.7874015748031497,
          "duration": 0.19480500000000234
        },
        {
          "name": "D#2",
          "midi": 39,
          "time": 100.51938000000051,
          "velocity": 0.7874015748031497,
          "duration": 0.19480500000000234
        },
        {
          "name": "C2",
          "midi": 36,
          "time": 100.90899000000051,
          "velocity": 0.7874015748031497,
          "duration": 0.19480500000000234
        },
        {
          "name": "C2",
          "midi": 36,
          "time": 101.29860000000052,
          "velocity": 0.7874015748031497,
          "duration": 0.19480500000000234
        },
        {
          "name": "C2",
          "midi": 36,
          "time": 101.49340500000052,
          "velocity": 0.7874015748031497,
          "duration": 0.19480500000000234
        },
        {
          "name": "D#2",
          "midi": 39,
          "time": 102.07782000000053,
          "velocity": 0.7874015748031497,
          "duration": 0.19480500000000234
        },
        {
          "name": "C2",
          "midi": 36,
          "time": 102.85704000000054,
          "velocity": 0.7874015748031497,
          "duration": 0.19480500000000234
        },
        {
          "name": "C2",
          "midi": 36,
          "time": 103.44145500000054,
          "velocity": 0.7874015748031497,
          "duration": 0.19480500000000234
        },
        {
          "name": "C2",
          "midi": 36,
          "time": 104.41548000000054,
          "velocity": 0.7874015748031497,
          "duration": 0.19480500000000234
        },
        {
          "name": "C2",
          "midi": 36,
          "time": 104.61028500000054,
          "velocity": 0.7874015748031497,
          "duration": 0.19480500000000234
        },
        {
          "name": "C2",
          "midi": 36,
          "time": 105.97392000000055,
          "velocity": 0.7874015748031497,
          "duration": 0.19480500000000234
        },
        {
          "name": "C2",
          "midi": 36,
          "time": 106.55833500000055,
          "velocity": 0.7874015748031497,
          "duration": 0.19480500000000234
        },
        {
          "name": "C2",
          "midi": 36,
          "time": 107.53236000000055,
          "velocity": 0.7874015748031497,
          "duration": 0.19480500000000234
        },
        {
          "name": "C2",
          "midi": 36,
          "time": 107.72716500000055,
          "velocity": 0.7874015748031497,
          "duration": 0.19480500000000234
        },
        {
          "name": "C2",
          "midi": 36,
          "time": 109.09080000000056,
          "velocity": 0.7874015748031497,
          "duration": 0.19480500000000234
        },
        {
          "name": "C2",
          "midi": 36,
          "time": 109.67521500000056,
          "velocity": 0.7874015748031497,
          "duration": 0.19480500000000234
        },
        {
          "name": "C2",
          "midi": 36,
          "time": 110.64924000000056,
          "velocity": 0.7874015748031497,
          "duration": 0.19480500000000234
        },
        {
          "name": "C2",
          "midi": 36,
          "time": 110.84404500000056,
          "velocity": 0.7874015748031497,
          "duration": 0.19480500000000234
        },
        {
          "name": "C2",
          "midi": 36,
          "time": 112.20768000000056,
          "velocity": 0.7874015748031497,
          "duration": 0.19480500000000234
        },
        {
          "name": "C2",
          "midi": 36,
          "time": 112.79209500000057,
          "velocity": 0.7874015748031497,
          "duration": 0.19480500000000234
        },
        {
          "name": "C2",
          "midi": 36,
          "time": 113.76612000000057,
          "velocity": 0.7874015748031497,
          "duration": 0.19480500000000234
        },
        {
          "name": "C2",
          "midi": 36,
          "time": 113.96092500000057,
          "velocity": 0.7874015748031497,
          "duration": 0.19480500000000234
        },
        {
          "name": "D#2",
          "midi": 39,
          "time": 116.10378000000057,
          "velocity": 0.7874015748031497,
          "duration": 0.3896100000000047
        },
        {
          "name": "D2",
          "midi": 38,
          "time": 116.49339000000057,
          "velocity": 0.7874015748031497,
          "duration": 1.5584400000000045
        },
        {
          "name": "C#2",
          "midi": 37,
          "time": 118.05183000000058,
          "velocity": 0.7874015748031497,
          "duration": 0.3896100000000047
        },
        {
          "name": "C2",
          "midi": 36,
          "time": 118.44144000000058,
          "velocity": 0.7874015748031497,
          "duration": 1.1688299999999998
        },
        {
          "name": "C#2",
          "midi": 37,
          "time": 119.61027000000058,
          "velocity": 0.7874015748031497,
          "duration": 1.1688299999999998
        },
        {
          "name": "D2",
          "midi": 38,
          "time": 120.97390500000058,
          "velocity": 0.7874015748031497,
          "duration": 0.19480500000000234
        },
        {
          "name": "C#2",
          "midi": 37,
          "time": 121.16871000000059,
          "velocity": 0.7874015748031497,
          "duration": 0.19480500000000234
        },
        {
          "name": "D2",
          "midi": 38,
          "time": 121.36351500000059,
          "velocity": 0.7874015748031497,
          "duration": 0.19480500000000234
        },
        {
          "name": "C#2",
          "midi": 37,
          "time": 121.55832000000059,
          "velocity": 0.7874015748031497,
          "duration": 1.7532450000000068
        },
        {
          "name": "C2",
          "midi": 36,
          "time": 123.5063700000006,
          "velocity": 0.7874015748031497,
          "duration": 0.3896100000000047
        },
        {
          "name": "C#2",
          "midi": 37,
          "time": 123.8959800000006,
          "velocity": 0.7874015748031497,
          "duration": 0.7792199999999951
        },
        {
          "name": "C2",
          "midi": 36,
          "time": 124.6752000000006,
          "velocity": 0.7874015748031497,
          "duration": 2.3376599999999996
        },
        {
          "name": "C2",
          "midi": 36,
          "time": 127.7920800000006,
          "velocity": 0.7874015748031497,
          "duration": 0.19480500000000234
        },
        {
          "name": "D2",
          "midi": 38,
          "time": 128.5713000000006,
          "velocity": 0.7874015748031497,
          "duration": 0.19480500000000234
        },
        {
          "name": "C2",
          "midi": 36,
          "time": 128.9609100000006,
          "velocity": 0.7874015748031497,
          "duration": 0.19480500000000234
        },
        {
          "name": "C2",
          "midi": 36,
          "time": 129.3505200000006,
          "velocity": 0.7874015748031497,
          "duration": 0.19480500000000234
        },
        {
          "name": "C2",
          "midi": 36,
          "time": 129.54532500000062,
          "velocity": 0.7874015748031497,
          "duration": 0.19480500000000234
        },
        {
          "name": "D2",
          "midi": 38,
          "time": 130.12974000000062,
          "velocity": 0.7874015748031497,
          "duration": 0.19480500000000234
        },
        {
          "name": "D2",
          "midi": 38,
          "time": 130.71415500000063,
          "velocity": 0.7874015748031497,
          "duration": 0.19480500000000234
        },
        {
          "name": "C2",
          "midi": 36,
          "time": 130.90896000000063,
          "velocity": 0.7874015748031497,
          "duration": 0.19480500000000234
        },
        {
          "name": "C2",
          "midi": 36,
          "time": 131.49337500000064,
          "velocity": 0.7874015748031497,
          "duration": 0.19480500000000234
        },
        {
          "name": "D2",
          "midi": 38,
          "time": 131.68818000000064,
          "velocity": 0.7874015748031497,
          "duration": 0.19480500000000234
        },
        {
          "name": "C2",
          "midi": 36,
          "time": 132.07779000000065,
          "velocity": 0.7874015748031497,
          "duration": 0.19480500000000234
        },
        {
          "name": "C2",
          "midi": 36,
          "time": 132.46740000000065,
          "velocity": 0.7874015748031497,
          "duration": 0.19480500000000234
        },
        {
          "name": "C2",
          "midi": 36,
          "time": 132.66220500000065,
          "velocity": 0.7874015748031497,
          "duration": 0.19480500000000234
        },
        {
          "name": "D2",
          "midi": 38,
          "time": 133.24662000000066,
          "velocity": 0.7874015748031497,
          "duration": 0.19480500000000234
        },
        {
          "name": "C2",
          "midi": 36,
          "time": 134.02584000000067,
          "velocity": 0.7874015748031497,
          "duration": 0.19480500000000234
        },
        {
          "name": "D2",
          "midi": 38,
          "time": 134.80506000000068,
          "velocity": 0.7874015748031497,
          "duration": 0.19480500000000234
        },
        {
          "name": "C2",
          "midi": 36,
          "time": 135.19467000000068,
          "velocity": 0.7874015748031497,
          "duration": 0.19480500000000234
        },
        {
          "name": "C2",
          "midi": 36,
          "time": 135.5842800000007,
          "velocity": 0.7874015748031497,
          "duration": 0.19480500000000234
        },
        {
          "name": "C2",
          "midi": 36,
          "time": 135.7790850000007,
          "velocity": 0.7874015748031497,
          "duration": 0.19480500000000234
        },
        {
          "name": "D2",
          "midi": 38,
          "time": 136.3635000000007,
          "velocity": 0.7874015748031497,
          "duration": 0.19480500000000234
        },
        {
          "name": "D2",
          "midi": 38,
          "time": 136.9479150000007,
          "velocity": 0.7874015748031497,
          "duration": 0.19480500000000234
        },
        {
          "name": "C2",
          "midi": 36,
          "time": 137.1427200000007,
          "velocity": 0.7874015748031497,
          "duration": 0.19480500000000234
        },
        {
          "name": "C2",
          "midi": 36,
          "time": 137.72713500000071,
          "velocity": 0.7874015748031497,
          "duration": 0.19480500000000234
        },
        {
          "name": "D2",
          "midi": 38,
          "time": 137.92194000000072,
          "velocity": 0.7874015748031497,
          "duration": 0.19480500000000234
        },
        {
          "name": "C2",
          "midi": 36,
          "time": 138.31155000000072,
          "velocity": 0.7874015748031497,
          "duration": 0.19480500000000234
        },
        {
          "name": "C2",
          "midi": 36,
          "time": 138.70116000000073,
          "velocity": 0.7874015748031497,
          "duration": 0.19480500000000234
        },
        {
          "name": "C2",
          "midi": 36,
          "time": 138.89596500000073,
          "velocity": 0.7874015748031497,
          "duration": 0.19480500000000234
        },
        {
          "name": "D2",
          "midi": 38,
          "time": 139.48038000000074,
          "velocity": 0.7874015748031497,
          "duration": 0.19480500000000234
        },
        {
          "name": "C2",
          "midi": 36,
          "time": 139.67518500000074,
          "velocity": 0.7874015748031497,
          "duration": 0.19480500000000234
        },
        {
          "name": "D2",
          "midi": 38,
          "time": 139.86999000000074,
          "velocity": 0.7874015748031497,
          "duration": 0.19480500000000234
        },
        {
          "name": "C#2",
          "midi": 37,
          "time": 140.06479500000074,
          "velocity": 0.7874015748031497,
          "duration": 0.19480500000000234
        },
        {
          "name": "C2",
          "midi": 36,
          "time": 140.25960000000075,
          "velocity": 0.7874015748031497,
          "duration": 0.19480500000000234
        },
        {
          "name": "D2",
          "midi": 38,
          "time": 141.03882000000075,
          "velocity": 0.7874015748031497,
          "duration": 0.19480500000000234
        },
        {
          "name": "C2",
          "midi": 36,
          "time": 141.42843000000076,
          "velocity": 0.7874015748031497,
          "duration": 0.19480500000000234
        },
        {
          "name": "C2",
          "midi": 36,
          "time": 141.81804000000076,
          "velocity": 0.7874015748031497,
          "duration": 0.19480500000000234
        },
        {
          "name": "C2",
          "midi": 36,
          "time": 142.01284500000077,
          "velocity": 0.7874015748031497,
          "duration": 0.19480500000000234
        },
        {
          "name": "D2",
          "midi": 38,
          "time": 142.59726000000077,
          "velocity": 0.7874015748031497,
          "duration": 0.19480500000000234
        },
        {
          "name": "D2",
          "midi": 38,
          "time": 143.18167500000078,
          "velocity": 0.7874015748031497,
          "duration": 0.19480500000000234
        },
        {
          "name": "C2",
          "midi": 36,
          "time": 143.37648000000078,
          "velocity": 0.7874015748031497,
          "duration": 0.19480500000000234
        },
        {
          "name": "C2",
          "midi": 36,
          "time": 143.9608950000008,
          "velocity": 0.7874015748031497,
          "duration": 0.19480500000000234
        },
        {
          "name": "D2",
          "midi": 38,
          "time": 144.1557000000008,
          "velocity": 0.7874015748031497,
          "duration": 0.19480500000000234
        },
        {
          "name": "C2",
          "midi": 36,
          "time": 144.5453100000008,
          "velocity": 0.7874015748031497,
          "duration": 0.19480500000000234
        },
        {
          "name": "C2",
          "midi": 36,
          "time": 144.9349200000008,
          "velocity": 0.7874015748031497,
          "duration": 0.19480500000000234
        },
        {
          "name": "C2",
          "midi": 36,
          "time": 145.1297250000008,
          "velocity": 0.7874015748031497,
          "duration": 0.19480500000000234
        },
        {
          "name": "D2",
          "midi": 38,
          "time": 145.7141400000008,
          "velocity": 0.7874015748031497,
          "duration": 0.19480500000000234
        },
        {
          "name": "D#2",
          "midi": 39,
          "time": 146.10375000000082,
          "velocity": 0.7874015748031497,
          "duration": 0.19480500000000234
        },
        {
          "name": "C2",
          "midi": 36,
          "time": 146.49336000000082,
          "velocity": 0.7874015748031497,
          "duration": 0.19480500000000234
        },
        {
          "name": "D2",
          "midi": 38,
          "time": 147.27258000000083,
          "velocity": 0.7874015748031497,
          "duration": 0.19480500000000234
        },
        {
          "name": "C2",
          "midi": 36,
          "time": 147.66219000000083,
          "velocity": 0.7874015748031497,
          "duration": 0.19480500000000234
        },
        {
          "name": "C2",
          "midi": 36,
          "time": 148.05180000000084,
          "velocity": 0.7874015748031497,
          "duration": 0.19480500000000234
        },
        {
          "name": "C2",
          "midi": 36,
          "time": 148.24660500000084,
          "velocity": 0.7874015748031497,
          "duration": 0.19480500000000234
        },
        {
          "name": "D2",
          "midi": 38,
          "time": 148.83102000000085,
          "velocity": 0.7874015748031497,
          "duration": 0.19480500000000234
        },
        {
          "name": "D2",
          "midi": 38,
          "time": 149.41543500000085,
          "velocity": 0.7874015748031497,
          "duration": 0.19480500000000234
        },
        {
          "name": "C2",
          "midi": 36,
          "time": 149.61024000000086,
          "velocity": 0.7874015748031497,
          "duration": 0.19480500000000234
        },
        {
          "name": "C2",
          "midi": 36,
          "time": 150.19465500000086,
          "velocity": 0.7874015748031497,
          "duration": 0.19480500000000234
        },
        {
          "name": "D2",
          "midi": 38,
          "time": 150.38946000000087,
          "velocity": 0.7874015748031497,
          "duration": 0.19480500000000234
        },
        {
          "name": "C2",
          "midi": 36,
          "time": 150.77907000000087,
          "velocity": 0.7874015748031497,
          "duration": 0.19480500000000234
        },
        {
          "name": "C2",
          "midi": 36,
          "time": 151.16868000000088,
          "velocity": 0.7874015748031497,
          "duration": 0.19480500000000234
        },
        {
          "name": "C2",
          "midi": 36,
          "time": 151.36348500000088,
          "velocity": 0.7874015748031497,
          "duration": 0.19480500000000234
        },
        {
          "name": "D2",
          "midi": 38,
          "time": 151.94790000000089,
          "velocity": 0.7874015748031497,
          "duration": 0.19480500000000234
        },
        {
          "name": "C2",
          "midi": 36,
          "time": 152.1427050000009,
          "velocity": 0.7874015748031497,
          "duration": 0.19480500000000234
        },
        {
          "name": "D2",
          "midi": 38,
          "time": 152.3375100000009,
          "velocity": 0.7874015748031497,
          "duration": 0.19480500000000234
        },
        {
          "name": "C#2",
          "midi": 37,
          "time": 152.5323150000009,
          "velocity": 0.7874015748031497,
          "duration": 0.19480500000000234
        },
        {
          "name": "C2",
          "midi": 36,
          "time": 152.7271200000009,
          "velocity": 0.7874015748031497,
          "duration": 0.19480500000000234
        },
        {
          "name": "D2",
          "midi": 38,
          "time": 153.5063400000009,
          "velocity": 0.7874015748031497,
          "duration": 0.19480500000000234
        },
        {
          "name": "C2",
          "midi": 36,
          "time": 153.8959500000009,
          "velocity": 0.7874015748031497,
          "duration": 0.19480500000000234
        },
        {
          "name": "C2",
          "midi": 36,
          "time": 154.2855600000009,
          "velocity": 0.7874015748031497,
          "duration": 0.19480500000000234
        },
        {
          "name": "C2",
          "midi": 36,
          "time": 154.48036500000092,
          "velocity": 0.7874015748031497,
          "duration": 0.19480500000000234
        },
        {
          "name": "D2",
          "midi": 38,
          "time": 155.06478000000092,
          "velocity": 0.7874015748031497,
          "duration": 0.19480500000000234
        },
        {
          "name": "D2",
          "midi": 38,
          "time": 155.64919500000093,
          "velocity": 0.7874015748031497,
          "duration": 0.19480500000000234
        },
        {
          "name": "C2",
          "midi": 36,
          "time": 155.84400000000093,
          "velocity": 0.7874015748031497,
          "duration": 0.19480500000000234
        },
        {
          "name": "C2",
          "midi": 36,
          "time": 156.42841500000094,
          "velocity": 0.7874015748031497,
          "duration": 0.19480500000000234
        },
        {
          "name": "D2",
          "midi": 38,
          "time": 156.62322000000094,
          "velocity": 0.7874015748031497,
          "duration": 0.19480500000000234
        },
        {
          "name": "C2",
          "midi": 36,
          "time": 157.01283000000095,
          "velocity": 0.7874015748031497,
          "duration": 0.19480500000000234
        },
        {
          "name": "C2",
          "midi": 36,
          "time": 157.40244000000095,
          "velocity": 0.7874015748031497,
          "duration": 0.19480500000000234
        },
        {
          "name": "C2",
          "midi": 36,
          "time": 157.59724500000095,
          "velocity": 0.7874015748031497,
          "duration": 0.19480500000000234
        },
        {
          "name": "D2",
          "midi": 38,
          "time": 158.18166000000096,
          "velocity": 0.7874015748031497,
          "duration": 0.19480500000000234
        },
        {
          "name": "D#2",
          "midi": 39,
          "time": 158.57127000000096,
          "velocity": 0.7874015748031497,
          "duration": 0.19480500000000234
        },
        {
          "name": "C2",
          "midi": 36,
          "time": 158.96088000000097,
          "velocity": 0.7874015748031497,
          "duration": 0.19480500000000234
        },
        {
          "name": "D2",
          "midi": 38,
          "time": 159.74010000000098,
          "velocity": 0.7874015748031497,
          "duration": 0.19480500000000234
        },
        {
          "name": "C2",
          "midi": 36,
          "time": 160.12971000000098,
          "velocity": 0.7874015748031497,
          "duration": 0.19480500000000234
        },
        {
          "name": "C2",
          "midi": 36,
          "time": 160.519320000001,
          "velocity": 0.7874015748031497,
          "duration": 0.19480500000000234
        },
        {
          "name": "C2",
          "midi": 36,
          "time": 160.714125000001,
          "velocity": 0.7874015748031497,
          "duration": 0.19480500000000234
        },
        {
          "name": "D2",
          "midi": 38,
          "time": 161.298540000001,
          "velocity": 0.7874015748031497,
          "duration": 0.19480500000000234
        },
        {
          "name": "D2",
          "midi": 38,
          "time": 161.882955000001,
          "velocity": 0.7874015748031497,
          "duration": 0.19480500000000234
        },
        {
          "name": "C2",
          "midi": 36,
          "time": 162.077760000001,
          "velocity": 0.7874015748031497,
          "duration": 0.19480500000000234
        },
        {
          "name": "C2",
          "midi": 36,
          "time": 162.662175000001,
          "velocity": 0.7874015748031497,
          "duration": 0.19480500000000234
        },
        {
          "name": "D2",
          "midi": 38,
          "time": 162.85698000000102,
          "velocity": 0.7874015748031497,
          "duration": 0.19480500000000234
        },
        {
          "name": "C2",
          "midi": 36,
          "time": 163.24659000000102,
          "velocity": 0.7874015748031497,
          "duration": 0.19480500000000234
        },
        {
          "name": "C2",
          "midi": 36,
          "time": 163.63620000000103,
          "velocity": 0.7874015748031497,
          "duration": 0.19480500000000234
        },
        {
          "name": "C2",
          "midi": 36,
          "time": 163.83100500000103,
          "velocity": 0.7874015748031497,
          "duration": 0.19480500000000234
        },
        {
          "name": "D2",
          "midi": 38,
          "time": 164.41542000000103,
          "velocity": 0.7874015748031497,
          "duration": 0.19480500000000234
        },
        {
          "name": "C2",
          "midi": 36,
          "time": 164.61022500000104,
          "velocity": 0.7874015748031497,
          "duration": 0.19480500000000234
        },
        {
          "name": "D2",
          "midi": 38,
          "time": 164.80503000000104,
          "velocity": 0.7874015748031497,
          "duration": 0.19480500000000234
        },
        {
          "name": "C#2",
          "midi": 37,
          "time": 164.99983500000104,
          "velocity": 0.7874015748031497,
          "duration": 0.19480500000000234
        },
        {
          "name": "C2",
          "midi": 36,
          "time": 165.19464000000104,
          "velocity": 0.7874015748031497,
          "duration": 0.19480500000000234
        },
        {
          "name": "D2",
          "midi": 38,
          "time": 165.97386000000105,
          "velocity": 0.7874015748031497,
          "duration": 0.19480500000000234
        },
        {
          "name": "C2",
          "midi": 36,
          "time": 166.36347000000106,
          "velocity": 0.7874015748031497,
          "duration": 0.19480500000000234
        },
        {
          "name": "C2",
          "midi": 36,
          "time": 166.75308000000106,
          "velocity": 0.7874015748031497,
          "duration": 0.19480500000000234
        },
        {
          "name": "C2",
          "midi": 36,
          "time": 166.94788500000107,
          "velocity": 0.7874015748031497,
          "duration": 0.19480500000000234
        },
        {
          "name": "D2",
          "midi": 38,
          "time": 167.53230000000107,
          "velocity": 0.7874015748031497,
          "duration": 0.19480500000000234
        },
        {
          "name": "D2",
          "midi": 38,
          "time": 168.11671500000108,
          "velocity": 0.7874015748031497,
          "duration": 0.19480500000000234
        },
        {
          "name": "C2",
          "midi": 36,
          "time": 168.31152000000108,
          "velocity": 0.7874015748031497,
          "duration": 0.19480500000000234
        },
        {
          "name": "C2",
          "midi": 36,
          "time": 168.8959350000011,
          "velocity": 0.7874015748031497,
          "duration": 0.19480500000000234
        },
        {
          "name": "D2",
          "midi": 38,
          "time": 169.0907400000011,
          "velocity": 0.7874015748031497,
          "duration": 0.19480500000000234
        },
        {
          "name": "C2",
          "midi": 36,
          "time": 169.4803500000011,
          "velocity": 0.7874015748031497,
          "duration": 0.19480500000000234
        },
        {
          "name": "C2",
          "midi": 36,
          "time": 169.8699600000011,
          "velocity": 0.7874015748031497,
          "duration": 0.19480500000000234
        },
        {
          "name": "C2",
          "midi": 36,
          "time": 170.0647650000011,
          "velocity": 0.7874015748031497,
          "duration": 0.19480500000000234
        },
        {
          "name": "D2",
          "midi": 38,
          "time": 170.6491800000011,
          "velocity": 0.7874015748031497,
          "duration": 0.19480500000000234
        },
        {
          "name": "C2",
          "midi": 36,
          "time": 171.42840000000112,
          "velocity": 0.7874015748031497,
          "duration": 0.19480500000000234
        },
        {
          "name": "D2",
          "midi": 38,
          "time": 172.20762000000113,
          "velocity": 0.7874015748031497,
          "duration": 0.19480500000000234
        },
        {
          "name": "C2",
          "midi": 36,
          "time": 172.59723000000113,
          "velocity": 0.7874015748031497,
          "duration": 0.19480500000000234
        },
        {
          "name": "C2",
          "midi": 36,
          "time": 172.98684000000114,
          "velocity": 0.7874015748031497,
          "duration": 0.19480500000000234
        },
        {
          "name": "C2",
          "midi": 36,
          "time": 173.18164500000114,
          "velocity": 0.7874015748031497,
          "duration": 0.19480500000000234
        },
        {
          "name": "D2",
          "midi": 38,
          "time": 173.76606000000115,
          "velocity": 0.7874015748031497,
          "duration": 0.19480500000000234
        }
      ],
      "controlChanges": {
        "7": [
          {
            "number": 7,
            "time": 0,
            "value": 1
          }
        ],
        "32": [
          {
            "number": 32,
            "time": 0,
            "value": 0
          }
        ],
        "127": [
          {
            "number": 127,
            "time": 174.54122156250114,
            "value": 0
          }
        ]
      },
      "id": 1,
      "name": "Untitled",
      "instrumentNumber": 0,
      "instrument": "acoustic grand piano",
      "instrumentFamily": "piano",
      "channelNumber": 0,
      "isPercussion": false
    }
  ]
}