{
  "header": {
    "PPQ": 96,
    "bpm": 112.00005973336519,
    "timeSignature": [
      4,
      4
    ],
    "name": "Untitled"
  },
  "tempo": [
    {
      "absoluteTime": 0,
      "seconds": 0,
      "bpm": 112.00005973336519
    }
  ],
  "timeSignature": [
    {
      "absoluteTime": 0,
      "seconds": 0,
      "numerator": 4,
      "denominator": 2,
      "click": 24,
      "notesQ": 8
    }
  ],
  "startTime": 0,
  "duration": 137.00885549999916,
  "tracks": [
    {
      "startTime": 0,
      "duration": 0,
      "length": 0,
      "notes": [],
      "controlChanges": {},
      "id": 0,
      "name": "Untitled"
    },
    {
      "startTime": 4.285712,
      "duration": 137.00885549999916,
      "length": 389,
      "notes": [
        {
          "name": "C2",
          "midi": 36,
          "time": 4.285712,
          "velocity": 0.7874015748031497,
          "duration": 0.26785700000000023
        },
        {
          "name": "C#2",
          "midi": 37,
          "time": 4.821426000000001,
          "velocity": 0.7874015748031497,
          "duration": 0.26785700000000023
        },
        {
          "name": "C2",
          "midi": 36,
          "time": 5.089283000000001,
          "velocity": 0.7874015748031497,
          "duration": 0.26785700000000023
        },
        {
          "name": "C2",
          "midi": 36,
          "time": 5.357140000000001,
          "velocity": 0.7874015748031497,
          "duration": 0.26785700000000023
        },
        {
          "name": "C#2",
          "midi": 37,
          "time": 5.892854000000002,
          "velocity": 0.7874015748031497,
          "duration": 0.26785700000000023
        },
        {
          "name": "C2",
          "midi": 36,
          "time": 6.428568000000002,
          "velocity": 0.7874015748031497,
          "duration": 0.26785700000000023
        },
        {
          "name": "C#2",
          "midi": 37,
          "time": 6.9642820000000025,
          "velocity": 0.7874015748031497,
          "duration": 0.26785700000000023
        },
        {
          "name": "C2",
          "midi": 36,
          "time": 7.499996000000003,
          "velocity": 0.7874015748031497,
          "duration": 0.26785700000000023
        },
        {
          "name": "C#2",
          "midi": 37,
          "time": 8.035710000000003,
          "velocity": 0.7874015748031497,
          "duration": 0.26785699999999935
        },
        {
          "name": "C2",
          "midi": 36,
          "time": 8.571424000000002,
          "velocity": 0.7874015748031497,
          "duration": 0.26785699999999935
        },
        {
          "name": "C#2",
          "midi": 37,
          "time": 9.107138,
          "velocity": 0.7874015748031497,
          "duration": 0.26785699999999935
        },
        {
          "name": "C2",
          "midi": 36,
          "time": 9.374995,
          "velocity": 0.7874015748031497,
          "duration": 0.26785699999999935
        },
        {
          "name": "C2",
          "midi": 36,
          "time": 9.642852,
          "velocity": 0.7874015748031497,
          "duration": 0.26785699999999935
        },
        {
          "name": "C#2",
          "midi": 37,
          "time": 10.178565999999998,
          "velocity": 0.7874015748031497,
          "duration": 0.26785699999999935
        },
        {
          "name": "C2",
          "midi": 36,
          "time": 10.714279999999997,
          "velocity": 0.7874015748031497,
          "duration": 0.26785699999999935
        },
        {
          "name": "C#2",
          "midi": 37,
          "time": 11.249993999999996,
          "velocity": 0.7874015748031497,
          "duration": 0.26785699999999935
        },
        {
          "name": "C2",
          "midi": 36,
          "time": 11.785707999999994,
          "velocity": 0.7874015748031497,
          "duration": 0.26785699999999935
        },
        {
          "name": "C#2",
          "midi": 37,
          "time": 12.321421999999993,
          "velocity": 0.7874015748031497,
          "duration": 0.26785699999999935
        },
        {
          "name": "C2",
          "midi": 36,
          "time": 12.857135999999992,
          "velocity": 0.7874015748031497,
          "duration": 0.26785699999999935
        },
        {
          "name": "C#2",
          "midi": 37,
          "time": 13.39284999999999,
          "velocity": 0.7874015748031497,
          "duration": 0.26785699999999935
        },
        {
          "name": "C2",
          "midi": 36,
          "time": 13.66070699999999,
          "velocity": 0.7874015748031497,
          "duration": 0.26785699999999935
        },
        {
          "name": "C2",
          "midi": 36,
          "time": 13.928563999999989,
          "velocity": 0.7874015748031497,
          "duration": 0.26785699999999935
        },
        {
          "name": "C#2",
          "midi": 37,
          "time": 14.464277999999988,
          "velocity": 0.7874015748031497,
          "duration": 0.26785699999999935
        },
        {
          "name": "C2",
          "midi": 36,
          "time": 14.999991999999986,
          "velocity": 0.7874015748031497,
          "duration": 0.26785699999999935
        },
        {
          "name": "C#2",
          "midi": 37,
          "time": 15.535705999999985,
          "velocity": 0.7874015748031497,
          "duration": 0.26785699999999935
        },
        {
          "name": "C2",
          "midi": 36,
          "time": 16.071419999999986,
          "velocity": 0.7874015748031497,
          "duration": 0.26785699999999935
        },
        {
          "name": "C#2",
          "midi": 37,
          "time": 16.607133999999984,
          "velocity": 0.7874015748031497,
          "duration": 0.26785699999999935
        },
        {
          "name": "C2",
          "midi": 36,
          "time": 17.142847999999983,
          "velocity": 0.7874015748031497,
          "duration": 0.26785699999999935
        },
        {
          "name": "C#2",
          "midi": 37,
          "time": 17.67856199999998,
          "velocity": 0.7874015748031497,
          "duration": 0.26785699999999935
        },
        {
          "name": "C2",
          "midi": 36,
          "time": 17.94641899999998,
          "velocity": 0.7874015748031497,
          "duration": 0.26785699999999935
        },
        {
          "name": "C2",
          "midi": 36,
          "time": 18.21427599999998,
          "velocity": 0.7874015748031497,
          "duration": 0.26785699999999935
        },
        {
          "name": "C#2",
          "midi": 37,
          "time": 18.74998999999998,
          "velocity": 0.7874015748031497,
          "duration": 0.26785699999999935
        },
        {
          "name": "C2",
          "midi": 36,
          "time": 19.285703999999978,
          "velocity": 0.7874015748031497,
          "duration": 0.26785699999999935
        },
        {
          "name": "C#2",
          "midi": 37,
          "time": 19.821417999999976,
          "velocity": 0.7874015748031497,
          "duration": 0.26785699999999935
        },
        {
          "name": "C2",
          "midi": 36,
          "time": 20.357131999999975,
          "velocity": 0.7874015748031497,
          "duration": 0.26785699999999935
        },
        {
          "name": "D#2",
          "midi": 39,
          "time": 20.624988999999974,
          "velocity": 0.7874015748031497,
          "duration": 0.8035710000000016
        },
        {
          "name": "C#2",
          "midi": 37,
          "time": 21.428559999999976,
          "velocity": 0.7874015748031497,
          "duration": 0.6696424999999984
        },
        {
          "name": "C2",
          "midi": 36,
          "time": 22.098202499999974,
          "velocity": 0.7874015748031497,
          "duration": 3.6160694999999983
        },
        {
          "name": "C2",
          "midi": 36,
          "time": 25.714271999999973,
          "velocity": 0.7874015748031497,
          "duration": 0.26785699999999935
        },
        {
          "name": "C#2",
          "midi": 37,
          "time": 26.24998599999997,
          "velocity": 0.7874015748031497,
          "duration": 0.26785699999999935
        },
        {
          "name": "C2",
          "midi": 36,
          "time": 26.51784299999997,
          "velocity": 0.7874015748031497,
          "duration": 0.26785699999999935
        },
        {
          "name": "C2",
          "midi": 36,
          "time": 26.78569999999997,
          "velocity": 0.7874015748031497,
          "duration": 0.26785699999999935
        },
        {
          "name": "D#2",
          "midi": 39,
          "time": 27.05355699999997,
          "velocity": 0.7874015748031497,
          "duration": 0.26785699999999935
        },
        {
          "name": "C#2",
          "midi": 37,
          "time": 27.32141399999997,
          "velocity": 0.7874015748031497,
          "duration": 0.26785699999999935
        },
        {
          "name": "D#2",
          "midi": 39,
          "time": 27.589270999999968,
          "velocity": 0.7874015748031497,
          "duration": 0.26785699999999935
        },
        {
          "name": "C2",
          "midi": 36,
          "time": 27.857127999999967,
          "velocity": 0.7874015748031497,
          "duration": 0.26785699999999935
        },
        {
          "name": "C#2",
          "midi": 37,
          "time": 28.392841999999966,
          "velocity": 0.7874015748031497,
          "duration": 0.26785699999999935
        },
        {
          "name": "C2",
          "midi": 36,
          "time": 28.660698999999966,
          "velocity": 0.7874015748031497,
          "duration": 0.26785699999999935
        },
        {
          "name": "C2",
          "midi": 36,
          "time": 28.928555999999965,
          "velocity": 0.7874015748031497,
          "duration": 0.26785699999999935
        },
        {
          "name": "D#2",
          "midi": 39,
          "time": 29.196412999999964,
          "velocity": 0.7874015748031497,
          "duration": 0.26785699999999935
        },
        {
          "name": "C#2",
          "midi": 37,
          "time": 29.464269999999964,
          "velocity": 0.7874015748031497,
          "duration": 0.26785699999999935
        },
        {
          "name": "D#2",
          "midi": 39,
          "time": 29.732126999999963,
          "velocity": 0.7874015748031497,
          "duration": 0.26785699999999935
        },
        {
          "name": "C2",
          "midi": 36,
          "time": 29.999983999999962,
          "velocity": 0.7874015748031497,
          "duration": 0.26785699999999935
        },
        {
          "name": "C#2",
          "midi": 37,
          "time": 30.53569799999996,
          "velocity": 0.7874015748031497,
          "duration": 0.26785699999999935
        },
        {
          "name": "C2",
          "midi": 36,
          "time": 30.80355499999996,
          "velocity": 0.7874015748031497,
          "duration": 0.26785699999999935
        },
        {
          "name": "C2",
          "midi": 36,
          "time": 31.07141199999996,
          "velocity": 0.7874015748031497,
          "duration": 0.26785699999999935
        },
        {
          "name": "D#2",
          "midi": 39,
          "time": 31.33926899999996,
          "velocity": 0.7874015748031497,
          "duration": 0.26785699999999935
        },
        {
          "name": "C#2",
          "midi": 37,
          "time": 31.60712599999996,
          "velocity": 0.7874015748031497,
          "duration": 0.26785699999999935
        },
        {
          "name": "D#2",
          "midi": 39,
          "time": 31.874982999999958,
          "velocity": 0.7874015748031497,
          "duration": 0.26785699999999935
        },
        {
          "name": "C2",
          "midi": 36,
          "time": 32.14283999999996,
          "velocity": 0.7874015748031497,
          "duration": 0.26785699999999935
        },
        {
          "name": "C#2",
          "midi": 37,
          "time": 32.678553999999956,
          "velocity": 0.7874015748031497,
          "duration": 0.26785699999999935
        },
        {
          "name": "C2",
          "midi": 36,
          "time": 32.946410999999955,
          "velocity": 0.7874015748031497,
          "duration": 0.26785699999999935
        },
        {
          "name": "C2",
          "midi": 36,
          "time": 33.214267999999954,
          "velocity": 0.7874015748031497,
          "duration": 0.26785699999999935
        },
        {
          "name": "D#2",
          "midi": 39,
          "time": 33.482124999999954,
          "velocity": 0.7874015748031497,
          "duration": 0.26785699999999935
        },
        {
          "name": "C#2",
          "midi": 37,
          "time": 33.74998199999995,
          "velocity": 0.7874015748031497,
          "duration": 0.26785699999999935
        },
        {
          "name": "D#2",
          "midi": 39,
          "time": 34.01783899999995,
          "velocity": 0.7874015748031497,
          "duration": 0.26785699999999935
        },
        {
          "name": "C2",
          "midi": 36,
          "time": 34.28569599999995,
          "velocity": 0.7874015748031497,
          "duration": 0.26785699999999935
        },
        {
          "name": "C#2",
          "midi": 37,
          "time": 34.82140999999995,
          "velocity": 0.7874015748031497,
          "duration": 0.26785699999999935
        },
        {
          "name": "C2",
          "midi": 36,
          "time": 35.08926699999995,
          "velocity": 0.7874015748031497,
          "duration": 0.26785699999999935
        },
        {
          "name": "C2",
          "midi": 36,
          "time": 35.35712399999995,
          "velocity": 0.7874015748031497,
          "duration": 0.26785699999999935
        },
        {
          "name": "D#2",
          "midi": 39,
          "time": 35.62498099999995,
          "velocity": 0.7874015748031497,
          "duration": 0.26785699999999935
        },
        {
          "name": "C#2",
          "midi": 37,
          "time": 35.89283799999995,
          "velocity": 0.7874015748031497,
          "duration": 0.26785699999999935
        },
        {
          "name": "D#2",
          "midi": 39,
          "time": 36.16069499999995,
          "velocity": 0.7874015748031497,
          "duration": 0.26785699999999935
        },
        {
          "name": "C2",
          "midi": 36,
          "time": 36.42855199999995,
          "velocity": 0.7874015748031497,
          "duration": 0.26785699999999935
        },
        {
          "name": "C#2",
          "midi": 37,
          "time": 36.964265999999945,
          "velocity": 0.7874015748031497,
          "duration": 0.26785699999999935
        },
        {
          "name": "C2",
          "midi": 36,
          "time": 37.232122999999945,
          "velocity": 0.7874015748031497,
          "duration": 0.26785699999999935
        },
        {
          "name": "C2",
          "midi": 36,
          "time": 37.499979999999944,
          "velocity": 0.7874015748031497,
          "duration": 0.26785699999999935
        },
        {
          "name": "D#2",
          "midi": 39,
          "time": 37.76783699999994,
          "velocity": 0.7874015748031497,
          "duration": 0.26785699999999935
        },
        {
          "name": "C#2",
          "midi": 37,
          "time": 38.03569399999994,
          "velocity": 0.7874015748031497,
          "duration": 0.26785699999999935
        },
        {
          "name": "D#2",
          "midi": 39,
          "time": 38.30355099999994,
          "velocity": 0.7874015748031497,
          "duration": 0.26785699999999935
        },
        {
          "name": "C2",
          "midi": 36,
          "time": 38.57140799999994,
          "velocity": 0.7874015748031497,
          "duration": 0.26785699999999935
        },
        {
          "name": "C#2",
          "midi": 37,
          "time": 39.10712199999994,
          "velocity": 0.7874015748031497,
          "duration": 0.26785699999999935
        },
        {
          "name": "C2",
          "midi": 36,
          "time": 39.37497899999994,
          "velocity": 0.7874015748031497,
          "duration": 0.26785699999999935
        },
        {
          "name": "C2",
          "midi": 36,
          "time": 39.64283599999994,
          "velocity": 0.7874015748031497,
          "duration": 0.26785699999999935
        },
        {
          "name": "D#2",
          "midi": 39,
          "time": 39.91069299999994,
          "velocity": 0.7874015748031497,
          "duration": 0.26785699999999935
        },
        {
          "name": "C#2",
          "midi": 37,
          "time": 40.17854999999994,
          "velocity": 0.7874015748031497,
          "duration": 0.26785699999999935
        },
        {
          "name": "D#2",
          "midi": 39,
          "time": 40.44640699999994,
          "velocity": 0.7874015748031497,
          "duration": 0.26785699999999935
        },
        {
          "name": "C2",
          "midi": 36,
          "time": 40.714263999999936,
          "velocity": 0.7874015748031497,
          "duration": 0.26785699999999935
        },
        {
          "name": "C#2",
          "midi": 37,
          "time": 41.249977999999935,
          "velocity": 0.7874015748031497,
          "duration": 0.26785699999999935
        },
        {
          "name": "C2",
          "midi": 36,
          "time": 41.517834999999934,
          "velocity": 0.7874015748031497,
          "duration": 0.26785699999999935
        },
        {
          "name": "C2",
          "midi": 36,
          "time": 41.78569199999993,
          "velocity": 0.7874015748031497,
          "duration": 0.26785699999999935
        },
        {
          "name": "D#2",
          "midi": 39,
          "time": 42.05354899999993,
          "velocity": 0.7874015748031497,
          "duration": 0.26785699999999935
        },
        {
          "name": "C#2",
          "midi": 37,
          "time": 42.32140599999993,
          "velocity": 0.7874015748031497,
          "duration": 0.26785699999999935
        },
        {
          "name": "D#2",
          "midi": 39,
          "time": 42.58926299999993,
          "velocity": 0.7874015748031497,
          "duration": 0.26785699999999935
        },
        {
          "name": "C2",
          "midi": 36,
          "time": 42.85711999999993,
          "velocity": 0.7874015748031497,
          "duration": 0.26785699999999935
        },
        {
          "name": "C#2",
          "midi": 37,
          "time": 43.39283399999993,
          "velocity": 0.7874015748031497,
          "duration": 0.26785699999999935
        },
        {
          "name": "C2",
          "midi": 36,
          "time": 43.66069099999993,
          "velocity": 0.7874015748031497,
          "duration": 0.26785699999999935
        },
        {
          "name": "C2",
          "midi": 36,
          "time": 43.92854799999993,
          "velocity": 0.7874015748031497,
          "duration": 0.26785699999999935
        },
        {
          "name": "D#2",
          "midi": 39,
          "time": 44.19640499999993,
          "velocity": 0.7874015748031497,
          "duration": 0.26785699999999935
        },
        {
          "name": "C#2",
          "midi": 37,
          "time": 44.46426199999993,
          "velocity": 0.7874015748031497,
          "duration": 0.26785699999999935
        },
        {
          "name": "D#2",
          "midi": 39,
          "time": 44.732118999999926,
          "velocity": 0.7874015748031497,
          "duration": 0.26785699999999935
        },
        {
          "name": "C2",
          "midi": 36,
          "time": 44.999975999999926,
          "velocity": 0.7874015748031497,
          "duration": 0.26785699999999935
        },
        {
          "name": "C#2",
          "midi": 37,
          "time": 45.535689999999924,
          "velocity": 0.7874015748031497,
          "duration": 0.26785699999999935
        },
        {
          "name": "C2",
          "midi": 36,
          "time": 45.803546999999924,
          "velocity": 0.7874015748031497,
          "duration": 0.26785699999999935
        },
        {
          "name": "C2",
          "midi": 36,
          "time": 46.07140399999992,
          "velocity": 0.7874015748031497,
          "duration": 0.26785699999999935
        },
        {
          "name": "D#2",
          "midi": 39,
          "time": 46.33926099999992,
          "velocity": 0.7874015748031497,
          "duration": 0.26785699999999935
        },
        {
          "name": "C#2",
          "midi": 37,
          "time": 46.60711799999992,
          "velocity": 0.7874015748031497,
          "duration": 0.26785699999999935
        },
        {
          "name": "D#2",
          "midi": 39,
          "time": 46.87497499999992,
          "velocity": 0.7874015748031497,
          "duration": 0.26785699999999935
        },
        {
          "name": "C2",
          "midi": 36,
          "time": 47.14283199999992,
          "velocity": 0.7874015748031497,
          "duration": 0.26785699999999935
        },
        {
          "name": "C#2",
          "midi": 37,
          "time": 47.67854599999992,
          "velocity": 0.7874015748031497,
          "duration": 0.26785699999999935
        },
        {
          "name": "C2",
          "midi": 36,
          "time": 47.94640299999992,
          "velocity": 0.7874015748031497,
          "duration": 0.26785699999999935
        },
        {
          "name": "C2",
          "midi": 36,
          "time": 48.21425999999992,
          "velocity": 0.7874015748031497,
          "duration": 0.26785699999999935
        },
        {
          "name": "D#2",
          "midi": 39,
          "time": 48.48211699999992,
          "velocity": 0.7874015748031497,
          "duration": 0.26785699999999935
        },
        {
          "name": "C#2",
          "midi": 37,
          "time": 48.749973999999916,
          "velocity": 0.7874015748031497,
          "duration": 0.26785699999999935
        },
        {
          "name": "D#2",
          "midi": 39,
          "time": 49.017830999999916,
          "velocity": 0.7874015748031497,
          "duration": 0.26785699999999935
        },
        {
          "name": "C2",
          "midi": 36,
          "time": 49.285687999999915,
          "velocity": 0.7874015748031497,
          "duration": 0.26785699999999935
        },
        {
          "name": "C#2",
          "midi": 37,
          "time": 49.821401999999914,
          "velocity": 0.7874015748031497,
          "duration": 0.26785699999999935
        },
        {
          "name": "C2",
          "midi": 36,
          "time": 50.08925899999991,
          "velocity": 0.7874015748031497,
          "duration": 0.26785699999999935
        },
        {
          "name": "C2",
          "midi": 36,
          "time": 50.35711599999991,
          "velocity": 0.7874015748031497,
          "duration": 0.26785699999999935
        },
        {
          "name": "D#2",
          "midi": 39,
          "time": 50.62497299999991,
          "velocity": 0.7874015748031497,
          "duration": 0.26785699999999935
        },
        {
          "name": "C#2",
          "midi": 37,
          "time": 50.89282999999991,
          "velocity": 0.7874015748031497,
          "duration": 0.26785699999999935
        },
        {
          "name": "D#2",
          "midi": 39,
          "time": 51.16068699999991,
          "velocity": 0.7874015748031497,
          "duration": 0.26785699999999935
        },
        {
          "name": "C2",
          "midi": 36,
          "time": 51.42854399999991,
          "velocity": 0.7874015748031497,
          "duration": 0.26785699999999935
        },
        {
          "name": "C#2",
          "midi": 37,
          "time": 51.96425799999991,
          "velocity": 0.7874015748031497,
          "duration": 0.26785699999999935
        },
        {
          "name": "C2",
          "midi": 36,
          "time": 52.23211499999991,
          "velocity": 0.7874015748031497,
          "duration": 0.26785699999999935
        },
        {
          "name": "C2",
          "midi": 36,
          "time": 52.49997199999991,
          "velocity": 0.7874015748031497,
          "duration": 0.26785699999999935
        },
        {
          "name": "D#2",
          "midi": 39,
          "time": 52.76782899999991,
          "velocity": 0.7874015748031497,
          "duration": 0.26785699999999935
        },
        {
          "name": "C#2",
          "midi": 37,
          "time": 53.035685999999906,
          "velocity": 0.7874015748031497,
          "duration": 0.26785699999999935
        },
        {
          "name": "D#2",
          "midi": 39,
          "time": 53.303542999999905,
          "velocity": 0.7874015748031497,
          "duration": 0.26785699999999935
        },
        {
          "name": "C2",
          "midi": 36,
          "time": 53.571399999999905,
          "velocity": 0.7874015748031497,
          "duration": 0.26785699999999935
        },
        {
          "name": "C#2",
          "midi": 37,
          "time": 54.1071139999999,
          "velocity": 0.7874015748031497,
          "duration": 0.26785699999999935
        },
        {
          "name": "C2",
          "midi": 36,
          "time": 54.3749709999999,
          "velocity": 0.7874015748031497,
          "duration": 0.26785699999999935
        },
        {
          "name": "C2",
          "midi": 36,
          "time": 54.6428279999999,
          "velocity": 0.7874015748031497,
          "duration": 0.26785699999999935
        },
        {
          "name": "D#2",
          "midi": 39,
          "time": 54.9106849999999,
          "velocity": 0.7874015748031497,
          "duration": 0.803570999999998
        },
        {
          "name": "C#2",
          "midi": 37,
          "time": 55.7142559999999,
          "velocity": 0.7874015748031497,
          "duration": 0.6696425000000019
        },
        {
          "name": "C2",
          "midi": 36,
          "time": 56.3838984999999,
          "velocity": 0.7874015748031497,
          "duration": 3.616069500000002
        },
        {
          "name": "C2",
          "midi": 36,
          "time": 59.9999679999999,
          "velocity": 0.7874015748031497,
          "duration": 0.13392850000000323
        },
        {
          "name": "D2",
          "midi": 38,
          "time": 60.26782499999991,
          "velocity": 0.7874015748031497,
          "duration": 0.13392850000000323
        },
        {
          "name": "C#2",
          "midi": 37,
          "time": 60.535681999999916,
          "velocity": 0.7874015748031497,
          "duration": 0.13392850000000323
        },
        {
          "name": "D2",
          "midi": 38,
          "time": 60.80353899999992,
          "velocity": 0.7874015748031497,
          "duration": 0.13392850000000323
        },
        {
          "name": "C2",
          "midi": 36,
          "time": 60.937467499999926,
          "velocity": 0.7874015748031497,
          "duration": 0.13392850000000323
        },
        {
          "name": "C2",
          "midi": 36,
          "time": 61.07139599999993,
          "velocity": 0.7874015748031497,
          "duration": 0.13392850000000323
        },
        {
          "name": "D2",
          "midi": 38,
          "time": 61.339252999999935,
          "velocity": 0.7874015748031497,
          "duration": 0.13392850000000323
        },
        {
          "name": "C#2",
          "midi": 37,
          "time": 61.60710999999994,
          "velocity": 0.7874015748031497,
          "duration": 0.13392850000000323
        },
        {
          "name": "D2",
          "midi": 38,
          "time": 61.87496699999995,
          "velocity": 0.7874015748031497,
          "duration": 0.13392850000000323
        },
        {
          "name": "C2",
          "midi": 36,
          "time": 62.142823999999955,
          "velocity": 0.7874015748031497,
          "duration": 0.13392850000000323
        },
        {
          "name": "D2",
          "midi": 38,
          "time": 62.41068099999996,
          "velocity": 0.7874015748031497,
          "duration": 0.13392850000000323
        },
        {
          "name": "C#2",
          "midi": 37,
          "time": 62.67853799999997,
          "velocity": 0.7874015748031497,
          "duration": 0.13392850000000323
        },
        {
          "name": "D2",
          "midi": 38,
          "time": 62.946394999999974,
          "velocity": 0.7874015748031497,
          "duration": 0.13392850000000323
        },
        {
          "name": "C2",
          "midi": 36,
          "time": 63.08032349999998,
          "velocity": 0.7874015748031497,
          "duration": 0.13392850000000323
        },
        {
          "name": "C2",
          "midi": 36,
          "time": 63.21425199999998,
          "velocity": 0.7874015748031497,
          "duration": 0.13392850000000323
        },
        {
          "name": "D2",
          "midi": 38,
          "time": 63.48210899999999,
          "velocity": 0.7874015748031497,
          "duration": 0.13392850000000323
        },
        {
          "name": "C#2",
          "midi": 37,
          "time": 63.74996599999999,
          "velocity": 0.7874015748031497,
          "duration": 0.13392850000000323
        },
        {
          "name": "D2",
          "midi": 38,
          "time": 64.01782299999999,
          "velocity": 0.7874015748031497,
          "duration": 0.13392849999999612
        },
        {
          "name": "C2",
          "midi": 36,
          "time": 64.28567999999999,
          "velocity": 0.7874015748031497,
          "duration": 0.13392849999999612
        },
        {
          "name": "D2",
          "midi": 38,
          "time": 64.55353699999998,
          "velocity": 0.7874015748031497,
          "duration": 0.13392849999999612
        },
        {
          "name": "C#2",
          "midi": 37,
          "time": 64.82139399999997,
          "velocity": 0.7874015748031497,
          "duration": 0.13392849999999612
        },
        {
          "name": "D2",
          "midi": 38,
          "time": 65.08925099999996,
          "velocity": 0.7874015748031497,
          "duration": 0.13392849999999612
        },
        {
          "name": "C2",
          "midi": 36,
          "time": 65.22317949999996,
          "velocity": 0.7874015748031497,
          "duration": 0.13392849999999612
        },
        {
          "name": "C2",
          "midi": 36,
          "time": 65.35710799999995,
          "velocity": 0.7874015748031497,
          "duration": 0.13392849999999612
        },
        {
          "name": "D2",
          "midi": 38,
          "time": 65.62496499999995,
          "velocity": 0.7874015748031497,
          "duration": 0.13392849999999612
        },
        {
          "name": "C#2",
          "midi": 37,
          "time": 65.89282199999994,
          "velocity": 0.7874015748031497,
          "duration": 0.13392849999999612
        },
        {
          "name": "D2",
          "midi": 38,
          "time": 66.16067899999993,
          "velocity": 0.7874015748031497,
          "duration": 0.13392849999999612
        },
        {
          "name": "C2",
          "midi": 36,
          "time": 66.42853599999992,
          "velocity": 0.7874015748031497,
          "duration": 0.13392849999999612
        },
        {
          "name": "D2",
          "midi": 38,
          "time": 66.69639299999992,
          "velocity": 0.7874015748031497,
          "duration": 0.13392849999999612
        },
        {
          "name": "C#2",
          "midi": 37,
          "time": 66.96424999999991,
          "velocity": 0.7874015748031497,
          "duration": 0.13392849999999612
        },
        {
          "name": "D2",
          "midi": 38,
          "time": 67.2321069999999,
          "velocity": 0.7874015748031497,
          "duration": 0.13392849999999612
        },
        {
          "name": "C2",
          "midi": 36,
          "time": 67.3660354999999,
          "velocity": 0.7874015748031497,
          "duration": 0.13392849999999612
        },
        {
          "name": "C2",
          "midi": 36,
          "time": 67.49996399999989,
          "velocity": 0.7874015748031497,
          "duration": 0.13392849999999612
        },
        {
          "name": "D2",
          "midi": 38,
          "time": 67.76782099999988,
          "velocity": 0.7874015748031497,
          "duration": 0.13392849999999612
        },
        {
          "name": "C#2",
          "midi": 37,
          "time": 68.03567799999988,
          "velocity": 0.7874015748031497,
          "duration": 0.13392849999999612
        },
        {
          "name": "D2",
          "midi": 38,
          "time": 68.30353499999987,
          "velocity": 0.7874015748031497,
          "duration": 0.13392849999999612
        },
        {
          "name": "C2",
          "midi": 36,
          "time": 68.57139199999986,
          "velocity": 0.7874015748031497,
          "duration": 0.13392849999999612
        },
        {
          "name": "D2",
          "midi": 38,
          "time": 68.83924899999985,
          "velocity": 0.7874015748031497,
          "duration": 0.13392849999999612
        },
        {
          "name": "C#2",
          "midi": 37,
          "time": 69.10710599999985,
          "velocity": 0.7874015748031497,
          "duration": 0.13392849999999612
        },
        {
          "name": "D2",
          "midi": 38,
          "time": 69.37496299999984,
          "velocity": 0.7874015748031497,
          "duration": 0.13392849999999612
        },
        {
          "name": "C2",
          "midi": 36,
          "time": 69.50889149999983,
          "velocity": 0.7874015748031497,
          "duration": 0.13392849999999612
        },
        {
          "name": "C2",
          "midi": 36,
          "time": 69.64281999999983,
          "velocity": 0.7874015748031497,
          "duration": 0.13392849999999612
        },
        {
          "name": "D2",
          "midi": 38,
          "time": 69.91067699999982,
          "velocity": 0.7874015748031497,
          "duration": 0.13392849999999612
        },
        {
          "name": "C#2",
          "midi": 37,
          "time": 70.17853399999981,
          "velocity": 0.7874015748031497,
          "duration": 0.13392849999999612
        },
        {
          "name": "D2",
          "midi": 38,
          "time": 70.4463909999998,
          "velocity": 0.7874015748031497,
          "duration": 0.13392849999999612
        },
        {
          "name": "C2",
          "midi": 36,
          "time": 70.7142479999998,
          "velocity": 0.7874015748031497,
          "duration": 0.26785700000000645
        },
        {
          "name": "C#2",
          "midi": 37,
          "time": 71.24996199999981,
          "velocity": 0.7874015748031497,
          "duration": 0.26785700000000645
        },
        {
          "name": "C2",
          "midi": 36,
          "time": 71.78567599999982,
          "velocity": 0.7874015748031497,
          "duration": 0.26785700000000645
        },
        {
          "name": "C#2",
          "midi": 37,
          "time": 72.32138999999984,
          "velocity": 0.7874015748031497,
          "duration": 0.26785700000000645
        },
        {
          "name": "C2",
          "midi": 36,
          "time": 72.85710399999985,
          "velocity": 0.7874015748031497,
          "duration": 0.26785700000000645
        },
        {
          "name": "C#2",
          "midi": 37,
          "time": 73.39281799999986,
          "velocity": 0.7874015748031497,
          "duration": 0.26785700000000645
        },
        {
          "name": "C2",
          "midi": 36,
          "time": 73.66067499999987,
          "velocity": 0.7874015748031497,
          "duration": 0.26785700000000645
        },
        {
          "name": "C2",
          "midi": 36,
          "time": 73.92853199999988,
          "velocity": 0.7874015748031497,
          "duration": 0.26785700000000645
        },
        {
          "name": "D2",
          "midi": 38,
          "time": 74.46424599999989,
          "velocity": 0.7874015748031497,
          "duration": 0.26785700000000645
        },
        {
          "name": "C2",
          "midi": 36,
          "time": 74.9999599999999,
          "velocity": 0.7874015748031497,
          "duration": 0.26785700000000645
        },
        {
          "name": "C#2",
          "midi": 37,
          "time": 75.53567399999991,
          "velocity": 0.7874015748031497,
          "duration": 0.26785700000000645
        },
        {
          "name": "C2",
          "midi": 36,
          "time": 75.80353099999992,
          "velocity": 0.7874015748031497,
          "duration": 0.26785700000000645
        },
        {
          "name": "C2",
          "midi": 36,
          "time": 76.07138799999993,
          "velocity": 0.7874015748031497,
          "duration": 0.26785700000000645
        },
        {
          "name": "D2",
          "midi": 38,
          "time": 76.60710199999994,
          "velocity": 0.7874015748031497,
          "duration": 0.26785700000000645
        },
        {
          "name": "C2",
          "midi": 36,
          "time": 77.14281599999995,
          "velocity": 0.7874015748031497,
          "duration": 0.26785700000000645
        },
        {
          "name": "D#2",
          "midi": 39,
          "time": 77.67852999999997,
          "velocity": 0.7874015748031497,
          "duration": 0.26785700000000645
        },
        {
          "name": "C2",
          "midi": 36,
          "time": 77.94638699999997,
          "velocity": 0.7874015748031497,
          "duration": 0.26785700000000645
        },
        {
          "name": "C2",
          "midi": 36,
          "time": 78.21424399999998,
          "velocity": 0.7874015748031497,
          "duration": 0.26785700000000645
        },
        {
          "name": "C#2",
          "midi": 37,
          "time": 78.74995799999999,
          "velocity": 0.7874015748031497,
          "duration": 0.26785700000000645
        },
        {
          "name": "C2",
          "midi": 36,
          "time": 79.285672,
          "velocity": 0.7874015748031497,
          "duration": 0.26785700000000645
        },
        {
          "name": "C#2",
          "midi": 37,
          "time": 79.82138600000002,
          "velocity": 0.7874015748031497,
          "duration": 0.26785700000000645
        },
        {
          "name": "C2",
          "midi": 36,
          "time": 80.08924300000002,
          "velocity": 0.7874015748031497,
          "duration": 0.26785700000000645
        },
        {
          "name": "C2",
          "midi": 36,
          "time": 80.35710000000003,
          "velocity": 0.7874015748031497,
          "duration": 0.26785700000000645
        },
        {
          "name": "D2",
          "midi": 38,
          "time": 80.89281400000004,
          "velocity": 0.7874015748031497,
          "duration": 0.26785700000000645
        },
        {
          "name": "C2",
          "midi": 36,
          "time": 81.42852800000006,
          "velocity": 0.7874015748031497,
          "duration": 0.26785700000000645
        },
        {
          "name": "C#2",
          "midi": 37,
          "time": 81.96424200000007,
          "velocity": 0.7874015748031497,
          "duration": 0.26785700000000645
        },
        {
          "name": "C2",
          "midi": 36,
          "time": 82.23209900000008,
          "velocity": 0.7874015748031497,
          "duration": 0.26785700000000645
        },
        {
          "name": "C2",
          "midi": 36,
          "time": 82.49995600000008,
          "velocity": 0.7874015748031497,
          "duration": 0.26785700000000645
        },
        {
          "name": "D2",
          "midi": 38,
          "time": 83.0356700000001,
          "velocity": 0.7874015748031497,
          "duration": 0.26785700000000645
        },
        {
          "name": "C2",
          "midi": 36,
          "time": 83.57138400000011,
          "velocity": 0.7874015748031497,
          "duration": 0.26785700000000645
        },
        {
          "name": "C#2",
          "midi": 37,
          "time": 84.10709800000012,
          "velocity": 0.7874015748031497,
          "duration": 0.26785700000000645
        },
        {
          "name": "C2",
          "midi": 36,
          "time": 84.37495500000013,
          "velocity": 0.7874015748031497,
          "duration": 0.26785700000000645
        },
        {
          "name": "C2",
          "midi": 36,
          "time": 84.64281200000013,
          "velocity": 0.7874015748031497,
          "duration": 0.26785700000000645
        },
        {
          "name": "D2",
          "midi": 38,
          "time": 85.17852600000015,
          "velocity": 0.7874015748031497,
          "duration": 0.26785700000000645
        },
        {
          "name": "C2",
          "midi": 36,
          "time": 85.71424000000016,
          "velocity": 0.7874015748031497,
          "duration": 0.26785700000000645
        },
        {
          "name": "C#2",
          "midi": 37,
          "time": 86.24995400000017,
          "velocity": 0.7874015748031497,
          "duration": 0.26785700000000645
        },
        {
          "name": "C2",
          "midi": 36,
          "time": 86.51781100000018,
          "velocity": 0.7874015748031497,
          "duration": 0.26785700000000645
        },
        {
          "name": "C2",
          "midi": 36,
          "time": 86.78566800000019,
          "velocity": 0.7874015748031497,
          "duration": 0.26785700000000645
        },
        {
          "name": "D2",
          "midi": 38,
          "time": 87.3213820000002,
          "velocity": 0.7874015748031497,
          "duration": 0.26785700000000645
        },
        {
          "name": "C2",
          "midi": 36,
          "time": 87.85709600000021,
          "velocity": 0.7874015748031497,
          "duration": 0.26785700000000645
        },
        {
          "name": "C#2",
          "midi": 37,
          "time": 88.39281000000022,
          "velocity": 0.7874015748031497,
          "duration": 0.26785700000000645
        },
        {
          "name": "C2",
          "midi": 36,
          "time": 88.66066700000023,
          "velocity": 0.7874015748031497,
          "duration": 0.26785700000000645
        },
        {
          "name": "C2",
          "midi": 36,
          "time": 88.92852400000024,
          "velocity": 0.7874015748031497,
          "duration": 0.26785700000000645
        },
        {
          "name": "D#2",
          "midi": 39,
          "time": 89.19638100000024,
          "velocity": 0.7874015748031497,
          "duration": 0.8035710000000051
        },
        {
          "name": "C#2",
          "midi": 37,
          "time": 89.99995200000025,
          "velocity": 0.7874015748031497,
          "duration": 0.6696424999999948
        },
        {
          "name": "C2",
          "midi": 36,
          "time": 90.66959450000024,
          "velocity": 0.7874015748031497,
          "duration": 3.6160694999999947
        },
        {
          "name": "C2",
          "midi": 36,
          "time": 94.28566400000024,
          "velocity": 0.7874015748031497,
          "duration": 0.13392849999999612
        },
        {
          "name": "D#2",
          "midi": 39,
          "time": 94.55352100000023,
          "velocity": 0.7874015748031497,
          "duration": 0.13392849999999612
        },
        {
          "name": "C#2",
          "midi": 37,
          "time": 94.82137800000022,
          "velocity": 0.7874015748031497,
          "duration": 0.13392849999999612
        },
        {
          "name": "D#2",
          "midi": 39,
          "time": 95.08923500000022,
          "velocity": 0.7874015748031497,
          "duration": 0.13392849999999612
        },
        {
          "name": "C2",
          "midi": 36,
          "time": 95.22316350000021,
          "velocity": 0.7874015748031497,
          "duration": 0.13392849999999612
        },
        {
          "name": "C2",
          "midi": 36,
          "time": 95.35709200000021,
          "velocity": 0.7874015748031497,
          "duration": 0.13392849999999612
        },
        {
          "name": "D#2",
          "midi": 39,
          "time": 95.6249490000002,
          "velocity": 0.7874015748031497,
          "duration": 0.13392849999999612
        },
        {
          "name": "C#2",
          "midi": 37,
          "time": 95.89280600000019,
          "velocity": 0.7874015748031497,
          "duration": 0.13392849999999612
        },
        {
          "name": "D#2",
          "midi": 39,
          "time": 96.16066300000018,
          "velocity": 0.7874015748031497,
          "duration": 0.13392849999999612
        },
        {
          "name": "C2",
          "midi": 36,
          "time": 96.42852000000018,
          "velocity": 0.7874015748031497,
          "duration": 0.13392849999999612
        },
        {
          "name": "D#2",
          "midi": 39,
          "time": 96.69637700000017,
          "velocity": 0.7874015748031497,
          "duration": 0.13392849999999612
        },
        {
          "name": "C#2",
          "midi": 37,
          "time": 96.96423400000016,
          "velocity": 0.7874015748031497,
          "duration": 0.13392849999999612
        },
        {
          "name": "D#2",
          "midi": 39,
          "time": 97.23209100000015,
          "velocity": 0.7874015748031497,
          "duration": 0.13392849999999612
        },
        {
          "name": "C2",
          "midi": 36,
          "time": 97.36601950000015,
          "velocity": 0.7874015748031497,
          "duration": 0.13392849999999612
        },
        {
          "name": "C2",
          "midi": 36,
          "time": 97.49994800000015,
          "velocity": 0.7874015748031497,
          "duration": 0.13392849999999612
        },
        {
          "name": "D#2",
          "midi": 39,
          "time": 97.76780500000014,
          "velocity": 0.7874015748031497,
          "duration": 0.13392849999999612
        },
        {
          "name": "C#2",
          "midi": 37,
          "time": 98.03566200000013,
          "velocity": 0.7874015748031497,
          "duration": 0.13392849999999612
        },
        {
          "name": "D#2",
          "midi": 39,
          "time": 98.30351900000012,
          "velocity": 0.7874015748031497,
          "duration": 0.13392849999999612
        },
        {
          "name": "C2",
          "midi": 36,
          "time": 98.57137600000011,
          "velocity": 0.7874015748031497,
          "duration": 0.13392849999999612
        },
        {
          "name": "D#2",
          "midi": 39,
          "time": 98.8392330000001,
          "velocity": 0.7874015748031497,
          "duration": 0.13392849999999612
        },
        {
          "name": "C#2",
          "midi": 37,
          "time": 99.1070900000001,
          "velocity": 0.7874015748031497,
          "duration": 0.13392849999999612
        },
        {
          "name": "D#2",
          "midi": 39,
          "time": 99.37494700000009,
          "velocity": 0.7874015748031497,
          "duration": 0.13392849999999612
        },
        {
          "name": "C2",
          "midi": 36,
          "time": 99.50887550000009,
          "velocity": 0.7874015748031497,
          "duration": 0.13392849999999612
        },
        {
          "name": "C2",
          "midi": 36,
          "time": 99.64280400000008,
          "velocity": 0.7874015748031497,
          "duration": 0.13392849999999612
        },
        {
          "name": "D#2",
          "midi": 39,
          "time": 99.91066100000008,
          "velocity": 0.7874015748031497,
          "duration": 0.13392849999999612
        },
        {
          "name": "C#2",
          "midi": 37,
          "time": 100.17851800000007,
          "velocity": 0.7874015748031497,
          "duration": 0.13392849999999612
        },
        {
          "name": "D#2",
          "midi": 39,
          "time": 100.44637500000006,
          "velocity": 0.7874015748031497,
          "duration": 0.13392849999999612
        },
        {
          "name": "C2",
          "midi": 36,
          "time": 100.71423200000005,
          "velocity": 0.7874015748031497,
          "duration": 0.13392849999999612
        },
        {
          "name": "D#2",
          "midi": 39,
          "time": 100.98208900000004,
          "velocity": 0.7874015748031497,
          "duration": 0.13392849999999612
        },
        {
          "name": "C#2",
          "midi": 37,
          "time": 101.24994600000004,
          "velocity": 0.7874015748031497,
          "duration": 0.13392849999999612
        },
        {
          "name": "D#2",
          "midi": 39,
          "time": 101.51780300000003,
          "velocity": 0.7874015748031497,
          "duration": 0.13392849999999612
        },
        {
          "name": "C2",
          "midi": 36,
          "time": 101.65173150000003,
          "velocity": 0.7874015748031497,
          "duration": 0.13392849999999612
        },
        {
          "name": "C2",
          "midi": 36,
          "time": 101.78566000000002,
          "velocity": 0.7874015748031497,
          "duration": 0.13392849999999612
        },
        {
          "name": "D#2",
          "midi": 39,
          "time": 102.05351700000001,
          "velocity": 0.7874015748031497,
          "duration": 0.13392849999999612
        },
        {
          "name": "C#2",
          "midi": 37,
          "time": 102.321374,
          "velocity": 0.7874015748031497,
          "duration": 0.13392849999999612
        },
        {
          "name": "D#2",
          "midi": 39,
          "time": 102.589231,
          "velocity": 0.7874015748031497,
          "duration": 0.13392849999999612
        },
        {
          "name": "C2",
          "midi": 36,
          "time": 102.85708799999999,
          "velocity": 0.7874015748031497,
          "duration": 0.13392849999999612
        },
        {
          "name": "D#2",
          "midi": 39,
          "time": 103.12494499999998,
          "velocity": 0.7874015748031497,
          "duration": 0.13392849999999612
        },
        {
          "name": "C#2",
          "midi": 37,
          "time": 103.39280199999997,
          "velocity": 0.7874015748031497,
          "duration": 0.13392849999999612
        },
        {
          "name": "D#2",
          "midi": 39,
          "time": 103.66065899999997,
          "velocity": 0.7874015748031497,
          "duration": 0.13392849999999612
        },
        {
          "name": "C2",
          "midi": 36,
          "time": 103.79458749999996,
          "velocity": 0.7874015748031497,
          "duration": 0.13392849999999612
        },
        {
          "name": "C2",
          "midi": 36,
          "time": 103.92851599999996,
          "velocity": 0.7874015748031497,
          "duration": 0.13392849999999612
        },
        {
          "name": "D#2",
          "midi": 39,
          "time": 104.19637299999995,
          "velocity": 0.7874015748031497,
          "duration": 0.13392849999999612
        },
        {
          "name": "C#2",
          "midi": 37,
          "time": 104.46422999999994,
          "velocity": 0.7874015748031497,
          "duration": 0.13392849999999612
        },
        {
          "name": "D#2",
          "midi": 39,
          "time": 104.73208699999994,
          "velocity": 0.7874015748031497,
          "duration": 0.13392849999999612
        },
        {
          "name": "C2",
          "midi": 36,
          "time": 104.99994399999993,
          "velocity": 0.7874015748031497,
          "duration": 0.13392849999999612
        },
        {
          "name": "D#2",
          "midi": 39,
          "time": 105.26780099999992,
          "velocity": 0.7874015748031497,
          "duration": 0.13392849999999612
        },
        {
          "name": "C#2",
          "midi": 37,
          "time": 105.53565799999991,
          "velocity": 0.7874015748031497,
          "duration": 0.13392849999999612
        },
        {
          "name": "D#2",
          "midi": 39,
          "time": 105.8035149999999,
          "velocity": 0.7874015748031497,
          "duration": 0.13392849999999612
        },
        {
          "name": "C2",
          "midi": 36,
          "time": 105.9374434999999,
          "velocity": 0.7874015748031497,
          "duration": 0.13392849999999612
        },
        {
          "name": "C2",
          "midi": 36,
          "time": 106.0713719999999,
          "velocity": 0.7874015748031497,
          "duration": 0.13392849999999612
        },
        {
          "name": "D#2",
          "midi": 39,
          "time": 106.33922899999989,
          "velocity": 0.7874015748031497,
          "duration": 0.13392849999999612
        },
        {
          "name": "C#2",
          "midi": 37,
          "time": 106.60708599999988,
          "velocity": 0.7874015748031497,
          "duration": 0.13392849999999612
        },
        {
          "name": "D#2",
          "midi": 39,
          "time": 106.87494299999987,
          "velocity": 0.7874015748031497,
          "duration": 0.13392849999999612
        },
        {
          "name": "C2",
          "midi": 36,
          "time": 107.14279999999987,
          "velocity": 0.7874015748031497,
          "duration": 0.13392849999999612
        },
        {
          "name": "D#2",
          "midi": 39,
          "time": 107.41065699999986,
          "velocity": 0.7874015748031497,
          "duration": 0.13392849999999612
        },
        {
          "name": "C#2",
          "midi": 37,
          "time": 107.67851399999985,
          "velocity": 0.7874015748031497,
          "duration": 0.13392849999999612
        },
        {
          "name": "D#2",
          "midi": 39,
          "time": 107.94637099999984,
          "velocity": 0.7874015748031497,
          "duration": 0.13392849999999612
        },
        {
          "name": "C2",
          "midi": 36,
          "time": 108.08029949999984,
          "velocity": 0.7874015748031497,
          "duration": 0.13392849999999612
        },
        {
          "name": "C2",
          "midi": 36,
          "time": 108.21422799999984,
          "velocity": 0.7874015748031497,
          "duration": 0.13392849999999612
        },
        {
          "name": "D#2",
          "midi": 39,
          "time": 108.48208499999983,
          "velocity": 0.7874015748031497,
          "duration": 0.13392849999999612
        },
        {
          "name": "C#2",
          "midi": 37,
          "time": 108.74994199999982,
          "velocity": 0.7874015748031497,
          "duration": 0.13392849999999612
        },
        {
          "name": "D#2",
          "midi": 39,
          "time": 109.01779899999981,
          "velocity": 0.7874015748031497,
          "duration": 0.13392849999999612
        },
        {
          "name": "C2",
          "midi": 36,
          "time": 109.2856559999998,
          "velocity": 0.7874015748031497,
          "duration": 0.13392849999999612
        },
        {
          "name": "D#2",
          "midi": 39,
          "time": 109.5535129999998,
          "velocity": 0.7874015748031497,
          "duration": 0.13392849999999612
        },
        {
          "name": "C#2",
          "midi": 37,
          "time": 109.82136999999979,
          "velocity": 0.7874015748031497,
          "duration": 0.13392849999999612
        },
        {
          "name": "D#2",
          "midi": 39,
          "time": 110.08922699999978,
          "velocity": 0.7874015748031497,
          "duration": 0.13392849999999612
        },
        {
          "name": "C2",
          "midi": 36,
          "time": 110.22315549999978,
          "velocity": 0.7874015748031497,
          "duration": 0.13392849999999612
        },
        {
          "name": "C2",
          "midi": 36,
          "time": 110.35708399999977,
          "velocity": 0.7874015748031497,
          "duration": 0.13392849999999612
        },
        {
          "name": "D#2",
          "midi": 39,
          "time": 110.62494099999977,
          "velocity": 0.7874015748031497,
          "duration": 0.13392849999999612
        },
        {
          "name": "C#2",
          "midi": 37,
          "time": 110.89279799999976,
          "velocity": 0.7874015748031497,
          "duration": 0.13392849999999612
        },
        {
          "name": "D#2",
          "midi": 39,
          "time": 111.16065499999975,
          "velocity": 0.7874015748031497,
          "duration": 0.13392849999999612
        },
        {
          "name": "C2",
          "midi": 36,
          "time": 111.42851199999974,
          "velocity": 0.7874015748031497,
          "duration": 0.13392849999999612
        },
        {
          "name": "D#2",
          "midi": 39,
          "time": 111.69636899999973,
          "velocity": 0.7874015748031497,
          "duration": 0.13392849999999612
        },
        {
          "name": "C#2",
          "midi": 37,
          "time": 111.96422599999973,
          "velocity": 0.7874015748031497,
          "duration": 0.13392849999999612
        },
        {
          "name": "D#2",
          "midi": 39,
          "time": 112.23208299999972,
          "velocity": 0.7874015748031497,
          "duration": 0.13392849999999612
        },
        {
          "name": "C2",
          "midi": 36,
          "time": 112.36601149999971,
          "velocity": 0.7874015748031497,
          "duration": 0.13392849999999612
        },
        {
          "name": "C2",
          "midi": 36,
          "time": 112.49993999999971,
          "velocity": 0.7874015748031497,
          "duration": 0.13392849999999612
        },
        {
          "name": "D#2",
          "midi": 39,
          "time": 112.7677969999997,
          "velocity": 0.7874015748031497,
          "duration": 0.13392849999999612
        },
        {
          "name": "C#2",
          "midi": 37,
          "time": 113.0356539999997,
          "velocity": 0.7874015748031497,
          "duration": 0.13392849999999612
        },
        {
          "name": "D#2",
          "midi": 39,
          "time": 113.30351099999969,
          "velocity": 0.7874015748031497,
          "duration": 0.13392849999999612
        },
        {
          "name": "C2",
          "midi": 36,
          "time": 113.57136799999968,
          "velocity": 0.7874015748031497,
          "duration": 0.13392849999999612
        },
        {
          "name": "D#2",
          "midi": 39,
          "time": 113.83922499999967,
          "velocity": 0.7874015748031497,
          "duration": 0.13392849999999612
        },
        {
          "name": "C#2",
          "midi": 37,
          "time": 114.10708199999966,
          "velocity": 0.7874015748031497,
          "duration": 0.13392849999999612
        },
        {
          "name": "D#2",
          "midi": 39,
          "time": 114.37493899999966,
          "velocity": 0.7874015748031497,
          "duration": 0.13392849999999612
        },
        {
          "name": "C2",
          "midi": 36,
          "time": 114.50886749999965,
          "velocity": 0.7874015748031497,
          "duration": 0.13392849999999612
        },
        {
          "name": "C2",
          "midi": 36,
          "time": 114.64279599999965,
          "velocity": 0.7874015748031497,
          "duration": 0.13392849999999612
        },
        {
          "name": "D#2",
          "midi": 39,
          "time": 114.91065299999964,
          "velocity": 0.7874015748031497,
          "duration": 0.13392849999999612
        },
        {
          "name": "C#2",
          "midi": 37,
          "time": 115.17850999999963,
          "velocity": 0.7874015748031497,
          "duration": 0.13392849999999612
        },
        {
          "name": "D#2",
          "midi": 39,
          "time": 115.44636699999963,
          "velocity": 0.7874015748031497,
          "duration": 0.13392849999999612
        },
        {
          "name": "C2",
          "midi": 36,
          "time": 115.71422399999962,
          "velocity": 0.7874015748031497,
          "duration": 0.13392849999999612
        },
        {
          "name": "D#2",
          "midi": 39,
          "time": 115.98208099999961,
          "velocity": 0.7874015748031497,
          "duration": 0.13392849999999612
        },
        {
          "name": "C#2",
          "midi": 37,
          "time": 116.2499379999996,
          "velocity": 0.7874015748031497,
          "duration": 0.13392849999999612
        },
        {
          "name": "D#2",
          "midi": 39,
          "time": 116.5177949999996,
          "velocity": 0.7874015748031497,
          "duration": 0.13392849999999612
        },
        {
          "name": "C2",
          "midi": 36,
          "time": 116.65172349999959,
          "velocity": 0.7874015748031497,
          "duration": 0.13392849999999612
        },
        {
          "name": "C2",
          "midi": 36,
          "time": 116.78565199999959,
          "velocity": 0.7874015748031497,
          "duration": 0.13392849999999612
        },
        {
          "name": "D#2",
          "midi": 39,
          "time": 117.05350899999958,
          "velocity": 0.7874015748031497,
          "duration": 0.13392849999999612
        },
        {
          "name": "C#2",
          "midi": 37,
          "time": 117.32136599999957,
          "velocity": 0.7874015748031497,
          "duration": 0.13392849999999612
        },
        {
          "name": "D#2",
          "midi": 39,
          "time": 117.58922299999956,
          "velocity": 0.7874015748031497,
          "duration": 0.13392849999999612
        },
        {
          "name": "C2",
          "midi": 36,
          "time": 117.85707999999956,
          "velocity": 0.7874015748031497,
          "duration": 0.13392849999999612
        },
        {
          "name": "D#2",
          "midi": 39,
          "time": 118.12493699999955,
          "velocity": 0.7874015748031497,
          "duration": 0.13392849999999612
        },
        {
          "name": "C#2",
          "midi": 37,
          "time": 118.39279399999954,
          "velocity": 0.7874015748031497,
          "duration": 0.13392849999999612
        },
        {
          "name": "D#2",
          "midi": 39,
          "time": 118.66065099999953,
          "velocity": 0.7874015748031497,
          "duration": 0.13392849999999612
        },
        {
          "name": "C2",
          "midi": 36,
          "time": 118.79457949999953,
          "velocity": 0.7874015748031497,
          "duration": 0.13392849999999612
        },
        {
          "name": "C2",
          "midi": 36,
          "time": 118.92850799999952,
          "velocity": 0.7874015748031497,
          "duration": 0.13392849999999612
        },
        {
          "name": "D#2",
          "midi": 39,
          "time": 119.19636499999952,
          "velocity": 0.7874015748031497,
          "duration": 0.13392849999999612
        },
        {
          "name": "C#2",
          "midi": 37,
          "time": 119.46422199999951,
          "velocity": 0.7874015748031497,
          "duration": 0.13392849999999612
        },
        {
          "name": "D#2",
          "midi": 39,
          "time": 119.7320789999995,
          "velocity": 0.7874015748031497,
          "duration": 0.13392849999999612
        },
        {
          "name": "C2",
          "midi": 36,
          "time": 119.9999359999995,
          "velocity": 0.7874015748031497,
          "duration": 0.13392849999999612
        },
        {
          "name": "D#2",
          "midi": 39,
          "time": 120.26779299999949,
          "velocity": 0.7874015748031497,
          "duration": 0.13392849999999612
        },
        {
          "name": "C#2",
          "midi": 37,
          "time": 120.53564999999948,
          "velocity": 0.7874015748031497,
          "duration": 0.13392849999999612
        },
        {
          "name": "D#2",
          "midi": 39,
          "time": 120.80350699999947,
          "velocity": 0.7874015748031497,
          "duration": 0.13392849999999612
        },
        {
          "name": "C2",
          "midi": 36,
          "time": 120.93743549999947,
          "velocity": 0.7874015748031497,
          "duration": 0.13392849999999612
        },
        {
          "name": "C2",
          "midi": 36,
          "time": 121.07136399999946,
          "velocity": 0.7874015748031497,
          "duration": 0.13392849999999612
        },
        {
          "name": "D#2",
          "midi": 39,
          "time": 121.33922099999945,
          "velocity": 0.7874015748031497,
          "duration": 0.13392849999999612
        },
        {
          "name": "C#2",
          "midi": 37,
          "time": 121.60707799999945,
          "velocity": 0.7874015748031497,
          "duration": 0.13392849999999612
        },
        {
          "name": "D#2",
          "midi": 39,
          "time": 121.87493499999944,
          "velocity": 0.7874015748031497,
          "duration": 0.13392849999999612
        },
        {
          "name": "C2",
          "midi": 36,
          "time": 122.14279199999943,
          "velocity": 0.7874015748031497,
          "duration": 0.13392849999999612
        },
        {
          "name": "D#2",
          "midi": 39,
          "time": 122.41064899999942,
          "velocity": 0.7874015748031497,
          "duration": 0.13392849999999612
        },
        {
          "name": "C#2",
          "midi": 37,
          "time": 122.67850599999942,
          "velocity": 0.7874015748031497,
          "duration": 0.13392849999999612
        },
        {
          "name": "D#2",
          "midi": 39,
          "time": 122.94636299999941,
          "velocity": 0.7874015748031497,
          "duration": 0.13392849999999612
        },
        {
          "name": "C2",
          "midi": 36,
          "time": 123.0802914999994,
          "velocity": 0.7874015748031497,
          "duration": 0.13392849999999612
        },
        {
          "name": "C2",
          "midi": 36,
          "time": 123.2142199999994,
          "velocity": 0.7874015748031497,
          "duration": 0.13392849999999612
        },
        {
          "name": "D#2",
          "midi": 39,
          "time": 123.48207699999939,
          "velocity": 0.7874015748031497,
          "duration": 0.8035710000000051
        },
        {
          "name": "C#2",
          "midi": 37,
          "time": 124.2856479999994,
          "velocity": 0.7874015748031497,
          "duration": 0.6696424999999948
        },
        {
          "name": "C2",
          "midi": 36,
          "time": 124.95529049999939,
          "velocity": 0.7874015748031497,
          "duration": 3.616069500000009
        },
        {
          "name": "C2",
          "midi": 36,
          "time": 128.5713599999994,
          "velocity": 0.7874015748031497,
          "duration": 0.13392849999999612
        },
        {
          "name": "D#2",
          "midi": 39,
          "time": 128.8392169999994,
          "velocity": 0.7874015748031497,
          "duration": 0.13392849999999612
        },
        {
          "name": "C#2",
          "midi": 37,
          "time": 129.1070739999994,
          "velocity": 0.7874015748031497,
          "duration": 0.13392849999999612
        },
        {
          "name": "D#2",
          "midi": 39,
          "time": 129.37493099999938,
          "velocity": 0.7874015748031497,
          "duration": 0.13392849999999612
        },
        {
          "name": "C2",
          "midi": 36,
          "time": 129.50885949999937,
          "velocity": 0.7874015748031497,
          "duration": 0.13392849999999612
        },
        {
          "name": "C2",
          "midi": 36,
          "time": 129.64278799999937,
          "velocity": 0.7874015748031497,
          "duration": 0.13392849999999612
        },
        {
          "name": "D#2",
          "midi": 39,
          "time": 129.91064499999936,
          "velocity": 0.7874015748031497,
          "duration": 0.13392849999999612
        },
        {
          "name": "C#2",
          "midi": 37,
          "time": 130.17850199999936,
          "velocity": 0.7874015748031497,
          "duration": 0.13392849999999612
        },
        {
          "name": "D#2",
          "midi": 39,
          "time": 130.44635899999935,
          "velocity": 0.7874015748031497,
          "duration": 0.13392849999999612
        },
        {
          "name": "C2",
          "midi": 36,
          "time": 130.71421599999934,
          "velocity": 0.7874015748031497,
          "duration": 0.13392849999999612
        },
        {
          "name": "D#2",
          "midi": 39,
          "time": 130.98207299999933,
          "velocity": 0.7874015748031497,
          "duration": 0.13392849999999612
        },
        {
          "name": "C#2",
          "midi": 37,
          "time": 131.24992999999932,
          "velocity": 0.7874015748031497,
          "duration": 0.13392849999999612
        },
        {
          "name": "D#2",
          "midi": 39,
          "time": 131.51778699999932,
          "velocity": 0.7874015748031497,
          "duration": 0.13392849999999612
        },
        {
          "name": "C2",
          "midi": 36,
          "time": 131.6517154999993,
          "velocity": 0.7874015748031497,
          "duration": 0.13392849999999612
        },
        {
          "name": "C2",
          "midi": 36,
          "time": 131.7856439999993,
          "velocity": 0.7874015748031497,
          "duration": 0.13392849999999612
        },
        {
          "name": "D#2",
          "midi": 39,
          "time": 132.0535009999993,
          "velocity": 0.7874015748031497,
          "duration": 0.13392849999999612
        },
        {
          "name": "C#2",
          "midi": 37,
          "time": 132.3213579999993,
          "velocity": 0.7874015748031497,
          "duration": 0.13392849999999612
        },
        {
          "name": "D#2",
          "midi": 39,
          "time": 132.58921499999929,
          "velocity": 0.7874015748031497,
          "duration": 0.13392849999999612
        },
        {
          "name": "C2",
          "midi": 36,
          "time": 132.85707199999928,
          "velocity": 0.7874015748031497,
          "duration": 0.13392849999999612
        },
        {
          "name": "D#2",
          "midi": 39,
          "time": 133.12492899999927,
          "velocity": 0.7874015748031497,
          "duration": 0.13392849999999612
        },
        {
          "name": "C#2",
          "midi": 37,
          "time": 133.39278599999926,
          "velocity": 0.7874015748031497,
          "duration": 0.13392849999999612
        },
        {
          "name": "D#2",
          "midi": 39,
          "time": 133.66064299999925,
          "velocity": 0.7874015748031497,
          "duration": 0.13392849999999612
        },
        {
          "name": "C2",
          "midi": 36,
          "time": 133.79457149999925,
          "velocity": 0.7874015748031497,
          "duration": 0.13392849999999612
        },
        {
          "name": "C2",
          "midi": 36,
          "time": 133.92849999999925,
          "velocity": 0.7874015748031497,
          "duration": 0.13392849999999612
        },
        {
          "name": "D#2",
          "midi": 39,
          "time": 134.19635699999924,
          "velocity": 0.7874015748031497,
          "duration": 0.13392849999999612
        },
        {
          "name": "C#2",
          "midi": 37,
          "time": 134.46421399999923,
          "velocity": 0.7874015748031497,
          "duration": 0.13392849999999612
        },
        {
          "name": "D#2",
          "midi": 39,
          "time": 134.73207099999922,
          "velocity": 0.7874015748031497,
          "duration": 0.13392849999999612
        },
        {
          "name": "C2",
          "midi": 36,
          "time": 134.99992799999922,
          "velocity": 0.7874015748031497,
          "duration": 0.13392849999999612
        },
        {
          "name": "D#2",
          "midi": 39,
          "time": 135.2677849999992,
          "velocity": 0.7874015748031497,
          "duration": 0.13392849999999612
        },
        {
          "name": "C#2",
          "midi": 37,
          "time": 135.5356419999992,
          "velocity": 0.7874015748031497,
          "duration": 0.13392849999999612
        },
        {
          "name": "D#2",
          "midi": 39,
          "time": 135.8034989999992,
          "velocity": 0.7874015748031497,
          "duration": 0.13392849999999612
        },
        {
          "name": "C2",
          "midi": 36,
          "time": 135.9374274999992,
          "velocity": 0.7874015748031497,
          "duration": 0.13392849999999612
        },
        {
          "name": "C2",
          "midi": 36,
          "time": 136.07135599999918,
          "velocity": 0.7874015748031497,
          "duration": 0.13392849999999612
        },
        {
          "name": "D#2",
          "midi": 39,
          "time": 136.33921299999918,
          "velocity": 0.7874015748031497,
          "duration": 0.13392849999999612
        },
        {
          "name": "C#2",
          "midi": 37,
          "time": 136.60706999999917,
          "velocity": 0.7874015748031497,
          "duration": 0.13392849999999612
        },
        {
          "name": "D#2",
          "midi": 39,
          "time": 136.87492699999916,
          "velocity": 0.7874015748031497,
          "duration": 0.13392849999999612
        }
      ],
      "controlChanges": {
        "7": [
          {
            "number": 7,
            "time": 0,
            "value": 1
          }
        ],
        "32": [
          {
            "number": 32,
            "time": 0,
            "value": 0
          }
        ],
        "127": [
          {
            "number": 127,
            "time": 137.1372036458325,
            "value": 0
          }
        ]
      },
      "id": 1,
      "name": "Untitled",
      "instrumentNumber": 0,
      "instrument": "acoustic grand piano",
      "instrumentFamily": "piano",
      "channelNumber": 0,
      "isPercussion": false
    }
  ]
}