{
  "header": {
    "PPQ": 96,
    "bpm": 107.99991360006912,
    "timeSignature": [
      4,
      4
    ],
    "name": "Untitled"
  },
  "tempo": [
    {
      "absoluteTime": 0,
      "seconds": 0,
      "bpm": 107.99991360006912
    },
    {
      "absoluteTime": 3,
      "seconds": 0.017361125,
      "bpm": 107.99991360006912
    },
    {
      "absoluteTime": 14,
      "seconds": 0.08101858333333334,
      "bpm": 107.99991360006912
    }
  ],
  "timeSignature": [
    {
      "absoluteTime": 0,
      "seconds": 0,
      "numerator": 4,
      "denominator": 2,
      "click": 24,
      "notesQ": 8
    }
  ],
  "startTime": 0,
  "duration": 146.6667839999999,
  "tracks": [
    {
      "startTime": 0,
      "duration": 0,
      "length": 0,
      "notes": [],
      "controlChanges": {},
      "id": 0,
      "name": "Untitled"
    },
    {
      "startTime": 4.444448,
      "duration": 146.6667839999999,
      "length": 400,
      "notes": [
        {
          "name": "C#2",
          "midi": 37,
          "time": 4.444448,
          "velocity": 0.7874015748031497,
          "duration": 0.5555560000000002
        },
        {
          "name": "C#2",
          "midi": 37,
          "time": 5.000004000000001,
          "velocity": 0.7874015748031497,
          "duration": 0.5555560000000002
        },
        {
          "name": "C#2",
          "midi": 37,
          "time": 5.555560000000001,
          "velocity": 0.7874015748031497,
          "duration": 0.5555560000000002
        },
        {
          "name": "C#2",
          "midi": 37,
          "time": 6.111116000000001,
          "velocity": 0.7874015748031497,
          "duration": 0.5555560000000002
        },
        {
          "name": "C#2",
          "midi": 37,
          "time": 6.666672000000001,
          "velocity": 0.7874015748031497,
          "duration": 0.5555560000000002
        },
        {
          "name": "C#2",
          "midi": 37,
          "time": 7.222228000000001,
          "velocity": 0.7874015748031497,
          "duration": 0.5555560000000002
        },
        {
          "name": "C#2",
          "midi": 37,
          "time": 7.777784000000001,
          "velocity": 0.7874015748031497,
          "duration": 0.5555560000000002
        },
        {
          "name": "C#2",
          "midi": 37,
          "time": 8.333340000000002,
          "velocity": 0.7874015748031497,
          "duration": 0.5555559999999993
        },
        {
          "name": "C#2",
          "midi": 37,
          "time": 8.888896,
          "velocity": 0.7874015748031497,
          "duration": 0.5555559999999993
        },
        {
          "name": "C#2",
          "midi": 37,
          "time": 9.444452,
          "velocity": 0.7874015748031497,
          "duration": 0.5555559999999993
        },
        {
          "name": "C#2",
          "midi": 37,
          "time": 10.000008,
          "velocity": 0.7874015748031497,
          "duration": 0.5555559999999993
        },
        {
          "name": "C#2",
          "midi": 37,
          "time": 10.555563999999999,
          "velocity": 0.7874015748031497,
          "duration": 0.5555559999999993
        },
        {
          "name": "C#2",
          "midi": 37,
          "time": 11.111119999999998,
          "velocity": 0.7874015748031497,
          "duration": 0.5555559999999993
        },
        {
          "name": "C#2",
          "midi": 37,
          "time": 11.666675999999997,
          "velocity": 0.7874015748031497,
          "duration": 0.5555559999999993
        },
        {
          "name": "C#2",
          "midi": 37,
          "time": 12.222231999999996,
          "velocity": 0.7874015748031497,
          "duration": 0.5555559999999993
        },
        {
          "name": "C#2",
          "midi": 37,
          "time": 12.777787999999996,
          "velocity": 0.7874015748031497,
          "duration": 0.5555559999999993
        },
        {
          "name": "C#2",
          "midi": 37,
          "time": 13.333343999999995,
          "velocity": 0.7874015748031497,
          "duration": 0.5555559999999993
        },
        {
          "name": "C#2",
          "midi": 37,
          "time": 13.888899999999994,
          "velocity": 0.7874015748031497,
          "duration": 0.5555559999999993
        },
        {
          "name": "C#2",
          "midi": 37,
          "time": 14.444455999999994,
          "velocity": 0.7874015748031497,
          "duration": 0.5555559999999993
        },
        {
          "name": "C#2",
          "midi": 37,
          "time": 15.000011999999993,
          "velocity": 0.7874015748031497,
          "duration": 0.5555559999999993
        },
        {
          "name": "C#2",
          "midi": 37,
          "time": 15.555567999999992,
          "velocity": 0.7874015748031497,
          "duration": 0.555556000000001
        },
        {
          "name": "C#2",
          "midi": 37,
          "time": 16.111123999999993,
          "velocity": 0.7874015748031497,
          "duration": 0.5555559999999993
        },
        {
          "name": "C#2",
          "midi": 37,
          "time": 16.666679999999992,
          "velocity": 0.7874015748031497,
          "duration": 0.5555559999999993
        },
        {
          "name": "C#2",
          "midi": 37,
          "time": 17.22223599999999,
          "velocity": 0.7874015748031497,
          "duration": 0.5555559999999993
        },
        {
          "name": "C#2",
          "midi": 37,
          "time": 17.77779199999999,
          "velocity": 0.7874015748031497,
          "duration": 0.5555559999999993
        },
        {
          "name": "C#2",
          "midi": 37,
          "time": 18.33334799999999,
          "velocity": 0.7874015748031497,
          "duration": 0.5555559999999993
        },
        {
          "name": "C#2",
          "midi": 37,
          "time": 18.88890399999999,
          "velocity": 0.7874015748031497,
          "duration": 0.5555559999999993
        },
        {
          "name": "C#2",
          "midi": 37,
          "time": 19.44445999999999,
          "velocity": 0.7874015748031497,
          "duration": 0.5555559999999993
        },
        {
          "name": "C#2",
          "midi": 37,
          "time": 20.000015999999988,
          "velocity": 0.7874015748031497,
          "duration": 0.5555559999999993
        },
        {
          "name": "C#2",
          "midi": 37,
          "time": 20.555571999999987,
          "velocity": 0.7874015748031497,
          "duration": 0.5555559999999993
        },
        {
          "name": "C#2",
          "midi": 37,
          "time": 21.111127999999987,
          "velocity": 0.7874015748031497,
          "duration": 0.5555559999999993
        },
        {
          "name": "C#2",
          "midi": 37,
          "time": 21.666683999999986,
          "velocity": 0.7874015748031497,
          "duration": 0.5555559999999993
        },
        {
          "name": "C#2",
          "midi": 37,
          "time": 22.222239999999985,
          "velocity": 0.7874015748031497,
          "duration": 0.5555559999999993
        },
        {
          "name": "C#2",
          "midi": 37,
          "time": 22.777795999999984,
          "velocity": 0.7874015748031497,
          "duration": 0.5555559999999993
        },
        {
          "name": "C#2",
          "midi": 37,
          "time": 23.333351999999984,
          "velocity": 0.7874015748031497,
          "duration": 0.5555559999999993
        },
        {
          "name": "C#2",
          "midi": 37,
          "time": 23.888907999999983,
          "velocity": 0.7874015748031497,
          "duration": 0.5555559999999993
        },
        {
          "name": "C#2",
          "midi": 37,
          "time": 24.444463999999982,
          "velocity": 0.7874015748031497,
          "duration": 0.5555559999999993
        },
        {
          "name": "C#2",
          "midi": 37,
          "time": 25.00001999999998,
          "velocity": 0.7874015748031497,
          "duration": 0.5555559999999993
        },
        {
          "name": "C#2",
          "midi": 37,
          "time": 25.55557599999998,
          "velocity": 0.7874015748031497,
          "duration": 0.5555559999999993
        },
        {
          "name": "C#2",
          "midi": 37,
          "time": 26.11113199999998,
          "velocity": 0.7874015748031497,
          "duration": 0.5555559999999993
        },
        {
          "name": "C#2",
          "midi": 37,
          "time": 26.66668799999998,
          "velocity": 0.7874015748031497,
          "duration": 0.5555559999999993
        },
        {
          "name": "C#2",
          "midi": 37,
          "time": 27.22224399999998,
          "velocity": 0.7874015748031497,
          "duration": 0.5555559999999993
        },
        {
          "name": "C#2",
          "midi": 37,
          "time": 27.777799999999978,
          "velocity": 0.7874015748031497,
          "duration": 0.5555559999999993
        },
        {
          "name": "C#2",
          "midi": 37,
          "time": 28.333355999999977,
          "velocity": 0.7874015748031497,
          "duration": 0.5555559999999993
        },
        {
          "name": "C#2",
          "midi": 37,
          "time": 28.888911999999976,
          "velocity": 0.7874015748031497,
          "duration": 0.5555559999999993
        },
        {
          "name": "C#2",
          "midi": 37,
          "time": 29.444467999999976,
          "velocity": 0.7874015748031497,
          "duration": 0.5555559999999993
        },
        {
          "name": "C#2",
          "midi": 37,
          "time": 30.000023999999975,
          "velocity": 0.7874015748031497,
          "duration": 0.5555559999999993
        },
        {
          "name": "C#2",
          "midi": 37,
          "time": 30.555579999999974,
          "velocity": 0.7874015748031497,
          "duration": 0.5555559999999993
        },
        {
          "name": "C#2",
          "midi": 37,
          "time": 31.111135999999973,
          "velocity": 0.7874015748031497,
          "duration": 0.5555559999999993
        },
        {
          "name": "C#2",
          "midi": 37,
          "time": 31.666691999999973,
          "velocity": 0.7874015748031497,
          "duration": 0.5555559999999993
        },
        {
          "name": "C#2",
          "midi": 37,
          "time": 32.22224799999997,
          "velocity": 0.7874015748031497,
          "duration": 0.5555560000000028
        },
        {
          "name": "C#2",
          "midi": 37,
          "time": 32.777803999999975,
          "velocity": 0.7874015748031497,
          "duration": 0.5555560000000028
        },
        {
          "name": "C#2",
          "midi": 37,
          "time": 33.33335999999998,
          "velocity": 0.7874015748031497,
          "duration": 0.5555560000000028
        },
        {
          "name": "C#2",
          "midi": 37,
          "time": 33.88891599999998,
          "velocity": 0.7874015748031497,
          "duration": 0.5555560000000028
        },
        {
          "name": "C#2",
          "midi": 37,
          "time": 34.44447199999998,
          "velocity": 0.7874015748031497,
          "duration": 0.5555560000000028
        },
        {
          "name": "C#2",
          "midi": 37,
          "time": 35.000027999999986,
          "velocity": 0.7874015748031497,
          "duration": 0.5555560000000028
        },
        {
          "name": "C#2",
          "midi": 37,
          "time": 35.55558399999999,
          "velocity": 0.7874015748031497,
          "duration": 0.5555560000000028
        },
        {
          "name": "C#2",
          "midi": 37,
          "time": 36.11113999999999,
          "velocity": 0.7874015748031497,
          "duration": 0.5555560000000028
        },
        {
          "name": "C#2",
          "midi": 37,
          "time": 36.666695999999995,
          "velocity": 0.7874015748031497,
          "duration": 0.5555560000000028
        },
        {
          "name": "C#2",
          "midi": 37,
          "time": 37.222252,
          "velocity": 0.7874015748031497,
          "duration": 0.5555560000000028
        },
        {
          "name": "C#2",
          "midi": 37,
          "time": 37.777808,
          "velocity": 0.7874015748031497,
          "duration": 0.5555560000000028
        },
        {
          "name": "C#2",
          "midi": 37,
          "time": 38.333364,
          "velocity": 0.7874015748031497,
          "duration": 0.5555560000000028
        },
        {
          "name": "C#2",
          "midi": 37,
          "time": 38.888920000000006,
          "velocity": 0.7874015748031497,
          "duration": 0.5555560000000028
        },
        {
          "name": "C#2",
          "midi": 37,
          "time": 39.44447600000001,
          "velocity": 0.7874015748031497,
          "duration": 0.5555560000000028
        },
        {
          "name": "C#2",
          "midi": 37,
          "time": 40.00003200000001,
          "velocity": 0.7874015748031497,
          "duration": 0.5555559999999957
        },
        {
          "name": "D#2",
          "midi": 39,
          "time": 40.27781000000001,
          "velocity": 0.7874015748031497,
          "duration": 0.27777799999999786
        },
        {
          "name": "C#2",
          "midi": 37,
          "time": 40.55558800000001,
          "velocity": 0.7874015748031497,
          "duration": 0.5555559999999957
        },
        {
          "name": "D#2",
          "midi": 39,
          "time": 40.833366000000005,
          "velocity": 0.7874015748031497,
          "duration": 0.27777799999999786
        },
        {
          "name": "C#2",
          "midi": 37,
          "time": 41.111144,
          "velocity": 0.7874015748031497,
          "duration": 0.5555559999999957
        },
        {
          "name": "D#2",
          "midi": 39,
          "time": 41.388922,
          "velocity": 0.7874015748031497,
          "duration": 0.27777799999999786
        },
        {
          "name": "C#2",
          "midi": 37,
          "time": 41.6667,
          "velocity": 0.7874015748031497,
          "duration": 0.5555559999999957
        },
        {
          "name": "D#2",
          "midi": 39,
          "time": 41.944478,
          "velocity": 0.7874015748031497,
          "duration": 0.27777799999999786
        },
        {
          "name": "C#2",
          "midi": 37,
          "time": 42.222255999999994,
          "velocity": 0.7874015748031497,
          "duration": 0.5555559999999957
        },
        {
          "name": "D#2",
          "midi": 39,
          "time": 42.50003399999999,
          "velocity": 0.7874015748031497,
          "duration": 0.27777799999999786
        },
        {
          "name": "C#2",
          "midi": 37,
          "time": 42.77781199999999,
          "velocity": 0.7874015748031497,
          "duration": 0.5555559999999957
        },
        {
          "name": "D#2",
          "midi": 39,
          "time": 43.05558999999999,
          "velocity": 0.7874015748031497,
          "duration": 0.27777799999999786
        },
        {
          "name": "C#2",
          "midi": 37,
          "time": 43.333367999999986,
          "velocity": 0.7874015748031497,
          "duration": 0.5555559999999957
        },
        {
          "name": "D#2",
          "midi": 39,
          "time": 43.611145999999984,
          "velocity": 0.7874015748031497,
          "duration": 0.27777799999999786
        },
        {
          "name": "C#2",
          "midi": 37,
          "time": 43.88892399999998,
          "velocity": 0.7874015748031497,
          "duration": 0.5555559999999957
        },
        {
          "name": "D#2",
          "midi": 39,
          "time": 44.16670199999998,
          "velocity": 0.7874015748031497,
          "duration": 0.27777799999999786
        },
        {
          "name": "C#2",
          "midi": 37,
          "time": 44.44447999999998,
          "velocity": 0.7874015748031497,
          "duration": 0.5555559999999957
        },
        {
          "name": "D#2",
          "midi": 39,
          "time": 44.722257999999975,
          "velocity": 0.7874015748031497,
          "duration": 0.27777799999999786
        },
        {
          "name": "C#2",
          "midi": 37,
          "time": 45.00003599999997,
          "velocity": 0.7874015748031497,
          "duration": 0.5555559999999957
        },
        {
          "name": "D#2",
          "midi": 39,
          "time": 45.27781399999997,
          "velocity": 0.7874015748031497,
          "duration": 0.27777799999999786
        },
        {
          "name": "C#2",
          "midi": 37,
          "time": 45.55559199999997,
          "velocity": 0.7874015748031497,
          "duration": 0.5555559999999957
        },
        {
          "name": "D#2",
          "midi": 39,
          "time": 45.83336999999997,
          "velocity": 0.7874015748031497,
          "duration": 0.27777799999999786
        },
        {
          "name": "C#2",
          "midi": 37,
          "time": 46.111147999999964,
          "velocity": 0.7874015748031497,
          "duration": 0.5555559999999957
        },
        {
          "name": "D#2",
          "midi": 39,
          "time": 46.38892599999996,
          "velocity": 0.7874015748031497,
          "duration": 0.27777799999999786
        },
        {
          "name": "C#2",
          "midi": 37,
          "time": 46.66670399999996,
          "velocity": 0.7874015748031497,
          "duration": 0.5555559999999957
        },
        {
          "name": "D#2",
          "midi": 39,
          "time": 46.94448199999996,
          "velocity": 0.7874015748031497,
          "duration": 0.27777799999999786
        },
        {
          "name": "C#2",
          "midi": 37,
          "time": 47.222259999999956,
          "velocity": 0.7874015748031497,
          "duration": 0.5555559999999957
        },
        {
          "name": "D#2",
          "midi": 39,
          "time": 47.500037999999954,
          "velocity": 0.7874015748031497,
          "duration": 0.27777799999999786
        },
        {
          "name": "C#2",
          "midi": 37,
          "time": 47.77781599999995,
          "velocity": 0.7874015748031497,
          "duration": 0.5555559999999957
        },
        {
          "name": "D#2",
          "midi": 39,
          "time": 48.05559399999995,
          "velocity": 0.7874015748031497,
          "duration": 0.27777799999999786
        },
        {
          "name": "C#2",
          "midi": 37,
          "time": 48.33337199999995,
          "velocity": 0.7874015748031497,
          "duration": 0.5555559999999957
        },
        {
          "name": "D#2",
          "midi": 39,
          "time": 48.611149999999945,
          "velocity": 0.7874015748031497,
          "duration": 0.27777799999999786
        },
        {
          "name": "C#2",
          "midi": 37,
          "time": 48.88892799999994,
          "velocity": 0.7874015748031497,
          "duration": 0.5555559999999957
        },
        {
          "name": "D#2",
          "midi": 39,
          "time": 49.16670599999994,
          "velocity": 0.7874015748031497,
          "duration": 0.27777799999999786
        },
        {
          "name": "C#2",
          "midi": 37,
          "time": 49.44448399999994,
          "velocity": 0.7874015748031497,
          "duration": 0.5555559999999957
        },
        {
          "name": "D#2",
          "midi": 39,
          "time": 49.72226199999994,
          "velocity": 0.7874015748031497,
          "duration": 0.27777799999999786
        },
        {
          "name": "C#2",
          "midi": 37,
          "time": 50.000039999999935,
          "velocity": 0.7874015748031497,
          "duration": 0.5555559999999957
        },
        {
          "name": "D#2",
          "midi": 39,
          "time": 50.27781799999993,
          "velocity": 0.7874015748031497,
          "duration": 0.27777799999999786
        },
        {
          "name": "C#2",
          "midi": 37,
          "time": 50.55559599999993,
          "velocity": 0.7874015748031497,
          "duration": 0.5555559999999957
        },
        {
          "name": "D#2",
          "midi": 39,
          "time": 50.83337399999993,
          "velocity": 0.7874015748031497,
          "duration": 0.27777799999999786
        },
        {
          "name": "C#2",
          "midi": 37,
          "time": 51.111151999999926,
          "velocity": 0.7874015748031497,
          "duration": 0.5555559999999957
        },
        {
          "name": "D#2",
          "midi": 39,
          "time": 51.388929999999924,
          "velocity": 0.7874015748031497,
          "duration": 0.27777799999999786
        },
        {
          "name": "C#2",
          "midi": 37,
          "time": 51.66670799999992,
          "velocity": 0.7874015748031497,
          "duration": 0.5555559999999957
        },
        {
          "name": "D#2",
          "midi": 39,
          "time": 51.94448599999992,
          "velocity": 0.7874015748031497,
          "duration": 0.27777799999999786
        },
        {
          "name": "C#2",
          "midi": 37,
          "time": 52.22226399999992,
          "velocity": 0.7874015748031497,
          "duration": 0.5555559999999957
        },
        {
          "name": "D#2",
          "midi": 39,
          "time": 52.500041999999915,
          "velocity": 0.7874015748031497,
          "duration": 0.27777799999999786
        },
        {
          "name": "C#2",
          "midi": 37,
          "time": 52.77781999999991,
          "velocity": 0.7874015748031497,
          "duration": 0.5555559999999957
        },
        {
          "name": "D#2",
          "midi": 39,
          "time": 53.05559799999991,
          "velocity": 0.7874015748031497,
          "duration": 0.27777799999999786
        },
        {
          "name": "C#2",
          "midi": 37,
          "time": 53.33337599999991,
          "velocity": 0.7874015748031497,
          "duration": 0.5555559999999957
        },
        {
          "name": "D#2",
          "midi": 39,
          "time": 53.61115399999991,
          "velocity": 0.7874015748031497,
          "duration": 0.27777799999999786
        },
        {
          "name": "C#2",
          "midi": 37,
          "time": 53.888931999999905,
          "velocity": 0.7874015748031497,
          "duration": 0.5555559999999957
        },
        {
          "name": "D#2",
          "midi": 39,
          "time": 54.1667099999999,
          "velocity": 0.7874015748031497,
          "duration": 0.27777799999999786
        },
        {
          "name": "C#2",
          "midi": 37,
          "time": 54.4444879999999,
          "velocity": 0.7874015748031497,
          "duration": 0.5555559999999957
        },
        {
          "name": "D#2",
          "midi": 39,
          "time": 54.7222659999999,
          "velocity": 0.7874015748031497,
          "duration": 0.27777799999999786
        },
        {
          "name": "C#2",
          "midi": 37,
          "time": 55.000043999999896,
          "velocity": 0.7874015748031497,
          "duration": 0.5555559999999957
        },
        {
          "name": "D#2",
          "midi": 39,
          "time": 55.277821999999894,
          "velocity": 0.7874015748031497,
          "duration": 0.27777799999999786
        },
        {
          "name": "C#2",
          "midi": 37,
          "time": 55.55559999999989,
          "velocity": 0.7874015748031497,
          "duration": 0.5555559999999957
        },
        {
          "name": "D#2",
          "midi": 39,
          "time": 55.83337799999989,
          "velocity": 0.7874015748031497,
          "duration": 0.27777799999999786
        },
        {
          "name": "C#2",
          "midi": 37,
          "time": 56.11115599999989,
          "velocity": 0.7874015748031497,
          "duration": 0.5555559999999957
        },
        {
          "name": "D#2",
          "midi": 39,
          "time": 56.388933999999885,
          "velocity": 0.7874015748031497,
          "duration": 0.27777799999999786
        },
        {
          "name": "C#2",
          "midi": 37,
          "time": 56.66671199999988,
          "velocity": 0.7874015748031497,
          "duration": 0.5555559999999957
        },
        {
          "name": "D#2",
          "midi": 39,
          "time": 56.94448999999988,
          "velocity": 0.7874015748031497,
          "duration": 0.27777799999999786
        },
        {
          "name": "C#2",
          "midi": 37,
          "time": 57.22226799999988,
          "velocity": 0.7874015748031497,
          "duration": 0.5555559999999957
        },
        {
          "name": "D#2",
          "midi": 39,
          "time": 57.50004599999988,
          "velocity": 0.7874015748031497,
          "duration": 0.27777799999999786
        },
        {
          "name": "C#2",
          "midi": 37,
          "time": 57.777823999999875,
          "velocity": 0.7874015748031497,
          "duration": 0.5555559999999957
        },
        {
          "name": "D#2",
          "midi": 39,
          "time": 58.05560199999987,
          "velocity": 0.7874015748031497,
          "duration": 0.27777799999999786
        },
        {
          "name": "C#2",
          "midi": 37,
          "time": 58.33337999999987,
          "velocity": 0.7874015748031497,
          "duration": 0.5555559999999957
        },
        {
          "name": "D#2",
          "midi": 39,
          "time": 58.61115799999987,
          "velocity": 0.7874015748031497,
          "duration": 0.27777799999999786
        },
        {
          "name": "C#2",
          "midi": 37,
          "time": 58.888935999999866,
          "velocity": 0.7874015748031497,
          "duration": 0.5555559999999957
        },
        {
          "name": "D#2",
          "midi": 39,
          "time": 59.166713999999864,
          "velocity": 0.7874015748031497,
          "duration": 0.27777799999999786
        },
        {
          "name": "C#2",
          "midi": 37,
          "time": 59.44449199999986,
          "velocity": 0.7874015748031497,
          "duration": 0.5555559999999957
        },
        {
          "name": "D#2",
          "midi": 39,
          "time": 59.72226999999986,
          "velocity": 0.7874015748031497,
          "duration": 0.27777799999999786
        },
        {
          "name": "C#2",
          "midi": 37,
          "time": 60.00004799999986,
          "velocity": 0.7874015748031497,
          "duration": 0.5555559999999957
        },
        {
          "name": "D#2",
          "midi": 39,
          "time": 60.277825999999855,
          "velocity": 0.7874015748031497,
          "duration": 0.27777799999999786
        },
        {
          "name": "C#2",
          "midi": 37,
          "time": 60.55560399999985,
          "velocity": 0.7874015748031497,
          "duration": 0.5555559999999957
        },
        {
          "name": "D#2",
          "midi": 39,
          "time": 60.83338199999985,
          "velocity": 0.7874015748031497,
          "duration": 0.27777799999999786
        },
        {
          "name": "C#2",
          "midi": 37,
          "time": 61.11115999999985,
          "velocity": 0.7874015748031497,
          "duration": 0.5555559999999957
        },
        {
          "name": "D#2",
          "midi": 39,
          "time": 61.38893799999985,
          "velocity": 0.7874015748031497,
          "duration": 0.27777799999999786
        },
        {
          "name": "C#2",
          "midi": 37,
          "time": 61.666715999999845,
          "velocity": 0.7874015748031497,
          "duration": 0.5555559999999957
        },
        {
          "name": "D#2",
          "midi": 39,
          "time": 61.94449399999984,
          "velocity": 0.7874015748031497,
          "duration": 0.27777799999999786
        },
        {
          "name": "C#2",
          "midi": 37,
          "time": 62.22227199999984,
          "velocity": 0.7874015748031497,
          "duration": 0.5555559999999957
        },
        {
          "name": "D#2",
          "midi": 39,
          "time": 62.50004999999984,
          "velocity": 0.7874015748031497,
          "duration": 0.27777799999999786
        },
        {
          "name": "C#2",
          "midi": 37,
          "time": 62.777827999999836,
          "velocity": 0.7874015748031497,
          "duration": 0.5555559999999957
        },
        {
          "name": "D#2",
          "midi": 39,
          "time": 63.055605999999834,
          "velocity": 0.7874015748031497,
          "duration": 0.27777799999999786
        },
        {
          "name": "C#2",
          "midi": 37,
          "time": 63.33338399999983,
          "velocity": 0.7874015748031497,
          "duration": 0.5555559999999957
        },
        {
          "name": "D#2",
          "midi": 39,
          "time": 63.61116199999983,
          "velocity": 0.7874015748031497,
          "duration": 0.27777799999999786
        },
        {
          "name": "C#2",
          "midi": 37,
          "time": 63.88893999999983,
          "velocity": 0.7874015748031497,
          "duration": 0.5555560000000028
        },
        {
          "name": "D#2",
          "midi": 39,
          "time": 64.16671799999983,
          "velocity": 0.7874015748031497,
          "duration": 0.27777799999999786
        },
        {
          "name": "C#2",
          "midi": 37,
          "time": 64.44449599999983,
          "velocity": 0.7874015748031497,
          "duration": 0.5555559999999957
        },
        {
          "name": "D#2",
          "midi": 39,
          "time": 64.72227399999983,
          "velocity": 0.7874015748031497,
          "duration": 0.27777799999999786
        },
        {
          "name": "C#2",
          "midi": 37,
          "time": 65.00005199999983,
          "velocity": 0.7874015748031497,
          "duration": 0.5555559999999957
        },
        {
          "name": "D#2",
          "midi": 39,
          "time": 65.27782999999982,
          "velocity": 0.7874015748031497,
          "duration": 0.27777799999999786
        },
        {
          "name": "C#2",
          "midi": 37,
          "time": 65.55560799999982,
          "velocity": 0.7874015748031497,
          "duration": 0.5555559999999957
        },
        {
          "name": "D#2",
          "midi": 39,
          "time": 65.83338599999982,
          "velocity": 0.7874015748031497,
          "duration": 0.27777799999999786
        },
        {
          "name": "C#2",
          "midi": 37,
          "time": 66.11116399999982,
          "velocity": 0.7874015748031497,
          "duration": 0.5555559999999957
        },
        {
          "name": "D#2",
          "midi": 39,
          "time": 66.38894199999982,
          "velocity": 0.7874015748031497,
          "duration": 0.27777799999999786
        },
        {
          "name": "C#2",
          "midi": 37,
          "time": 66.66671999999981,
          "velocity": 0.7874015748031497,
          "duration": 0.5555559999999957
        },
        {
          "name": "D#2",
          "midi": 39,
          "time": 66.94449799999981,
          "velocity": 0.7874015748031497,
          "duration": 0.27777799999999786
        },
        {
          "name": "C#2",
          "midi": 37,
          "time": 67.22227599999981,
          "velocity": 0.7874015748031497,
          "duration": 0.5555559999999957
        },
        {
          "name": "D#2",
          "midi": 39,
          "time": 67.5000539999998,
          "velocity": 0.7874015748031497,
          "duration": 0.27777799999999786
        },
        {
          "name": "C#2",
          "midi": 37,
          "time": 67.7778319999998,
          "velocity": 0.7874015748031497,
          "duration": 0.5555559999999957
        },
        {
          "name": "D#2",
          "midi": 39,
          "time": 68.0556099999998,
          "velocity": 0.7874015748031497,
          "duration": 0.27777799999999786
        },
        {
          "name": "C#2",
          "midi": 37,
          "time": 68.3333879999998,
          "velocity": 0.7874015748031497,
          "duration": 0.5555559999999957
        },
        {
          "name": "D#2",
          "midi": 39,
          "time": 68.6111659999998,
          "velocity": 0.7874015748031497,
          "duration": 0.27777799999999786
        },
        {
          "name": "C#2",
          "midi": 37,
          "time": 68.8889439999998,
          "velocity": 0.7874015748031497,
          "duration": 0.5555559999999957
        },
        {
          "name": "D#2",
          "midi": 39,
          "time": 69.1667219999998,
          "velocity": 0.7874015748031497,
          "duration": 0.27777799999999786
        },
        {
          "name": "C#2",
          "midi": 37,
          "time": 69.44449999999979,
          "velocity": 0.7874015748031497,
          "duration": 0.5555559999999957
        },
        {
          "name": "D#2",
          "midi": 39,
          "time": 69.72227799999979,
          "velocity": 0.7874015748031497,
          "duration": 0.27777799999999786
        },
        {
          "name": "C#2",
          "midi": 37,
          "time": 70.00005599999979,
          "velocity": 0.7874015748031497,
          "duration": 0.5555559999999957
        },
        {
          "name": "D#2",
          "midi": 39,
          "time": 70.27783399999979,
          "velocity": 0.7874015748031497,
          "duration": 0.27777799999999786
        },
        {
          "name": "C#2",
          "midi": 37,
          "time": 70.55561199999978,
          "velocity": 0.7874015748031497,
          "duration": 0.5555559999999957
        },
        {
          "name": "D#2",
          "midi": 39,
          "time": 70.83338999999978,
          "velocity": 0.7874015748031497,
          "duration": 0.27777799999999786
        },
        {
          "name": "C#2",
          "midi": 37,
          "time": 71.11116799999978,
          "velocity": 0.7874015748031497,
          "duration": 0.5555559999999957
        },
        {
          "name": "D#2",
          "midi": 39,
          "time": 71.38894599999978,
          "velocity": 0.7874015748031497,
          "duration": 0.27777799999999786
        },
        {
          "name": "C#2",
          "midi": 37,
          "time": 71.66672399999977,
          "velocity": 0.7874015748031497,
          "duration": 0.5555559999999957
        },
        {
          "name": "D#2",
          "midi": 39,
          "time": 71.94450199999977,
          "velocity": 0.7874015748031497,
          "duration": 0.27777799999999786
        },
        {
          "name": "C#2",
          "midi": 37,
          "time": 72.22227999999977,
          "velocity": 0.7874015748031497,
          "duration": 0.5555559999999957
        },
        {
          "name": "D#2",
          "midi": 39,
          "time": 72.50005799999977,
          "velocity": 0.7874015748031497,
          "duration": 0.27777799999999786
        },
        {
          "name": "C#2",
          "midi": 37,
          "time": 72.77783599999977,
          "velocity": 0.7874015748031497,
          "duration": 0.5555559999999957
        },
        {
          "name": "D#2",
          "midi": 39,
          "time": 73.05561399999976,
          "velocity": 0.7874015748031497,
          "duration": 0.27777799999999786
        },
        {
          "name": "C#2",
          "midi": 37,
          "time": 73.33339199999976,
          "velocity": 0.7874015748031497,
          "duration": 0.5555559999999957
        },
        {
          "name": "D#2",
          "midi": 39,
          "time": 73.61116999999976,
          "velocity": 0.7874015748031497,
          "duration": 0.27777799999999786
        },
        {
          "name": "C#2",
          "midi": 37,
          "time": 73.88894799999976,
          "velocity": 0.7874015748031497,
          "duration": 0.5555559999999957
        },
        {
          "name": "D#2",
          "midi": 39,
          "time": 74.16672599999976,
          "velocity": 0.7874015748031497,
          "duration": 0.27777799999999786
        },
        {
          "name": "C#2",
          "midi": 37,
          "time": 74.44450399999975,
          "velocity": 0.7874015748031497,
          "duration": 0.5555559999999957
        },
        {
          "name": "D#2",
          "midi": 39,
          "time": 74.72228199999975,
          "velocity": 0.7874015748031497,
          "duration": 0.27777799999999786
        },
        {
          "name": "C#2",
          "midi": 37,
          "time": 75.00005999999975,
          "velocity": 0.7874015748031497,
          "duration": 0.5555559999999957
        },
        {
          "name": "D#2",
          "midi": 39,
          "time": 75.27783799999975,
          "velocity": 0.7874015748031497,
          "duration": 0.27777799999999786
        },
        {
          "name": "C#2",
          "midi": 37,
          "time": 75.55561599999974,
          "velocity": 0.7874015748031497,
          "duration": 0.5555559999999957
        },
        {
          "name": "D#2",
          "midi": 39,
          "time": 75.83339399999974,
          "velocity": 0.7874015748031497,
          "duration": 0.27777799999999786
        },
        {
          "name": "C#2",
          "midi": 37,
          "time": 76.11117199999974,
          "velocity": 0.7874015748031497,
          "duration": 0.5555559999999957
        },
        {
          "name": "D#2",
          "midi": 39,
          "time": 76.38894999999974,
          "velocity": 0.7874015748031497,
          "duration": 0.27777799999999786
        },
        {
          "name": "D#2",
          "midi": 39,
          "time": 76.66672799999974,
          "velocity": 0.7874015748031497,
          "duration": 0.27777799999999786
        },
        {
          "name": "C#2",
          "midi": 37,
          "time": 77.22228399999973,
          "velocity": 0.7874015748031497,
          "duration": 0.27777799999999786
        },
        {
          "name": "D2",
          "midi": 38,
          "time": 77.50006199999973,
          "velocity": 0.7874015748031497,
          "duration": 0.27777799999999786
        },
        {
          "name": "D2",
          "midi": 38,
          "time": 77.77783999999973,
          "velocity": 0.7874015748031497,
          "duration": 0.27777799999999786
        },
        {
          "name": "D#2",
          "midi": 39,
          "time": 78.05561799999973,
          "velocity": 0.7874015748031497,
          "duration": 0.27777799999999786
        },
        {
          "name": "C#2",
          "midi": 37,
          "time": 78.33339599999972,
          "velocity": 0.7874015748031497,
          "duration": 0.5555559999999957
        },
        {
          "name": "D#2",
          "midi": 39,
          "time": 78.61117399999972,
          "velocity": 0.7874015748031497,
          "duration": 0.27777799999999786
        },
        {
          "name": "D#2",
          "midi": 39,
          "time": 78.88895199999972,
          "velocity": 0.7874015748031497,
          "duration": 0.27777799999999786
        },
        {
          "name": "C#2",
          "midi": 37,
          "time": 79.44450799999971,
          "velocity": 0.7874015748031497,
          "duration": 0.27777799999999786
        },
        {
          "name": "D2",
          "midi": 38,
          "time": 79.72228599999971,
          "velocity": 0.7874015748031497,
          "duration": 0.27777799999999786
        },
        {
          "name": "D2",
          "midi": 38,
          "time": 80.00006399999971,
          "velocity": 0.7874015748031497,
          "duration": 0.27777799999999786
        },
        {
          "name": "D#2",
          "midi": 39,
          "time": 80.27784199999971,
          "velocity": 0.7874015748031497,
          "duration": 0.27777799999999786
        },
        {
          "name": "C#2",
          "midi": 37,
          "time": 80.5556199999997,
          "velocity": 0.7874015748031497,
          "duration": 0.5555559999999957
        },
        {
          "name": "D#2",
          "midi": 39,
          "time": 80.8333979999997,
          "velocity": 0.7874015748031497,
          "duration": 0.27777799999999786
        },
        {
          "name": "D#2",
          "midi": 39,
          "time": 81.1111759999997,
          "velocity": 0.7874015748031497,
          "duration": 0.27777799999999786
        },
        {
          "name": "C#2",
          "midi": 37,
          "time": 81.6667319999997,
          "velocity": 0.7874015748031497,
          "duration": 0.27777799999999786
        },
        {
          "name": "D2",
          "midi": 38,
          "time": 81.9445099999997,
          "velocity": 0.7874015748031497,
          "duration": 0.27777799999999786
        },
        {
          "name": "D2",
          "midi": 38,
          "time": 82.2222879999997,
          "velocity": 0.7874015748031497,
          "duration": 0.27777799999999786
        },
        {
          "name": "D#2",
          "midi": 39,
          "time": 82.50006599999969,
          "velocity": 0.7874015748031497,
          "duration": 0.27777799999999786
        },
        {
          "name": "C#2",
          "midi": 37,
          "time": 82.77784399999969,
          "velocity": 0.7874015748031497,
          "duration": 0.5555559999999957
        },
        {
          "name": "D#2",
          "midi": 39,
          "time": 83.05562199999969,
          "velocity": 0.7874015748031497,
          "duration": 0.27777799999999786
        },
        {
          "name": "D#2",
          "midi": 39,
          "time": 83.33339999999968,
          "velocity": 0.7874015748031497,
          "duration": 0.27777799999999786
        },
        {
          "name": "C#2",
          "midi": 37,
          "time": 83.88895599999968,
          "velocity": 0.7874015748031497,
          "duration": 0.27777799999999786
        },
        {
          "name": "D2",
          "midi": 38,
          "time": 84.16673399999968,
          "velocity": 0.7874015748031497,
          "duration": 0.27777799999999786
        },
        {
          "name": "D2",
          "midi": 38,
          "time": 84.44451199999968,
          "velocity": 0.7874015748031497,
          "duration": 0.27777799999999786
        },
        {
          "name": "D#2",
          "midi": 39,
          "time": 84.72228999999967,
          "velocity": 0.7874015748031497,
          "duration": 0.27777799999999786
        },
        {
          "name": "C#2",
          "midi": 37,
          "time": 85.00006799999967,
          "velocity": 0.7874015748031497,
          "duration": 0.5555559999999957
        },
        {
          "name": "D#2",
          "midi": 39,
          "time": 85.27784599999967,
          "velocity": 0.7874015748031497,
          "duration": 0.27777799999999786
        },
        {
          "name": "D#2",
          "midi": 39,
          "time": 85.55562399999967,
          "velocity": 0.7874015748031497,
          "duration": 0.27777799999999786
        },
        {
          "name": "C#2",
          "midi": 37,
          "time": 86.11117999999966,
          "velocity": 0.7874015748031497,
          "duration": 0.27777799999999786
        },
        {
          "name": "D2",
          "midi": 38,
          "time": 86.38895799999966,
          "velocity": 0.7874015748031497,
          "duration": 0.27777799999999786
        },
        {
          "name": "D2",
          "midi": 38,
          "time": 86.66673599999966,
          "velocity": 0.7874015748031497,
          "duration": 0.27777799999999786
        },
        {
          "name": "D#2",
          "midi": 39,
          "time": 86.94451399999966,
          "velocity": 0.7874015748031497,
          "duration": 0.27777799999999786
        },
        {
          "name": "C#2",
          "midi": 37,
          "time": 87.22229199999965,
          "velocity": 0.7874015748031497,
          "duration": 0.5555559999999957
        },
        {
          "name": "D#2",
          "midi": 39,
          "time": 87.50006999999965,
          "velocity": 0.7874015748031497,
          "duration": 0.27777799999999786
        },
        {
          "name": "D#2",
          "midi": 39,
          "time": 87.77784799999965,
          "velocity": 0.7874015748031497,
          "duration": 0.27777799999999786
        },
        {
          "name": "C#2",
          "midi": 37,
          "time": 88.33340399999965,
          "velocity": 0.7874015748031497,
          "duration": 0.27777799999999786
        },
        {
          "name": "D2",
          "midi": 38,
          "time": 88.61118199999964,
          "velocity": 0.7874015748031497,
          "duration": 0.27777799999999786
        },
        {
          "name": "D2",
          "midi": 38,
          "time": 88.88895999999964,
          "velocity": 0.7874015748031497,
          "duration": 0.27777799999999786
        },
        {
          "name": "D#2",
          "midi": 39,
          "time": 89.16673799999964,
          "velocity": 0.7874015748031497,
          "duration": 0.27777799999999786
        },
        {
          "name": "C#2",
          "midi": 37,
          "time": 89.44451599999964,
          "velocity": 0.7874015748031497,
          "duration": 0.5555559999999957
        },
        {
          "name": "D#2",
          "midi": 39,
          "time": 89.72229399999964,
          "velocity": 0.7874015748031497,
          "duration": 0.27777799999999786
        },
        {
          "name": "D#2",
          "midi": 39,
          "time": 90.00007199999963,
          "velocity": 0.7874015748031497,
          "duration": 0.27777799999999786
        },
        {
          "name": "C#2",
          "midi": 37,
          "time": 90.55562799999963,
          "velocity": 0.7874015748031497,
          "duration": 0.27777799999999786
        },
        {
          "name": "D2",
          "midi": 38,
          "time": 90.83340599999963,
          "velocity": 0.7874015748031497,
          "duration": 0.27777799999999786
        },
        {
          "name": "D2",
          "midi": 38,
          "time": 91.11118399999962,
          "velocity": 0.7874015748031497,
          "duration": 0.27777799999999786
        },
        {
          "name": "D#2",
          "midi": 39,
          "time": 91.38896199999962,
          "velocity": 0.7874015748031497,
          "duration": 0.27777799999999786
        },
        {
          "name": "C#2",
          "midi": 37,
          "time": 91.66673999999962,
          "velocity": 0.7874015748031497,
          "duration": 0.5555559999999957
        },
        {
          "name": "D#2",
          "midi": 39,
          "time": 91.94451799999962,
          "velocity": 0.7874015748031497,
          "duration": 0.27777799999999786
        },
        {
          "name": "D#2",
          "midi": 39,
          "time": 92.22229599999962,
          "velocity": 0.7874015748031497,
          "duration": 0.27777799999999786
        },
        {
          "name": "C#2",
          "midi": 37,
          "time": 92.77785199999961,
          "velocity": 0.7874015748031497,
          "duration": 0.27777799999999786
        },
        {
          "name": "D2",
          "midi": 38,
          "time": 93.05562999999961,
          "velocity": 0.7874015748031497,
          "duration": 0.27777799999999786
        },
        {
          "name": "D2",
          "midi": 38,
          "time": 93.33340799999961,
          "velocity": 0.7874015748031497,
          "duration": 0.27777799999999786
        },
        {
          "name": "D#2",
          "midi": 39,
          "time": 93.6111859999996,
          "velocity": 0.7874015748031497,
          "duration": 0.27777799999999786
        },
        {
          "name": "C#2",
          "midi": 37,
          "time": 93.8889639999996,
          "velocity": 0.7874015748031497,
          "duration": 0.5555559999999957
        },
        {
          "name": "D#2",
          "midi": 39,
          "time": 94.1667419999996,
          "velocity": 0.7874015748031497,
          "duration": 0.27777799999999786
        },
        {
          "name": "D#2",
          "midi": 39,
          "time": 94.4445199999996,
          "velocity": 0.7874015748031497,
          "duration": 0.27777799999999786
        },
        {
          "name": "C#2",
          "midi": 37,
          "time": 95.0000759999996,
          "velocity": 0.7874015748031497,
          "duration": 0.27777799999999786
        },
        {
          "name": "D2",
          "midi": 38,
          "time": 95.27785399999959,
          "velocity": 0.7874015748031497,
          "duration": 0.27777799999999786
        },
        {
          "name": "D2",
          "midi": 38,
          "time": 95.55563199999959,
          "velocity": 0.7874015748031497,
          "duration": 0.27777799999999786
        },
        {
          "name": "D#2",
          "midi": 39,
          "time": 95.83340999999959,
          "velocity": 0.7874015748031497,
          "duration": 0.27777799999999786
        },
        {
          "name": "C#2",
          "midi": 37,
          "time": 96.11118799999959,
          "velocity": 0.7874015748031497,
          "duration": 0.5555559999999957
        },
        {
          "name": "D#2",
          "midi": 39,
          "time": 96.38896599999958,
          "velocity": 0.7874015748031497,
          "duration": 0.27777799999999786
        },
        {
          "name": "D#2",
          "midi": 39,
          "time": 96.66674399999958,
          "velocity": 0.7874015748031497,
          "duration": 0.27777799999999786
        },
        {
          "name": "C#2",
          "midi": 37,
          "time": 97.22229999999958,
          "velocity": 0.7874015748031497,
          "duration": 0.27777799999999786
        },
        {
          "name": "D2",
          "midi": 38,
          "time": 97.50007799999958,
          "velocity": 0.7874015748031497,
          "duration": 0.27777799999999786
        },
        {
          "name": "D2",
          "midi": 38,
          "time": 97.77785599999957,
          "velocity": 0.7874015748031497,
          "duration": 0.27777799999999786
        },
        {
          "name": "D#2",
          "midi": 39,
          "time": 98.05563399999957,
          "velocity": 0.7874015748031497,
          "duration": 0.27777799999999786
        },
        {
          "name": "C#2",
          "midi": 37,
          "time": 98.33341199999957,
          "velocity": 0.7874015748031497,
          "duration": 0.5555559999999957
        },
        {
          "name": "D#2",
          "midi": 39,
          "time": 98.61118999999957,
          "velocity": 0.7874015748031497,
          "duration": 0.27777799999999786
        },
        {
          "name": "D#2",
          "midi": 39,
          "time": 98.88896799999956,
          "velocity": 0.7874015748031497,
          "duration": 0.27777799999999786
        },
        {
          "name": "C#2",
          "midi": 37,
          "time": 99.44452399999956,
          "velocity": 0.7874015748031497,
          "duration": 0.27777799999999786
        },
        {
          "name": "D2",
          "midi": 38,
          "time": 99.72230199999956,
          "velocity": 0.7874015748031497,
          "duration": 0.27777799999999786
        },
        {
          "name": "D2",
          "midi": 38,
          "time": 100.00007999999956,
          "velocity": 0.7874015748031497,
          "duration": 0.27777799999999786
        },
        {
          "name": "D#2",
          "midi": 39,
          "time": 100.27785799999955,
          "velocity": 0.7874015748031497,
          "duration": 0.27777799999999786
        },
        {
          "name": "C#2",
          "midi": 37,
          "time": 100.55563599999955,
          "velocity": 0.7874015748031497,
          "duration": 0.5555559999999957
        },
        {
          "name": "D#2",
          "midi": 39,
          "time": 100.83341399999955,
          "velocity": 0.7874015748031497,
          "duration": 0.27777799999999786
        },
        {
          "name": "D#2",
          "midi": 39,
          "time": 101.11119199999955,
          "velocity": 0.7874015748031497,
          "duration": 0.27777799999999786
        },
        {
          "name": "C#2",
          "midi": 37,
          "time": 101.66674799999954,
          "velocity": 0.7874015748031497,
          "duration": 0.27777799999999786
        },
        {
          "name": "D2",
          "midi": 38,
          "time": 101.94452599999954,
          "velocity": 0.7874015748031497,
          "duration": 0.27777799999999786
        },
        {
          "name": "D2",
          "midi": 38,
          "time": 102.22230399999954,
          "velocity": 0.7874015748031497,
          "duration": 0.27777799999999786
        },
        {
          "name": "D#2",
          "midi": 39,
          "time": 102.50008199999954,
          "velocity": 0.7874015748031497,
          "duration": 0.27777799999999786
        },
        {
          "name": "C#2",
          "midi": 37,
          "time": 102.77785999999954,
          "velocity": 0.7874015748031497,
          "duration": 0.5555559999999957
        },
        {
          "name": "D#2",
          "midi": 39,
          "time": 103.05563799999953,
          "velocity": 0.7874015748031497,
          "duration": 0.27777799999999786
        },
        {
          "name": "D#2",
          "midi": 39,
          "time": 103.33341599999953,
          "velocity": 0.7874015748031497,
          "duration": 0.27777799999999786
        },
        {
          "name": "C#2",
          "midi": 37,
          "time": 103.88897199999953,
          "velocity": 0.7874015748031497,
          "duration": 0.27777799999999786
        },
        {
          "name": "D2",
          "midi": 38,
          "time": 104.16674999999952,
          "velocity": 0.7874015748031497,
          "duration": 0.27777799999999786
        },
        {
          "name": "D2",
          "midi": 38,
          "time": 104.44452799999952,
          "velocity": 0.7874015748031497,
          "duration": 0.27777799999999786
        },
        {
          "name": "D#2",
          "midi": 39,
          "time": 104.72230599999952,
          "velocity": 0.7874015748031497,
          "duration": 0.27777799999999786
        },
        {
          "name": "C#2",
          "midi": 37,
          "time": 105.00008399999952,
          "velocity": 0.7874015748031497,
          "duration": 0.5555559999999957
        },
        {
          "name": "D#2",
          "midi": 39,
          "time": 105.27786199999952,
          "velocity": 0.7874015748031497,
          "duration": 0.27777799999999786
        },
        {
          "name": "D#2",
          "midi": 39,
          "time": 105.55563999999951,
          "velocity": 0.7874015748031497,
          "duration": 0.27777799999999786
        },
        {
          "name": "C#2",
          "midi": 37,
          "time": 106.11119599999951,
          "velocity": 0.7874015748031497,
          "duration": 0.27777799999999786
        },
        {
          "name": "D2",
          "midi": 38,
          "time": 106.38897399999951,
          "velocity": 0.7874015748031497,
          "duration": 0.27777799999999786
        },
        {
          "name": "D2",
          "midi": 38,
          "time": 106.6667519999995,
          "velocity": 0.7874015748031497,
          "duration": 0.27777799999999786
        },
        {
          "name": "D#2",
          "midi": 39,
          "time": 106.9445299999995,
          "velocity": 0.7874015748031497,
          "duration": 0.27777799999999786
        },
        {
          "name": "C#2",
          "midi": 37,
          "time": 107.2223079999995,
          "velocity": 0.7874015748031497,
          "duration": 0.5555559999999957
        },
        {
          "name": "D#2",
          "midi": 39,
          "time": 107.5000859999995,
          "velocity": 0.7874015748031497,
          "duration": 0.27777799999999786
        },
        {
          "name": "D#2",
          "midi": 39,
          "time": 107.7778639999995,
          "velocity": 0.7874015748031497,
          "duration": 0.27777799999999786
        },
        {
          "name": "C#2",
          "midi": 37,
          "time": 108.33341999999949,
          "velocity": 0.7874015748031497,
          "duration": 0.27777799999999786
        },
        {
          "name": "D2",
          "midi": 38,
          "time": 108.61119799999949,
          "velocity": 0.7874015748031497,
          "duration": 0.27777799999999786
        },
        {
          "name": "D2",
          "midi": 38,
          "time": 108.88897599999949,
          "velocity": 0.7874015748031497,
          "duration": 0.27777799999999786
        },
        {
          "name": "D#2",
          "midi": 39,
          "time": 109.16675399999949,
          "velocity": 0.7874015748031497,
          "duration": 0.27777799999999786
        },
        {
          "name": "C#2",
          "midi": 37,
          "time": 109.44453199999948,
          "velocity": 0.7874015748031497,
          "duration": 0.5555559999999957
        },
        {
          "name": "D#2",
          "midi": 39,
          "time": 109.72230999999948,
          "velocity": 0.7874015748031497,
          "duration": 0.27777799999999786
        },
        {
          "name": "D#2",
          "midi": 39,
          "time": 110.00008799999948,
          "velocity": 0.7874015748031497,
          "duration": 0.27777799999999786
        },
        {
          "name": "C#2",
          "midi": 37,
          "time": 110.55564399999948,
          "velocity": 0.7874015748031497,
          "duration": 0.27777799999999786
        },
        {
          "name": "D2",
          "midi": 38,
          "time": 110.83342199999947,
          "velocity": 0.7874015748031497,
          "duration": 0.27777799999999786
        },
        {
          "name": "D2",
          "midi": 38,
          "time": 111.11119999999947,
          "velocity": 0.7874015748031497,
          "duration": 0.27777799999999786
        },
        {
          "name": "D#2",
          "midi": 39,
          "time": 111.38897799999947,
          "velocity": 0.7874015748031497,
          "duration": 0.27777799999999786
        },
        {
          "name": "C#2",
          "midi": 37,
          "time": 111.66675599999947,
          "velocity": 0.7874015748031497,
          "duration": 0.5555559999999957
        },
        {
          "name": "D#2",
          "midi": 39,
          "time": 111.94453399999946,
          "velocity": 0.7874015748031497,
          "duration": 0.27777799999999786
        },
        {
          "name": "D#2",
          "midi": 39,
          "time": 112.22231199999946,
          "velocity": 0.7874015748031497,
          "duration": 0.27777799999999786
        },
        {
          "name": "C2",
          "midi": 36,
          "time": 112.77786799999946,
          "velocity": 0.7874015748031497,
          "duration": 0.5555559999999957
        },
        {
          "name": "D2",
          "midi": 38,
          "time": 113.33342399999945,
          "velocity": 0.7874015748031497,
          "duration": 0.27777799999999786
        },
        {
          "name": "D#2",
          "midi": 39,
          "time": 113.61120199999945,
          "velocity": 0.7874015748031497,
          "duration": 0.27777799999999786
        },
        {
          "name": "C#2",
          "midi": 37,
          "time": 113.88897999999945,
          "velocity": 0.7874015748031497,
          "duration": 0.5555559999999957
        },
        {
          "name": "D#2",
          "midi": 39,
          "time": 114.16675799999945,
          "velocity": 0.7874015748031497,
          "duration": 0.27777799999999786
        },
        {
          "name": "D#2",
          "midi": 39,
          "time": 114.44453599999945,
          "velocity": 0.7874015748031497,
          "duration": 0.27777799999999786
        },
        {
          "name": "C2",
          "midi": 36,
          "time": 115.00009199999944,
          "velocity": 0.7874015748031497,
          "duration": 0.5555559999999957
        },
        {
          "name": "D2",
          "midi": 38,
          "time": 115.55564799999944,
          "velocity": 0.7874015748031497,
          "duration": 0.27777799999999786
        },
        {
          "name": "D#2",
          "midi": 39,
          "time": 115.83342599999943,
          "velocity": 0.7874015748031497,
          "duration": 0.27777799999999786
        },
        {
          "name": "C#2",
          "midi": 37,
          "time": 116.11120399999943,
          "velocity": 0.7874015748031497,
          "duration": 0.5555559999999957
        },
        {
          "name": "D#2",
          "midi": 39,
          "time": 116.38898199999943,
          "velocity": 0.7874015748031497,
          "duration": 0.27777799999999786
        },
        {
          "name": "D#2",
          "midi": 39,
          "time": 116.66675999999943,
          "velocity": 0.7874015748031497,
          "duration": 0.27777799999999786
        },
        {
          "name": "C2",
          "midi": 36,
          "time": 117.22231599999942,
          "velocity": 0.7874015748031497,
          "duration": 0.5555559999999957
        },
        {
          "name": "D2",
          "midi": 38,
          "time": 117.77787199999942,
          "velocity": 0.7874015748031497,
          "duration": 0.27777799999999786
        },
        {
          "name": "D#2",
          "midi": 39,
          "time": 118.05564999999942,
          "velocity": 0.7874015748031497,
          "duration": 0.27777799999999786
        },
        {
          "name": "C#2",
          "midi": 37,
          "time": 118.33342799999942,
          "velocity": 0.7874015748031497,
          "duration": 0.5555559999999957
        },
        {
          "name": "D#2",
          "midi": 39,
          "time": 118.61120599999941,
          "velocity": 0.7874015748031497,
          "duration": 0.27777799999999786
        },
        {
          "name": "D#2",
          "midi": 39,
          "time": 118.88898399999941,
          "velocity": 0.7874015748031497,
          "duration": 0.27777799999999786
        },
        {
          "name": "C2",
          "midi": 36,
          "time": 119.4445399999994,
          "velocity": 0.7874015748031497,
          "duration": 0.5555559999999957
        },
        {
          "name": "D2",
          "midi": 38,
          "time": 120.0000959999994,
          "velocity": 0.7874015748031497,
          "duration": 0.27777799999999786
        },
        {
          "name": "D#2",
          "midi": 39,
          "time": 120.2778739999994,
          "velocity": 0.7874015748031497,
          "duration": 0.27777799999999786
        },
        {
          "name": "C#2",
          "midi": 37,
          "time": 120.5556519999994,
          "velocity": 0.7874015748031497,
          "duration": 0.5555559999999957
        },
        {
          "name": "D#2",
          "midi": 39,
          "time": 120.8334299999994,
          "velocity": 0.7874015748031497,
          "duration": 0.27777799999999786
        },
        {
          "name": "D#2",
          "midi": 39,
          "time": 121.1112079999994,
          "velocity": 0.7874015748031497,
          "duration": 0.27777799999999786
        },
        {
          "name": "C2",
          "midi": 36,
          "time": 121.66676399999939,
          "velocity": 0.7874015748031497,
          "duration": 0.5555559999999957
        },
        {
          "name": "D2",
          "midi": 38,
          "time": 122.22231999999939,
          "velocity": 0.7874015748031497,
          "duration": 0.27777799999999786
        },
        {
          "name": "D#2",
          "midi": 39,
          "time": 122.50009799999938,
          "velocity": 0.7874015748031497,
          "duration": 0.27777799999999786
        },
        {
          "name": "C#2",
          "midi": 37,
          "time": 122.77787599999938,
          "velocity": 0.7874015748031497,
          "duration": 0.5555559999999957
        },
        {
          "name": "D#2",
          "midi": 39,
          "time": 123.05565399999938,
          "velocity": 0.7874015748031497,
          "duration": 0.27777799999999786
        },
        {
          "name": "D#2",
          "midi": 39,
          "time": 123.33343199999938,
          "velocity": 0.7874015748031497,
          "duration": 0.27777799999999786
        },
        {
          "name": "C2",
          "midi": 36,
          "time": 123.88898799999937,
          "velocity": 0.7874015748031497,
          "duration": 0.5555559999999957
        },
        {
          "name": "D2",
          "midi": 38,
          "time": 124.44454399999937,
          "velocity": 0.7874015748031497,
          "duration": 0.27777799999999786
        },
        {
          "name": "D#2",
          "midi": 39,
          "time": 124.72232199999937,
          "velocity": 0.7874015748031497,
          "duration": 0.27777799999999786
        },
        {
          "name": "C#2",
          "midi": 37,
          "time": 125.00009999999936,
          "velocity": 0.7874015748031497,
          "duration": 0.5555559999999957
        },
        {
          "name": "D#2",
          "midi": 39,
          "time": 125.27787799999936,
          "velocity": 0.7874015748031497,
          "duration": 0.27777799999999786
        },
        {
          "name": "D#2",
          "midi": 39,
          "time": 125.55565599999936,
          "velocity": 0.7874015748031497,
          "duration": 0.27777799999999786
        },
        {
          "name": "C2",
          "midi": 36,
          "time": 126.11121199999936,
          "velocity": 0.7874015748031497,
          "duration": 0.5555559999999957
        },
        {
          "name": "D2",
          "midi": 38,
          "time": 126.66676799999935,
          "velocity": 0.7874015748031497,
          "duration": 0.27777799999999786
        },
        {
          "name": "D#2",
          "midi": 39,
          "time": 126.94454599999935,
          "velocity": 0.7874015748031497,
          "duration": 0.27777799999999786
        },
        {
          "name": "C#2",
          "midi": 37,
          "time": 127.22232399999935,
          "velocity": 0.7874015748031497,
          "duration": 0.5555559999999957
        },
        {
          "name": "D#2",
          "midi": 39,
          "time": 127.50010199999934,
          "velocity": 0.7874015748031497,
          "duration": 0.27777799999999786
        },
        {
          "name": "D#2",
          "midi": 39,
          "time": 127.77787999999934,
          "velocity": 0.7874015748031497,
          "duration": 0.27777799999999786
        },
        {
          "name": "C2",
          "midi": 36,
          "time": 128.33343599999935,
          "velocity": 0.7874015748031497,
          "duration": 0.5555559999999957
        },
        {
          "name": "D2",
          "midi": 38,
          "time": 128.88899199999935,
          "velocity": 0.7874015748031497,
          "duration": 0.27777800000001207
        },
        {
          "name": "D#2",
          "midi": 39,
          "time": 129.16676999999936,
          "velocity": 0.7874015748031497,
          "duration": 0.27777800000001207
        },
        {
          "name": "C#2",
          "midi": 37,
          "time": 129.44454799999937,
          "velocity": 0.7874015748031497,
          "duration": 0.5555560000000241
        },
        {
          "name": "D#2",
          "midi": 39,
          "time": 129.72232599999938,
          "velocity": 0.7874015748031497,
          "duration": 0.27777800000001207
        },
        {
          "name": "D#2",
          "midi": 39,
          "time": 130.0001039999994,
          "velocity": 0.7874015748031497,
          "duration": 0.27777800000001207
        },
        {
          "name": "C2",
          "midi": 36,
          "time": 130.55565999999942,
          "velocity": 0.7874015748031497,
          "duration": 0.5555559999999957
        },
        {
          "name": "D2",
          "midi": 38,
          "time": 131.11121599999942,
          "velocity": 0.7874015748031497,
          "duration": 0.27777800000001207
        },
        {
          "name": "D#2",
          "midi": 39,
          "time": 131.38899399999943,
          "velocity": 0.7874015748031497,
          "duration": 0.27777800000001207
        },
        {
          "name": "C#2",
          "midi": 37,
          "time": 131.66677199999944,
          "velocity": 0.7874015748031497,
          "duration": 0.5555560000000241
        },
        {
          "name": "D#2",
          "midi": 39,
          "time": 131.94454999999945,
          "velocity": 0.7874015748031497,
          "duration": 0.27777800000001207
        },
        {
          "name": "D#2",
          "midi": 39,
          "time": 132.22232799999946,
          "velocity": 0.7874015748031497,
          "duration": 0.27777800000001207
        },
        {
          "name": "C2",
          "midi": 36,
          "time": 132.7778839999995,
          "velocity": 0.7874015748031497,
          "duration": 0.5555559999999957
        },
        {
          "name": "D2",
          "midi": 38,
          "time": 133.33343999999948,
          "velocity": 0.7874015748031497,
          "duration": 0.27777800000001207
        },
        {
          "name": "D#2",
          "midi": 39,
          "time": 133.6112179999995,
          "velocity": 0.7874015748031497,
          "duration": 0.27777800000001207
        },
        {
          "name": "C#2",
          "midi": 37,
          "time": 133.8889959999995,
          "velocity": 0.7874015748031497,
          "duration": 0.5555560000000241
        },
        {
          "name": "D#2",
          "midi": 39,
          "time": 134.16677399999952,
          "velocity": 0.7874015748031497,
          "duration": 0.27777800000001207
        },
        {
          "name": "D#2",
          "midi": 39,
          "time": 134.44455199999953,
          "velocity": 0.7874015748031497,
          "duration": 0.27777800000001207
        },
        {
          "name": "C2",
          "midi": 36,
          "time": 135.00010799999956,
          "velocity": 0.7874015748031497,
          "duration": 0.5555559999999957
        },
        {
          "name": "D2",
          "midi": 38,
          "time": 135.55566399999955,
          "velocity": 0.7874015748031497,
          "duration": 0.27777800000001207
        },
        {
          "name": "D#2",
          "midi": 39,
          "time": 135.83344199999956,
          "velocity": 0.7874015748031497,
          "duration": 0.27777800000001207
        },
        {
          "name": "C#2",
          "midi": 37,
          "time": 136.11121999999958,
          "velocity": 0.7874015748031497,
          "duration": 0.5555560000000241
        },
        {
          "name": "D#2",
          "midi": 39,
          "time": 136.3889979999996,
          "velocity": 0.7874015748031497,
          "duration": 0.27777800000001207
        },
        {
          "name": "D#2",
          "midi": 39,
          "time": 136.6667759999996,
          "velocity": 0.7874015748031497,
          "duration": 0.27777800000001207
        },
        {
          "name": "C2",
          "midi": 36,
          "time": 137.22233199999962,
          "velocity": 0.7874015748031497,
          "duration": 0.5555559999999957
        },
        {
          "name": "D2",
          "midi": 38,
          "time": 137.77788799999962,
          "velocity": 0.7874015748031497,
          "duration": 0.27777800000001207
        },
        {
          "name": "D#2",
          "midi": 39,
          "time": 138.05566599999963,
          "velocity": 0.7874015748031497,
          "duration": 0.27777800000001207
        },
        {
          "name": "C#2",
          "midi": 37,
          "time": 138.33344399999964,
          "velocity": 0.7874015748031497,
          "duration": 0.5555560000000241
        },
        {
          "name": "D#2",
          "midi": 39,
          "time": 138.61122199999966,
          "velocity": 0.7874015748031497,
          "duration": 0.27777800000001207
        },
        {
          "name": "D#2",
          "midi": 39,
          "time": 138.88899999999967,
          "velocity": 0.7874015748031497,
          "duration": 0.27777800000001207
        },
        {
          "name": "C2",
          "midi": 36,
          "time": 139.4445559999997,
          "velocity": 0.7874015748031497,
          "duration": 0.5555559999999957
        },
        {
          "name": "D2",
          "midi": 38,
          "time": 140.0001119999997,
          "velocity": 0.7874015748031497,
          "duration": 0.27777800000001207
        },
        {
          "name": "D#2",
          "midi": 39,
          "time": 140.2778899999997,
          "velocity": 0.7874015748031497,
          "duration": 0.27777800000001207
        },
        {
          "name": "C#2",
          "midi": 37,
          "time": 140.5556679999997,
          "velocity": 0.7874015748031497,
          "duration": 0.5555560000000241
        },
        {
          "name": "D#2",
          "midi": 39,
          "time": 140.83344599999973,
          "velocity": 0.7874015748031497,
          "duration": 0.27777800000001207
        },
        {
          "name": "D#2",
          "midi": 39,
          "time": 141.11122399999974,
          "velocity": 0.7874015748031497,
          "duration": 0.27777800000001207
        },
        {
          "name": "C2",
          "midi": 36,
          "time": 141.66677999999976,
          "velocity": 0.7874015748031497,
          "duration": 0.5555559999999957
        },
        {
          "name": "D2",
          "midi": 38,
          "time": 142.22233599999976,
          "velocity": 0.7874015748031497,
          "duration": 0.27777800000001207
        },
        {
          "name": "D#2",
          "midi": 39,
          "time": 142.50011399999977,
          "velocity": 0.7874015748031497,
          "duration": 0.27777800000001207
        },
        {
          "name": "C#2",
          "midi": 37,
          "time": 142.77789199999978,
          "velocity": 0.7874015748031497,
          "duration": 0.5555560000000241
        },
        {
          "name": "D#2",
          "midi": 39,
          "time": 143.0556699999998,
          "velocity": 0.7874015748031497,
          "duration": 0.27777800000001207
        },
        {
          "name": "D#2",
          "midi": 39,
          "time": 143.3334479999998,
          "velocity": 0.7874015748031497,
          "duration": 0.27777800000001207
        },
        {
          "name": "C2",
          "midi": 36,
          "time": 143.88900399999983,
          "velocity": 0.7874015748031497,
          "duration": 0.5555559999999957
        },
        {
          "name": "D2",
          "midi": 38,
          "time": 144.44455999999983,
          "velocity": 0.7874015748031497,
          "duration": 0.27777800000001207
        },
        {
          "name": "D#2",
          "midi": 39,
          "time": 144.72233799999984,
          "velocity": 0.7874015748031497,
          "duration": 0.27777800000001207
        },
        {
          "name": "C#2",
          "midi": 37,
          "time": 145.00011599999985,
          "velocity": 0.7874015748031497,
          "duration": 0.5555560000000241
        },
        {
          "name": "D#2",
          "midi": 39,
          "time": 145.27789399999986,
          "velocity": 0.7874015748031497,
          "duration": 0.27777800000001207
        },
        {
          "name": "D#2",
          "midi": 39,
          "time": 145.55567199999987,
          "velocity": 0.7874015748031497,
          "duration": 0.27777800000001207
        },
        {
          "name": "C2",
          "midi": 36,
          "time": 146.1112279999999,
          "velocity": 0.7874015748031497,
          "duration": 0.5555559999999957
        }
      ],
      "controlChanges": {
        "7": [
          {
            "number": 7,
            "time": 0,
            "value": 1
          }
        ],
        "32": [
          {
            "number": 32,
            "time": 0,
            "value": 0
          }
        ]
      },
      "id": 1,
      "name": "Untitled",
      "instrumentNumber": 0,
      "instrument": "acoustic grand piano",
      "instrumentFamily": "piano",
      "channelNumber": 0,
      "isPercussion": false
    }
  ]
}