{
  "header": {
    "PPQ": 96,
    "timeSignature": [
      4,
      4
    ],
    "bpm": 120,
    "name": ""
  },
  "tempo": [],
  "timeSignature": [
    {
      "absoluteTime": 0,
      "seconds": 0,
      "numerator": 4,
      "denominator": 2,
      "click": 36,
      "notesQ": 8
    },
    {
      "absoluteTime": 0,
      "seconds": 0,
      "numerator": 4,
      "denominator": 2,
      "click": 36,
      "notesQ": 8
    }
  ],
  "startTime": 16,
  "duration": 176,
  "tracks": [
    {
      "startTime": 16,
      "duration": 176,
      "length": 464,
      "notes": [
        {
          "name": "C2",
          "midi": 36,
          "time": 16,
          "velocity": 0.7874015748031497,
          "duration": 0.125
        },
        {
          "name": "C2",
          "midi": 36,
          "time": 16.75,
          "velocity": 0.7874015748031497,
          "duration": 0.125
        },
        {
          "name": "C2",
          "midi": 36,
          "time": 17.25,
          "velocity": 0.7874015748031497,
          "duration": 0.125
        },
        {
          "name": "C2",
          "midi": 36,
          "time": 18,
          "velocity": 0.7874015748031497,
          "duration": 0.125
        },
        {
          "name": "C2",
          "midi": 36,
          "time": 18.75,
          "velocity": 0.7874015748031497,
          "duration": 0.125
        },
        {
          "name": "C2",
          "midi": 36,
          "time": 20,
          "velocity": 0.7874015748031497,
          "duration": 0.125
        },
        {
          "name": "C2",
          "midi": 36,
          "time": 20.75,
          "velocity": 0.7874015748031497,
          "duration": 0.125
        },
        {
          "name": "C2",
          "midi": 36,
          "time": 21.25,
          "velocity": 0.7874015748031497,
          "duration": 0.125
        },
        {
          "name": "C2",
          "midi": 36,
          "time": 22,
          "velocity": 0.7874015748031497,
          "duration": 0.125
        },
        {
          "name": "C2",
          "midi": 36,
          "time": 22.75,
          "velocity": 0.7874015748031497,
          "duration": 0.125
        },
        {
          "name": "C2",
          "midi": 36,
          "time": 24,
          "velocity": 0.7874015748031497,
          "duration": 0.125
        },
        {
          "name": "C2",
          "midi": 36,
          "time": 24.75,
          "velocity": 0.7874015748031497,
          "duration": 0.125
        },
        {
          "name": "C2",
          "midi": 36,
          "time": 25.25,
          "velocity": 0.7874015748031497,
          "duration": 0.125
        },
        {
          "name": "C2",
          "midi": 36,
          "time": 26,
          "velocity": 0.7874015748031497,
          "duration": 0.125
        },
        {
          "name": "C2",
          "midi": 36,
          "time": 26.75,
          "velocity": 0.7874015748031497,
          "duration": 0.125
        },
        {
          "name": "C2",
          "midi": 36,
          "time": 28,
          "velocity": 0.7874015748031497,
          "duration": 0.125
        },
        {
          "name": "C2",
          "midi": 36,
          "time": 28.75,
          "velocity": 0.7874015748031497,
          "duration": 0.125
        },
        {
          "name": "C2",
          "midi": 36,
          "time": 29.25,
          "velocity": 0.7874015748031497,
          "duration": 0.125
        },
        {
          "name": "C2",
          "midi": 36,
          "time": 30,
          "velocity": 0.7874015748031497,
          "duration": 0.125
        },
        {
          "name": "C2",
          "midi": 36,
          "time": 30.75,
          "velocity": 0.7874015748031497,
          "duration": 0.125
        },
        {
          "name": "C2",
          "midi": 36,
          "time": 32,
          "velocity": 0.7874015748031497,
          "duration": 0.125
        },
        {
          "name": "C2",
          "midi": 36,
          "time": 32.75,
          "velocity": 0.7874015748031497,
          "duration": 0.125
        },
        {
          "name": "C2",
          "midi": 36,
          "time": 33.25,
          "velocity": 0.7874015748031497,
          "duration": 0.125
        },
        {
          "name": "C2",
          "midi": 36,
          "time": 34,
          "velocity": 0.7874015748031497,
          "duration": 0.125
        },
        {
          "name": "C2",
          "midi": 36,
          "time": 34.75,
          "velocity": 0.7874015748031497,
          "duration": 0.125
        },
        {
          "name": "C2",
          "midi": 36,
          "time": 36,
          "velocity": 0.7874015748031497,
          "duration": 0.125
        },
        {
          "name": "C2",
          "midi": 36,
          "time": 36.75,
          "velocity": 0.7874015748031497,
          "duration": 0.125
        },
        {
          "name": "C2",
          "midi": 36,
          "time": 37.25,
          "velocity": 0.7874015748031497,
          "duration": 0.125
        },
        {
          "name": "C2",
          "midi": 36,
          "time": 38,
          "velocity": 0.7874015748031497,
          "duration": 0.125
        },
        {
          "name": "C2",
          "midi": 36,
          "time": 38.75,
          "velocity": 0.7874015748031497,
          "duration": 0.125
        },
        {
          "name": "C2",
          "midi": 36,
          "time": 40,
          "velocity": 0.7874015748031497,
          "duration": 0.125
        },
        {
          "name": "C2",
          "midi": 36,
          "time": 40.75,
          "velocity": 0.7874015748031497,
          "duration": 0.125
        },
        {
          "name": "C2",
          "midi": 36,
          "time": 41.25,
          "velocity": 0.7874015748031497,
          "duration": 0.125
        },
        {
          "name": "C2",
          "midi": 36,
          "time": 42,
          "velocity": 0.7874015748031497,
          "duration": 0.125
        },
        {
          "name": "C2",
          "midi": 36,
          "time": 42.75,
          "velocity": 0.7874015748031497,
          "duration": 0.125
        },
        {
          "name": "C2",
          "midi": 36,
          "time": 44,
          "velocity": 0.7874015748031497,
          "duration": 0.125
        },
        {
          "name": "C2",
          "midi": 36,
          "time": 44.75,
          "velocity": 0.7874015748031497,
          "duration": 0.125
        },
        {
          "name": "C2",
          "midi": 36,
          "time": 45.25,
          "velocity": 0.7874015748031497,
          "duration": 0.125
        },
        {
          "name": "C2",
          "midi": 36,
          "time": 46,
          "velocity": 0.7874015748031497,
          "duration": 0.125
        },
        {
          "name": "C2",
          "midi": 36,
          "time": 46.75,
          "velocity": 0.7874015748031497,
          "duration": 0.125
        },
        {
          "name": "C2",
          "midi": 36,
          "time": 48,
          "velocity": 0.7874015748031497,
          "duration": 0.125
        },
        {
          "name": "D2",
          "midi": 38,
          "time": 48.25,
          "velocity": 0.7874015748031497,
          "duration": 0.125
        },
        {
          "name": "C#2",
          "midi": 37,
          "time": 48.5,
          "velocity": 0.7874015748031497,
          "duration": 0.125
        },
        {
          "name": "C2",
          "midi": 36,
          "time": 48.75,
          "velocity": 0.7874015748031497,
          "duration": 0.125
        },
        {
          "name": "C2",
          "midi": 36,
          "time": 49.25,
          "velocity": 0.7874015748031497,
          "duration": 0.125
        },
        {
          "name": "C#2",
          "midi": 37,
          "time": 49.5,
          "velocity": 0.7874015748031497,
          "duration": 0.125
        },
        {
          "name": "C2",
          "midi": 36,
          "time": 50,
          "velocity": 0.7874015748031497,
          "duration": 0.125
        },
        {
          "name": "D2",
          "midi": 38,
          "time": 50.25,
          "velocity": 0.7874015748031497,
          "duration": 0.125
        },
        {
          "name": "C#2",
          "midi": 37,
          "time": 50.5,
          "velocity": 0.7874015748031497,
          "duration": 0.125
        },
        {
          "name": "C2",
          "midi": 36,
          "time": 50.75,
          "velocity": 0.7874015748031497,
          "duration": 0.125
        },
        {
          "name": "D2",
          "midi": 38,
          "time": 51.25,
          "velocity": 0.7874015748031497,
          "duration": 0.125
        },
        {
          "name": "C#2",
          "midi": 37,
          "time": 51.5,
          "velocity": 0.7874015748031497,
          "duration": 0.125
        },
        {
          "name": "D2",
          "midi": 38,
          "time": 51.75,
          "velocity": 0.7874015748031497,
          "duration": 0.125
        },
        {
          "name": "C2",
          "midi": 36,
          "time": 52,
          "velocity": 0.7874015748031497,
          "duration": 0.125
        },
        {
          "name": "D2",
          "midi": 38,
          "time": 52.25,
          "velocity": 0.7874015748031497,
          "duration": 0.125
        },
        {
          "name": "C#2",
          "midi": 37,
          "time": 52.5,
          "velocity": 0.7874015748031497,
          "duration": 0.125
        },
        {
          "name": "C2",
          "midi": 36,
          "time": 52.75,
          "velocity": 0.7874015748031497,
          "duration": 0.125
        },
        {
          "name": "C2",
          "midi": 36,
          "time": 53.25,
          "velocity": 0.7874015748031497,
          "duration": 0.125
        },
        {
          "name": "C#2",
          "midi": 37,
          "time": 53.5,
          "velocity": 0.7874015748031497,
          "duration": 0.125
        },
        {
          "name": "C2",
          "midi": 36,
          "time": 54,
          "velocity": 0.7874015748031497,
          "duration": 0.125
        },
        {
          "name": "D2",
          "midi": 38,
          "time": 54.25,
          "velocity": 0.7874015748031497,
          "duration": 0.125
        },
        {
          "name": "C#2",
          "midi": 37,
          "time": 54.5,
          "velocity": 0.7874015748031497,
          "duration": 0.125
        },
        {
          "name": "C2",
          "midi": 36,
          "time": 54.75,
          "velocity": 0.7874015748031497,
          "duration": 0.125
        },
        {
          "name": "D2",
          "midi": 38,
          "time": 55.25,
          "velocity": 0.7874015748031497,
          "duration": 0.125
        },
        {
          "name": "C#2",
          "midi": 37,
          "time": 55.5,
          "velocity": 0.7874015748031497,
          "duration": 0.125
        },
        {
          "name": "D2",
          "midi": 38,
          "time": 55.75,
          "velocity": 0.7874015748031497,
          "duration": 0.125
        },
        {
          "name": "C2",
          "midi": 36,
          "time": 56,
          "velocity": 0.7874015748031497,
          "duration": 0.125
        },
        {
          "name": "D2",
          "midi": 38,
          "time": 56.25,
          "velocity": 0.7874015748031497,
          "duration": 0.125
        },
        {
          "name": "C#2",
          "midi": 37,
          "time": 56.5,
          "velocity": 0.7874015748031497,
          "duration": 0.125
        },
        {
          "name": "C2",
          "midi": 36,
          "time": 56.75,
          "velocity": 0.7874015748031497,
          "duration": 0.125
        },
        {
          "name": "C2",
          "midi": 36,
          "time": 57.25,
          "velocity": 0.7874015748031497,
          "duration": 0.125
        },
        {
          "name": "C#2",
          "midi": 37,
          "time": 57.5,
          "velocity": 0.7874015748031497,
          "duration": 0.125
        },
        {
          "name": "C2",
          "midi": 36,
          "time": 58,
          "velocity": 0.7874015748031497,
          "duration": 0.125
        },
        {
          "name": "D2",
          "midi": 38,
          "time": 58.25,
          "velocity": 0.7874015748031497,
          "duration": 0.125
        },
        {
          "name": "C#2",
          "midi": 37,
          "time": 58.5,
          "velocity": 0.7874015748031497,
          "duration": 0.125
        },
        {
          "name": "C2",
          "midi": 36,
          "time": 58.75,
          "velocity": 0.7874015748031497,
          "duration": 0.125
        },
        {
          "name": "D2",
          "midi": 38,
          "time": 59.25,
          "velocity": 0.7874015748031497,
          "duration": 0.125
        },
        {
          "name": "C#2",
          "midi": 37,
          "time": 59.5,
          "velocity": 0.7874015748031497,
          "duration": 0.125
        },
        {
          "name": "D2",
          "midi": 38,
          "time": 59.75,
          "velocity": 0.7874015748031497,
          "duration": 0.125
        },
        {
          "name": "C2",
          "midi": 36,
          "time": 60,
          "velocity": 0.7874015748031497,
          "duration": 0.125
        },
        {
          "name": "D2",
          "midi": 38,
          "time": 60.25,
          "velocity": 0.7874015748031497,
          "duration": 0.125
        },
        {
          "name": "C#2",
          "midi": 37,
          "time": 60.5,
          "velocity": 0.7874015748031497,
          "duration": 0.125
        },
        {
          "name": "C2",
          "midi": 36,
          "time": 60.75,
          "velocity": 0.7874015748031497,
          "duration": 0.125
        },
        {
          "name": "C2",
          "midi": 36,
          "time": 61.25,
          "velocity": 0.7874015748031497,
          "duration": 0.125
        },
        {
          "name": "C#2",
          "midi": 37,
          "time": 61.5,
          "velocity": 0.7874015748031497,
          "duration": 0.125
        },
        {
          "name": "C2",
          "midi": 36,
          "time": 62,
          "velocity": 0.7874015748031497,
          "duration": 0.125
        },
        {
          "name": "D2",
          "midi": 38,
          "time": 62.25,
          "velocity": 0.7874015748031497,
          "duration": 0.125
        },
        {
          "name": "C#2",
          "midi": 37,
          "time": 62.5,
          "velocity": 0.7874015748031497,
          "duration": 0.125
        },
        {
          "name": "C2",
          "midi": 36,
          "time": 62.75,
          "velocity": 0.7874015748031497,
          "duration": 0.125
        },
        {
          "name": "D2",
          "midi": 38,
          "time": 63.25,
          "velocity": 0.7874015748031497,
          "duration": 0.125
        },
        {
          "name": "C#2",
          "midi": 37,
          "time": 63.5,
          "velocity": 0.7874015748031497,
          "duration": 0.125
        },
        {
          "name": "D2",
          "midi": 38,
          "time": 63.75,
          "velocity": 0.7874015748031497,
          "duration": 0.125
        },
        {
          "name": "C2",
          "midi": 36,
          "time": 64,
          "velocity": 0.7874015748031497,
          "duration": 0.125
        },
        {
          "name": "D#2",
          "midi": 39,
          "time": 64.25,
          "velocity": 0.7874015748031497,
          "duration": 0.125
        },
        {
          "name": "C#2",
          "midi": 37,
          "time": 64.5,
          "velocity": 0.7874015748031497,
          "duration": 0.125
        },
        {
          "name": "C2",
          "midi": 36,
          "time": 64.75,
          "velocity": 0.7874015748031497,
          "duration": 0.125
        },
        {
          "name": "D2",
          "midi": 38,
          "time": 65,
          "velocity": 0.7874015748031497,
          "duration": 0.125
        },
        {
          "name": "C2",
          "midi": 36,
          "time": 65.25,
          "velocity": 0.7874015748031497,
          "duration": 0.125
        },
        {
          "name": "C#2",
          "midi": 37,
          "time": 65.5,
          "velocity": 0.7874015748031497,
          "duration": 0.125
        },
        {
          "name": "D#2",
          "midi": 39,
          "time": 65.75,
          "velocity": 0.7874015748031497,
          "duration": 0.125
        },
        {
          "name": "C2",
          "midi": 36,
          "time": 66,
          "velocity": 0.7874015748031497,
          "duration": 0.125
        },
        {
          "name": "D#2",
          "midi": 39,
          "time": 66.25,
          "velocity": 0.7874015748031497,
          "duration": 0.125
        },
        {
          "name": "C#2",
          "midi": 37,
          "time": 66.5,
          "velocity": 0.7874015748031497,
          "duration": 0.125
        },
        {
          "name": "C2",
          "midi": 36,
          "time": 66.75,
          "velocity": 0.7874015748031497,
          "duration": 0.125
        },
        {
          "name": "D#2",
          "midi": 39,
          "time": 67.25,
          "velocity": 0.7874015748031497,
          "duration": 0.125
        },
        {
          "name": "C#2",
          "midi": 37,
          "time": 67.5,
          "velocity": 0.7874015748031497,
          "duration": 0.125
        },
        {
          "name": "D#2",
          "midi": 39,
          "time": 67.75,
          "velocity": 0.7874015748031497,
          "duration": 0.125
        },
        {
          "name": "C2",
          "midi": 36,
          "time": 68,
          "velocity": 0.7874015748031497,
          "duration": 0.125
        },
        {
          "name": "D#2",
          "midi": 39,
          "time": 68.25,
          "velocity": 0.7874015748031497,
          "duration": 0.125
        },
        {
          "name": "C#2",
          "midi": 37,
          "time": 68.5,
          "velocity": 0.7874015748031497,
          "duration": 0.125
        },
        {
          "name": "C2",
          "midi": 36,
          "time": 68.75,
          "velocity": 0.7874015748031497,
          "duration": 0.125
        },
        {
          "name": "D2",
          "midi": 38,
          "time": 69,
          "velocity": 0.7874015748031497,
          "duration": 0.125
        },
        {
          "name": "C2",
          "midi": 36,
          "time": 69.25,
          "velocity": 0.7874015748031497,
          "duration": 0.125
        },
        {
          "name": "C#2",
          "midi": 37,
          "time": 69.5,
          "velocity": 0.7874015748031497,
          "duration": 0.125
        },
        {
          "name": "D#2",
          "midi": 39,
          "time": 69.75,
          "velocity": 0.7874015748031497,
          "duration": 0.125
        },
        {
          "name": "C2",
          "midi": 36,
          "time": 70,
          "velocity": 0.7874015748031497,
          "duration": 0.125
        },
        {
          "name": "D#2",
          "midi": 39,
          "time": 70.25,
          "velocity": 0.7874015748031497,
          "duration": 0.125
        },
        {
          "name": "C#2",
          "midi": 37,
          "time": 70.5,
          "velocity": 0.7874015748031497,
          "duration": 0.125
        },
        {
          "name": "C2",
          "midi": 36,
          "time": 70.75,
          "velocity": 0.7874015748031497,
          "duration": 0.125
        },
        {
          "name": "D#2",
          "midi": 39,
          "time": 71.25,
          "velocity": 0.7874015748031497,
          "duration": 0.125
        },
        {
          "name": "C#2",
          "midi": 37,
          "time": 71.5,
          "velocity": 0.7874015748031497,
          "duration": 0.125
        },
        {
          "name": "D#2",
          "midi": 39,
          "time": 71.75,
          "velocity": 0.7874015748031497,
          "duration": 0.125
        },
        {
          "name": "C2",
          "midi": 36,
          "time": 72,
          "velocity": 0.7874015748031497,
          "duration": 0.125
        },
        {
          "name": "D#2",
          "midi": 39,
          "time": 72.25,
          "velocity": 0.7874015748031497,
          "duration": 0.125
        },
        {
          "name": "C#2",
          "midi": 37,
          "time": 72.5,
          "velocity": 0.7874015748031497,
          "duration": 0.125
        },
        {
          "name": "C2",
          "midi": 36,
          "time": 72.75,
          "velocity": 0.7874015748031497,
          "duration": 0.125
        },
        {
          "name": "D2",
          "midi": 38,
          "time": 73,
          "velocity": 0.7874015748031497,
          "duration": 0.125
        },
        {
          "name": "C2",
          "midi": 36,
          "time": 73.25,
          "velocity": 0.7874015748031497,
          "duration": 0.125
        },
        {
          "name": "C#2",
          "midi": 37,
          "time": 73.5,
          "velocity": 0.7874015748031497,
          "duration": 0.125
        },
        {
          "name": "D#2",
          "midi": 39,
          "time": 73.75,
          "velocity": 0.7874015748031497,
          "duration": 0.125
        },
        {
          "name": "C2",
          "midi": 36,
          "time": 74,
          "velocity": 0.7874015748031497,
          "duration": 0.125
        },
        {
          "name": "D#2",
          "midi": 39,
          "time": 74.25,
          "velocity": 0.7874015748031497,
          "duration": 0.125
        },
        {
          "name": "C#2",
          "midi": 37,
          "time": 74.5,
          "velocity": 0.7874015748031497,
          "duration": 0.125
        },
        {
          "name": "C2",
          "midi": 36,
          "time": 74.75,
          "velocity": 0.7874015748031497,
          "duration": 0.125
        },
        {
          "name": "D#2",
          "midi": 39,
          "time": 75.25,
          "velocity": 0.7874015748031497,
          "duration": 0.125
        },
        {
          "name": "C#2",
          "midi": 37,
          "time": 75.5,
          "velocity": 0.7874015748031497,
          "duration": 0.125
        },
        {
          "name": "D#2",
          "midi": 39,
          "time": 75.75,
          "velocity": 0.7874015748031497,
          "duration": 0.125
        },
        {
          "name": "C2",
          "midi": 36,
          "time": 76,
          "velocity": 0.7874015748031497,
          "duration": 0.125
        },
        {
          "name": "D#2",
          "midi": 39,
          "time": 76.25,
          "velocity": 0.7874015748031497,
          "duration": 0.125
        },
        {
          "name": "C#2",
          "midi": 37,
          "time": 76.5,
          "velocity": 0.7874015748031497,
          "duration": 0.125
        },
        {
          "name": "C2",
          "midi": 36,
          "time": 76.75,
          "velocity": 0.7874015748031497,
          "duration": 0.125
        },
        {
          "name": "D2",
          "midi": 38,
          "time": 77,
          "velocity": 0.7874015748031497,
          "duration": 0.125
        },
        {
          "name": "C2",
          "midi": 36,
          "time": 77.25,
          "velocity": 0.7874015748031497,
          "duration": 0.125
        },
        {
          "name": "C#2",
          "midi": 37,
          "time": 77.5,
          "velocity": 0.7874015748031497,
          "duration": 0.125
        },
        {
          "name": "D#2",
          "midi": 39,
          "time": 77.75,
          "velocity": 0.7874015748031497,
          "duration": 0.125
        },
        {
          "name": "C2",
          "midi": 36,
          "time": 78,
          "velocity": 0.7874015748031497,
          "duration": 0.125
        },
        {
          "name": "D#2",
          "midi": 39,
          "time": 78.25,
          "velocity": 0.7874015748031497,
          "duration": 0.125
        },
        {
          "name": "C#2",
          "midi": 37,
          "time": 78.5,
          "velocity": 0.7874015748031497,
          "duration": 0.125
        },
        {
          "name": "C2",
          "midi": 36,
          "time": 78.75,
          "velocity": 0.7874015748031497,
          "duration": 0.125
        },
        {
          "name": "D#2",
          "midi": 39,
          "time": 79.25,
          "velocity": 0.7874015748031497,
          "duration": 0.125
        },
        {
          "name": "C#2",
          "midi": 37,
          "time": 79.5,
          "velocity": 0.7874015748031497,
          "duration": 0.125
        },
        {
          "name": "D2",
          "midi": 38,
          "time": 79.75,
          "velocity": 0.7874015748031497,
          "duration": 0.125
        },
        {
          "name": "D#2",
          "midi": 39,
          "time": 80,
          "velocity": 0.7874015748031497,
          "duration": 0.125
        },
        {
          "name": "D2",
          "midi": 38,
          "time": 80.25,
          "velocity": 0.7874015748031497,
          "duration": 0.125
        },
        {
          "name": "C2",
          "midi": 36,
          "time": 80.5,
          "velocity": 0.7874015748031497,
          "duration": 0.125
        },
        {
          "name": "D#2",
          "midi": 39,
          "time": 80.75,
          "velocity": 0.7874015748031497,
          "duration": 0.125
        },
        {
          "name": "D2",
          "midi": 38,
          "time": 81,
          "velocity": 0.7874015748031497,
          "duration": 0.125
        },
        {
          "name": "C2",
          "midi": 36,
          "time": 81.25,
          "velocity": 0.7874015748031497,
          "duration": 0.125
        },
        {
          "name": "D#2",
          "midi": 39,
          "time": 81.5,
          "velocity": 0.7874015748031497,
          "duration": 0.125
        },
        {
          "name": "D2",
          "midi": 38,
          "time": 81.75,
          "velocity": 0.7874015748031497,
          "duration": 0.125
        },
        {
          "name": "C2",
          "midi": 36,
          "time": 82,
          "velocity": 0.7874015748031497,
          "duration": 0.125
        },
        {
          "name": "D#2",
          "midi": 39,
          "time": 82.25,
          "velocity": 0.7874015748031497,
          "duration": 0.125
        },
        {
          "name": "D2",
          "midi": 38,
          "time": 82.5,
          "velocity": 0.7874015748031497,
          "duration": 0.125
        },
        {
          "name": "C#2",
          "midi": 37,
          "time": 82.75,
          "velocity": 0.7874015748031497,
          "duration": 0.125
        },
        {
          "name": "D#2",
          "midi": 39,
          "time": 83,
          "velocity": 0.7874015748031497,
          "duration": 0.125
        },
        {
          "name": "D2",
          "midi": 38,
          "time": 83.25,
          "velocity": 0.7874015748031497,
          "duration": 0.125
        },
        {
          "name": "C2",
          "midi": 36,
          "time": 83.5,
          "velocity": 0.7874015748031497,
          "duration": 0.125
        },
        {
          "name": "C#2",
          "midi": 37,
          "time": 83.75,
          "velocity": 0.7874015748031497,
          "duration": 0.125
        },
        {
          "name": "C2",
          "midi": 36,
          "time": 84,
          "velocity": 0.7874015748031497,
          "duration": 0.125
        },
        {
          "name": "C#2",
          "midi": 37,
          "time": 84.25,
          "velocity": 0.7874015748031497,
          "duration": 0.125
        },
        {
          "name": "D#2",
          "midi": 39,
          "time": 84.5,
          "velocity": 0.7874015748031497,
          "duration": 0.125
        },
        {
          "name": "C2",
          "midi": 36,
          "time": 84.75,
          "velocity": 0.7874015748031497,
          "duration": 0.125
        },
        {
          "name": "C#2",
          "midi": 37,
          "time": 85,
          "velocity": 0.7874015748031497,
          "duration": 0.125
        },
        {
          "name": "D#2",
          "midi": 39,
          "time": 85.25,
          "velocity": 0.7874015748031497,
          "duration": 0.125
        },
        {
          "name": "C2",
          "midi": 36,
          "time": 85.5,
          "velocity": 0.7874015748031497,
          "duration": 0.125
        },
        {
          "name": "C#2",
          "midi": 37,
          "time": 85.75,
          "velocity": 0.7874015748031497,
          "duration": 0.125
        },
        {
          "name": "D#2",
          "midi": 39,
          "time": 86,
          "velocity": 0.7874015748031497,
          "duration": 0.125
        },
        {
          "name": "C2",
          "midi": 36,
          "time": 86.25,
          "velocity": 0.7874015748031497,
          "duration": 0.125
        },
        {
          "name": "C#2",
          "midi": 37,
          "time": 86.5,
          "velocity": 0.7874015748031497,
          "duration": 0.125
        },
        {
          "name": "D2",
          "midi": 38,
          "time": 86.75,
          "velocity": 0.7874015748031497,
          "duration": 0.125
        },
        {
          "name": "C2",
          "midi": 36,
          "time": 87,
          "velocity": 0.7874015748031497,
          "duration": 0.125
        },
        {
          "name": "C#2",
          "midi": 37,
          "time": 87.25,
          "velocity": 0.7874015748031497,
          "duration": 0.125
        },
        {
          "name": "D2",
          "midi": 38,
          "time": 87.5,
          "velocity": 0.7874015748031497,
          "duration": 0.125
        },
        {
          "name": "D#2",
          "midi": 39,
          "time": 87.75,
          "velocity": 0.7874015748031497,
          "duration": 0.125
        },
        {
          "name": "D#2",
          "midi": 39,
          "time": 88,
          "velocity": 0.7874015748031497,
          "duration": 0.125
        },
        {
          "name": "D2",
          "midi": 38,
          "time": 88.25,
          "velocity": 0.7874015748031497,
          "duration": 0.125
        },
        {
          "name": "C2",
          "midi": 36,
          "time": 88.5,
          "velocity": 0.7874015748031497,
          "duration": 0.125
        },
        {
          "name": "D#2",
          "midi": 39,
          "time": 88.75,
          "velocity": 0.7874015748031497,
          "duration": 0.125
        },
        {
          "name": "D2",
          "midi": 38,
          "time": 89,
          "velocity": 0.7874015748031497,
          "duration": 0.125
        },
        {
          "name": "C2",
          "midi": 36,
          "time": 89.25,
          "velocity": 0.7874015748031497,
          "duration": 0.125
        },
        {
          "name": "D#2",
          "midi": 39,
          "time": 89.5,
          "velocity": 0.7874015748031497,
          "duration": 0.125
        },
        {
          "name": "D2",
          "midi": 38,
          "time": 89.75,
          "velocity": 0.7874015748031497,
          "duration": 0.125
        },
        {
          "name": "C2",
          "midi": 36,
          "time": 90,
          "velocity": 0.7874015748031497,
          "duration": 0.125
        },
        {
          "name": "D#2",
          "midi": 39,
          "time": 90.25,
          "velocity": 0.7874015748031497,
          "duration": 0.125
        },
        {
          "name": "D2",
          "midi": 38,
          "time": 90.5,
          "velocity": 0.7874015748031497,
          "duration": 0.125
        },
        {
          "name": "C#2",
          "midi": 37,
          "time": 90.75,
          "velocity": 0.7874015748031497,
          "duration": 0.125
        },
        {
          "name": "D#2",
          "midi": 39,
          "time": 91,
          "velocity": 0.7874015748031497,
          "duration": 0.125
        },
        {
          "name": "D2",
          "midi": 38,
          "time": 91.25,
          "velocity": 0.7874015748031497,
          "duration": 0.125
        },
        {
          "name": "C2",
          "midi": 36,
          "time": 91.5,
          "velocity": 0.7874015748031497,
          "duration": 0.125
        },
        {
          "name": "C#2",
          "midi": 37,
          "time": 91.75,
          "velocity": 0.7874015748031497,
          "duration": 0.125
        },
        {
          "name": "D#2",
          "midi": 39,
          "time": 92,
          "velocity": 0.7874015748031497,
          "duration": 0.125
        },
        {
          "name": "D2",
          "midi": 38,
          "time": 92.25,
          "velocity": 0.7874015748031497,
          "duration": 0.125
        },
        {
          "name": "C#2",
          "midi": 37,
          "time": 92.5,
          "velocity": 0.7874015748031497,
          "duration": 0.125
        },
        {
          "name": "C2",
          "midi": 36,
          "time": 92.75,
          "velocity": 0.7874015748031497,
          "duration": 0.125
        },
        {
          "name": "D2",
          "midi": 38,
          "time": 93,
          "velocity": 0.7874015748031497,
          "duration": 0.125
        },
        {
          "name": "C#2",
          "midi": 37,
          "time": 93.25,
          "velocity": 0.7874015748031497,
          "duration": 0.125
        },
        {
          "name": "C2",
          "midi": 36,
          "time": 93.5,
          "velocity": 0.7874015748031497,
          "duration": 0.125
        },
        {
          "name": "D#2",
          "midi": 39,
          "time": 93.75,
          "velocity": 0.7874015748031497,
          "duration": 0.125
        },
        {
          "name": "C#2",
          "midi": 37,
          "time": 94,
          "velocity": 0.7874015748031497,
          "duration": 0.125
        },
        {
          "name": "C2",
          "midi": 36,
          "time": 94.25,
          "velocity": 0.7874015748031497,
          "duration": 0.125
        },
        {
          "name": "D#2",
          "midi": 39,
          "time": 94.5,
          "velocity": 0.7874015748031497,
          "duration": 0.125
        },
        {
          "name": "C#2",
          "midi": 37,
          "time": 94.75,
          "velocity": 0.7874015748031497,
          "duration": 0.125
        },
        {
          "name": "C2",
          "midi": 36,
          "time": 95,
          "velocity": 0.7874015748031497,
          "duration": 0.125
        },
        {
          "name": "D#2",
          "midi": 39,
          "time": 95.25,
          "velocity": 0.7874015748031497,
          "duration": 0.125
        },
        {
          "name": "C#2",
          "midi": 37,
          "time": 95.5,
          "velocity": 0.7874015748031497,
          "duration": 0.125
        },
        {
          "name": "C2",
          "midi": 36,
          "time": 95.75,
          "velocity": 0.7874015748031497,
          "duration": 0.125
        },
        {
          "name": "C2",
          "midi": 36,
          "time": 96,
          "velocity": 0.7874015748031497,
          "duration": 0.125
        },
        {
          "name": "D#2",
          "midi": 39,
          "time": 96.25,
          "velocity": 0.7874015748031497,
          "duration": 0.125
        },
        {
          "name": "C#2",
          "midi": 37,
          "time": 96.5,
          "velocity": 0.7874015748031497,
          "duration": 0.125
        },
        {
          "name": "C2",
          "midi": 36,
          "time": 96.75,
          "velocity": 0.7874015748031497,
          "duration": 0.125
        },
        {
          "name": "D2",
          "midi": 38,
          "time": 97,
          "velocity": 0.7874015748031497,
          "duration": 0.125
        },
        {
          "name": "C2",
          "midi": 36,
          "time": 97.25,
          "velocity": 0.7874015748031497,
          "duration": 0.125
        },
        {
          "name": "C#2",
          "midi": 37,
          "time": 97.5,
          "velocity": 0.7874015748031497,
          "duration": 0.125
        },
        {
          "name": "D#2",
          "midi": 39,
          "time": 97.75,
          "velocity": 0.7874015748031497,
          "duration": 0.125
        },
        {
          "name": "C2",
          "midi": 36,
          "time": 98,
          "velocity": 0.7874015748031497,
          "duration": 0.125
        },
        {
          "name": "D#2",
          "midi": 39,
          "time": 98.25,
          "velocity": 0.7874015748031497,
          "duration": 0.125
        },
        {
          "name": "C#2",
          "midi": 37,
          "time": 98.5,
          "velocity": 0.7874015748031497,
          "duration": 0.125
        },
        {
          "name": "C2",
          "midi": 36,
          "time": 98.75,
          "velocity": 0.7874015748031497,
          "duration": 0.125
        },
        {
          "name": "D#2",
          "midi": 39,
          "time": 99.25,
          "velocity": 0.7874015748031497,
          "duration": 0.125
        },
        {
          "name": "C#2",
          "midi": 37,
          "time": 99.5,
          "velocity": 0.7874015748031497,
          "duration": 0.125
        },
        {
          "name": "D#2",
          "midi": 39,
          "time": 99.75,
          "velocity": 0.7874015748031497,
          "duration": 0.125
        },
        {
          "name": "C2",
          "midi": 36,
          "time": 100,
          "velocity": 0.7874015748031497,
          "duration": 0.125
        },
        {
          "name": "D#2",
          "midi": 39,
          "time": 100.25,
          "velocity": 0.7874015748031497,
          "duration": 0.125
        },
        {
          "name": "C#2",
          "midi": 37,
          "time": 100.5,
          "velocity": 0.7874015748031497,
          "duration": 0.125
        },
        {
          "name": "C2",
          "midi": 36,
          "time": 100.75,
          "velocity": 0.7874015748031497,
          "duration": 0.125
        },
        {
          "name": "D2",
          "midi": 38,
          "time": 101,
          "velocity": 0.7874015748031497,
          "duration": 0.125
        },
        {
          "name": "C2",
          "midi": 36,
          "time": 101.25,
          "velocity": 0.7874015748031497,
          "duration": 0.125
        },
        {
          "name": "C#2",
          "midi": 37,
          "time": 101.5,
          "velocity": 0.7874015748031497,
          "duration": 0.125
        },
        {
          "name": "D#2",
          "midi": 39,
          "time": 101.75,
          "velocity": 0.7874015748031497,
          "duration": 0.125
        },
        {
          "name": "C2",
          "midi": 36,
          "time": 102,
          "velocity": 0.7874015748031497,
          "duration": 0.125
        },
        {
          "name": "D#2",
          "midi": 39,
          "time": 102.25,
          "velocity": 0.7874015748031497,
          "duration": 0.125
        },
        {
          "name": "C#2",
          "midi": 37,
          "time": 102.5,
          "velocity": 0.7874015748031497,
          "duration": 0.125
        },
        {
          "name": "C2",
          "midi": 36,
          "time": 102.75,
          "velocity": 0.7874015748031497,
          "duration": 0.125
        },
        {
          "name": "D#2",
          "midi": 39,
          "time": 103.25,
          "velocity": 0.7874015748031497,
          "duration": 0.125
        },
        {
          "name": "C#2",
          "midi": 37,
          "time": 103.5,
          "velocity": 0.7874015748031497,
          "duration": 0.125
        },
        {
          "name": "D#2",
          "midi": 39,
          "time": 103.75,
          "velocity": 0.7874015748031497,
          "duration": 0.125
        },
        {
          "name": "C2",
          "midi": 36,
          "time": 104,
          "velocity": 0.7874015748031497,
          "duration": 0.125
        },
        {
          "name": "D#2",
          "midi": 39,
          "time": 104.25,
          "velocity": 0.7874015748031497,
          "duration": 0.125
        },
        {
          "name": "C#2",
          "midi": 37,
          "time": 104.5,
          "velocity": 0.7874015748031497,
          "duration": 0.125
        },
        {
          "name": "C2",
          "midi": 36,
          "time": 104.75,
          "velocity": 0.7874015748031497,
          "duration": 0.125
        },
        {
          "name": "D2",
          "midi": 38,
          "time": 105,
          "velocity": 0.7874015748031497,
          "duration": 0.125
        },
        {
          "name": "C2",
          "midi": 36,
          "time": 105.25,
          "velocity": 0.7874015748031497,
          "duration": 0.125
        },
        {
          "name": "C#2",
          "midi": 37,
          "time": 105.5,
          "velocity": 0.7874015748031497,
          "duration": 0.125
        },
        {
          "name": "D#2",
          "midi": 39,
          "time": 105.75,
          "velocity": 0.7874015748031497,
          "duration": 0.125
        },
        {
          "name": "C2",
          "midi": 36,
          "time": 106,
          "velocity": 0.7874015748031497,
          "duration": 0.125
        },
        {
          "name": "D#2",
          "midi": 39,
          "time": 106.25,
          "velocity": 0.7874015748031497,
          "duration": 0.125
        },
        {
          "name": "C#2",
          "midi": 37,
          "time": 106.5,
          "velocity": 0.7874015748031497,
          "duration": 0.125
        },
        {
          "name": "C2",
          "midi": 36,
          "time": 106.75,
          "velocity": 0.7874015748031497,
          "duration": 0.125
        },
        {
          "name": "D#2",
          "midi": 39,
          "time": 107.25,
          "velocity": 0.7874015748031497,
          "duration": 0.125
        },
        {
          "name": "C#2",
          "midi": 37,
          "time": 107.5,
          "velocity": 0.7874015748031497,
          "duration": 0.125
        },
        {
          "name": "D#2",
          "midi": 39,
          "time": 107.75,
          "velocity": 0.7874015748031497,
          "duration": 0.125
        },
        {
          "name": "C2",
          "midi": 36,
          "time": 108,
          "velocity": 0.7874015748031497,
          "duration": 0.125
        },
        {
          "name": "D#2",
          "midi": 39,
          "time": 108.25,
          "velocity": 0.7874015748031497,
          "duration": 0.125
        },
        {
          "name": "C#2",
          "midi": 37,
          "time": 108.5,
          "velocity": 0.7874015748031497,
          "duration": 0.125
        },
        {
          "name": "C2",
          "midi": 36,
          "time": 108.75,
          "velocity": 0.7874015748031497,
          "duration": 0.125
        },
        {
          "name": "D2",
          "midi": 38,
          "time": 109,
          "velocity": 0.7874015748031497,
          "duration": 0.125
        },
        {
          "name": "C2",
          "midi": 36,
          "time": 109.25,
          "velocity": 0.7874015748031497,
          "duration": 0.125
        },
        {
          "name": "C#2",
          "midi": 37,
          "time": 109.5,
          "velocity": 0.7874015748031497,
          "duration": 0.125
        },
        {
          "name": "D#2",
          "midi": 39,
          "time": 109.75,
          "velocity": 0.7874015748031497,
          "duration": 0.125
        },
        {
          "name": "C2",
          "midi": 36,
          "time": 110,
          "velocity": 0.7874015748031497,
          "duration": 0.125
        },
        {
          "name": "D#2",
          "midi": 39,
          "time": 110.25,
          "velocity": 0.7874015748031497,
          "duration": 0.125
        },
        {
          "name": "C#2",
          "midi": 37,
          "time": 110.5,
          "velocity": 0.7874015748031497,
          "duration": 0.125
        },
        {
          "name": "C2",
          "midi": 36,
          "time": 110.75,
          "velocity": 0.7874015748031497,
          "duration": 0.125
        },
        {
          "name": "D#2",
          "midi": 39,
          "time": 111.25,
          "velocity": 0.7874015748031497,
          "duration": 0.125
        },
        {
          "name": "C#2",
          "midi": 37,
          "time": 111.5,
          "velocity": 0.7874015748031497,
          "duration": 0.125
        },
        {
          "name": "D#2",
          "midi": 39,
          "time": 111.75,
          "velocity": 0.7874015748031497,
          "duration": 0.125
        },
        {
          "name": "C2",
          "midi": 36,
          "time": 112,
          "velocity": 0.7874015748031497,
          "duration": 0.125
        },
        {
          "name": "D#2",
          "midi": 39,
          "time": 112.25,
          "velocity": 0.7874015748031497,
          "duration": 0.125
        },
        {
          "name": "C#2",
          "midi": 37,
          "time": 112.5,
          "velocity": 0.7874015748031497,
          "duration": 0.125
        },
        {
          "name": "C2",
          "midi": 36,
          "time": 112.75,
          "velocity": 0.7874015748031497,
          "duration": 0.125
        },
        {
          "name": "D2",
          "midi": 38,
          "time": 113,
          "velocity": 0.7874015748031497,
          "duration": 0.125
        },
        {
          "name": "C2",
          "midi": 36,
          "time": 113.25,
          "velocity": 0.7874015748031497,
          "duration": 0.125
        },
        {
          "name": "C#2",
          "midi": 37,
          "time": 113.5,
          "velocity": 0.7874015748031497,
          "duration": 0.125
        },
        {
          "name": "D#2",
          "midi": 39,
          "time": 113.75,
          "velocity": 0.7874015748031497,
          "duration": 0.125
        },
        {
          "name": "C2",
          "midi": 36,
          "time": 114,
          "velocity": 0.7874015748031497,
          "duration": 0.125
        },
        {
          "name": "D#2",
          "midi": 39,
          "time": 114.25,
          "velocity": 0.7874015748031497,
          "duration": 0.125
        },
        {
          "name": "C#2",
          "midi": 37,
          "time": 114.5,
          "velocity": 0.7874015748031497,
          "duration": 0.125
        },
        {
          "name": "C2",
          "midi": 36,
          "time": 114.75,
          "velocity": 0.7874015748031497,
          "duration": 0.125
        },
        {
          "name": "D#2",
          "midi": 39,
          "time": 115.25,
          "velocity": 0.7874015748031497,
          "duration": 0.125
        },
        {
          "name": "C#2",
          "midi": 37,
          "time": 115.5,
          "velocity": 0.7874015748031497,
          "duration": 0.125
        },
        {
          "name": "D#2",
          "midi": 39,
          "time": 115.75,
          "velocity": 0.7874015748031497,
          "duration": 0.125
        },
        {
          "name": "C2",
          "midi": 36,
          "time": 116,
          "velocity": 0.7874015748031497,
          "duration": 0.125
        },
        {
          "name": "D#2",
          "midi": 39,
          "time": 116.25,
          "velocity": 0.7874015748031497,
          "duration": 0.125
        },
        {
          "name": "C#2",
          "midi": 37,
          "time": 116.5,
          "velocity": 0.7874015748031497,
          "duration": 0.125
        },
        {
          "name": "C2",
          "midi": 36,
          "time": 116.75,
          "velocity": 0.7874015748031497,
          "duration": 0.125
        },
        {
          "name": "D2",
          "midi": 38,
          "time": 117,
          "velocity": 0.7874015748031497,
          "duration": 0.125
        },
        {
          "name": "C2",
          "midi": 36,
          "time": 117.25,
          "velocity": 0.7874015748031497,
          "duration": 0.125
        },
        {
          "name": "C#2",
          "midi": 37,
          "time": 117.5,
          "velocity": 0.7874015748031497,
          "duration": 0.125
        },
        {
          "name": "D#2",
          "midi": 39,
          "time": 117.75,
          "velocity": 0.7874015748031497,
          "duration": 0.125
        },
        {
          "name": "C2",
          "midi": 36,
          "time": 118,
          "velocity": 0.7874015748031497,
          "duration": 0.125
        },
        {
          "name": "D#2",
          "midi": 39,
          "time": 118.25,
          "velocity": 0.7874015748031497,
          "duration": 0.125
        },
        {
          "name": "C#2",
          "midi": 37,
          "time": 118.5,
          "velocity": 0.7874015748031497,
          "duration": 0.125
        },
        {
          "name": "C2",
          "midi": 36,
          "time": 118.75,
          "velocity": 0.7874015748031497,
          "duration": 0.125
        },
        {
          "name": "D#2",
          "midi": 39,
          "time": 119.25,
          "velocity": 0.7874015748031497,
          "duration": 0.125
        },
        {
          "name": "C#2",
          "midi": 37,
          "time": 119.5,
          "velocity": 0.7874015748031497,
          "duration": 0.125
        },
        {
          "name": "D#2",
          "midi": 39,
          "time": 119.75,
          "velocity": 0.7874015748031497,
          "duration": 0.125
        },
        {
          "name": "C2",
          "midi": 36,
          "time": 120,
          "velocity": 0.7874015748031497,
          "duration": 0.125
        },
        {
          "name": "D#2",
          "midi": 39,
          "time": 120.25,
          "velocity": 0.7874015748031497,
          "duration": 0.125
        },
        {
          "name": "C#2",
          "midi": 37,
          "time": 120.5,
          "velocity": 0.7874015748031497,
          "duration": 0.125
        },
        {
          "name": "C2",
          "midi": 36,
          "time": 120.75,
          "velocity": 0.7874015748031497,
          "duration": 0.125
        },
        {
          "name": "D2",
          "midi": 38,
          "time": 121,
          "velocity": 0.7874015748031497,
          "duration": 0.125
        },
        {
          "name": "C2",
          "midi": 36,
          "time": 121.25,
          "velocity": 0.7874015748031497,
          "duration": 0.125
        },
        {
          "name": "C#2",
          "midi": 37,
          "time": 121.5,
          "velocity": 0.7874015748031497,
          "duration": 0.125
        },
        {
          "name": "D#2",
          "midi": 39,
          "time": 121.75,
          "velocity": 0.7874015748031497,
          "duration": 0.125
        },
        {
          "name": "C2",
          "midi": 36,
          "time": 122,
          "velocity": 0.7874015748031497,
          "duration": 0.125
        },
        {
          "name": "D#2",
          "midi": 39,
          "time": 122.25,
          "velocity": 0.7874015748031497,
          "duration": 0.125
        },
        {
          "name": "C#2",
          "midi": 37,
          "time": 122.5,
          "velocity": 0.7874015748031497,
          "duration": 0.125
        },
        {
          "name": "C2",
          "midi": 36,
          "time": 122.75,
          "velocity": 0.7874015748031497,
          "duration": 0.125
        },
        {
          "name": "D#2",
          "midi": 39,
          "time": 123.25,
          "velocity": 0.7874015748031497,
          "duration": 0.125
        },
        {
          "name": "C#2",
          "midi": 37,
          "time": 123.5,
          "velocity": 0.7874015748031497,
          "duration": 0.125
        },
        {
          "name": "D#2",
          "midi": 39,
          "time": 123.75,
          "velocity": 0.7874015748031497,
          "duration": 0.125
        },
        {
          "name": "C2",
          "midi": 36,
          "time": 124,
          "velocity": 0.7874015748031497,
          "duration": 0.125
        },
        {
          "name": "D#2",
          "midi": 39,
          "time": 124.25,
          "velocity": 0.7874015748031497,
          "duration": 0.125
        },
        {
          "name": "C#2",
          "midi": 37,
          "time": 124.5,
          "velocity": 0.7874015748031497,
          "duration": 0.125
        },
        {
          "name": "C2",
          "midi": 36,
          "time": 124.75,
          "velocity": 0.7874015748031497,
          "duration": 0.125
        },
        {
          "name": "D2",
          "midi": 38,
          "time": 125,
          "velocity": 0.7874015748031497,
          "duration": 0.125
        },
        {
          "name": "C2",
          "midi": 36,
          "time": 125.25,
          "velocity": 0.7874015748031497,
          "duration": 0.125
        },
        {
          "name": "C#2",
          "midi": 37,
          "time": 125.5,
          "velocity": 0.7874015748031497,
          "duration": 0.125
        },
        {
          "name": "D#2",
          "midi": 39,
          "time": 125.75,
          "velocity": 0.7874015748031497,
          "duration": 0.125
        },
        {
          "name": "C2",
          "midi": 36,
          "time": 126,
          "velocity": 0.7874015748031497,
          "duration": 0.125
        },
        {
          "name": "D#2",
          "midi": 39,
          "time": 126.25,
          "velocity": 0.7874015748031497,
          "duration": 0.125
        },
        {
          "name": "C#2",
          "midi": 37,
          "time": 126.5,
          "velocity": 0.7874015748031497,
          "duration": 0.125
        },
        {
          "name": "C2",
          "midi": 36,
          "time": 126.75,
          "velocity": 0.7874015748031497,
          "duration": 0.125
        },
        {
          "name": "D#2",
          "midi": 39,
          "time": 127.25,
          "velocity": 0.7874015748031497,
          "duration": 0.125
        },
        {
          "name": "C#2",
          "midi": 37,
          "time": 127.5,
          "velocity": 0.7874015748031497,
          "duration": 0.125
        },
        {
          "name": "D#2",
          "midi": 39,
          "time": 127.75,
          "velocity": 0.7874015748031497,
          "duration": 0.125
        },
        {
          "name": "C2",
          "midi": 36,
          "time": 128,
          "velocity": 0.7874015748031497,
          "duration": 0.125
        },
        {
          "name": "D#2",
          "midi": 39,
          "time": 128.25,
          "velocity": 0.7874015748031497,
          "duration": 0.125
        },
        {
          "name": "C#2",
          "midi": 37,
          "time": 128.5,
          "velocity": 0.7874015748031497,
          "duration": 0.125
        },
        {
          "name": "C2",
          "midi": 36,
          "time": 128.75,
          "velocity": 0.7874015748031497,
          "duration": 0.125
        },
        {
          "name": "D2",
          "midi": 38,
          "time": 129,
          "velocity": 0.7874015748031497,
          "duration": 0.125
        },
        {
          "name": "C2",
          "midi": 36,
          "time": 129.25,
          "velocity": 0.7874015748031497,
          "duration": 0.125
        },
        {
          "name": "C#2",
          "midi": 37,
          "time": 129.5,
          "velocity": 0.7874015748031497,
          "duration": 0.125
        },
        {
          "name": "D#2",
          "midi": 39,
          "time": 129.75,
          "velocity": 0.7874015748031497,
          "duration": 0.125
        },
        {
          "name": "C2",
          "midi": 36,
          "time": 130,
          "velocity": 0.7874015748031497,
          "duration": 0.125
        },
        {
          "name": "D#2",
          "midi": 39,
          "time": 130.25,
          "velocity": 0.7874015748031497,
          "duration": 0.125
        },
        {
          "name": "C#2",
          "midi": 37,
          "time": 130.5,
          "velocity": 0.7874015748031497,
          "duration": 0.125
        },
        {
          "name": "C2",
          "midi": 36,
          "time": 130.75,
          "velocity": 0.7874015748031497,
          "duration": 0.125
        },
        {
          "name": "D#2",
          "midi": 39,
          "time": 131.25,
          "velocity": 0.7874015748031497,
          "duration": 0.125
        },
        {
          "name": "C#2",
          "midi": 37,
          "time": 131.5,
          "velocity": 0.7874015748031497,
          "duration": 0.125
        },
        {
          "name": "D#2",
          "midi": 39,
          "time": 131.75,
          "velocity": 0.7874015748031497,
          "duration": 0.125
        },
        {
          "name": "C2",
          "midi": 36,
          "time": 132,
          "velocity": 0.7874015748031497,
          "duration": 0.125
        },
        {
          "name": "D#2",
          "midi": 39,
          "time": 132.25,
          "velocity": 0.7874015748031497,
          "duration": 0.125
        },
        {
          "name": "C#2",
          "midi": 37,
          "time": 132.5,
          "velocity": 0.7874015748031497,
          "duration": 0.125
        },
        {
          "name": "C2",
          "midi": 36,
          "time": 132.75,
          "velocity": 0.7874015748031497,
          "duration": 0.125
        },
        {
          "name": "D2",
          "midi": 38,
          "time": 133,
          "velocity": 0.7874015748031497,
          "duration": 0.125
        },
        {
          "name": "C2",
          "midi": 36,
          "time": 133.25,
          "velocity": 0.7874015748031497,
          "duration": 0.125
        },
        {
          "name": "C#2",
          "midi": 37,
          "time": 133.5,
          "velocity": 0.7874015748031497,
          "duration": 0.125
        },
        {
          "name": "D#2",
          "midi": 39,
          "time": 133.75,
          "velocity": 0.7874015748031497,
          "duration": 0.125
        },
        {
          "name": "C2",
          "midi": 36,
          "time": 134,
          "velocity": 0.7874015748031497,
          "duration": 0.125
        },
        {
          "name": "D#2",
          "midi": 39,
          "time": 134.25,
          "velocity": 0.7874015748031497,
          "duration": 0.125
        },
        {
          "name": "C#2",
          "midi": 37,
          "time": 134.5,
          "velocity": 0.7874015748031497,
          "duration": 0.125
        },
        {
          "name": "C2",
          "midi": 36,
          "time": 134.75,
          "velocity": 0.7874015748031497,
          "duration": 0.125
        },
        {
          "name": "D#2",
          "midi": 39,
          "time": 135.25,
          "velocity": 0.7874015748031497,
          "duration": 0.125
        },
        {
          "name": "C#2",
          "midi": 37,
          "time": 135.5,
          "velocity": 0.7874015748031497,
          "duration": 0.125
        },
        {
          "name": "D#2",
          "midi": 39,
          "time": 135.75,
          "velocity": 0.7874015748031497,
          "duration": 0.125
        },
        {
          "name": "C2",
          "midi": 36,
          "time": 136,
          "velocity": 0.7874015748031497,
          "duration": 0.125
        },
        {
          "name": "D#2",
          "midi": 39,
          "time": 136.25,
          "velocity": 0.7874015748031497,
          "duration": 0.125
        },
        {
          "name": "C#2",
          "midi": 37,
          "time": 136.5,
          "velocity": 0.7874015748031497,
          "duration": 0.125
        },
        {
          "name": "C2",
          "midi": 36,
          "time": 136.75,
          "velocity": 0.7874015748031497,
          "duration": 0.125
        },
        {
          "name": "D2",
          "midi": 38,
          "time": 137,
          "velocity": 0.7874015748031497,
          "duration": 0.125
        },
        {
          "name": "C2",
          "midi": 36,
          "time": 137.25,
          "velocity": 0.7874015748031497,
          "duration": 0.125
        },
        {
          "name": "C#2",
          "midi": 37,
          "time": 137.5,
          "velocity": 0.7874015748031497,
          "duration": 0.125
        },
        {
          "name": "D#2",
          "midi": 39,
          "time": 137.75,
          "velocity": 0.7874015748031497,
          "duration": 0.125
        },
        {
          "name": "C2",
          "midi": 36,
          "time": 138,
          "velocity": 0.7874015748031497,
          "duration": 0.125
        },
        {
          "name": "D#2",
          "midi": 39,
          "time": 138.25,
          "velocity": 0.7874015748031497,
          "duration": 0.125
        },
        {
          "name": "C#2",
          "midi": 37,
          "time": 138.5,
          "velocity": 0.7874015748031497,
          "duration": 0.125
        },
        {
          "name": "C2",
          "midi": 36,
          "time": 138.75,
          "velocity": 0.7874015748031497,
          "duration": 0.125
        },
        {
          "name": "D#2",
          "midi": 39,
          "time": 139.25,
          "velocity": 0.7874015748031497,
          "duration": 0.125
        },
        {
          "name": "C#2",
          "midi": 37,
          "time": 139.5,
          "velocity": 0.7874015748031497,
          "duration": 0.125
        },
        {
          "name": "D#2",
          "midi": 39,
          "time": 139.75,
          "velocity": 0.7874015748031497,
          "duration": 0.125
        },
        {
          "name": "C2",
          "midi": 36,
          "time": 140,
          "velocity": 0.7874015748031497,
          "duration": 0.125
        },
        {
          "name": "D#2",
          "midi": 39,
          "time": 140.25,
          "velocity": 0.7874015748031497,
          "duration": 0.125
        },
        {
          "name": "C#2",
          "midi": 37,
          "time": 140.5,
          "velocity": 0.7874015748031497,
          "duration": 0.125
        },
        {
          "name": "C2",
          "midi": 36,
          "time": 140.75,
          "velocity": 0.7874015748031497,
          "duration": 0.125
        },
        {
          "name": "D2",
          "midi": 38,
          "time": 141,
          "velocity": 0.7874015748031497,
          "duration": 0.125
        },
        {
          "name": "C2",
          "midi": 36,
          "time": 141.25,
          "velocity": 0.7874015748031497,
          "duration": 0.125
        },
        {
          "name": "C#2",
          "midi": 37,
          "time": 141.5,
          "velocity": 0.7874015748031497,
          "duration": 0.125
        },
        {
          "name": "D#2",
          "midi": 39,
          "time": 141.75,
          "velocity": 0.7874015748031497,
          "duration": 0.125
        },
        {
          "name": "C2",
          "midi": 36,
          "time": 142,
          "velocity": 0.7874015748031497,
          "duration": 0.125
        },
        {
          "name": "D#2",
          "midi": 39,
          "time": 142.25,
          "velocity": 0.7874015748031497,
          "duration": 0.125
        },
        {
          "name": "C#2",
          "midi": 37,
          "time": 142.5,
          "velocity": 0.7874015748031497,
          "duration": 0.125
        },
        {
          "name": "C2",
          "midi": 36,
          "time": 142.75,
          "velocity": 0.7874015748031497,
          "duration": 0.125
        },
        {
          "name": "D#2",
          "midi": 39,
          "time": 143.25,
          "velocity": 0.7874015748031497,
          "duration": 0.125
        },
        {
          "name": "C#2",
          "midi": 37,
          "time": 143.5,
          "velocity": 0.7874015748031497,
          "duration": 0.125
        },
        {
          "name": "D#2",
          "midi": 39,
          "time": 143.75,
          "velocity": 0.7874015748031497,
          "duration": 0.125
        },
        {
          "name": "C2",
          "midi": 36,
          "time": 144,
          "velocity": 0.7874015748031497,
          "duration": 0.125
        },
        {
          "name": "D#2",
          "midi": 39,
          "time": 144.25,
          "velocity": 0.7874015748031497,
          "duration": 0.125
        },
        {
          "name": "C#2",
          "midi": 37,
          "time": 144.5,
          "velocity": 0.7874015748031497,
          "duration": 0.125
        },
        {
          "name": "C2",
          "midi": 36,
          "time": 144.75,
          "velocity": 0.7874015748031497,
          "duration": 0.125
        },
        {
          "name": "D2",
          "midi": 38,
          "time": 145,
          "velocity": 0.7874015748031497,
          "duration": 0.125
        },
        {
          "name": "C2",
          "midi": 36,
          "time": 145.25,
          "velocity": 0.7874015748031497,
          "duration": 0.125
        },
        {
          "name": "C#2",
          "midi": 37,
          "time": 145.5,
          "velocity": 0.7874015748031497,
          "duration": 0.125
        },
        {
          "name": "D#2",
          "midi": 39,
          "time": 145.75,
          "velocity": 0.7874015748031497,
          "duration": 0.125
        },
        {
          "name": "C2",
          "midi": 36,
          "time": 146,
          "velocity": 0.7874015748031497,
          "duration": 0.125
        },
        {
          "name": "D#2",
          "midi": 39,
          "time": 146.25,
          "velocity": 0.7874015748031497,
          "duration": 0.125
        },
        {
          "name": "C#2",
          "midi": 37,
          "time": 146.5,
          "velocity": 0.7874015748031497,
          "duration": 0.125
        },
        {
          "name": "C2",
          "midi": 36,
          "time": 146.75,
          "velocity": 0.7874015748031497,
          "duration": 0.125
        },
        {
          "name": "D#2",
          "midi": 39,
          "time": 147.25,
          "velocity": 0.7874015748031497,
          "duration": 0.125
        },
        {
          "name": "C#2",
          "midi": 37,
          "time": 147.5,
          "velocity": 0.7874015748031497,
          "duration": 0.125
        },
        {
          "name": "D#2",
          "midi": 39,
          "time": 147.75,
          "velocity": 0.7874015748031497,
          "duration": 0.125
        },
        {
          "name": "C2",
          "midi": 36,
          "time": 148,
          "velocity": 0.7874015748031497,
          "duration": 0.125
        },
        {
          "name": "D#2",
          "midi": 39,
          "time": 148.25,
          "velocity": 0.7874015748031497,
          "duration": 0.125
        },
        {
          "name": "C#2",
          "midi": 37,
          "time": 148.5,
          "velocity": 0.7874015748031497,
          "duration": 0.125
        },
        {
          "name": "C2",
          "midi": 36,
          "time": 148.75,
          "velocity": 0.7874015748031497,
          "duration": 0.125
        },
        {
          "name": "D2",
          "midi": 38,
          "time": 149,
          "velocity": 0.7874015748031497,
          "duration": 0.125
        },
        {
          "name": "C2",
          "midi": 36,
          "time": 149.25,
          "velocity": 0.7874015748031497,
          "duration": 0.125
        },
        {
          "name": "C#2",
          "midi": 37,
          "time": 149.5,
          "velocity": 0.7874015748031497,
          "duration": 0.125
        },
        {
          "name": "D#2",
          "midi": 39,
          "time": 149.75,
          "velocity": 0.7874015748031497,
          "duration": 0.125
        },
        {
          "name": "C2",
          "midi": 36,
          "time": 150,
          "velocity": 0.7874015748031497,
          "duration": 0.125
        },
        {
          "name": "D#2",
          "midi": 39,
          "time": 150.25,
          "velocity": 0.7874015748031497,
          "duration": 0.125
        },
        {
          "name": "C#2",
          "midi": 37,
          "time": 150.5,
          "velocity": 0.7874015748031497,
          "duration": 0.125
        },
        {
          "name": "C2",
          "midi": 36,
          "time": 150.75,
          "velocity": 0.7874015748031497,
          "duration": 0.125
        },
        {
          "name": "D#2",
          "midi": 39,
          "time": 151.25,
          "velocity": 0.7874015748031497,
          "duration": 0.125
        },
        {
          "name": "C#2",
          "midi": 37,
          "time": 151.5,
          "velocity": 0.7874015748031497,
          "duration": 0.125
        },
        {
          "name": "D#2",
          "midi": 39,
          "time": 151.75,
          "velocity": 0.7874015748031497,
          "duration": 0.125
        },
        {
          "name": "C2",
          "midi": 36,
          "time": 152,
          "velocity": 0.7874015748031497,
          "duration": 0.125
        },
        {
          "name": "D#2",
          "midi": 39,
          "time": 152.25,
          "velocity": 0.7874015748031497,
          "duration": 0.125
        },
        {
          "name": "C#2",
          "midi": 37,
          "time": 152.5,
          "velocity": 0.7874015748031497,
          "duration": 0.125
        },
        {
          "name": "C2",
          "midi": 36,
          "time": 152.75,
          "velocity": 0.7874015748031497,
          "duration": 0.125
        },
        {
          "name": "D2",
          "midi": 38,
          "time": 153,
          "velocity": 0.7874015748031497,
          "duration": 0.125
        },
        {
          "name": "C2",
          "midi": 36,
          "time": 153.25,
          "velocity": 0.7874015748031497,
          "duration": 0.125
        },
        {
          "name": "C#2",
          "midi": 37,
          "time": 153.5,
          "velocity": 0.7874015748031497,
          "duration": 0.125
        },
        {
          "name": "D#2",
          "midi": 39,
          "time": 153.75,
          "velocity": 0.7874015748031497,
          "duration": 0.125
        },
        {
          "name": "C2",
          "midi": 36,
          "time": 154,
          "velocity": 0.7874015748031497,
          "duration": 0.125
        },
        {
          "name": "D#2",
          "midi": 39,
          "time": 154.25,
          "velocity": 0.7874015748031497,
          "duration": 0.125
        },
        {
          "name": "C#2",
          "midi": 37,
          "time": 154.5,
          "velocity": 0.7874015748031497,
          "duration": 0.125
        },
        {
          "name": "C2",
          "midi": 36,
          "time": 154.75,
          "velocity": 0.7874015748031497,
          "duration": 0.125
        },
        {
          "name": "D#2",
          "midi": 39,
          "time": 155.25,
          "velocity": 0.7874015748031497,
          "duration": 0.125
        },
        {
          "name": "C#2",
          "midi": 37,
          "time": 155.5,
          "velocity": 0.7874015748031497,
          "duration": 0.125
        },
        {
          "name": "D#2",
          "midi": 39,
          "time": 155.75,
          "velocity": 0.7874015748031497,
          "duration": 0.125
        },
        {
          "name": "C2",
          "midi": 36,
          "time": 156,
          "velocity": 0.7874015748031497,
          "duration": 0.125
        },
        {
          "name": "D#2",
          "midi": 39,
          "time": 156.25,
          "velocity": 0.7874015748031497,
          "duration": 0.125
        },
        {
          "name": "C#2",
          "midi": 37,
          "time": 156.5,
          "velocity": 0.7874015748031497,
          "duration": 0.125
        },
        {
          "name": "C2",
          "midi": 36,
          "time": 156.75,
          "velocity": 0.7874015748031497,
          "duration": 0.125
        },
        {
          "name": "D2",
          "midi": 38,
          "time": 157,
          "velocity": 0.7874015748031497,
          "duration": 0.125
        },
        {
          "name": "C2",
          "midi": 36,
          "time": 157.25,
          "velocity": 0.7874015748031497,
          "duration": 0.125
        },
        {
          "name": "C#2",
          "midi": 37,
          "time": 157.5,
          "velocity": 0.7874015748031497,
          "duration": 0.125
        },
        {
          "name": "D#2",
          "midi": 39,
          "time": 157.75,
          "velocity": 0.7874015748031497,
          "duration": 0.125
        },
        {
          "name": "C2",
          "midi": 36,
          "time": 158,
          "velocity": 0.7874015748031497,
          "duration": 0.125
        },
        {
          "name": "D#2",
          "midi": 39,
          "time": 158.25,
          "velocity": 0.7874015748031497,
          "duration": 0.125
        },
        {
          "name": "C#2",
          "midi": 37,
          "time": 158.5,
          "velocity": 0.7874015748031497,
          "duration": 0.125
        },
        {
          "name": "C2",
          "midi": 36,
          "time": 158.75,
          "velocity": 0.7874015748031497,
          "duration": 0.125
        },
        {
          "name": "D#2",
          "midi": 39,
          "time": 159.25,
          "velocity": 0.7874015748031497,
          "duration": 0.125
        },
        {
          "name": "C#2",
          "midi": 37,
          "time": 159.5,
          "velocity": 0.7874015748031497,
          "duration": 0.125
        },
        {
          "name": "D#2",
          "midi": 39,
          "time": 159.75,
          "velocity": 0.7874015748031497,
          "duration": 0.125
        },
        {
          "name": "C2",
          "midi": 36,
          "time": 160,
          "velocity": 0.7874015748031497,
          "duration": 3
        },
        {
          "name": "C#2",
          "midi": 37,
          "time": 163,
          "velocity": 0.7874015748031497,
          "duration": 1
        },
        {
          "name": "D2",
          "midi": 38,
          "time": 164,
          "velocity": 0.7874015748031497,
          "duration": 4
        },
        {
          "name": "C#2",
          "midi": 37,
          "time": 168,
          "velocity": 0.7874015748031497,
          "duration": 1
        },
        {
          "name": "C2",
          "midi": 36,
          "time": 169,
          "velocity": 0.7874015748031497,
          "duration": 2
        },
        {
          "name": "C#2",
          "midi": 37,
          "time": 171,
          "velocity": 0.7874015748031497,
          "duration": 1
        },
        {
          "name": "D2",
          "midi": 38,
          "time": 172,
          "velocity": 0.7874015748031497,
          "duration": 3
        },
        {
          "name": "C#2",
          "midi": 37,
          "time": 175,
          "velocity": 0.7874015748031497,
          "duration": 1
        }
      ],
      "controlChanges": {},
      "id": 0,
      "name": "",
      "channelNumber": 0,
      "isPercussion": false
    }
  ]
}