{
  "header": {
    "PPQ": 96,
    "bpm": 106.99993580003851,
    "timeSignature": [
      4,
      4
    ],
    "name": "Subown",
    "artist": "9Hour",
    "difficulty": "10"
  },
  "tempo": [
    {
      "absoluteTime": 0,
      "seconds": 0,
      "bpm": 106.99993580003851
    }
  ],
  "timeSignature": [
    {
      "absoluteTime": 0,
      "seconds": 0,
      "numerator": 4,
      "denominator": 2,
      "click": 24,
      "notesQ": 8
    }
  ],
  "startTime": 0,
  "duration": 183.92534399999832,
  "tracks": [
    {
      "startTime": 0,
      "duration": 0,
      "length": 0,
      "notes": [],
      "controlChanges": {},
      "id": 0,
      "name": "MIDI"
    },
    {
      "startTime": 4.485984,
      "duration": 183.92534399999832,
      "length": 525,
      "notes": [
        {
          "name": "C#2",
          "midi": 37,
          "time": 4.485984,
          "velocity": 0.5984251968503937,
          "duration": 0.20443937499999976
        },
        {
          "name": "C2",
          "midi": 36,
          "time": 4.766358,
          "velocity": 0.06299212598425197,
          "duration": 0.14018700000000006
        },
        {
          "name": "C#2",
          "midi": 37,
          "time": 5.046732,
          "velocity": 0.47244094488188976,
          "duration": 0.21612162500000043
        },
        {
          "name": "C2",
          "midi": 36,
          "time": 5.467293000000001,
          "velocity": 0.5039370078740157,
          "duration": 0.20443937499999976
        },
        {
          "name": "C2",
          "midi": 36,
          "time": 5.887854000000001,
          "velocity": 0.5354330708661418,
          "duration": 0.21612162500000043
        },
        {
          "name": "C#2",
          "midi": 37,
          "time": 6.308415000000001,
          "velocity": 0.06299212598425197,
          "duration": 0.14018700000000006
        },
        {
          "name": "D#2",
          "midi": 39,
          "time": 6.588789000000001,
          "velocity": 0.7874015748031497,
          "duration": 0.14018700000000006
        },
        {
          "name": "C#2",
          "midi": 37,
          "time": 6.728976000000001,
          "velocity": 0.5984251968503937,
          "duration": 0.20443937499999976
        },
        {
          "name": "C#2",
          "midi": 37,
          "time": 7.149537000000001,
          "velocity": 0.06299212598425197,
          "duration": 0.14018700000000006
        },
        {
          "name": "C#2",
          "midi": 37,
          "time": 7.289724000000001,
          "velocity": 0.47244094488188976,
          "duration": 0.21612162500000043
        },
        {
          "name": "C#2",
          "midi": 37,
          "time": 7.5700980000000015,
          "velocity": 0.06299212598425197,
          "duration": 0.14018700000000006
        },
        {
          "name": "C2",
          "midi": 36,
          "time": 7.710285000000002,
          "velocity": 0.5039370078740157,
          "duration": 0.20443937499999976
        },
        {
          "name": "C#2",
          "midi": 37,
          "time": 8.130846000000002,
          "velocity": 0.5354330708661418,
          "duration": 0.21612162499999954
        },
        {
          "name": "C2",
          "midi": 36,
          "time": 8.691594000000002,
          "velocity": 0.7874015748031497,
          "duration": 0.14018699999999917
        },
        {
          "name": "D#2",
          "midi": 39,
          "time": 8.971968,
          "velocity": 0.5984251968503937,
          "duration": 0.20443937499999976
        },
        {
          "name": "C2",
          "midi": 36,
          "time": 9.252342,
          "velocity": 0.06299212598425197,
          "duration": 0.14018699999999917
        },
        {
          "name": "C#2",
          "midi": 37,
          "time": 9.532715999999999,
          "velocity": 0.47244094488188976,
          "duration": 0.21612162499999954
        },
        {
          "name": "D#2",
          "midi": 39,
          "time": 9.953276999999998,
          "velocity": 0.5039370078740157,
          "duration": 0.20443937499999976
        },
        {
          "name": "C2",
          "midi": 36,
          "time": 10.373837999999997,
          "velocity": 0.5354330708661418,
          "duration": 0.21612162499999954
        },
        {
          "name": "C#2",
          "midi": 37,
          "time": 10.794398999999997,
          "velocity": 0.06299212598425197,
          "duration": 0.14018699999999917
        },
        {
          "name": "C2",
          "midi": 36,
          "time": 11.074772999999995,
          "velocity": 0.7874015748031497,
          "duration": 0.14018699999999917
        },
        {
          "name": "C2",
          "midi": 36,
          "time": 11.214959999999994,
          "velocity": 0.5984251968503937,
          "duration": 0.20443937499999976
        },
        {
          "name": "C2",
          "midi": 36,
          "time": 11.635520999999994,
          "velocity": 0.06299212598425197,
          "duration": 0.14018699999999917
        },
        {
          "name": "C2",
          "midi": 36,
          "time": 11.775707999999993,
          "velocity": 0.47244094488188976,
          "duration": 0.21612162499999954
        },
        {
          "name": "C#2",
          "midi": 37,
          "time": 12.056081999999993,
          "velocity": 0.06299212598425197,
          "duration": 0.14018699999999917
        },
        {
          "name": "C2",
          "midi": 36,
          "time": 12.196268999999992,
          "velocity": 0.5039370078740157,
          "duration": 0.20443937499999976
        },
        {
          "name": "C#2",
          "midi": 37,
          "time": 12.616829999999991,
          "velocity": 0.5354330708661418,
          "duration": 0.21612162499999954
        },
        {
          "name": "C#2",
          "midi": 37,
          "time": 13.177577999999992,
          "velocity": 0.7874015748031497,
          "duration": 0.14018699999999917
        },
        {
          "name": "C2",
          "midi": 36,
          "time": 13.45795199999999,
          "velocity": 0.5984251968503937,
          "duration": 0.20443937499999976
        },
        {
          "name": "C#2",
          "midi": 37,
          "time": 13.73832599999999,
          "velocity": 0.06299212598425197,
          "duration": 0.14018699999999917
        },
        {
          "name": "C#2",
          "midi": 37,
          "time": 14.018699999999988,
          "velocity": 0.47244094488188976,
          "duration": 0.21612162499999954
        },
        {
          "name": "D2",
          "midi": 38,
          "time": 14.439260999999988,
          "velocity": 0.5039370078740157,
          "duration": 0.20443937499999976
        },
        {
          "name": "D#2",
          "midi": 39,
          "time": 14.859821999999987,
          "velocity": 0.5354330708661418,
          "duration": 0.21612162499999954
        },
        {
          "name": "C#2",
          "midi": 37,
          "time": 15.280382999999986,
          "velocity": 0.06299212598425197,
          "duration": 0.14018699999999917
        },
        {
          "name": "D#2",
          "midi": 39,
          "time": 15.560756999999985,
          "velocity": 0.7874015748031497,
          "duration": 0.14018699999999917
        },
        {
          "name": "C#2",
          "midi": 37,
          "time": 15.700943999999984,
          "velocity": 0.5984251968503937,
          "duration": 0.20443937499999976
        },
        {
          "name": "C2",
          "midi": 36,
          "time": 16.121504999999985,
          "velocity": 0.06299212598425197,
          "duration": 0.14018700000000095
        },
        {
          "name": "C#2",
          "midi": 37,
          "time": 16.261691999999986,
          "velocity": 0.47244094488188976,
          "duration": 0.21612162499999954
        },
        {
          "name": "D#2",
          "midi": 39,
          "time": 16.542065999999984,
          "velocity": 0.06299212598425197,
          "duration": 0.14018700000000095
        },
        {
          "name": "C2",
          "midi": 36,
          "time": 16.682252999999985,
          "velocity": 0.5039370078740157,
          "duration": 0.20443937499999976
        },
        {
          "name": "D#2",
          "midi": 39,
          "time": 17.102813999999984,
          "velocity": 0.5354330708661418,
          "duration": 0.21612162499999954
        },
        {
          "name": "D2",
          "midi": 38,
          "time": 17.663561999999985,
          "velocity": 0.7874015748031497,
          "duration": 0.14018700000000095
        },
        {
          "name": "D2",
          "midi": 38,
          "time": 17.943935999999987,
          "velocity": 0.5984251968503937,
          "duration": 0.20443937499999976
        },
        {
          "name": "C2",
          "midi": 36,
          "time": 18.224309999999985,
          "velocity": 0.06299212598425197,
          "duration": 0.14018700000000095
        },
        {
          "name": "C#2",
          "midi": 37,
          "time": 18.504683999999987,
          "velocity": 0.47244094488188976,
          "duration": 0.21612162499999954
        },
        {
          "name": "C#2",
          "midi": 37,
          "time": 18.925244999999986,
          "velocity": 0.5039370078740157,
          "duration": 0.20443937499999976
        },
        {
          "name": "C2",
          "midi": 36,
          "time": 19.345805999999985,
          "velocity": 0.5354330708661418,
          "duration": 0.21612162499999954
        },
        {
          "name": "C#2",
          "midi": 37,
          "time": 19.766366999999985,
          "velocity": 0.06299212598425197,
          "duration": 0.14018700000000095
        },
        {
          "name": "D#2",
          "midi": 39,
          "time": 20.046740999999987,
          "velocity": 0.7874015748031497,
          "duration": 0.14018700000000095
        },
        {
          "name": "C2",
          "midi": 36,
          "time": 21.588797999999986,
          "velocity": 0.7874015748031497,
          "duration": 0.28037399999999835
        },
        {
          "name": "D2",
          "midi": 38,
          "time": 22.429919999999985,
          "velocity": 0.7874015748031497,
          "duration": 0.5607480000000002
        },
        {
          "name": "D2",
          "midi": 38,
          "time": 22.990667999999985,
          "velocity": 0.7874015748031497,
          "duration": 0.28037399999999835
        },
        {
          "name": "C2",
          "midi": 36,
          "time": 23.271041999999984,
          "velocity": 0.7874015748031497,
          "duration": 0.28037399999999835
        },
        {
          "name": "D2",
          "midi": 38,
          "time": 23.551415999999982,
          "velocity": 0.7874015748031497,
          "duration": 0.5607480000000002
        },
        {
          "name": "D2",
          "midi": 38,
          "time": 24.112163999999982,
          "velocity": 0.7874015748031497,
          "duration": 0.5607480000000002
        },
        {
          "name": "D2",
          "midi": 38,
          "time": 24.672911999999982,
          "velocity": 0.7874015748031497,
          "duration": 0.5607480000000002
        },
        {
          "name": "D2",
          "midi": 38,
          "time": 25.233659999999983,
          "velocity": 0.7874015748031497,
          "duration": 0.28037399999999835
        },
        {
          "name": "C2",
          "midi": 36,
          "time": 25.51403399999998,
          "velocity": 0.7874015748031497,
          "duration": 0.28037399999999835
        },
        {
          "name": "D2",
          "midi": 38,
          "time": 25.79440799999998,
          "velocity": 0.7874015748031497,
          "duration": 0.5607480000000002
        },
        {
          "name": "D2",
          "midi": 38,
          "time": 26.35515599999998,
          "velocity": 0.7874015748031497,
          "duration": 0.5607480000000002
        },
        {
          "name": "D2",
          "midi": 38,
          "time": 26.91590399999998,
          "velocity": 0.7874015748031497,
          "duration": 0.28037399999999835
        },
        {
          "name": "D#2",
          "midi": 39,
          "time": 27.196277999999978,
          "velocity": 0.7874015748031497,
          "duration": 0.28037399999999835
        },
        {
          "name": "D2",
          "midi": 38,
          "time": 27.476651999999977,
          "velocity": 0.7874015748031497,
          "duration": 0.28037399999999835
        },
        {
          "name": "C2",
          "midi": 36,
          "time": 27.757025999999975,
          "velocity": 0.7874015748031497,
          "duration": 0.28037399999999835
        },
        {
          "name": "D2",
          "midi": 38,
          "time": 28.037399999999973,
          "velocity": 0.7874015748031497,
          "duration": 0.5607480000000002
        },
        {
          "name": "D2",
          "midi": 38,
          "time": 28.598147999999973,
          "velocity": 0.7874015748031497,
          "duration": 0.5607480000000002
        },
        {
          "name": "D2",
          "midi": 38,
          "time": 29.158895999999974,
          "velocity": 0.7874015748031497,
          "duration": 0.28037399999999835
        },
        {
          "name": "D#2",
          "midi": 39,
          "time": 29.439269999999972,
          "velocity": 0.7874015748031497,
          "duration": 0.28037399999999835
        },
        {
          "name": "D2",
          "midi": 38,
          "time": 29.71964399999997,
          "velocity": 0.7874015748031497,
          "duration": 0.28037399999999835
        },
        {
          "name": "C2",
          "midi": 36,
          "time": 30.00001799999997,
          "velocity": 0.7874015748031497,
          "duration": 0.28037399999999835
        },
        {
          "name": "D#2",
          "midi": 39,
          "time": 30.280391999999967,
          "velocity": 0.7874015748031497,
          "duration": 0.28037399999999835
        },
        {
          "name": "D2",
          "midi": 38,
          "time": 30.841139999999964,
          "velocity": 0.7874015748031497,
          "duration": 0.5607480000000002
        },
        {
          "name": "D2",
          "midi": 38,
          "time": 31.401887999999964,
          "velocity": 0.7874015748031497,
          "duration": 0.28037399999999835
        },
        {
          "name": "D#2",
          "midi": 39,
          "time": 31.682261999999962,
          "velocity": 0.7874015748031497,
          "duration": 0.28037399999999835
        },
        {
          "name": "D2",
          "midi": 38,
          "time": 31.96263599999996,
          "velocity": 0.7874015748031497,
          "duration": 0.2803740000000019
        },
        {
          "name": "C2",
          "midi": 36,
          "time": 32.24300999999996,
          "velocity": 0.7874015748031497,
          "duration": 0.2803740000000019
        },
        {
          "name": "D#2",
          "midi": 39,
          "time": 32.523383999999965,
          "velocity": 0.7874015748031497,
          "duration": 0.2803740000000019
        },
        {
          "name": "D2",
          "midi": 38,
          "time": 33.08413199999997,
          "velocity": 0.7874015748031497,
          "duration": 0.5607479999999967
        },
        {
          "name": "D2",
          "midi": 38,
          "time": 33.644879999999965,
          "velocity": 0.7874015748031497,
          "duration": 0.2803740000000019
        },
        {
          "name": "D#2",
          "midi": 39,
          "time": 33.92525399999997,
          "velocity": 0.7874015748031497,
          "duration": 0.2803740000000019
        },
        {
          "name": "D2",
          "midi": 38,
          "time": 34.20562799999997,
          "velocity": 0.7874015748031497,
          "duration": 0.2803740000000019
        },
        {
          "name": "C2",
          "midi": 36,
          "time": 34.48600199999997,
          "velocity": 0.7874015748031497,
          "duration": 0.2803740000000019
        },
        {
          "name": "D#2",
          "midi": 39,
          "time": 34.76637599999997,
          "velocity": 0.7874015748031497,
          "duration": 0.2803740000000019
        },
        {
          "name": "D2",
          "midi": 38,
          "time": 35.327123999999976,
          "velocity": 0.7874015748031497,
          "duration": 0.5607479999999967
        },
        {
          "name": "D2",
          "midi": 38,
          "time": 35.88787199999997,
          "velocity": 0.7874015748031497,
          "duration": 0.2803740000000019
        },
        {
          "name": "D#2",
          "midi": 39,
          "time": 36.168245999999975,
          "velocity": 0.7874015748031497,
          "duration": 0.2803740000000019
        },
        {
          "name": "D2",
          "midi": 38,
          "time": 36.44861999999998,
          "velocity": 0.7874015748031497,
          "duration": 0.2803740000000019
        },
        {
          "name": "C2",
          "midi": 36,
          "time": 36.72899399999998,
          "velocity": 0.7874015748031497,
          "duration": 0.2803740000000019
        },
        {
          "name": "D#2",
          "midi": 39,
          "time": 37.00936799999998,
          "velocity": 0.7874015748031497,
          "duration": 0.2803740000000019
        },
        {
          "name": "D2",
          "midi": 38,
          "time": 37.570115999999985,
          "velocity": 0.7874015748031497,
          "duration": 0.5607479999999967
        },
        {
          "name": "D2",
          "midi": 38,
          "time": 38.13086399999998,
          "velocity": 0.7874015748031497,
          "duration": 0.2803740000000019
        },
        {
          "name": "D#2",
          "midi": 39,
          "time": 38.41123799999998,
          "velocity": 0.7874015748031497,
          "duration": 0.2803740000000019
        },
        {
          "name": "D2",
          "midi": 38,
          "time": 38.691611999999985,
          "velocity": 0.7874015748031497,
          "duration": 0.2803740000000019
        },
        {
          "name": "C2",
          "midi": 36,
          "time": 38.97198599999999,
          "velocity": 0.7874015748031497,
          "duration": 0.2803740000000019
        },
        {
          "name": "D#2",
          "midi": 39,
          "time": 39.25235999999999,
          "velocity": 0.7874015748031497,
          "duration": 0.2803740000000019
        },
        {
          "name": "D2",
          "midi": 38,
          "time": 39.81310799999999,
          "velocity": 0.7874015748031497,
          "duration": 0.5607479999999967
        },
        {
          "name": "D2",
          "midi": 38,
          "time": 40.37385599999999,
          "velocity": 0.7874015748031497,
          "duration": 0.2803740000000019
        },
        {
          "name": "D#2",
          "midi": 39,
          "time": 40.65422999999999,
          "velocity": 0.7874015748031497,
          "duration": 0.2803740000000019
        },
        {
          "name": "D2",
          "midi": 38,
          "time": 40.93460399999999,
          "velocity": 0.7874015748031497,
          "duration": 0.2803740000000019
        },
        {
          "name": "C2",
          "midi": 36,
          "time": 41.214977999999995,
          "velocity": 0.7874015748031497,
          "duration": 0.2803740000000019
        },
        {
          "name": "D#2",
          "midi": 39,
          "time": 41.495352,
          "velocity": 0.7874015748031497,
          "duration": 0.2803740000000019
        },
        {
          "name": "C#2",
          "midi": 37,
          "time": 41.775726,
          "velocity": 0.7874015748031497,
          "duration": 0.1401869999999974
        },
        {
          "name": "D2",
          "midi": 38,
          "time": 42.056099999999994,
          "velocity": 0.7874015748031497,
          "duration": 0.1401869999999974
        },
        {
          "name": "C#2",
          "midi": 37,
          "time": 42.33647399999999,
          "velocity": 0.7874015748031497,
          "duration": 0.1401869999999974
        },
        {
          "name": "D2",
          "midi": 38,
          "time": 42.61684799999998,
          "velocity": 0.7874015748031497,
          "duration": 0.2803740000000019
        },
        {
          "name": "D#2",
          "midi": 39,
          "time": 42.897221999999985,
          "velocity": 0.7874015748031497,
          "duration": 0.2803740000000019
        },
        {
          "name": "D2",
          "midi": 38,
          "time": 43.17759599999999,
          "velocity": 0.7874015748031497,
          "duration": 0.2803740000000019
        },
        {
          "name": "C#2",
          "midi": 37,
          "time": 43.45796999999999,
          "velocity": 0.7874015748031497,
          "duration": 0.2803740000000019
        },
        {
          "name": "D#2",
          "midi": 39,
          "time": 43.73834399999999,
          "velocity": 0.7874015748031497,
          "duration": 0.2803740000000019
        },
        {
          "name": "C#2",
          "midi": 37,
          "time": 44.01871799999999,
          "velocity": 0.7874015748031497,
          "duration": 0.1401869999999974
        },
        {
          "name": "D2",
          "midi": 38,
          "time": 44.29909199999999,
          "velocity": 0.7874015748031497,
          "duration": 0.1401869999999974
        },
        {
          "name": "C#2",
          "midi": 37,
          "time": 44.57946599999998,
          "velocity": 0.7874015748031497,
          "duration": 0.1401869999999974
        },
        {
          "name": "D2",
          "midi": 38,
          "time": 44.85983999999998,
          "velocity": 0.7874015748031497,
          "duration": 0.2803740000000019
        },
        {
          "name": "D#2",
          "midi": 39,
          "time": 45.14021399999998,
          "velocity": 0.7874015748031497,
          "duration": 0.2803740000000019
        },
        {
          "name": "D2",
          "midi": 38,
          "time": 45.42058799999998,
          "velocity": 0.7874015748031497,
          "duration": 0.2803740000000019
        },
        {
          "name": "C2",
          "midi": 36,
          "time": 45.70096199999998,
          "velocity": 0.7874015748031497,
          "duration": 0.2803740000000019
        },
        {
          "name": "D#2",
          "midi": 39,
          "time": 45.981335999999985,
          "velocity": 0.7874015748031497,
          "duration": 0.2803740000000019
        },
        {
          "name": "C#2",
          "midi": 37,
          "time": 46.26170999999999,
          "velocity": 0.7874015748031497,
          "duration": 0.1401869999999974
        },
        {
          "name": "D2",
          "midi": 38,
          "time": 46.54208399999998,
          "velocity": 0.7874015748031497,
          "duration": 0.1401869999999974
        },
        {
          "name": "C#2",
          "midi": 37,
          "time": 46.822457999999976,
          "velocity": 0.7874015748031497,
          "duration": 0.1401869999999974
        },
        {
          "name": "D2",
          "midi": 38,
          "time": 47.10283199999997,
          "velocity": 0.7874015748031497,
          "duration": 0.2803740000000019
        },
        {
          "name": "D#2",
          "midi": 39,
          "time": 47.38320599999997,
          "velocity": 0.7874015748031497,
          "duration": 0.2803740000000019
        },
        {
          "name": "D2",
          "midi": 38,
          "time": 47.663579999999975,
          "velocity": 0.7874015748031497,
          "duration": 0.2803740000000019
        },
        {
          "name": "C#2",
          "midi": 37,
          "time": 47.94395399999998,
          "velocity": 0.7874015748031497,
          "duration": 0.2803740000000019
        },
        {
          "name": "D#2",
          "midi": 39,
          "time": 48.22432799999998,
          "velocity": 0.7874015748031497,
          "duration": 0.2803740000000019
        },
        {
          "name": "C#2",
          "midi": 37,
          "time": 48.50470199999998,
          "velocity": 0.7874015748031497,
          "duration": 0.1401869999999974
        },
        {
          "name": "D2",
          "midi": 38,
          "time": 48.785075999999975,
          "velocity": 0.7874015748031497,
          "duration": 0.1401869999999974
        },
        {
          "name": "C#2",
          "midi": 37,
          "time": 49.06544999999997,
          "velocity": 0.7874015748031497,
          "duration": 0.1401869999999974
        },
        {
          "name": "D2",
          "midi": 38,
          "time": 49.345823999999965,
          "velocity": 0.7874015748031497,
          "duration": 0.2803740000000019
        },
        {
          "name": "D#2",
          "midi": 39,
          "time": 49.62619799999997,
          "velocity": 0.7874015748031497,
          "duration": 0.2803740000000019
        },
        {
          "name": "D2",
          "midi": 38,
          "time": 49.90657199999997,
          "velocity": 0.7874015748031497,
          "duration": 0.2803740000000019
        },
        {
          "name": "C2",
          "midi": 36,
          "time": 50.18694599999997,
          "velocity": 0.7874015748031497,
          "duration": 0.2803740000000019
        },
        {
          "name": "D#2",
          "midi": 39,
          "time": 50.46731999999997,
          "velocity": 0.7874015748031497,
          "duration": 0.2803740000000019
        },
        {
          "name": "C#2",
          "midi": 37,
          "time": 50.747693999999974,
          "velocity": 0.7874015748031497,
          "duration": 0.1401869999999974
        },
        {
          "name": "D2",
          "midi": 38,
          "time": 51.02806799999997,
          "velocity": 0.7874015748031497,
          "duration": 0.1401869999999974
        },
        {
          "name": "C#2",
          "midi": 37,
          "time": 51.308441999999964,
          "velocity": 0.7874015748031497,
          "duration": 0.1401869999999974
        },
        {
          "name": "D2",
          "midi": 38,
          "time": 51.58881599999996,
          "velocity": 0.7874015748031497,
          "duration": 0.2803740000000019
        },
        {
          "name": "D#2",
          "midi": 39,
          "time": 51.86918999999996,
          "velocity": 0.7874015748031497,
          "duration": 0.2803740000000019
        },
        {
          "name": "D2",
          "midi": 38,
          "time": 52.14956399999996,
          "velocity": 0.7874015748031497,
          "duration": 0.2803740000000019
        },
        {
          "name": "D#2",
          "midi": 39,
          "time": 52.429937999999964,
          "velocity": 0.7874015748031497,
          "duration": 0.1401869999999974
        },
        {
          "name": "D#2",
          "midi": 39,
          "time": 52.71031199999996,
          "velocity": 0.7874015748031497,
          "duration": 0.2803740000000019
        },
        {
          "name": "C#2",
          "midi": 37,
          "time": 52.99068599999996,
          "velocity": 0.7874015748031497,
          "duration": 0.1401869999999974
        },
        {
          "name": "D2",
          "midi": 38,
          "time": 53.271059999999956,
          "velocity": 0.7874015748031497,
          "duration": 0.1401869999999974
        },
        {
          "name": "C#2",
          "midi": 37,
          "time": 53.55143399999995,
          "velocity": 0.7874015748031497,
          "duration": 0.1401869999999974
        },
        {
          "name": "D#2",
          "midi": 39,
          "time": 53.69162099999995,
          "velocity": 0.7874015748031497,
          "duration": 0.1401869999999974
        },
        {
          "name": "D2",
          "midi": 38,
          "time": 53.831807999999945,
          "velocity": 0.7874015748031497,
          "duration": 0.2803740000000019
        },
        {
          "name": "D#2",
          "midi": 39,
          "time": 54.11218199999995,
          "velocity": 0.7874015748031497,
          "duration": 0.2803740000000019
        },
        {
          "name": "D2",
          "midi": 38,
          "time": 54.39255599999995,
          "velocity": 0.7874015748031497,
          "duration": 0.2803740000000019
        },
        {
          "name": "C2",
          "midi": 36,
          "time": 54.67292999999995,
          "velocity": 0.7874015748031497,
          "duration": 0.2803740000000019
        },
        {
          "name": "D#2",
          "midi": 39,
          "time": 54.95330399999995,
          "velocity": 0.7874015748031497,
          "duration": 0.2803740000000019
        },
        {
          "name": "C#2",
          "midi": 37,
          "time": 55.233677999999955,
          "velocity": 0.7874015748031497,
          "duration": 0.1401869999999974
        },
        {
          "name": "D2",
          "midi": 38,
          "time": 55.51405199999995,
          "velocity": 0.7874015748031497,
          "duration": 0.1401869999999974
        },
        {
          "name": "C#2",
          "midi": 37,
          "time": 55.794425999999945,
          "velocity": 0.7874015748031497,
          "duration": 0.1401869999999974
        },
        {
          "name": "D2",
          "midi": 38,
          "time": 56.07479999999994,
          "velocity": 0.7874015748031497,
          "duration": 0.5607479999999967
        },
        {
          "name": "D2",
          "midi": 38,
          "time": 56.635547999999936,
          "velocity": 0.7874015748031497,
          "duration": 0.5607479999999967
        },
        {
          "name": "D2",
          "midi": 38,
          "time": 57.19629599999993,
          "velocity": 0.7874015748031497,
          "duration": 0.5607479999999967
        },
        {
          "name": "D2",
          "midi": 38,
          "time": 57.75704399999993,
          "velocity": 0.7874015748031497,
          "duration": 0.5607479999999967
        },
        {
          "name": "D#2",
          "midi": 39,
          "time": 59.158913999999925,
          "velocity": 0.7874015748031497,
          "duration": 0.1401869999999974
        },
        {
          "name": "D#2",
          "midi": 39,
          "time": 59.579474999999924,
          "velocity": 0.7874015748031497,
          "duration": 0.1401869999999974
        },
        {
          "name": "D#2",
          "midi": 39,
          "time": 59.71966199999992,
          "velocity": 0.7874015748031497,
          "duration": 0.1401869999999974
        },
        {
          "name": "D2",
          "midi": 38,
          "time": 62.94396299999992,
          "velocity": 0.7874015748031497,
          "duration": 0.2803740000000019
        },
        {
          "name": "D#2",
          "midi": 39,
          "time": 63.64489799999992,
          "velocity": 0.7874015748031497,
          "duration": 0.1401869999999974
        },
        {
          "name": "D#2",
          "midi": 39,
          "time": 64.20564599999992,
          "velocity": 0.7874015748031497,
          "duration": 0.1401869999999974
        },
        {
          "name": "D2",
          "midi": 38,
          "time": 65.18695499999991,
          "velocity": 0.7874015748031497,
          "duration": 0.2803739999999948
        },
        {
          "name": "D2",
          "midi": 38,
          "time": 67.42994699999991,
          "velocity": 0.7874015748031497,
          "duration": 0.2803739999999948
        },
        {
          "name": "D#2",
          "midi": 39,
          "time": 68.13088199999991,
          "velocity": 0.7874015748031497,
          "duration": 0.1401869999999974
        },
        {
          "name": "D#2",
          "midi": 39,
          "time": 68.69162999999992,
          "velocity": 0.7874015748031497,
          "duration": 0.1401869999999974
        },
        {
          "name": "D2",
          "midi": 38,
          "time": 69.67293899999991,
          "velocity": 0.7874015748031497,
          "duration": 0.2803739999999948
        },
        {
          "name": "D2",
          "midi": 38,
          "time": 70.51406099999991,
          "velocity": 0.7874015748031497,
          "duration": 0.2803739999999948
        },
        {
          "name": "D2",
          "midi": 38,
          "time": 71.9159309999999,
          "velocity": 0.7874015748031497,
          "duration": 0.2803739999999948
        },
        {
          "name": "D2",
          "midi": 38,
          "time": 72.7570529999999,
          "velocity": 0.7874015748031497,
          "duration": 0.2803739999999948
        },
        {
          "name": "D#2",
          "midi": 39,
          "time": 74.85985799999989,
          "velocity": 0.7874015748031497,
          "duration": 0.1401869999999974
        },
        {
          "name": "D#2",
          "midi": 39,
          "time": 75.42060599999989,
          "velocity": 0.7874015748031497,
          "duration": 0.1401869999999974
        },
        {
          "name": "D#2",
          "midi": 39,
          "time": 75.9813539999999,
          "velocity": 0.7874015748031497,
          "duration": 0.1401869999999974
        },
        {
          "name": "D2",
          "midi": 38,
          "time": 76.26172799999989,
          "velocity": 0.7874015748031497,
          "duration": 0.5607480000000038
        },
        {
          "name": "D2",
          "midi": 38,
          "time": 76.8224759999999,
          "velocity": 0.7874015748031497,
          "duration": 0.2803739999999948
        },
        {
          "name": "C#2",
          "midi": 37,
          "time": 77.10284999999989,
          "velocity": 0.7874015748031497,
          "duration": 0.2803739999999948
        },
        {
          "name": "D2",
          "midi": 38,
          "time": 77.38322399999988,
          "velocity": 0.7874015748031497,
          "duration": 0.5607480000000038
        },
        {
          "name": "D#2",
          "midi": 39,
          "time": 77.94397199999989,
          "velocity": 0.7874015748031497,
          "duration": 0.1401869999999974
        },
        {
          "name": "D#2",
          "midi": 39,
          "time": 78.08415899999989,
          "velocity": 0.7874015748031497,
          "duration": 0.1401869999999974
        },
        {
          "name": "D#2",
          "midi": 39,
          "time": 78.22434599999988,
          "velocity": 0.7874015748031497,
          "duration": 0.1401869999999974
        },
        {
          "name": "D#2",
          "midi": 39,
          "time": 78.36453299999988,
          "velocity": 0.7874015748031497,
          "duration": 0.1401869999999974
        },
        {
          "name": "D2",
          "midi": 38,
          "time": 78.50471999999988,
          "velocity": 0.7874015748031497,
          "duration": 0.5607480000000038
        },
        {
          "name": "D2",
          "midi": 38,
          "time": 79.06546799999988,
          "velocity": 0.7874015748031497,
          "duration": 0.2803739999999948
        },
        {
          "name": "D#2",
          "midi": 39,
          "time": 79.34584199999988,
          "velocity": 0.7874015748031497,
          "duration": 0.2803739999999948
        },
        {
          "name": "D2",
          "midi": 38,
          "time": 79.62621599999987,
          "velocity": 0.7874015748031497,
          "duration": 0.5607480000000038
        },
        {
          "name": "D2",
          "midi": 38,
          "time": 80.18696399999988,
          "velocity": 0.7874015748031497,
          "duration": 0.2803739999999948
        },
        {
          "name": "C2",
          "midi": 36,
          "time": 80.46733799999987,
          "velocity": 0.7874015748031497,
          "duration": 0.2803739999999948
        },
        {
          "name": "D2",
          "midi": 38,
          "time": 80.74771199999986,
          "velocity": 0.7874015748031497,
          "duration": 0.5607480000000038
        },
        {
          "name": "D2",
          "midi": 38,
          "time": 81.30845999999987,
          "velocity": 0.7874015748031497,
          "duration": 0.2803739999999948
        },
        {
          "name": "C#2",
          "midi": 37,
          "time": 81.58883399999986,
          "velocity": 0.7874015748031497,
          "duration": 0.2803739999999948
        },
        {
          "name": "D2",
          "midi": 38,
          "time": 81.86920799999986,
          "velocity": 0.7874015748031497,
          "duration": 0.5607480000000038
        },
        {
          "name": "D#2",
          "midi": 39,
          "time": 82.42995599999986,
          "velocity": 0.7874015748031497,
          "duration": 0.5607480000000038
        },
        {
          "name": "D2",
          "midi": 38,
          "time": 82.99070399999987,
          "velocity": 0.7874015748031497,
          "duration": 0.5607480000000038
        },
        {
          "name": "D2",
          "midi": 38,
          "time": 83.55145199999987,
          "velocity": 0.7874015748031497,
          "duration": 0.2803739999999948
        },
        {
          "name": "D#2",
          "midi": 39,
          "time": 83.83182599999986,
          "velocity": 0.7874015748031497,
          "duration": 0.2803739999999948
        },
        {
          "name": "D2",
          "midi": 38,
          "time": 84.11219999999986,
          "velocity": 0.7874015748031497,
          "duration": 0.2803739999999948
        },
        {
          "name": "C#2",
          "midi": 37,
          "time": 84.39257399999985,
          "velocity": 0.7874015748031497,
          "duration": 0.2803739999999948
        },
        {
          "name": "D2",
          "midi": 38,
          "time": 84.67294799999985,
          "velocity": 0.7874015748031497,
          "duration": 0.2803739999999948
        },
        {
          "name": "C2",
          "midi": 36,
          "time": 84.95332199999984,
          "velocity": 0.7874015748031497,
          "duration": 0.2803739999999948
        },
        {
          "name": "D2",
          "midi": 38,
          "time": 85.23369599999984,
          "velocity": 0.7874015748031497,
          "duration": 0.5607480000000038
        },
        {
          "name": "D2",
          "midi": 38,
          "time": 85.79444399999984,
          "velocity": 0.7874015748031497,
          "duration": 0.2803739999999948
        },
        {
          "name": "C#2",
          "midi": 37,
          "time": 86.07481799999984,
          "velocity": 0.7874015748031497,
          "duration": 0.2803739999999948
        },
        {
          "name": "D2",
          "midi": 38,
          "time": 86.35519199999983,
          "velocity": 0.7874015748031497,
          "duration": 0.5607480000000038
        },
        {
          "name": "D#2",
          "midi": 39,
          "time": 86.91593999999984,
          "velocity": 0.7874015748031497,
          "duration": 0.1401869999999974
        },
        {
          "name": "D#2",
          "midi": 39,
          "time": 87.05612699999983,
          "velocity": 0.7874015748031497,
          "duration": 0.1401869999999974
        },
        {
          "name": "D#2",
          "midi": 39,
          "time": 87.19631399999983,
          "velocity": 0.7874015748031497,
          "duration": 0.1401869999999974
        },
        {
          "name": "D#2",
          "midi": 39,
          "time": 87.33650099999983,
          "velocity": 0.7874015748031497,
          "duration": 0.1401869999999974
        },
        {
          "name": "D2",
          "midi": 38,
          "time": 87.47668799999983,
          "velocity": 0.7874015748031497,
          "duration": 0.5607480000000038
        },
        {
          "name": "D2",
          "midi": 38,
          "time": 88.03743599999983,
          "velocity": 0.7874015748031497,
          "duration": 0.2803739999999948
        },
        {
          "name": "D#2",
          "midi": 39,
          "time": 88.31780999999982,
          "velocity": 0.7874015748031497,
          "duration": 0.2803739999999948
        },
        {
          "name": "D2",
          "midi": 38,
          "time": 88.59818399999982,
          "velocity": 0.7874015748031497,
          "duration": 0.2803739999999948
        },
        {
          "name": "D2",
          "midi": 38,
          "time": 89.15893199999981,
          "velocity": 0.7874015748031497,
          "duration": 0.2803739999999948
        },
        {
          "name": "C2",
          "midi": 36,
          "time": 89.4393059999998,
          "velocity": 0.7874015748031497,
          "duration": 0.2803739999999948
        },
        {
          "name": "D2",
          "midi": 38,
          "time": 89.7196799999998,
          "velocity": 0.7874015748031497,
          "duration": 0.5607480000000038
        },
        {
          "name": "D2",
          "midi": 38,
          "time": 90.2804279999998,
          "velocity": 0.7874015748031497,
          "duration": 0.2803739999999948
        },
        {
          "name": "C#2",
          "midi": 37,
          "time": 90.5608019999998,
          "velocity": 0.7874015748031497,
          "duration": 0.2803739999999948
        },
        {
          "name": "D2",
          "midi": 38,
          "time": 90.84117599999979,
          "velocity": 0.7874015748031497,
          "duration": 0.5607480000000038
        },
        {
          "name": "D#2",
          "midi": 39,
          "time": 91.4019239999998,
          "velocity": 0.7874015748031497,
          "duration": 0.1401869999999974
        },
        {
          "name": "D2",
          "midi": 38,
          "time": 91.9626719999998,
          "velocity": 0.7874015748031497,
          "duration": 0.5607480000000038
        },
        {
          "name": "D2",
          "midi": 38,
          "time": 92.5234199999998,
          "velocity": 0.7874015748031497,
          "duration": 0.2803739999999948
        },
        {
          "name": "D#2",
          "midi": 39,
          "time": 92.8037939999998,
          "velocity": 0.7874015748031497,
          "duration": 0.2803739999999948
        },
        {
          "name": "D2",
          "midi": 38,
          "time": 93.08416799999979,
          "velocity": 0.7874015748031497,
          "duration": 0.2803739999999948
        },
        {
          "name": "C2",
          "midi": 36,
          "time": 93.36454199999979,
          "velocity": 0.7874015748031497,
          "duration": 0.2803739999999948
        },
        {
          "name": "D2",
          "midi": 38,
          "time": 93.64491599999978,
          "velocity": 0.7874015748031497,
          "duration": 0.2803739999999948
        },
        {
          "name": "D2",
          "midi": 38,
          "time": 94.20566399999977,
          "velocity": 0.7874015748031497,
          "duration": 0.2803739999999948
        },
        {
          "name": "C2",
          "midi": 36,
          "time": 94.48603799999977,
          "velocity": 0.7874015748031497,
          "duration": 0.2803739999999948
        },
        {
          "name": "D2",
          "midi": 38,
          "time": 94.76641199999976,
          "velocity": 0.7874015748031497,
          "duration": 0.2803739999999948
        },
        {
          "name": "C2",
          "midi": 36,
          "time": 95.04678599999976,
          "velocity": 0.7874015748031497,
          "duration": 0.2803739999999948
        },
        {
          "name": "D2",
          "midi": 38,
          "time": 95.32715999999975,
          "velocity": 0.7874015748031497,
          "duration": 0.2803739999999948
        },
        {
          "name": "C2",
          "midi": 36,
          "time": 95.60753399999975,
          "velocity": 0.7874015748031497,
          "duration": 0.2803739999999948
        },
        {
          "name": "D#2",
          "midi": 39,
          "time": 95.88790799999974,
          "velocity": 0.7874015748031497,
          "duration": 0.1401869999999974
        },
        {
          "name": "D#2",
          "midi": 39,
          "time": 96.02809499999974,
          "velocity": 0.7874015748031497,
          "duration": 0.1401869999999974
        },
        {
          "name": "D#2",
          "midi": 39,
          "time": 96.16828199999973,
          "velocity": 0.7874015748031497,
          "duration": 0.1401869999999974
        },
        {
          "name": "D#2",
          "midi": 39,
          "time": 96.30846899999973,
          "velocity": 0.7874015748031497,
          "duration": 0.1401869999999974
        },
        {
          "name": "D2",
          "midi": 38,
          "time": 96.44865599999973,
          "velocity": 0.7874015748031497,
          "duration": 0.2803739999999948
        },
        {
          "name": "C2",
          "midi": 36,
          "time": 96.72902999999972,
          "velocity": 0.7874015748031497,
          "duration": 0.2803739999999948
        },
        {
          "name": "D2",
          "midi": 38,
          "time": 97.00940399999972,
          "velocity": 0.7874015748031497,
          "duration": 0.2803739999999948
        },
        {
          "name": "C2",
          "midi": 36,
          "time": 97.28977799999971,
          "velocity": 0.7874015748031497,
          "duration": 0.2803739999999948
        },
        {
          "name": "D2",
          "midi": 38,
          "time": 97.57015199999971,
          "velocity": 0.7874015748031497,
          "duration": 0.2803739999999948
        },
        {
          "name": "C2",
          "midi": 36,
          "time": 97.8505259999997,
          "velocity": 0.7874015748031497,
          "duration": 0.2803739999999948
        },
        {
          "name": "D2",
          "midi": 38,
          "time": 98.1308999999997,
          "velocity": 0.7874015748031497,
          "duration": 0.2803739999999948
        },
        {
          "name": "C#2",
          "midi": 37,
          "time": 98.4112739999997,
          "velocity": 0.7874015748031497,
          "duration": 0.2803739999999948
        },
        {
          "name": "D2",
          "midi": 38,
          "time": 98.69164799999969,
          "velocity": 0.7874015748031497,
          "duration": 0.2803739999999948
        },
        {
          "name": "C2",
          "midi": 36,
          "time": 98.97202199999968,
          "velocity": 0.7874015748031497,
          "duration": 0.2803739999999948
        },
        {
          "name": "D2",
          "midi": 38,
          "time": 99.25239599999968,
          "velocity": 0.7874015748031497,
          "duration": 0.2803739999999948
        },
        {
          "name": "C2",
          "midi": 36,
          "time": 99.53276999999967,
          "velocity": 0.7874015748031497,
          "duration": 0.2803739999999948
        },
        {
          "name": "D2",
          "midi": 38,
          "time": 99.81314399999967,
          "velocity": 0.7874015748031497,
          "duration": 0.2803739999999948
        },
        {
          "name": "C2",
          "midi": 36,
          "time": 100.09351799999966,
          "velocity": 0.7874015748031497,
          "duration": 0.2803739999999948
        },
        {
          "name": "D2",
          "midi": 38,
          "time": 100.37389199999966,
          "velocity": 0.7874015748031497,
          "duration": 0.2803739999999948
        },
        {
          "name": "C2",
          "midi": 36,
          "time": 100.65426599999965,
          "velocity": 0.7874015748031497,
          "duration": 0.2803739999999948
        },
        {
          "name": "D2",
          "midi": 38,
          "time": 100.93463999999965,
          "velocity": 0.7874015748031497,
          "duration": 0.2803739999999948
        },
        {
          "name": "C2",
          "midi": 36,
          "time": 101.21501399999964,
          "velocity": 0.7874015748031497,
          "duration": 0.2803739999999948
        },
        {
          "name": "D2",
          "midi": 38,
          "time": 101.49538799999964,
          "velocity": 0.7874015748031497,
          "duration": 0.2803739999999948
        },
        {
          "name": "C2",
          "midi": 36,
          "time": 101.77576199999963,
          "velocity": 0.7874015748031497,
          "duration": 0.2803739999999948
        },
        {
          "name": "D2",
          "midi": 38,
          "time": 102.05613599999963,
          "velocity": 0.7874015748031497,
          "duration": 0.2803739999999948
        },
        {
          "name": "D#2",
          "midi": 39,
          "time": 102.33650999999962,
          "velocity": 0.7874015748031497,
          "duration": 0.2803739999999948
        },
        {
          "name": "D2",
          "midi": 38,
          "time": 102.61688399999962,
          "velocity": 0.7874015748031497,
          "duration": 0.2803739999999948
        },
        {
          "name": "C#2",
          "midi": 37,
          "time": 102.89725799999961,
          "velocity": 0.7874015748031497,
          "duration": 0.2803739999999948
        },
        {
          "name": "D2",
          "midi": 38,
          "time": 103.1776319999996,
          "velocity": 0.7874015748031497,
          "duration": 0.2803739999999948
        },
        {
          "name": "C2",
          "midi": 36,
          "time": 103.4580059999996,
          "velocity": 0.7874015748031497,
          "duration": 0.2803739999999948
        },
        {
          "name": "D2",
          "midi": 38,
          "time": 103.7383799999996,
          "velocity": 0.7874015748031497,
          "duration": 0.2803739999999948
        },
        {
          "name": "C2",
          "midi": 36,
          "time": 104.01875399999959,
          "velocity": 0.7874015748031497,
          "duration": 0.2803739999999948
        },
        {
          "name": "D2",
          "midi": 38,
          "time": 104.29912799999958,
          "velocity": 0.7874015748031497,
          "duration": 0.2803739999999948
        },
        {
          "name": "C2",
          "midi": 36,
          "time": 104.57950199999958,
          "velocity": 0.7874015748031497,
          "duration": 0.2803739999999948
        },
        {
          "name": "D2",
          "midi": 38,
          "time": 104.85987599999957,
          "velocity": 0.7874015748031497,
          "duration": 0.2803739999999948
        },
        {
          "name": "C2",
          "midi": 36,
          "time": 105.14024999999957,
          "velocity": 0.7874015748031497,
          "duration": 0.2803739999999948
        },
        {
          "name": "D2",
          "midi": 38,
          "time": 105.42062399999956,
          "velocity": 0.7874015748031497,
          "duration": 0.2803739999999948
        },
        {
          "name": "C2",
          "midi": 36,
          "time": 105.70099799999956,
          "velocity": 0.7874015748031497,
          "duration": 0.2803739999999948
        },
        {
          "name": "D2",
          "midi": 38,
          "time": 105.98137199999955,
          "velocity": 0.7874015748031497,
          "duration": 0.2803739999999948
        },
        {
          "name": "C2",
          "midi": 36,
          "time": 106.26174599999955,
          "velocity": 0.7874015748031497,
          "duration": 0.2803739999999948
        },
        {
          "name": "D2",
          "midi": 38,
          "time": 106.54211999999954,
          "velocity": 0.7874015748031497,
          "duration": 0.2803739999999948
        },
        {
          "name": "C2",
          "midi": 36,
          "time": 106.82249399999954,
          "velocity": 0.7874015748031497,
          "duration": 0.2803739999999948
        },
        {
          "name": "D2",
          "midi": 38,
          "time": 107.10286799999953,
          "velocity": 0.7874015748031497,
          "duration": 0.2803739999999948
        },
        {
          "name": "C2",
          "midi": 36,
          "time": 107.38324199999953,
          "velocity": 0.7874015748031497,
          "duration": 0.2803739999999948
        },
        {
          "name": "D2",
          "midi": 38,
          "time": 107.66361599999952,
          "velocity": 0.7874015748031497,
          "duration": 0.2803739999999948
        },
        {
          "name": "C2",
          "midi": 36,
          "time": 107.94398999999952,
          "velocity": 0.7874015748031497,
          "duration": 0.2803739999999948
        },
        {
          "name": "D2",
          "midi": 38,
          "time": 108.22436399999951,
          "velocity": 0.7874015748031497,
          "duration": 0.2803739999999948
        },
        {
          "name": "C2",
          "midi": 36,
          "time": 108.5047379999995,
          "velocity": 0.7874015748031497,
          "duration": 0.2803739999999948
        },
        {
          "name": "D2",
          "midi": 38,
          "time": 108.7851119999995,
          "velocity": 0.7874015748031497,
          "duration": 0.2803739999999948
        },
        {
          "name": "C2",
          "midi": 36,
          "time": 109.0654859999995,
          "velocity": 0.7874015748031497,
          "duration": 0.2803739999999948
        },
        {
          "name": "D2",
          "midi": 38,
          "time": 109.34585999999949,
          "velocity": 0.7874015748031497,
          "duration": 0.2803739999999948
        },
        {
          "name": "C2",
          "midi": 36,
          "time": 109.62623399999949,
          "velocity": 0.7874015748031497,
          "duration": 0.2803739999999948
        },
        {
          "name": "D2",
          "midi": 38,
          "time": 109.90660799999948,
          "velocity": 0.7874015748031497,
          "duration": 0.2803739999999948
        },
        {
          "name": "C2",
          "midi": 36,
          "time": 110.18698199999947,
          "velocity": 0.7874015748031497,
          "duration": 0.2803739999999948
        },
        {
          "name": "D2",
          "midi": 38,
          "time": 110.46735599999947,
          "velocity": 0.7874015748031497,
          "duration": 0.2803739999999948
        },
        {
          "name": "C2",
          "midi": 36,
          "time": 110.74772999999946,
          "velocity": 0.7874015748031497,
          "duration": 0.2803739999999948
        },
        {
          "name": "D2",
          "midi": 38,
          "time": 111.02810399999946,
          "velocity": 0.7874015748031497,
          "duration": 0.2803739999999948
        },
        {
          "name": "C2",
          "midi": 36,
          "time": 111.30847799999945,
          "velocity": 0.7874015748031497,
          "duration": 0.2803739999999948
        },
        {
          "name": "D2",
          "midi": 38,
          "time": 111.58885199999945,
          "velocity": 0.7874015748031497,
          "duration": 0.2803739999999948
        },
        {
          "name": "C2",
          "midi": 36,
          "time": 111.86922599999944,
          "velocity": 0.7874015748031497,
          "duration": 0.2803739999999948
        },
        {
          "name": "D2",
          "midi": 38,
          "time": 112.14959999999944,
          "velocity": 0.7874015748031497,
          "duration": 0.1401869999999974
        },
        {
          "name": "C2",
          "midi": 36,
          "time": 112.28978699999944,
          "velocity": 0.7874015748031497,
          "duration": 0.1401869999999974
        },
        {
          "name": "C#2",
          "midi": 37,
          "time": 112.42997399999943,
          "velocity": 0.7874015748031497,
          "duration": 0.1401869999999974
        },
        {
          "name": "C2",
          "midi": 36,
          "time": 112.57016099999943,
          "velocity": 0.7874015748031497,
          "duration": 0.1401869999999974
        },
        {
          "name": "D2",
          "midi": 38,
          "time": 112.71034799999943,
          "velocity": 0.7874015748031497,
          "duration": 0.1401869999999974
        },
        {
          "name": "C2",
          "midi": 36,
          "time": 112.85053499999943,
          "velocity": 0.7874015748031497,
          "duration": 0.1401869999999974
        },
        {
          "name": "C#2",
          "midi": 37,
          "time": 112.99072199999942,
          "velocity": 0.7874015748031497,
          "duration": 0.1401869999999974
        },
        {
          "name": "C2",
          "midi": 36,
          "time": 113.13090899999942,
          "velocity": 0.7874015748031497,
          "duration": 0.1401869999999974
        },
        {
          "name": "D2",
          "midi": 38,
          "time": 113.27109599999942,
          "velocity": 0.7874015748031497,
          "duration": 0.1401869999999974
        },
        {
          "name": "C2",
          "midi": 36,
          "time": 113.41128299999941,
          "velocity": 0.7874015748031497,
          "duration": 0.1401869999999974
        },
        {
          "name": "C#2",
          "midi": 37,
          "time": 113.55146999999941,
          "velocity": 0.7874015748031497,
          "duration": 0.1401869999999974
        },
        {
          "name": "C2",
          "midi": 36,
          "time": 113.69165699999941,
          "velocity": 0.7874015748031497,
          "duration": 0.1401869999999974
        },
        {
          "name": "D2",
          "midi": 38,
          "time": 113.8318439999994,
          "velocity": 0.7874015748031497,
          "duration": 0.1401869999999974
        },
        {
          "name": "C2",
          "midi": 36,
          "time": 113.9720309999994,
          "velocity": 0.7874015748031497,
          "duration": 0.1401869999999974
        },
        {
          "name": "C#2",
          "midi": 37,
          "time": 114.1122179999994,
          "velocity": 0.7874015748031497,
          "duration": 0.1401869999999974
        },
        {
          "name": "C2",
          "midi": 36,
          "time": 114.2524049999994,
          "velocity": 0.7874015748031497,
          "duration": 0.1401869999999974
        },
        {
          "name": "D2",
          "midi": 38,
          "time": 114.3925919999994,
          "velocity": 0.7874015748031497,
          "duration": 0.1401869999999974
        },
        {
          "name": "C2",
          "midi": 36,
          "time": 114.5327789999994,
          "velocity": 0.7874015748031497,
          "duration": 0.1401869999999974
        },
        {
          "name": "C#2",
          "midi": 37,
          "time": 114.67296599999939,
          "velocity": 0.7874015748031497,
          "duration": 0.1401869999999974
        },
        {
          "name": "C2",
          "midi": 36,
          "time": 114.81315299999939,
          "velocity": 0.7874015748031497,
          "duration": 0.1401869999999974
        },
        {
          "name": "D2",
          "midi": 38,
          "time": 114.95333999999939,
          "velocity": 0.7874015748031497,
          "duration": 0.1401869999999974
        },
        {
          "name": "C2",
          "midi": 36,
          "time": 115.09352699999938,
          "velocity": 0.7874015748031497,
          "duration": 0.1401869999999974
        },
        {
          "name": "C#2",
          "midi": 37,
          "time": 115.23371399999938,
          "velocity": 0.7874015748031497,
          "duration": 0.1401869999999974
        },
        {
          "name": "C2",
          "midi": 36,
          "time": 115.37390099999938,
          "velocity": 0.7874015748031497,
          "duration": 0.1401869999999974
        },
        {
          "name": "D2",
          "midi": 38,
          "time": 115.51408799999938,
          "velocity": 0.7874015748031497,
          "duration": 0.1401869999999974
        },
        {
          "name": "C2",
          "midi": 36,
          "time": 115.65427499999937,
          "velocity": 0.7874015748031497,
          "duration": 0.1401869999999974
        },
        {
          "name": "C#2",
          "midi": 37,
          "time": 115.79446199999937,
          "velocity": 0.7874015748031497,
          "duration": 0.1401869999999974
        },
        {
          "name": "C2",
          "midi": 36,
          "time": 115.93464899999937,
          "velocity": 0.7874015748031497,
          "duration": 0.1401869999999974
        },
        {
          "name": "D2",
          "midi": 38,
          "time": 116.07483599999937,
          "velocity": 0.7874015748031497,
          "duration": 0.1401869999999974
        },
        {
          "name": "C2",
          "midi": 36,
          "time": 116.21502299999936,
          "velocity": 0.7874015748031497,
          "duration": 0.1401869999999974
        },
        {
          "name": "C#2",
          "midi": 37,
          "time": 116.35520999999936,
          "velocity": 0.7874015748031497,
          "duration": 0.1401869999999974
        },
        {
          "name": "C2",
          "midi": 36,
          "time": 116.49539699999936,
          "velocity": 0.7874015748031497,
          "duration": 0.1401869999999974
        },
        {
          "name": "D2",
          "midi": 38,
          "time": 116.63558399999935,
          "velocity": 0.7874015748031497,
          "duration": 0.1401869999999974
        },
        {
          "name": "C2",
          "midi": 36,
          "time": 116.77577099999935,
          "velocity": 0.7874015748031497,
          "duration": 0.1401869999999974
        },
        {
          "name": "C#2",
          "midi": 37,
          "time": 116.91595799999935,
          "velocity": 0.7874015748031497,
          "duration": 0.1401869999999974
        },
        {
          "name": "C2",
          "midi": 36,
          "time": 117.05614499999935,
          "velocity": 0.7874015748031497,
          "duration": 0.1401869999999974
        },
        {
          "name": "D2",
          "midi": 38,
          "time": 117.19633199999934,
          "velocity": 0.7874015748031497,
          "duration": 0.1401869999999974
        },
        {
          "name": "C2",
          "midi": 36,
          "time": 117.33651899999934,
          "velocity": 0.7874015748031497,
          "duration": 0.1401869999999974
        },
        {
          "name": "C#2",
          "midi": 37,
          "time": 117.47670599999934,
          "velocity": 0.7874015748031497,
          "duration": 0.1401869999999974
        },
        {
          "name": "C2",
          "midi": 36,
          "time": 117.61689299999934,
          "velocity": 0.7874015748031497,
          "duration": 0.1401869999999974
        },
        {
          "name": "D2",
          "midi": 38,
          "time": 117.75707999999933,
          "velocity": 0.7874015748031497,
          "duration": 0.1401869999999974
        },
        {
          "name": "C2",
          "midi": 36,
          "time": 117.89726699999933,
          "velocity": 0.7874015748031497,
          "duration": 0.1401869999999974
        },
        {
          "name": "C#2",
          "midi": 37,
          "time": 118.03745399999933,
          "velocity": 0.7874015748031497,
          "duration": 0.1401869999999974
        },
        {
          "name": "C2",
          "midi": 36,
          "time": 118.17764099999933,
          "velocity": 0.7874015748031497,
          "duration": 0.1401869999999974
        },
        {
          "name": "D2",
          "midi": 38,
          "time": 118.31782799999932,
          "velocity": 0.7874015748031497,
          "duration": 0.1401869999999974
        },
        {
          "name": "C2",
          "midi": 36,
          "time": 118.45801499999932,
          "velocity": 0.7874015748031497,
          "duration": 0.1401869999999974
        },
        {
          "name": "C#2",
          "midi": 37,
          "time": 118.59820199999932,
          "velocity": 0.7874015748031497,
          "duration": 0.1401869999999974
        },
        {
          "name": "C2",
          "midi": 36,
          "time": 118.73838899999932,
          "velocity": 0.7874015748031497,
          "duration": 0.1401869999999974
        },
        {
          "name": "D2",
          "midi": 38,
          "time": 118.87857599999931,
          "velocity": 0.7874015748031497,
          "duration": 0.1401869999999974
        },
        {
          "name": "C2",
          "midi": 36,
          "time": 119.01876299999931,
          "velocity": 0.7874015748031497,
          "duration": 0.1401869999999974
        },
        {
          "name": "C#2",
          "midi": 37,
          "time": 119.15894999999931,
          "velocity": 0.7874015748031497,
          "duration": 0.1401869999999974
        },
        {
          "name": "C2",
          "midi": 36,
          "time": 119.2991369999993,
          "velocity": 0.7874015748031497,
          "duration": 0.1401869999999974
        },
        {
          "name": "D2",
          "midi": 38,
          "time": 119.4393239999993,
          "velocity": 0.7874015748031497,
          "duration": 0.1401869999999974
        },
        {
          "name": "C2",
          "midi": 36,
          "time": 119.5795109999993,
          "velocity": 0.7874015748031497,
          "duration": 0.1401869999999974
        },
        {
          "name": "C#2",
          "midi": 37,
          "time": 119.7196979999993,
          "velocity": 0.7874015748031497,
          "duration": 0.1401869999999974
        },
        {
          "name": "C2",
          "midi": 36,
          "time": 119.8598849999993,
          "velocity": 0.7874015748031497,
          "duration": 0.1401869999999974
        },
        {
          "name": "D2",
          "midi": 38,
          "time": 120.00007199999929,
          "velocity": 0.7874015748031497,
          "duration": 0.1401869999999974
        },
        {
          "name": "C2",
          "midi": 36,
          "time": 120.14025899999929,
          "velocity": 0.7874015748031497,
          "duration": 0.1401869999999974
        },
        {
          "name": "C#2",
          "midi": 37,
          "time": 120.28044599999929,
          "velocity": 0.7874015748031497,
          "duration": 0.1401869999999974
        },
        {
          "name": "C2",
          "midi": 36,
          "time": 120.42063299999928,
          "velocity": 0.7874015748031497,
          "duration": 0.1401869999999974
        },
        {
          "name": "D2",
          "midi": 38,
          "time": 120.56081999999928,
          "velocity": 0.7874015748031497,
          "duration": 0.1401869999999974
        },
        {
          "name": "C2",
          "midi": 36,
          "time": 120.70100699999928,
          "velocity": 0.7874015748031497,
          "duration": 0.1401869999999974
        },
        {
          "name": "C#2",
          "midi": 37,
          "time": 120.84119399999928,
          "velocity": 0.7874015748031497,
          "duration": 0.1401869999999974
        },
        {
          "name": "C2",
          "midi": 36,
          "time": 120.98138099999927,
          "velocity": 0.7874015748031497,
          "duration": 0.1401869999999974
        },
        {
          "name": "D2",
          "midi": 38,
          "time": 121.12156799999927,
          "velocity": 0.7874015748031497,
          "duration": 0.5607480000000038
        },
        {
          "name": "D2",
          "midi": 38,
          "time": 121.68231599999928,
          "velocity": 0.7874015748031497,
          "duration": 0.2803739999999948
        },
        {
          "name": "C#2",
          "midi": 37,
          "time": 121.96268999999927,
          "velocity": 0.7874015748031497,
          "duration": 0.2803739999999948
        },
        {
          "name": "D2",
          "midi": 38,
          "time": 122.24306399999926,
          "velocity": 0.7874015748031497,
          "duration": 0.5607480000000038
        },
        {
          "name": "D#2",
          "midi": 39,
          "time": 122.80381199999927,
          "velocity": 0.7874015748031497,
          "duration": 0.1401869999999974
        },
        {
          "name": "D#2",
          "midi": 39,
          "time": 122.94399899999927,
          "velocity": 0.7874015748031497,
          "duration": 0.1401869999999974
        },
        {
          "name": "D#2",
          "midi": 39,
          "time": 123.08418599999926,
          "velocity": 0.7874015748031497,
          "duration": 0.1401869999999974
        },
        {
          "name": "D#2",
          "midi": 39,
          "time": 123.22437299999926,
          "velocity": 0.7874015748031497,
          "duration": 0.1401869999999974
        },
        {
          "name": "D2",
          "midi": 38,
          "time": 123.36455999999926,
          "velocity": 0.7874015748031497,
          "duration": 0.5607480000000038
        },
        {
          "name": "D2",
          "midi": 38,
          "time": 123.92530799999926,
          "velocity": 0.7874015748031497,
          "duration": 0.2803739999999948
        },
        {
          "name": "D#2",
          "midi": 39,
          "time": 124.20568199999926,
          "velocity": 0.7874015748031497,
          "duration": 0.2803739999999948
        },
        {
          "name": "D2",
          "midi": 38,
          "time": 124.48605599999925,
          "velocity": 0.7874015748031497,
          "duration": 0.5607480000000038
        },
        {
          "name": "D2",
          "midi": 38,
          "time": 125.04680399999926,
          "velocity": 0.7874015748031497,
          "duration": 0.2803739999999948
        },
        {
          "name": "C2",
          "midi": 36,
          "time": 125.32717799999925,
          "velocity": 0.7874015748031497,
          "duration": 0.2803739999999948
        },
        {
          "name": "D2",
          "midi": 38,
          "time": 125.60755199999925,
          "velocity": 0.7874015748031497,
          "duration": 0.5607480000000038
        },
        {
          "name": "D2",
          "midi": 38,
          "time": 126.16829999999925,
          "velocity": 0.7874015748031497,
          "duration": 0.2803739999999948
        },
        {
          "name": "C#2",
          "midi": 37,
          "time": 126.44867399999924,
          "velocity": 0.7874015748031497,
          "duration": 0.2803739999999948
        },
        {
          "name": "D2",
          "midi": 38,
          "time": 126.72904799999924,
          "velocity": 0.7874015748031497,
          "duration": 0.5607480000000038
        },
        {
          "name": "D#2",
          "midi": 39,
          "time": 127.28979599999924,
          "velocity": 0.7874015748031497,
          "duration": 0.5607480000000038
        },
        {
          "name": "D2",
          "midi": 38,
          "time": 127.85054399999925,
          "velocity": 0.7874015748031497,
          "duration": 0.5607479999999896
        },
        {
          "name": "D2",
          "midi": 38,
          "time": 128.41129199999924,
          "velocity": 0.7874015748031497,
          "duration": 0.2803739999999948
        },
        {
          "name": "D#2",
          "midi": 39,
          "time": 128.69166599999923,
          "velocity": 0.7874015748031497,
          "duration": 0.2803739999999948
        },
        {
          "name": "D2",
          "midi": 38,
          "time": 128.97203999999923,
          "velocity": 0.7874015748031497,
          "duration": 0.2803739999999948
        },
        {
          "name": "C#2",
          "midi": 37,
          "time": 129.25241399999922,
          "velocity": 0.7874015748031497,
          "duration": 0.2803739999999948
        },
        {
          "name": "D2",
          "midi": 38,
          "time": 129.53278799999921,
          "velocity": 0.7874015748031497,
          "duration": 0.2803739999999948
        },
        {
          "name": "C2",
          "midi": 36,
          "time": 129.8131619999992,
          "velocity": 0.7874015748031497,
          "duration": 0.2803739999999948
        },
        {
          "name": "C#2",
          "midi": 37,
          "time": 131.07484499999921,
          "velocity": 0.7637795275590551,
          "duration": 0.2803739999999948
        },
        {
          "name": "D#2",
          "midi": 39,
          "time": 131.7757799999992,
          "velocity": 0.7637795275590551,
          "duration": 0.1401869999999974
        },
        {
          "name": "D#2",
          "midi": 39,
          "time": 131.9159669999992,
          "velocity": 0.7637795275590551,
          "duration": 0.1401869999999974
        },
        {
          "name": "D#2",
          "midi": 39,
          "time": 132.0561539999992,
          "velocity": 0.7637795275590551,
          "duration": 0.1401869999999974
        },
        {
          "name": "D#2",
          "midi": 39,
          "time": 132.1963409999992,
          "velocity": 0.7637795275590551,
          "duration": 0.1401869999999974
        },
        {
          "name": "C#2",
          "midi": 37,
          "time": 133.3178369999992,
          "velocity": 0.7637795275590551,
          "duration": 0.2803739999999948
        },
        {
          "name": "D#2",
          "midi": 39,
          "time": 134.29914599999918,
          "velocity": 0.7637795275590551,
          "duration": 0.1401869999999974
        },
        {
          "name": "C#2",
          "midi": 37,
          "time": 135.5608289999992,
          "velocity": 0.7637795275590551,
          "duration": 0.2803739999999948
        },
        {
          "name": "C#2",
          "midi": 37,
          "time": 137.80382099999918,
          "velocity": 0.7637795275590551,
          "duration": 0.2803739999999948
        },
        {
          "name": "D#2",
          "midi": 39,
          "time": 138.22438199999917,
          "velocity": 0.7637795275590551,
          "duration": 0.1401869999999974
        },
        {
          "name": "D2",
          "midi": 38,
          "time": 139.06550399999915,
          "velocity": 0.7637795275590551,
          "duration": 0.5607479999999896
        },
        {
          "name": "D2",
          "midi": 38,
          "time": 139.62625199999914,
          "velocity": 0.7637795275590551,
          "duration": 0.5607479999999896
        },
        {
          "name": "C#2",
          "midi": 37,
          "time": 140.04681299999913,
          "velocity": 0.7637795275590551,
          "duration": 0.2803739999999948
        },
        {
          "name": "D2",
          "midi": 38,
          "time": 140.18699999999913,
          "velocity": 0.7637795275590551,
          "duration": 0.5607479999999896
        },
        {
          "name": "D#2",
          "midi": 39,
          "time": 140.74774799999912,
          "velocity": 0.7637795275590551,
          "duration": 0.1401869999999974
        },
        {
          "name": "D#2",
          "midi": 39,
          "time": 140.88793499999912,
          "velocity": 0.7637795275590551,
          "duration": 0.1401869999999974
        },
        {
          "name": "D#2",
          "midi": 39,
          "time": 141.02812199999912,
          "velocity": 0.7637795275590551,
          "duration": 0.1401869999999974
        },
        {
          "name": "D#2",
          "midi": 39,
          "time": 141.1683089999991,
          "velocity": 0.7637795275590551,
          "duration": 0.1401869999999974
        },
        {
          "name": "D2",
          "midi": 38,
          "time": 141.3084959999991,
          "velocity": 0.7637795275590551,
          "duration": 0.5607479999999896
        },
        {
          "name": "D2",
          "midi": 38,
          "time": 141.8692439999991,
          "velocity": 0.7637795275590551,
          "duration": 0.5607479999999896
        },
        {
          "name": "C#2",
          "midi": 37,
          "time": 142.2898049999991,
          "velocity": 0.7637795275590551,
          "duration": 0.2803739999999948
        },
        {
          "name": "D2",
          "midi": 38,
          "time": 142.4299919999991,
          "velocity": 0.7637795275590551,
          "duration": 0.5607479999999896
        },
        {
          "name": "D#2",
          "midi": 39,
          "time": 143.27111399999907,
          "velocity": 0.7637795275590551,
          "duration": 0.1401869999999974
        },
        {
          "name": "D2",
          "midi": 38,
          "time": 143.55148799999907,
          "velocity": 0.7637795275590551,
          "duration": 0.5607479999999896
        },
        {
          "name": "D2",
          "midi": 38,
          "time": 144.11223599999906,
          "velocity": 0.7637795275590551,
          "duration": 0.5607479999999896
        },
        {
          "name": "C#2",
          "midi": 37,
          "time": 144.53279699999905,
          "velocity": 0.7637795275590551,
          "duration": 0.2803739999999948
        },
        {
          "name": "D2",
          "midi": 38,
          "time": 144.67298399999905,
          "velocity": 0.7637795275590551,
          "duration": 0.5607479999999896
        },
        {
          "name": "D2",
          "midi": 38,
          "time": 145.23373199999904,
          "velocity": 0.7637795275590551,
          "duration": 0.5607479999999896
        },
        {
          "name": "D2",
          "midi": 38,
          "time": 145.79447999999903,
          "velocity": 0.7637795275590551,
          "duration": 0.5607479999999896
        },
        {
          "name": "D2",
          "midi": 38,
          "time": 146.35522799999902,
          "velocity": 0.7637795275590551,
          "duration": 0.5607479999999896
        },
        {
          "name": "C#2",
          "midi": 37,
          "time": 146.775788999999,
          "velocity": 0.7637795275590551,
          "duration": 0.2803739999999948
        },
        {
          "name": "D#2",
          "midi": 39,
          "time": 147.196349999999,
          "velocity": 0.7637795275590551,
          "duration": 0.1401869999999974
        },
        {
          "name": "D2",
          "midi": 38,
          "time": 147.476723999999,
          "velocity": 0.7637795275590551,
          "duration": 0.5607479999999896
        },
        {
          "name": "D2",
          "midi": 38,
          "time": 148.03747199999898,
          "velocity": 0.7637795275590551,
          "duration": 0.5607479999999896
        },
        {
          "name": "D2",
          "midi": 38,
          "time": 148.59821999999897,
          "velocity": 0.7637795275590551,
          "duration": 0.5607479999999896
        },
        {
          "name": "C#2",
          "midi": 37,
          "time": 149.01878099999897,
          "velocity": 0.7637795275590551,
          "duration": 0.2803739999999948
        },
        {
          "name": "D2",
          "midi": 38,
          "time": 149.15896799999896,
          "velocity": 0.7637795275590551,
          "duration": 0.5607479999999896
        },
        {
          "name": "D#2",
          "midi": 39,
          "time": 149.71971599999895,
          "velocity": 0.7637795275590551,
          "duration": 0.1401869999999974
        },
        {
          "name": "D#2",
          "midi": 39,
          "time": 149.85990299999895,
          "velocity": 0.7637795275590551,
          "duration": 0.1401869999999974
        },
        {
          "name": "D#2",
          "midi": 39,
          "time": 150.00008999999895,
          "velocity": 0.7637795275590551,
          "duration": 0.1401869999999974
        },
        {
          "name": "D#2",
          "midi": 39,
          "time": 150.14027699999895,
          "velocity": 0.7637795275590551,
          "duration": 0.1401869999999974
        },
        {
          "name": "D2",
          "midi": 38,
          "time": 150.28046399999894,
          "velocity": 0.7637795275590551,
          "duration": 0.5607479999999896
        },
        {
          "name": "D2",
          "midi": 38,
          "time": 150.84121199999893,
          "velocity": 0.7637795275590551,
          "duration": 0.5607479999999896
        },
        {
          "name": "C#2",
          "midi": 37,
          "time": 151.26177299999893,
          "velocity": 0.7637795275590551,
          "duration": 0.2803739999999948
        },
        {
          "name": "D2",
          "midi": 38,
          "time": 151.40195999999892,
          "velocity": 0.7637795275590551,
          "duration": 0.5607479999999896
        },
        {
          "name": "D#2",
          "midi": 39,
          "time": 152.2430819999989,
          "velocity": 0.7637795275590551,
          "duration": 0.1401869999999974
        },
        {
          "name": "D2",
          "midi": 38,
          "time": 152.5234559999989,
          "velocity": 0.7637795275590551,
          "duration": 0.5607479999999896
        },
        {
          "name": "D2",
          "midi": 38,
          "time": 153.0842039999989,
          "velocity": 0.7637795275590551,
          "duration": 0.5607479999999896
        },
        {
          "name": "C#2",
          "midi": 37,
          "time": 153.50476499999888,
          "velocity": 0.7637795275590551,
          "duration": 0.2803739999999948
        },
        {
          "name": "D2",
          "midi": 38,
          "time": 153.64495199999888,
          "velocity": 0.7637795275590551,
          "duration": 0.5607479999999896
        },
        {
          "name": "D2",
          "midi": 38,
          "time": 154.20569999999887,
          "velocity": 0.7637795275590551,
          "duration": 0.5607479999999896
        },
        {
          "name": "D2",
          "midi": 38,
          "time": 154.76644799999886,
          "velocity": 0.7637795275590551,
          "duration": 0.5607479999999896
        },
        {
          "name": "D2",
          "midi": 38,
          "time": 155.32719599999885,
          "velocity": 0.7637795275590551,
          "duration": 0.5607479999999896
        },
        {
          "name": "C#2",
          "midi": 37,
          "time": 155.74775699999884,
          "velocity": 0.7637795275590551,
          "duration": 0.2803739999999948
        },
        {
          "name": "D#2",
          "midi": 39,
          "time": 156.16831799999883,
          "velocity": 0.7637795275590551,
          "duration": 0.1401869999999974
        },
        {
          "name": "D2",
          "midi": 38,
          "time": 156.44869199999883,
          "velocity": 0.7637795275590551,
          "duration": 0.5607479999999896
        },
        {
          "name": "D2",
          "midi": 38,
          "time": 157.00943999999882,
          "velocity": 0.7637795275590551,
          "duration": 0.2803739999999948
        },
        {
          "name": "C2",
          "midi": 36,
          "time": 157.2898139999988,
          "velocity": 0.7637795275590551,
          "duration": 0.2803739999999948
        },
        {
          "name": "D2",
          "midi": 38,
          "time": 157.5701879999988,
          "velocity": 0.7637795275590551,
          "duration": 0.2803739999999948
        },
        {
          "name": "C2",
          "midi": 36,
          "time": 157.8505619999988,
          "velocity": 0.7637795275590551,
          "duration": 0.2803739999999948
        },
        {
          "name": "C#2",
          "midi": 37,
          "time": 157.9907489999988,
          "velocity": 0.7637795275590551,
          "duration": 0.2803739999999948
        },
        {
          "name": "D2",
          "midi": 38,
          "time": 158.1309359999988,
          "velocity": 0.7637795275590551,
          "duration": 0.2803739999999948
        },
        {
          "name": "C2",
          "midi": 36,
          "time": 158.4113099999988,
          "velocity": 0.7637795275590551,
          "duration": 0.2803739999999948
        },
        {
          "name": "D#2",
          "midi": 39,
          "time": 158.6916839999988,
          "velocity": 0.7637795275590551,
          "duration": 0.1401869999999974
        },
        {
          "name": "D#2",
          "midi": 39,
          "time": 158.83187099999878,
          "velocity": 0.7637795275590551,
          "duration": 0.1401869999999974
        },
        {
          "name": "D#2",
          "midi": 39,
          "time": 158.97205799999878,
          "velocity": 0.7637795275590551,
          "duration": 0.1401869999999974
        },
        {
          "name": "D#2",
          "midi": 39,
          "time": 159.11224499999878,
          "velocity": 0.7637795275590551,
          "duration": 0.1401869999999974
        },
        {
          "name": "D2",
          "midi": 38,
          "time": 159.25243199999878,
          "velocity": 0.7637795275590551,
          "duration": 0.2803739999999948
        },
        {
          "name": "C2",
          "midi": 36,
          "time": 159.53280599999877,
          "velocity": 0.7637795275590551,
          "duration": 0.2803739999999948
        },
        {
          "name": "D2",
          "midi": 38,
          "time": 159.81317999999877,
          "velocity": 0.7637795275590551,
          "duration": 0.2803739999999948
        },
        {
          "name": "C2",
          "midi": 36,
          "time": 160.09355399999876,
          "velocity": 0.7637795275590551,
          "duration": 0.2803739999999948
        },
        {
          "name": "C#2",
          "midi": 37,
          "time": 160.23374099999876,
          "velocity": 0.7637795275590551,
          "duration": 0.2803739999999948
        },
        {
          "name": "D2",
          "midi": 38,
          "time": 160.37392799999876,
          "velocity": 0.7637795275590551,
          "duration": 0.2803739999999948
        },
        {
          "name": "C2",
          "midi": 36,
          "time": 160.65430199999875,
          "velocity": 0.7637795275590551,
          "duration": 0.2803739999999948
        },
        {
          "name": "D#2",
          "midi": 39,
          "time": 161.21504999999874,
          "velocity": 0.7637795275590551,
          "duration": 0.1401869999999974
        },
        {
          "name": "D2",
          "midi": 38,
          "time": 161.49542399999874,
          "velocity": 0.7637795275590551,
          "duration": 0.2803739999999948
        },
        {
          "name": "C2",
          "midi": 36,
          "time": 161.77579799999873,
          "velocity": 0.7637795275590551,
          "duration": 0.2803739999999948
        },
        {
          "name": "D2",
          "midi": 38,
          "time": 162.05617199999872,
          "velocity": 0.7637795275590551,
          "duration": 0.2803739999999948
        },
        {
          "name": "C2",
          "midi": 36,
          "time": 162.33654599999872,
          "velocity": 0.7637795275590551,
          "duration": 0.2803739999999948
        },
        {
          "name": "C#2",
          "midi": 37,
          "time": 162.47673299999872,
          "velocity": 0.7637795275590551,
          "duration": 0.2803739999999948
        },
        {
          "name": "D2",
          "midi": 38,
          "time": 162.61691999999871,
          "velocity": 0.7637795275590551,
          "duration": 0.2803739999999948
        },
        {
          "name": "C2",
          "midi": 36,
          "time": 162.8972939999987,
          "velocity": 0.7637795275590551,
          "duration": 0.2803739999999948
        },
        {
          "name": "D2",
          "midi": 38,
          "time": 163.1776679999987,
          "velocity": 0.7637795275590551,
          "duration": 0.2803739999999948
        },
        {
          "name": "C2",
          "midi": 36,
          "time": 163.4580419999987,
          "velocity": 0.7637795275590551,
          "duration": 0.2803739999999948
        },
        {
          "name": "D2",
          "midi": 38,
          "time": 163.7384159999987,
          "velocity": 0.7637795275590551,
          "duration": 0.2803739999999948
        },
        {
          "name": "C2",
          "midi": 36,
          "time": 164.0187899999987,
          "velocity": 0.7637795275590551,
          "duration": 0.2803739999999948
        },
        {
          "name": "D2",
          "midi": 38,
          "time": 164.29916399999868,
          "velocity": 0.7637795275590551,
          "duration": 0.2803739999999948
        },
        {
          "name": "C2",
          "midi": 36,
          "time": 164.57953799999868,
          "velocity": 0.7637795275590551,
          "duration": 0.2803739999999948
        },
        {
          "name": "C#2",
          "midi": 37,
          "time": 164.71972499999868,
          "velocity": 0.7637795275590551,
          "duration": 0.2803739999999948
        },
        {
          "name": "D#2",
          "midi": 39,
          "time": 165.14028599999867,
          "velocity": 0.7637795275590551,
          "duration": 0.1401869999999974
        },
        {
          "name": "D2",
          "midi": 38,
          "time": 165.42065999999866,
          "velocity": 0.7637795275590551,
          "duration": 0.2803739999999948
        },
        {
          "name": "C2",
          "midi": 36,
          "time": 165.70103399999866,
          "velocity": 0.7637795275590551,
          "duration": 0.2803739999999948
        },
        {
          "name": "D2",
          "midi": 38,
          "time": 165.98140799999865,
          "velocity": 0.7637795275590551,
          "duration": 0.2803739999999948
        },
        {
          "name": "C2",
          "midi": 36,
          "time": 166.26178199999865,
          "velocity": 0.7637795275590551,
          "duration": 0.2803739999999948
        },
        {
          "name": "D2",
          "midi": 38,
          "time": 166.54215599999864,
          "velocity": 0.7637795275590551,
          "duration": 0.2803739999999948
        },
        {
          "name": "C2",
          "midi": 36,
          "time": 166.82252999999864,
          "velocity": 0.7637795275590551,
          "duration": 0.2803739999999948
        },
        {
          "name": "C#2",
          "midi": 37,
          "time": 166.96271699999863,
          "velocity": 0.7637795275590551,
          "duration": 0.2803739999999948
        },
        {
          "name": "D2",
          "midi": 38,
          "time": 167.10290399999863,
          "velocity": 0.7637795275590551,
          "duration": 0.2803739999999948
        },
        {
          "name": "C2",
          "midi": 36,
          "time": 167.38327799999863,
          "velocity": 0.7637795275590551,
          "duration": 0.2803739999999948
        },
        {
          "name": "D#2",
          "midi": 39,
          "time": 167.66365199999862,
          "velocity": 0.7637795275590551,
          "duration": 0.1401869999999974
        },
        {
          "name": "D#2",
          "midi": 39,
          "time": 167.80383899999862,
          "velocity": 0.7637795275590551,
          "duration": 0.1401869999999974
        },
        {
          "name": "D#2",
          "midi": 39,
          "time": 167.94402599999862,
          "velocity": 0.7637795275590551,
          "duration": 0.1401869999999974
        },
        {
          "name": "D#2",
          "midi": 39,
          "time": 168.0842129999986,
          "velocity": 0.7637795275590551,
          "duration": 0.1401869999999974
        },
        {
          "name": "D2",
          "midi": 38,
          "time": 168.2243999999986,
          "velocity": 0.7637795275590551,
          "duration": 0.2803739999999948
        },
        {
          "name": "C2",
          "midi": 36,
          "time": 168.5047739999986,
          "velocity": 0.7637795275590551,
          "duration": 0.2803739999999948
        },
        {
          "name": "D2",
          "midi": 38,
          "time": 168.7851479999986,
          "velocity": 0.7637795275590551,
          "duration": 0.2803739999999948
        },
        {
          "name": "C2",
          "midi": 36,
          "time": 169.0655219999986,
          "velocity": 0.7637795275590551,
          "duration": 0.2803739999999948
        },
        {
          "name": "C#2",
          "midi": 37,
          "time": 169.2057089999986,
          "velocity": 0.7637795275590551,
          "duration": 0.2803739999999948
        },
        {
          "name": "D2",
          "midi": 38,
          "time": 169.3458959999986,
          "velocity": 0.7637795275590551,
          "duration": 0.2803739999999948
        },
        {
          "name": "C2",
          "midi": 36,
          "time": 169.62626999999858,
          "velocity": 0.7637795275590551,
          "duration": 0.2803739999999948
        },
        {
          "name": "D#2",
          "midi": 39,
          "time": 170.18701799999857,
          "velocity": 0.7637795275590551,
          "duration": 0.1401869999999974
        },
        {
          "name": "D2",
          "midi": 38,
          "time": 170.46739199999857,
          "velocity": 0.7637795275590551,
          "duration": 0.2803739999999948
        },
        {
          "name": "C2",
          "midi": 36,
          "time": 170.74776599999856,
          "velocity": 0.7637795275590551,
          "duration": 0.2803739999999948
        },
        {
          "name": "D2",
          "midi": 38,
          "time": 171.02813999999856,
          "velocity": 0.7637795275590551,
          "duration": 0.2803739999999948
        },
        {
          "name": "C2",
          "midi": 36,
          "time": 171.30851399999855,
          "velocity": 0.7637795275590551,
          "duration": 0.2803739999999948
        },
        {
          "name": "C#2",
          "midi": 37,
          "time": 171.44870099999855,
          "velocity": 0.7637795275590551,
          "duration": 0.2803739999999948
        },
        {
          "name": "D2",
          "midi": 38,
          "time": 171.58888799999855,
          "velocity": 0.7637795275590551,
          "duration": 0.2803739999999948
        },
        {
          "name": "C2",
          "midi": 36,
          "time": 171.86926199999854,
          "velocity": 0.7637795275590551,
          "duration": 0.2803739999999948
        },
        {
          "name": "D2",
          "midi": 38,
          "time": 172.14963599999854,
          "velocity": 0.7637795275590551,
          "duration": 0.2803739999999948
        },
        {
          "name": "C2",
          "midi": 36,
          "time": 172.43000999999853,
          "velocity": 0.7637795275590551,
          "duration": 0.2803739999999948
        },
        {
          "name": "D2",
          "midi": 38,
          "time": 172.71038399999853,
          "velocity": 0.7637795275590551,
          "duration": 0.2803739999999948
        },
        {
          "name": "C2",
          "midi": 36,
          "time": 172.99075799999852,
          "velocity": 0.7637795275590551,
          "duration": 0.2803739999999948
        },
        {
          "name": "D2",
          "midi": 38,
          "time": 173.27113199999852,
          "velocity": 0.7637795275590551,
          "duration": 0.2803739999999948
        },
        {
          "name": "C2",
          "midi": 36,
          "time": 173.5515059999985,
          "velocity": 0.7637795275590551,
          "duration": 0.2803739999999948
        },
        {
          "name": "C#2",
          "midi": 37,
          "time": 173.6916929999985,
          "velocity": 0.7637795275590551,
          "duration": 0.2803739999999948
        },
        {
          "name": "D#2",
          "midi": 39,
          "time": 174.1122539999985,
          "velocity": 0.7637795275590551,
          "duration": 0.1401869999999974
        },
        {
          "name": "D2",
          "midi": 38,
          "time": 174.3926279999985,
          "velocity": 0.7637795275590551,
          "duration": 0.2803739999999948
        },
        {
          "name": "C2",
          "midi": 36,
          "time": 174.6730019999985,
          "velocity": 0.7637795275590551,
          "duration": 0.2803739999999948
        },
        {
          "name": "C#2",
          "midi": 37,
          "time": 175.23374999999848,
          "velocity": 0.7637795275590551,
          "duration": 0.2803739999999948
        },
        {
          "name": "C#2",
          "midi": 37,
          "time": 175.79449799999847,
          "velocity": 0.7637795275590551,
          "duration": 0.2803739999999948
        },
        {
          "name": "C#2",
          "midi": 37,
          "time": 176.35524599999846,
          "velocity": 0.7637795275590551,
          "duration": 0.2803739999999948
        },
        {
          "name": "C#2",
          "midi": 37,
          "time": 176.91599399999845,
          "velocity": 0.7637795275590551,
          "duration": 0.2803739999999948
        },
        {
          "name": "C#2",
          "midi": 37,
          "time": 177.47674199999844,
          "velocity": 0.7637795275590551,
          "duration": 0.2803739999999948
        },
        {
          "name": "C#2",
          "midi": 37,
          "time": 178.03748999999843,
          "velocity": 0.7637795275590551,
          "duration": 0.2803739999999948
        },
        {
          "name": "C#2",
          "midi": 37,
          "time": 178.59823799999842,
          "velocity": 0.7637795275590551,
          "duration": 0.2803739999999948
        },
        {
          "name": "C#2",
          "midi": 37,
          "time": 179.1589859999984,
          "velocity": 0.7637795275590551,
          "duration": 0.2803739999999948
        },
        {
          "name": "C#2",
          "midi": 37,
          "time": 179.7197339999984,
          "velocity": 0.7637795275590551,
          "duration": 0.2803739999999948
        },
        {
          "name": "C#2",
          "midi": 37,
          "time": 180.2804819999984,
          "velocity": 0.7637795275590551,
          "duration": 0.2803739999999948
        },
        {
          "name": "C#2",
          "midi": 37,
          "time": 180.84122999999838,
          "velocity": 0.7637795275590551,
          "duration": 0.2803739999999948
        },
        {
          "name": "C#2",
          "midi": 37,
          "time": 181.40197799999837,
          "velocity": 0.7637795275590551,
          "duration": 0.2803739999999948
        },
        {
          "name": "C#2",
          "midi": 37,
          "time": 181.96272599999836,
          "velocity": 0.7637795275590551,
          "duration": 0.2803739999999948
        },
        {
          "name": "C#2",
          "midi": 37,
          "time": 182.52347399999834,
          "velocity": 0.7637795275590551,
          "duration": 0.2803739999999948
        },
        {
          "name": "C#2",
          "midi": 37,
          "time": 183.08422199999833,
          "velocity": 0.7637795275590551,
          "duration": 0.2803739999999948
        },
        {
          "name": "C#2",
          "midi": 37,
          "time": 183.64496999999832,
          "velocity": 0.7637795275590551,
          "duration": 0.2803739999999948
        }
      ],
      "controlChanges": {
        "7": [
          {
            "number": 7,
            "time": 0,
            "value": 1
          }
        ],
        "32": [
          {
            "number": 32,
            "time": 0,
            "value": 0
          }
        ]
      },
      "id": 1,
      "name": "MIDI",
      "instrumentNumber": 0,
      "instrument": "acoustic grand piano",
      "instrumentFamily": "piano",
      "channelNumber": 0,
      "isPercussion": false
    }
  ]
}