{
  "header": {
    "PPQ": 15360,
    "bpm": 98.99993565004183,
    "timeSignature": [
      4,
      4
    ],
    "name": "Real Haters",
    "artist": "magician.io",
    "difficulty": "8"
  },
  "tempo": [
    {
      "absoluteTime": 0,
      "seconds": 0,
      "bpm": 98.99993565004183
    }
  ],
  "timeSignature": [
    {
      "absoluteTime": 0,
      "seconds": 0,
      "numerator": 4,
      "denominator": 2,
      "click": 24,
      "notesQ": 8
    }
  ],
  "startTime": 0,
  "duration": 252.12137600000014,
  "tracks": [
    {
      "startTime": 0,
      "duration": 0,
      "length": 0,
      "notes": [],
      "controlChanges": {},
      "id": 0,
      "name": "Transport"
    },
    {
      "startTime": 14.545463999999999,
      "duration": 252.12137600000014,
      "length": 251,
      "notes": [
        {
          "name": "D#2",
          "midi": 39,
          "time": 14.545463999999999,
          "velocity": 0.7874015748031497,
          "duration": 0.3030305000000002
        },
        {
          "name": "C#2",
          "midi": 37,
          "time": 15.757586,
          "velocity": 0.7874015748031497,
          "duration": 0.3030304999999984
        },
        {
          "name": "D#2",
          "midi": 39,
          "time": 16.969707999999997,
          "velocity": 0.7874015748031497,
          "duration": 0.3030304999999984
        },
        {
          "name": "C#2",
          "midi": 37,
          "time": 18.181829999999994,
          "velocity": 0.7874015748031497,
          "duration": 0.3030304999999984
        },
        {
          "name": "D2",
          "midi": 38,
          "time": 18.78789099999999,
          "velocity": 0.7874015748031497,
          "duration": 0.3030304999999984
        },
        {
          "name": "D2",
          "midi": 38,
          "time": 19.393951999999988,
          "velocity": 0.7874015748031497,
          "duration": 0.3030304999999984
        },
        {
          "name": "C2",
          "midi": 36,
          "time": 20.606073999999985,
          "velocity": 0.7874015748031497,
          "duration": 0.3030304999999984
        },
        {
          "name": "D2",
          "midi": 38,
          "time": 21.818195999999983,
          "velocity": 0.7874015748031497,
          "duration": 0.3030304999999984
        },
        {
          "name": "D2",
          "midi": 38,
          "time": 22.72728749999998,
          "velocity": 0.7874015748031497,
          "duration": 0.3030304999999984
        },
        {
          "name": "C2",
          "midi": 36,
          "time": 23.03031799999998,
          "velocity": 0.7874015748031497,
          "duration": 0.3030304999999984
        },
        {
          "name": "D2",
          "midi": 38,
          "time": 23.636378999999977,
          "velocity": 0.7874015748031497,
          "duration": 0.3030304999999984
        },
        {
          "name": "D#2",
          "midi": 39,
          "time": 24.242439999999974,
          "velocity": 0.7874015748031497,
          "duration": 0.3030304999999984
        },
        {
          "name": "C#2",
          "midi": 37,
          "time": 25.45456199999997,
          "velocity": 0.7874015748031497,
          "duration": 0.3030304999999984
        },
        {
          "name": "D#2",
          "midi": 39,
          "time": 26.666683999999968,
          "velocity": 0.7874015748031497,
          "duration": 0.3030304999999984
        },
        {
          "name": "C#2",
          "midi": 37,
          "time": 27.878805999999965,
          "velocity": 0.7874015748031497,
          "duration": 0.3030304999999984
        },
        {
          "name": "D2",
          "midi": 38,
          "time": 28.484866999999962,
          "velocity": 0.7874015748031497,
          "duration": 0.3030304999999984
        },
        {
          "name": "D2",
          "midi": 38,
          "time": 29.09092799999996,
          "velocity": 0.7874015748031497,
          "duration": 0.3030304999999984
        },
        {
          "name": "C2",
          "midi": 36,
          "time": 30.303049999999956,
          "velocity": 0.7874015748031497,
          "duration": 0.3030304999999984
        },
        {
          "name": "D2",
          "midi": 38,
          "time": 31.515171999999954,
          "velocity": 0.7874015748031497,
          "duration": 0.3030304999999984
        },
        {
          "name": "D2",
          "midi": 38,
          "time": 32.42426349999995,
          "velocity": 0.7874015748031497,
          "duration": 0.3030304999999984
        },
        {
          "name": "C2",
          "midi": 36,
          "time": 32.72729399999995,
          "velocity": 0.7874015748031497,
          "duration": 0.3030304999999984
        },
        {
          "name": "D2",
          "midi": 38,
          "time": 33.33335499999995,
          "velocity": 0.7874015748031497,
          "duration": 0.3030304999999984
        },
        {
          "name": "D#2",
          "midi": 39,
          "time": 33.939415999999945,
          "velocity": 0.7874015748031497,
          "duration": 0.3030304999999984
        },
        {
          "name": "C#2",
          "midi": 37,
          "time": 35.151537999999945,
          "velocity": 0.7874015748031497,
          "duration": 0.3030304999999984
        },
        {
          "name": "D#2",
          "midi": 39,
          "time": 36.363659999999946,
          "velocity": 0.7874015748031497,
          "duration": 0.3030304999999984
        },
        {
          "name": "C#2",
          "midi": 37,
          "time": 37.57578199999995,
          "velocity": 0.7874015748031497,
          "duration": 0.3030304999999984
        },
        {
          "name": "D2",
          "midi": 38,
          "time": 38.181842999999944,
          "velocity": 0.7874015748031497,
          "duration": 0.3030304999999984
        },
        {
          "name": "D2",
          "midi": 38,
          "time": 38.78790399999994,
          "velocity": 0.7874015748031497,
          "duration": 0.3030304999999984
        },
        {
          "name": "C2",
          "midi": 36,
          "time": 40.00002599999994,
          "velocity": 0.7874015748031497,
          "duration": 0.3030304999999984
        },
        {
          "name": "D2",
          "midi": 38,
          "time": 41.21214799999994,
          "velocity": 0.7874015748031497,
          "duration": 0.3030304999999984
        },
        {
          "name": "D2",
          "midi": 38,
          "time": 42.12123949999994,
          "velocity": 0.7874015748031497,
          "duration": 0.3030304999999984
        },
        {
          "name": "C2",
          "midi": 36,
          "time": 42.424269999999936,
          "velocity": 0.7874015748031497,
          "duration": 0.3030304999999984
        },
        {
          "name": "D2",
          "midi": 38,
          "time": 43.03033099999993,
          "velocity": 0.7874015748031497,
          "duration": 0.15151525000000277
        },
        {
          "name": "C2",
          "midi": 36,
          "time": 43.181846249999936,
          "velocity": 0.7874015748031497,
          "duration": 0.15151525000000277
        },
        {
          "name": "D#2",
          "midi": 39,
          "time": 43.33336149999994,
          "velocity": 0.7874015748031497,
          "duration": 0.15151525000000277
        },
        {
          "name": "C#2",
          "midi": 37,
          "time": 43.48487674999994,
          "velocity": 0.7874015748031497,
          "duration": 0.15151525000000277
        },
        {
          "name": "D#2",
          "midi": 39,
          "time": 43.636391999999944,
          "velocity": 0.7874015748031497,
          "duration": 2.4242440000000016
        },
        {
          "name": "C#2",
          "midi": 37,
          "time": 46.060635999999946,
          "velocity": 0.7874015748031497,
          "duration": 1.2121220000000008
        },
        {
          "name": "D2",
          "midi": 38,
          "time": 47.272757999999946,
          "velocity": 0.7874015748031497,
          "duration": 0.6060609999999969
        },
        {
          "name": "C2",
          "midi": 36,
          "time": 47.87881899999994,
          "velocity": 0.7874015748031497,
          "duration": 0.6060609999999969
        },
        {
          "name": "D#2",
          "midi": 39,
          "time": 48.48487999999994,
          "velocity": 0.7874015748031497,
          "duration": 1.8181829999999977
        },
        {
          "name": "C#2",
          "midi": 37,
          "time": 50.30306299999994,
          "velocity": 0.7874015748031497,
          "duration": 0.6060609999999969
        },
        {
          "name": "C2",
          "midi": 36,
          "time": 50.909123999999935,
          "velocity": 0.7874015748031497,
          "duration": 2.4242440000000016
        },
        {
          "name": "D2",
          "midi": 38,
          "time": 53.333367999999936,
          "velocity": 0.7874015748031497,
          "duration": 2.4242440000000016
        },
        {
          "name": "C#2",
          "midi": 37,
          "time": 55.75761199999994,
          "velocity": 0.7874015748031497,
          "duration": 1.2121220000000008
        },
        {
          "name": "D#2",
          "midi": 39,
          "time": 56.96973399999994,
          "velocity": 0.7874015748031497,
          "duration": 0.6060609999999969
        },
        {
          "name": "C#2",
          "midi": 37,
          "time": 57.575794999999935,
          "velocity": 0.7874015748031497,
          "duration": 0.6060609999999969
        },
        {
          "name": "C2",
          "midi": 36,
          "time": 58.18185599999993,
          "velocity": 0.7874015748031497,
          "duration": 4.848487999999996
        },
        {
          "name": "D#2",
          "midi": 39,
          "time": 63.03034399999993,
          "velocity": 0.7874015748031497,
          "duration": 2.4242440000000016
        },
        {
          "name": "C#2",
          "midi": 37,
          "time": 65.45458799999993,
          "velocity": 0.7874015748031497,
          "duration": 1.2121219999999937
        },
        {
          "name": "D2",
          "midi": 38,
          "time": 66.66670999999992,
          "velocity": 0.7874015748031497,
          "duration": 0.6060609999999969
        },
        {
          "name": "C2",
          "midi": 36,
          "time": 67.27277099999992,
          "velocity": 0.7874015748031497,
          "duration": 0.6060609999999969
        },
        {
          "name": "D#2",
          "midi": 39,
          "time": 67.87883199999992,
          "velocity": 0.7874015748031497,
          "duration": 1.8181830000000048
        },
        {
          "name": "C#2",
          "midi": 37,
          "time": 69.69701499999992,
          "velocity": 0.7874015748031497,
          "duration": 0.6060609999999969
        },
        {
          "name": "C2",
          "midi": 36,
          "time": 70.30307599999992,
          "velocity": 0.7874015748031497,
          "duration": 2.4242440000000016
        },
        {
          "name": "D2",
          "midi": 38,
          "time": 72.72731999999992,
          "velocity": 0.7874015748031497,
          "duration": 2.4242440000000016
        },
        {
          "name": "C#2",
          "midi": 37,
          "time": 75.15156399999992,
          "velocity": 0.7874015748031497,
          "duration": 1.2121219999999937
        },
        {
          "name": "D#2",
          "midi": 39,
          "time": 76.36368599999992,
          "velocity": 0.7874015748031497,
          "duration": 0.6060609999999969
        },
        {
          "name": "C#2",
          "midi": 37,
          "time": 76.96974699999991,
          "velocity": 0.7874015748031497,
          "duration": 0.6060609999999969
        },
        {
          "name": "C2",
          "midi": 36,
          "time": 77.57580799999991,
          "velocity": 0.7874015748031497,
          "duration": 2.121213499999996
        },
        {
          "name": "D2",
          "midi": 38,
          "time": 79.6970214999999,
          "velocity": 0.7874015748031497,
          "duration": 0.30303050000000553
        },
        {
          "name": "C2",
          "midi": 36,
          "time": 80.00005199999991,
          "velocity": 0.7874015748031497,
          "duration": 2.4242440000000016
        },
        {
          "name": "D#2",
          "midi": 39,
          "time": 82.42429599999991,
          "velocity": 0.7874015748031497,
          "duration": 0.6060609999999969
        },
        {
          "name": "C#2",
          "midi": 37,
          "time": 83.6364179999999,
          "velocity": 0.7874015748031497,
          "duration": 0.6060609999999969
        },
        {
          "name": "D#2",
          "midi": 39,
          "time": 84.8485399999999,
          "velocity": 0.7874015748031497,
          "duration": 0.6060609999999969
        },
        {
          "name": "C#2",
          "midi": 37,
          "time": 86.0606619999999,
          "velocity": 0.7874015748031497,
          "duration": 0.6060609999999969
        },
        {
          "name": "D2",
          "midi": 38,
          "time": 86.66672299999989,
          "velocity": 0.7874015748031497,
          "duration": 0.6060609999999969
        },
        {
          "name": "C2",
          "midi": 36,
          "time": 87.27278399999989,
          "velocity": 0.7874015748031497,
          "duration": 0.6060609999999969
        },
        {
          "name": "D2",
          "midi": 38,
          "time": 88.48490599999988,
          "velocity": 0.7874015748031497,
          "duration": 0.6060609999999969
        },
        {
          "name": "C2",
          "midi": 36,
          "time": 89.69702799999988,
          "velocity": 0.7874015748031497,
          "duration": 0.6060609999999969
        },
        {
          "name": "D2",
          "midi": 38,
          "time": 90.60611949999988,
          "velocity": 0.7874015748031497,
          "duration": 0.30303050000000553
        },
        {
          "name": "C#2",
          "midi": 37,
          "time": 90.90914999999988,
          "velocity": 0.7874015748031497,
          "duration": 0.30303050000000553
        },
        {
          "name": "D#2",
          "midi": 39,
          "time": 91.5152109999999,
          "velocity": 0.7874015748031497,
          "duration": 0.30303050000000553
        },
        {
          "name": "C#2",
          "midi": 37,
          "time": 92.1212719999999,
          "velocity": 0.7874015748031497,
          "duration": 0.6060609999999969
        },
        {
          "name": "D#2",
          "midi": 39,
          "time": 93.3333939999999,
          "velocity": 0.7874015748031497,
          "duration": 0.6060609999999969
        },
        {
          "name": "C#2",
          "midi": 37,
          "time": 94.54551599999989,
          "velocity": 0.7874015748031497,
          "duration": 0.6060609999999969
        },
        {
          "name": "D#2",
          "midi": 39,
          "time": 95.75763799999989,
          "velocity": 0.7874015748031497,
          "duration": 0.6060609999999969
        },
        {
          "name": "D2",
          "midi": 38,
          "time": 96.36369899999988,
          "velocity": 0.7874015748031497,
          "duration": 0.6060609999999969
        },
        {
          "name": "C2",
          "midi": 36,
          "time": 96.96975999999988,
          "velocity": 0.7874015748031497,
          "duration": 0.30303050000000553
        },
        {
          "name": "C2",
          "midi": 36,
          "time": 97.42430574999989,
          "velocity": 0.7874015748031497,
          "duration": 0.30303050000000553
        },
        {
          "name": "C2",
          "midi": 36,
          "time": 97.8788514999999,
          "velocity": 0.7874015748031497,
          "duration": 0.30303050000000553
        },
        {
          "name": "D2",
          "midi": 38,
          "time": 99.3940039999999,
          "velocity": 0.7874015748031497,
          "duration": 0.30303050000000553
        },
        {
          "name": "D2",
          "midi": 38,
          "time": 100.3030954999999,
          "velocity": 0.7874015748031497,
          "duration": 0.30303050000000553
        },
        {
          "name": "C#2",
          "midi": 37,
          "time": 100.6061259999999,
          "velocity": 0.7874015748031497,
          "duration": 0.30303050000000553
        },
        {
          "name": "C2",
          "midi": 36,
          "time": 101.81824799999991,
          "velocity": 0.7874015748031497,
          "duration": 0.30303050000000553
        },
        {
          "name": "C2",
          "midi": 36,
          "time": 102.27279374999992,
          "velocity": 0.7874015748031497,
          "duration": 0.30303050000000553
        },
        {
          "name": "C2",
          "midi": 36,
          "time": 102.72733949999993,
          "velocity": 0.7874015748031497,
          "duration": 0.30303050000000553
        },
        {
          "name": "D2",
          "midi": 38,
          "time": 104.54552249999993,
          "velocity": 0.7874015748031497,
          "duration": 0.30303050000000553
        },
        {
          "name": "D2",
          "midi": 38,
          "time": 105.00006824999994,
          "velocity": 0.7874015748031497,
          "duration": 0.30303050000000553
        },
        {
          "name": "D2",
          "midi": 38,
          "time": 105.45461399999995,
          "velocity": 0.7874015748031497,
          "duration": 0.30303050000000553
        },
        {
          "name": "C2",
          "midi": 36,
          "time": 106.66673599999996,
          "velocity": 0.7874015748031497,
          "duration": 0.30303050000000553
        },
        {
          "name": "C2",
          "midi": 36,
          "time": 107.12128174999997,
          "velocity": 0.7874015748031497,
          "duration": 0.30303050000000553
        },
        {
          "name": "C2",
          "midi": 36,
          "time": 107.57582749999997,
          "velocity": 0.7874015748031497,
          "duration": 0.30303050000000553
        },
        {
          "name": "C#2",
          "midi": 37,
          "time": 110.30310199999998,
          "velocity": 0.7874015748031497,
          "duration": 0.15151525000000277
        },
        {
          "name": "C#2",
          "midi": 37,
          "time": 110.45461724999998,
          "velocity": 0.7874015748031497,
          "duration": 0.15151525000000277
        },
        {
          "name": "C#2",
          "midi": 37,
          "time": 110.75764774999999,
          "velocity": 0.7874015748031497,
          "duration": 0.15151525000000277
        },
        {
          "name": "C#2",
          "midi": 37,
          "time": 111.06067825,
          "velocity": 0.7874015748031497,
          "duration": 0.15151525000000277
        },
        {
          "name": "D2",
          "midi": 38,
          "time": 111.515224,
          "velocity": 0.7874015748031497,
          "duration": 0.30303050000000553
        },
        {
          "name": "D2",
          "midi": 38,
          "time": 111.96976975000001,
          "velocity": 0.7874015748031497,
          "duration": 0.30303050000000553
        },
        {
          "name": "D2",
          "midi": 38,
          "time": 112.42431550000002,
          "velocity": 0.7874015748031497,
          "duration": 0.30303050000000553
        },
        {
          "name": "C2",
          "midi": 36,
          "time": 115.15159000000003,
          "velocity": 0.7874015748031497,
          "duration": 0.15151525000000277
        },
        {
          "name": "C2",
          "midi": 36,
          "time": 115.30310525000003,
          "velocity": 0.7874015748031497,
          "duration": 0.15151525000000277
        },
        {
          "name": "C2",
          "midi": 36,
          "time": 115.60613575000004,
          "velocity": 0.7874015748031497,
          "duration": 0.15151525000000277
        },
        {
          "name": "C2",
          "midi": 36,
          "time": 115.90916625000004,
          "velocity": 0.7874015748031497,
          "duration": 0.15151525000000277
        },
        {
          "name": "C#2",
          "midi": 37,
          "time": 116.36371200000005,
          "velocity": 0.7874015748031497,
          "duration": 0.30303050000000553
        },
        {
          "name": "C#2",
          "midi": 37,
          "time": 116.81825775000006,
          "velocity": 0.7874015748031497,
          "duration": 0.30303050000000553
        },
        {
          "name": "C#2",
          "midi": 37,
          "time": 117.27280350000007,
          "velocity": 0.7874015748031497,
          "duration": 0.30303050000000553
        },
        {
          "name": "C2",
          "midi": 36,
          "time": 120.30310850000006,
          "velocity": 0.7874015748031497,
          "duration": 0.15151525000000277
        },
        {
          "name": "C2",
          "midi": 36,
          "time": 120.45462375000007,
          "velocity": 0.7874015748031497,
          "duration": 0.15151525000000277
        },
        {
          "name": "C2",
          "midi": 36,
          "time": 120.75765425000007,
          "velocity": 0.7874015748031497,
          "duration": 0.15151525000000277
        },
        {
          "name": "C2",
          "midi": 36,
          "time": 120.90916950000008,
          "velocity": 0.7874015748031497,
          "duration": 0.15151525000000277
        },
        {
          "name": "D#2",
          "midi": 39,
          "time": 121.21220000000008,
          "velocity": 0.7874015748031497,
          "duration": 2.4242440000000016
        },
        {
          "name": "C#2",
          "midi": 37,
          "time": 123.63644400000008,
          "velocity": 0.7874015748031497,
          "duration": 1.2121219999999937
        },
        {
          "name": "D2",
          "midi": 38,
          "time": 124.84856600000008,
          "velocity": 0.7874015748031497,
          "duration": 0.6060609999999969
        },
        {
          "name": "C2",
          "midi": 36,
          "time": 125.45462700000007,
          "velocity": 0.7874015748031497,
          "duration": 0.6060609999999969
        },
        {
          "name": "D#2",
          "midi": 39,
          "time": 126.06068800000007,
          "velocity": 0.7874015748031497,
          "duration": 1.8181830000000048
        },
        {
          "name": "C#2",
          "midi": 37,
          "time": 127.87887100000007,
          "velocity": 0.7874015748031497,
          "duration": 0.6060609999999969
        },
        {
          "name": "C2",
          "midi": 36,
          "time": 128.48493200000007,
          "velocity": 0.7874015748031497,
          "duration": 2.4242439999999874
        },
        {
          "name": "D2",
          "midi": 38,
          "time": 130.90917600000006,
          "velocity": 0.7874015748031497,
          "duration": 2.4242439999999874
        },
        {
          "name": "C#2",
          "midi": 37,
          "time": 133.33342000000005,
          "velocity": 0.7874015748031497,
          "duration": 1.2121219999999937
        },
        {
          "name": "D#2",
          "midi": 39,
          "time": 134.54554200000004,
          "velocity": 0.7874015748031497,
          "duration": 0.6060610000000111
        },
        {
          "name": "C#2",
          "midi": 37,
          "time": 135.15160300000005,
          "velocity": 0.7874015748031497,
          "duration": 0.6060610000000111
        },
        {
          "name": "C2",
          "midi": 36,
          "time": 135.75766400000006,
          "velocity": 0.7874015748031497,
          "duration": 4.848488000000003
        },
        {
          "name": "D#2",
          "midi": 39,
          "time": 140.60615200000007,
          "velocity": 0.7874015748031497,
          "duration": 2.4242439999999874
        },
        {
          "name": "C#2",
          "midi": 37,
          "time": 143.03039600000005,
          "velocity": 0.7874015748031497,
          "duration": 1.2121219999999937
        },
        {
          "name": "D2",
          "midi": 38,
          "time": 144.24251800000005,
          "velocity": 0.7874015748031497,
          "duration": 0.6060610000000111
        },
        {
          "name": "C2",
          "midi": 36,
          "time": 144.84857900000006,
          "velocity": 0.7874015748031497,
          "duration": 0.6060610000000111
        },
        {
          "name": "D#2",
          "midi": 39,
          "time": 145.45464000000007,
          "velocity": 0.7874015748031497,
          "duration": 1.8181830000000048
        },
        {
          "name": "C#2",
          "midi": 37,
          "time": 147.27282300000007,
          "velocity": 0.7874015748031497,
          "duration": 0.6060610000000111
        },
        {
          "name": "C2",
          "midi": 36,
          "time": 147.87888400000008,
          "velocity": 0.7874015748031497,
          "duration": 2.4242439999999874
        },
        {
          "name": "D2",
          "midi": 38,
          "time": 150.30312800000007,
          "velocity": 0.7874015748031497,
          "duration": 2.4242439999999874
        },
        {
          "name": "C#2",
          "midi": 37,
          "time": 152.72737200000006,
          "velocity": 0.7874015748031497,
          "duration": 1.2121219999999937
        },
        {
          "name": "D#2",
          "midi": 39,
          "time": 153.93949400000005,
          "velocity": 0.7874015748031497,
          "duration": 0.6060610000000111
        },
        {
          "name": "C#2",
          "midi": 37,
          "time": 154.54555500000006,
          "velocity": 0.7874015748031497,
          "duration": 0.6060610000000111
        },
        {
          "name": "C2",
          "midi": 36,
          "time": 155.15161600000008,
          "velocity": 0.7874015748031497,
          "duration": 2.1212135000000103
        },
        {
          "name": "D2",
          "midi": 38,
          "time": 157.27282950000009,
          "velocity": 0.7874015748031497,
          "duration": 0.30303050000000553
        },
        {
          "name": "C2",
          "midi": 36,
          "time": 157.5758600000001,
          "velocity": 0.7874015748031497,
          "duration": 0.6060610000000111
        },
        {
          "name": "C#2",
          "midi": 37,
          "time": 158.4849515000001,
          "velocity": 0.7874015748031497,
          "duration": 0.30303050000000553
        },
        {
          "name": "D#2",
          "midi": 39,
          "time": 158.7879820000001,
          "velocity": 0.7874015748031497,
          "duration": 0.30303050000000553
        },
        {
          "name": "D#2",
          "midi": 39,
          "time": 159.39404300000012,
          "velocity": 0.7874015748031497,
          "duration": 0.15151524999998855
        },
        {
          "name": "C#2",
          "midi": 37,
          "time": 159.5455582500001,
          "velocity": 0.7874015748031497,
          "duration": 0.15151524999998855
        },
        {
          "name": "C2",
          "midi": 36,
          "time": 159.6970735000001,
          "velocity": 0.7874015748031497,
          "duration": 0.15151524999998855
        },
        {
          "name": "D2",
          "midi": 38,
          "time": 159.8485887500001,
          "velocity": 0.7874015748031497,
          "duration": 0.15151524999998855
        },
        {
          "name": "D#2",
          "midi": 39,
          "time": 160.00010400000008,
          "velocity": 0.7874015748031497,
          "duration": 0.30303050000000553
        },
        {
          "name": "C#2",
          "midi": 37,
          "time": 161.21222600000007,
          "velocity": 0.7874015748031497,
          "duration": 0.30303050000000553
        },
        {
          "name": "D#2",
          "midi": 39,
          "time": 162.42434800000007,
          "velocity": 0.7874015748031497,
          "duration": 0.30303050000000553
        },
        {
          "name": "C#2",
          "midi": 37,
          "time": 163.63647000000006,
          "velocity": 0.7874015748031497,
          "duration": 0.30303050000000553
        },
        {
          "name": "D2",
          "midi": 38,
          "time": 164.24253100000007,
          "velocity": 0.7874015748031497,
          "duration": 0.30303050000000553
        },
        {
          "name": "C2",
          "midi": 36,
          "time": 164.84859200000008,
          "velocity": 0.7874015748031497,
          "duration": 0.30303050000000553
        },
        {
          "name": "D2",
          "midi": 38,
          "time": 166.06071400000008,
          "velocity": 0.7874015748031497,
          "duration": 0.30303050000000553
        },
        {
          "name": "C2",
          "midi": 36,
          "time": 167.27283600000007,
          "velocity": 0.7874015748031497,
          "duration": 0.30303050000000553
        },
        {
          "name": "D2",
          "midi": 38,
          "time": 168.18192750000009,
          "velocity": 0.7874015748031497,
          "duration": 0.30303050000000553
        },
        {
          "name": "D#2",
          "midi": 39,
          "time": 168.4849580000001,
          "velocity": 0.7874015748031497,
          "duration": 0.30303050000000553
        },
        {
          "name": "C#2",
          "midi": 37,
          "time": 169.0910190000001,
          "velocity": 0.7874015748031497,
          "duration": 0.15151524999998855
        },
        {
          "name": "D2",
          "midi": 38,
          "time": 169.2425342500001,
          "velocity": 0.7874015748031497,
          "duration": 0.15151524999998855
        },
        {
          "name": "D#2",
          "midi": 39,
          "time": 169.39404950000008,
          "velocity": 0.7874015748031497,
          "duration": 0.15151524999998855
        },
        {
          "name": "C2",
          "midi": 36,
          "time": 169.54556475000007,
          "velocity": 0.7874015748031497,
          "duration": 0.15151524999998855
        },
        {
          "name": "C#2",
          "midi": 37,
          "time": 170.90920200000005,
          "velocity": 0.7874015748031497,
          "duration": 3.6363660000000095
        },
        {
          "name": "D#2",
          "midi": 39,
          "time": 174.54556800000006,
          "velocity": 0.7874015748031497,
          "duration": 0.30303050000000553
        },
        {
          "name": "C2",
          "midi": 36,
          "time": 175.75769000000005,
          "velocity": 0.7874015748031497,
          "duration": 0.30303050000000553
        },
        {
          "name": "D2",
          "midi": 38,
          "time": 176.96981200000005,
          "velocity": 0.7874015748031497,
          "duration": 0.30303050000000553
        },
        {
          "name": "C#2",
          "midi": 37,
          "time": 177.87890350000006,
          "velocity": 0.7874015748031497,
          "duration": 0.30303050000000553
        },
        {
          "name": "D#2",
          "midi": 39,
          "time": 178.18193400000007,
          "velocity": 0.7874015748031497,
          "duration": 0.30303050000000553
        },
        {
          "name": "C2",
          "midi": 36,
          "time": 178.78799500000008,
          "velocity": 0.7874015748031497,
          "duration": 0.15151524999998855
        },
        {
          "name": "D2",
          "midi": 38,
          "time": 178.93951025000007,
          "velocity": 0.7874015748031497,
          "duration": 0.15151524999998855
        },
        {
          "name": "C#2",
          "midi": 37,
          "time": 179.09102550000006,
          "velocity": 0.7874015748031497,
          "duration": 0.15151524999998855
        },
        {
          "name": "D#2",
          "midi": 39,
          "time": 179.24254075000005,
          "velocity": 0.7874015748031497,
          "duration": 0.15151524999998855
        },
        {
          "name": "D2",
          "midi": 38,
          "time": 179.39405600000003,
          "velocity": 0.7874015748031497,
          "duration": 0.30303050000000553
        },
        {
          "name": "D2",
          "midi": 38,
          "time": 179.84860175000003,
          "velocity": 0.7874015748031497,
          "duration": 0.30303050000000553
        },
        {
          "name": "D2",
          "midi": 38,
          "time": 180.30314750000002,
          "velocity": 0.7874015748031497,
          "duration": 0.30303050000000553
        },
        {
          "name": "D2",
          "midi": 38,
          "time": 184.24254400000004,
          "velocity": 0.7874015748031497,
          "duration": 0.30303050000000553
        },
        {
          "name": "D2",
          "midi": 38,
          "time": 184.69708975000003,
          "velocity": 0.7874015748031497,
          "duration": 0.30303050000000553
        },
        {
          "name": "D2",
          "midi": 38,
          "time": 185.15163550000003,
          "velocity": 0.7874015748031497,
          "duration": 0.30303050000000553
        },
        {
          "name": "C2",
          "midi": 36,
          "time": 188.78800150000004,
          "velocity": 0.7874015748031497,
          "duration": 0.30303050000000553
        },
        {
          "name": "D#2",
          "midi": 39,
          "time": 189.09103200000004,
          "velocity": 0.7874015748031497,
          "duration": 0.30303050000000553
        },
        {
          "name": "D#2",
          "midi": 39,
          "time": 189.54557775000004,
          "velocity": 0.7874015748031497,
          "duration": 0.30303050000000553
        },
        {
          "name": "D#2",
          "midi": 39,
          "time": 190.00012350000003,
          "velocity": 0.7874015748031497,
          "duration": 0.30303050000000553
        },
        {
          "name": "C#2",
          "midi": 37,
          "time": 192.72739800000002,
          "velocity": 0.7874015748031497,
          "duration": 0.15151524999998855
        },
        {
          "name": "C#2",
          "midi": 37,
          "time": 192.87891325,
          "velocity": 0.7874015748031497,
          "duration": 0.15151524999998855
        },
        {
          "name": "C#2",
          "midi": 37,
          "time": 193.18194375,
          "velocity": 0.7874015748031497,
          "duration": 0.15151524999998855
        },
        {
          "name": "C#2",
          "midi": 37,
          "time": 193.48497424999996,
          "velocity": 0.7874015748031497,
          "duration": 0.15151524999998855
        },
        {
          "name": "C#2",
          "midi": 37,
          "time": 193.63648949999995,
          "velocity": 0.7874015748031497,
          "duration": 0.15151524999998855
        },
        {
          "name": "D2",
          "midi": 38,
          "time": 193.93951999999993,
          "velocity": 0.7874015748031497,
          "duration": 0.30303050000000553
        },
        {
          "name": "D2",
          "midi": 38,
          "time": 194.39406574999992,
          "velocity": 0.7874015748031497,
          "duration": 0.30303050000000553
        },
        {
          "name": "D2",
          "midi": 38,
          "time": 194.84861149999992,
          "velocity": 0.7874015748031497,
          "duration": 0.30303050000000553
        },
        {
          "name": "C2",
          "midi": 36,
          "time": 198.48497749999993,
          "velocity": 0.7874015748031497,
          "duration": 0.30303050000000553
        },
        {
          "name": "D#2",
          "midi": 39,
          "time": 198.78800799999993,
          "velocity": 0.7874015748031497,
          "duration": 2.4242439999999874
        },
        {
          "name": "C#2",
          "midi": 37,
          "time": 201.21225199999992,
          "velocity": 0.7874015748031497,
          "duration": 1.2121219999999937
        },
        {
          "name": "D2",
          "midi": 38,
          "time": 202.42437399999991,
          "velocity": 0.7874015748031497,
          "duration": 0.6060610000000111
        },
        {
          "name": "C2",
          "midi": 36,
          "time": 203.03043499999993,
          "velocity": 0.7874015748031497,
          "duration": 0.6060610000000111
        },
        {
          "name": "D#2",
          "midi": 39,
          "time": 203.63649599999994,
          "velocity": 0.7874015748031497,
          "duration": 1.8181830000000048
        },
        {
          "name": "C#2",
          "midi": 37,
          "time": 205.45467899999994,
          "velocity": 0.7874015748031497,
          "duration": 0.6060610000000111
        },
        {
          "name": "C2",
          "midi": 36,
          "time": 206.06073999999995,
          "velocity": 0.7874015748031497,
          "duration": 2.4242439999999874
        },
        {
          "name": "D2",
          "midi": 38,
          "time": 208.48498399999994,
          "velocity": 0.7874015748031497,
          "duration": 2.4242439999999874
        },
        {
          "name": "C#2",
          "midi": 37,
          "time": 210.90922799999993,
          "velocity": 0.7874015748031497,
          "duration": 1.2121219999999937
        },
        {
          "name": "D#2",
          "midi": 39,
          "time": 212.12134999999992,
          "velocity": 0.7874015748031497,
          "duration": 0.6060610000000111
        },
        {
          "name": "C#2",
          "midi": 37,
          "time": 212.72741099999993,
          "velocity": 0.7874015748031497,
          "duration": 0.6060610000000111
        },
        {
          "name": "C2",
          "midi": 36,
          "time": 213.33347199999994,
          "velocity": 0.7874015748031497,
          "duration": 4.848488000000003
        },
        {
          "name": "D#2",
          "midi": 39,
          "time": 218.18195999999995,
          "velocity": 0.7874015748031497,
          "duration": 2.4242439999999874
        },
        {
          "name": "C#2",
          "midi": 37,
          "time": 220.60620399999993,
          "velocity": 0.7874015748031497,
          "duration": 1.2121219999999937
        },
        {
          "name": "D2",
          "midi": 38,
          "time": 221.81832599999993,
          "velocity": 0.7874015748031497,
          "duration": 0.6060610000000111
        },
        {
          "name": "C2",
          "midi": 36,
          "time": 222.42438699999994,
          "velocity": 0.7874015748031497,
          "duration": 0.6060610000000111
        },
        {
          "name": "D#2",
          "midi": 39,
          "time": 223.03044799999995,
          "velocity": 0.7874015748031497,
          "duration": 1.8181830000000048
        },
        {
          "name": "C#2",
          "midi": 37,
          "time": 224.84863099999995,
          "velocity": 0.7874015748031497,
          "duration": 0.6060610000000111
        },
        {
          "name": "C2",
          "midi": 36,
          "time": 225.45469199999997,
          "velocity": 0.7874015748031497,
          "duration": 2.4242439999999874
        },
        {
          "name": "D2",
          "midi": 38,
          "time": 227.87893599999995,
          "velocity": 0.7874015748031497,
          "duration": 2.4242439999999874
        },
        {
          "name": "C#2",
          "midi": 37,
          "time": 230.30317999999994,
          "velocity": 0.7874015748031497,
          "duration": 1.2121219999999937
        },
        {
          "name": "D#2",
          "midi": 39,
          "time": 231.51530199999993,
          "velocity": 0.7874015748031497,
          "duration": 0.6060610000000111
        },
        {
          "name": "C#2",
          "midi": 37,
          "time": 232.12136299999995,
          "velocity": 0.7874015748031497,
          "duration": 0.6060610000000111
        },
        {
          "name": "C2",
          "midi": 36,
          "time": 232.72742399999996,
          "velocity": 0.7874015748031497,
          "duration": 2.1212135000000103
        },
        {
          "name": "D2",
          "midi": 38,
          "time": 234.84863749999997,
          "velocity": 0.7874015748031497,
          "duration": 0.30303050000000553
        },
        {
          "name": "C2",
          "midi": 36,
          "time": 235.15166799999997,
          "velocity": 0.7874015748031497,
          "duration": 0.6060610000000111
        },
        {
          "name": "C#2",
          "midi": 37,
          "time": 236.0607595,
          "velocity": 0.7874015748031497,
          "duration": 0.30303050000000553
        },
        {
          "name": "D#2",
          "midi": 39,
          "time": 236.36379,
          "velocity": 0.7874015748031497,
          "duration": 0.30303050000000553
        },
        {
          "name": "D#2",
          "midi": 39,
          "time": 236.969851,
          "velocity": 0.7874015748031497,
          "duration": 0.15151524999998855
        },
        {
          "name": "C#2",
          "midi": 37,
          "time": 237.12136625,
          "velocity": 0.7874015748031497,
          "duration": 0.15151524999998855
        },
        {
          "name": "C2",
          "midi": 36,
          "time": 237.27288149999998,
          "velocity": 0.7874015748031497,
          "duration": 0.15151524999998855
        },
        {
          "name": "D2",
          "midi": 38,
          "time": 237.42439674999997,
          "velocity": 0.7874015748031497,
          "duration": 0.15151524999998855
        },
        {
          "name": "D#2",
          "midi": 39,
          "time": 237.57591199999996,
          "velocity": 0.7874015748031497,
          "duration": 0.30303050000000553
        },
        {
          "name": "C#2",
          "midi": 37,
          "time": 237.87894249999997,
          "velocity": 0.7874015748031497,
          "duration": 0.30303050000000553
        },
        {
          "name": "D2",
          "midi": 38,
          "time": 238.18197299999997,
          "velocity": 0.7874015748031497,
          "duration": 0.30303050000000553
        },
        {
          "name": "C2",
          "midi": 36,
          "time": 238.48500349999998,
          "velocity": 0.7874015748031497,
          "duration": 0.30303050000000553
        },
        {
          "name": "D#2",
          "midi": 39,
          "time": 238.78803399999998,
          "velocity": 0.7874015748031497,
          "duration": 0.30303050000000553
        },
        {
          "name": "C#2",
          "midi": 37,
          "time": 239.0910645,
          "velocity": 0.7874015748031497,
          "duration": 0.30303050000000553
        },
        {
          "name": "D2",
          "midi": 38,
          "time": 239.394095,
          "velocity": 0.7874015748031497,
          "duration": 0.30303050000000553
        },
        {
          "name": "C2",
          "midi": 36,
          "time": 239.6971255,
          "velocity": 0.7874015748031497,
          "duration": 0.30303050000000553
        },
        {
          "name": "D#2",
          "midi": 39,
          "time": 240.000156,
          "velocity": 0.7874015748031497,
          "duration": 0.30303050000000553
        },
        {
          "name": "C#2",
          "midi": 37,
          "time": 240.3031865,
          "velocity": 0.7874015748031497,
          "duration": 0.30303050000000553
        },
        {
          "name": "D2",
          "midi": 38,
          "time": 240.60621700000002,
          "velocity": 0.7874015748031497,
          "duration": 0.30303050000000553
        },
        {
          "name": "C2",
          "midi": 36,
          "time": 240.90924750000002,
          "velocity": 0.7874015748031497,
          "duration": 0.30303050000000553
        },
        {
          "name": "D#2",
          "midi": 39,
          "time": 241.21227800000003,
          "velocity": 0.7874015748031497,
          "duration": 0.30303050000000553
        },
        {
          "name": "C#2",
          "midi": 37,
          "time": 241.51530850000003,
          "velocity": 0.7874015748031497,
          "duration": 0.30303050000000553
        },
        {
          "name": "D2",
          "midi": 38,
          "time": 241.81833900000004,
          "velocity": 0.7874015748031497,
          "duration": 0.30303050000000553
        },
        {
          "name": "C2",
          "midi": 36,
          "time": 242.12136950000004,
          "velocity": 0.7874015748031497,
          "duration": 0.30303050000000553
        },
        {
          "name": "D#2",
          "midi": 39,
          "time": 242.42440000000005,
          "velocity": 0.7874015748031497,
          "duration": 0.30303050000000553
        },
        {
          "name": "C#2",
          "midi": 37,
          "time": 242.72743050000005,
          "velocity": 0.7874015748031497,
          "duration": 0.30303050000000553
        },
        {
          "name": "D2",
          "midi": 38,
          "time": 243.03046100000006,
          "velocity": 0.7874015748031497,
          "duration": 0.30303050000000553
        },
        {
          "name": "C2",
          "midi": 36,
          "time": 243.33349150000006,
          "velocity": 0.7874015748031497,
          "duration": 0.30303050000000553
        },
        {
          "name": "D#2",
          "midi": 39,
          "time": 243.63652200000007,
          "velocity": 0.7874015748031497,
          "duration": 0.30303050000000553
        },
        {
          "name": "C#2",
          "midi": 37,
          "time": 243.93955250000008,
          "velocity": 0.7874015748031497,
          "duration": 0.30303050000000553
        },
        {
          "name": "D2",
          "midi": 38,
          "time": 244.24258300000008,
          "velocity": 0.7874015748031497,
          "duration": 0.30303050000000553
        },
        {
          "name": "C2",
          "midi": 36,
          "time": 244.5456135000001,
          "velocity": 0.7874015748031497,
          "duration": 0.30303050000000553
        },
        {
          "name": "D#2",
          "midi": 39,
          "time": 244.8486440000001,
          "velocity": 0.7874015748031497,
          "duration": 0.30303050000000553
        },
        {
          "name": "C#2",
          "midi": 37,
          "time": 245.1516745000001,
          "velocity": 0.7874015748031497,
          "duration": 0.30303050000000553
        },
        {
          "name": "D2",
          "midi": 38,
          "time": 245.4547050000001,
          "velocity": 0.7874015748031497,
          "duration": 0.30303050000000553
        },
        {
          "name": "C2",
          "midi": 36,
          "time": 245.7577355000001,
          "velocity": 0.7874015748031497,
          "duration": 0.30303050000000553
        },
        {
          "name": "D#2",
          "midi": 39,
          "time": 246.06076600000011,
          "velocity": 0.7874015748031497,
          "duration": 0.30303050000000553
        },
        {
          "name": "C#2",
          "midi": 37,
          "time": 246.36379650000012,
          "velocity": 0.7874015748031497,
          "duration": 0.30303050000000553
        },
        {
          "name": "D2",
          "midi": 38,
          "time": 246.66682700000013,
          "velocity": 0.7874015748031497,
          "duration": 0.30303050000000553
        },
        {
          "name": "C2",
          "midi": 36,
          "time": 246.96985750000013,
          "velocity": 0.7874015748031497,
          "duration": 0.30303050000000553
        },
        {
          "name": "D#2",
          "midi": 39,
          "time": 247.27288800000014,
          "velocity": 0.7874015748031497,
          "duration": 4.848488000000003
        }
      ],
      "controlChanges": {
        "7": [
          {
            "number": 7,
            "time": 0,
            "value": 1
          }
        ],
        "32": [
          {
            "number": 32,
            "time": 0,
            "value": 0
          }
        ],
        "127": [
          {
            "number": 127,
            "time": 261.8183125429038,
            "value": 0
          }
        ]
      },
      "id": 1,
      "name": "Midi Coding",
      "instrumentNumber": 0,
      "instrument": "acoustic grand piano",
      "instrumentFamily": "piano",
      "channelNumber": 0,
      "isPercussion": false
    }
  ]
}