{
  "header": {
    "PPQ": 96,
    "bpm": 148.000148000148,
    "timeSignature": [
      4,
      4
    ],
    "name": "Boss (Innit)",
    "artist": "magician.io",
    "difficulty": "0"
  },
  "tempo": [
    {
      "absoluteTime": 0,
      "seconds": 0,
      "bpm": 148.000148000148
    }
  ],
  "timeSignature": [
    {
      "absoluteTime": 0,
      "seconds": 0,
      "numerator": 4,
      "denominator": 2,
      "click": 24,
      "notesQ": 8
    }
  ],
  "startTime": 0,
  "duration": 186.38494874999924,
  "tracks": [
    {
      "startTime": 0,
      "duration": 0,
      "length": 0,
      "notes": [],
      "controlChanges": {},
      "id": 0,
      "name": "Midi Coding"
    },
    {
      "startTime": 3.24324,
      "duration": 186.38494874999924,
      "length": 271,
      "notes": [
        {
          "name": "D#2",
          "midi": 39,
          "time": 3.24324,
          "velocity": 0.7874015748031497,
          "duration": 0.2027025
        },
        {
          "name": "C#2",
          "midi": 37,
          "time": 3.74999625,
          "velocity": 0.7874015748031497,
          "duration": 0.2027025
        },
        {
          "name": "D#2",
          "midi": 39,
          "time": 4.05405,
          "velocity": 0.7874015748031497,
          "duration": 0.2027025
        },
        {
          "name": "D#2",
          "midi": 39,
          "time": 4.86486,
          "velocity": 0.7874015748031497,
          "duration": 0.2027025
        },
        {
          "name": "C#2",
          "midi": 37,
          "time": 5.371616250000001,
          "velocity": 0.7874015748031497,
          "duration": 0.2027025
        },
        {
          "name": "D#2",
          "midi": 39,
          "time": 5.67567,
          "velocity": 0.7874015748031497,
          "duration": 0.2027025
        },
        {
          "name": "C2",
          "midi": 36,
          "time": 6.48648,
          "velocity": 0.7874015748031497,
          "duration": 0.2027025
        },
        {
          "name": "D2",
          "midi": 38,
          "time": 6.993236250000001,
          "velocity": 0.7874015748031497,
          "duration": 0.2027025
        },
        {
          "name": "C2",
          "midi": 36,
          "time": 7.29729,
          "velocity": 0.7874015748031497,
          "duration": 0.2027025
        },
        {
          "name": "C2",
          "midi": 36,
          "time": 8.1081,
          "velocity": 0.7874015748031497,
          "duration": 0.2027025000000009
        },
        {
          "name": "D2",
          "midi": 38,
          "time": 8.61485625,
          "velocity": 0.7874015748031497,
          "duration": 0.20270249999999912
        },
        {
          "name": "C2",
          "midi": 36,
          "time": 8.91891,
          "velocity": 0.7874015748031497,
          "duration": 0.2027025000000009
        },
        {
          "name": "D#2",
          "midi": 39,
          "time": 9.72972,
          "velocity": 0.7874015748031497,
          "duration": 0.2027025000000009
        },
        {
          "name": "C#2",
          "midi": 37,
          "time": 10.23647625,
          "velocity": 0.7874015748031497,
          "duration": 0.20270249999999912
        },
        {
          "name": "D#2",
          "midi": 39,
          "time": 10.54053,
          "velocity": 0.7874015748031497,
          "duration": 0.2027025000000009
        },
        {
          "name": "D#2",
          "midi": 39,
          "time": 11.35134,
          "velocity": 0.7874015748031497,
          "duration": 0.2027025000000009
        },
        {
          "name": "C#2",
          "midi": 37,
          "time": 11.858096250000001,
          "velocity": 0.7874015748031497,
          "duration": 0.20270249999999912
        },
        {
          "name": "D#2",
          "midi": 39,
          "time": 12.16215,
          "velocity": 0.7874015748031497,
          "duration": 0.2027025000000009
        },
        {
          "name": "F2",
          "midi": 41,
          "time": 12.97296,
          "velocity": 0.7874015748031497,
          "duration": 0.2027025000000009
        },
        {
          "name": "G2",
          "midi": 43,
          "time": 13.479716250000001,
          "velocity": 0.7874015748031497,
          "duration": 0.20270249999999912
        },
        {
          "name": "F2",
          "midi": 41,
          "time": 13.78377,
          "velocity": 0.7874015748031497,
          "duration": 0.2027025000000009
        },
        {
          "name": "F2",
          "midi": 41,
          "time": 14.59458,
          "velocity": 0.7874015748031497,
          "duration": 0.2027025000000009
        },
        {
          "name": "G2",
          "midi": 43,
          "time": 15.101336250000001,
          "velocity": 0.7874015748031497,
          "duration": 0.20270249999999912
        },
        {
          "name": "F2",
          "midi": 41,
          "time": 15.40539,
          "velocity": 0.7874015748031497,
          "duration": 0.2027025000000009
        },
        {
          "name": "C#2",
          "midi": 37,
          "time": 16.2162,
          "velocity": 0.7874015748031497,
          "duration": 6.48648
        },
        {
          "name": "C2",
          "midi": 36,
          "time": 22.70268,
          "velocity": 0.7874015748031497,
          "duration": 3.24324
        },
        {
          "name": "D#2",
          "midi": 39,
          "time": 25.94592,
          "velocity": 0.7874015748031497,
          "duration": 3.24324
        },
        {
          "name": "D#2",
          "midi": 39,
          "time": 29.18916,
          "velocity": 0.7874015748031497,
          "duration": 0.2027025000000009
        },
        {
          "name": "C#2",
          "midi": 37,
          "time": 29.695916250000003,
          "velocity": 0.7874015748031497,
          "duration": 0.2027025000000009
        },
        {
          "name": "D#2",
          "midi": 39,
          "time": 29.999970000000005,
          "velocity": 0.7874015748031497,
          "duration": 0.2027025000000009
        },
        {
          "name": "D2",
          "midi": 38,
          "time": 30.405375000000006,
          "velocity": 0.7874015748031497,
          "duration": 0.2027025000000009
        },
        {
          "name": "D#2",
          "midi": 39,
          "time": 30.81078000000001,
          "velocity": 0.7874015748031497,
          "duration": 0.2027025000000009
        },
        {
          "name": "C#2",
          "midi": 37,
          "time": 31.31753625000001,
          "velocity": 0.7874015748031497,
          "duration": 0.2027025000000009
        },
        {
          "name": "D#2",
          "midi": 39,
          "time": 31.621590000000012,
          "velocity": 0.7874015748031497,
          "duration": 0.2027025000000009
        },
        {
          "name": "D2",
          "midi": 38,
          "time": 32.026995000000014,
          "velocity": 0.7874015748031497,
          "duration": 0.2027025000000009
        },
        {
          "name": "C2",
          "midi": 36,
          "time": 32.432400000000015,
          "velocity": 0.7874015748031497,
          "duration": 0.2027025000000009
        },
        {
          "name": "D2",
          "midi": 38,
          "time": 32.93915625000002,
          "velocity": 0.7874015748031497,
          "duration": 0.2027025000000009
        },
        {
          "name": "C2",
          "midi": 36,
          "time": 33.24321000000002,
          "velocity": 0.7874015748031497,
          "duration": 0.2027025000000009
        },
        {
          "name": "D#2",
          "midi": 39,
          "time": 33.64861500000002,
          "velocity": 0.7874015748031497,
          "duration": 0.2027025000000009
        },
        {
          "name": "C2",
          "midi": 36,
          "time": 34.05402000000002,
          "velocity": 0.7874015748031497,
          "duration": 0.2027025000000009
        },
        {
          "name": "D2",
          "midi": 38,
          "time": 34.560776250000025,
          "velocity": 0.7874015748031497,
          "duration": 0.2027025000000009
        },
        {
          "name": "C2",
          "midi": 36,
          "time": 34.864830000000026,
          "velocity": 0.7874015748031497,
          "duration": 0.2027025000000009
        },
        {
          "name": "D#2",
          "midi": 39,
          "time": 35.27023500000003,
          "velocity": 0.7874015748031497,
          "duration": 0.2027025000000009
        },
        {
          "name": "C2",
          "midi": 36,
          "time": 35.67564000000003,
          "velocity": 0.7874015748031497,
          "duration": 3.24324
        },
        {
          "name": "D2",
          "midi": 38,
          "time": 38.91888000000003,
          "velocity": 0.7874015748031497,
          "duration": 3.24324
        },
        {
          "name": "C2",
          "midi": 36,
          "time": 42.36482250000003,
          "velocity": 0.7874015748031497,
          "duration": 0.2027025000000009
        },
        {
          "name": "D2",
          "midi": 38,
          "time": 42.77022750000003,
          "velocity": 0.7874015748031497,
          "duration": 0.2027025000000009
        },
        {
          "name": "C#2",
          "midi": 37,
          "time": 43.175632500000034,
          "velocity": 0.7874015748031497,
          "duration": 0.2027025000000009
        },
        {
          "name": "D#2",
          "midi": 39,
          "time": 43.581037500000036,
          "velocity": 0.7874015748031497,
          "duration": 0.2027025000000009
        },
        {
          "name": "C2",
          "midi": 36,
          "time": 43.98644250000004,
          "velocity": 0.7874015748031497,
          "duration": 0.2027025000000009
        },
        {
          "name": "D2",
          "midi": 38,
          "time": 44.39184750000004,
          "velocity": 0.7874015748031497,
          "duration": 0.2027025000000009
        },
        {
          "name": "C#2",
          "midi": 37,
          "time": 44.79725250000004,
          "velocity": 0.7874015748031497,
          "duration": 0.2027025000000009
        },
        {
          "name": "D#2",
          "midi": 39,
          "time": 44.99995500000004,
          "velocity": 0.7874015748031497,
          "duration": 0.2027025000000009
        },
        {
          "name": "C#2",
          "midi": 37,
          "time": 45.20265750000004,
          "velocity": 0.7874015748031497,
          "duration": 0.2027025000000009
        },
        {
          "name": "C2",
          "midi": 36,
          "time": 45.608062500000045,
          "velocity": 0.7874015748031497,
          "duration": 0.2027025000000009
        },
        {
          "name": "D2",
          "midi": 38,
          "time": 46.01346750000005,
          "velocity": 0.7874015748031497,
          "duration": 0.2027025000000009
        },
        {
          "name": "C#2",
          "midi": 37,
          "time": 46.41887250000005,
          "velocity": 0.7874015748031497,
          "duration": 0.2027025000000009
        },
        {
          "name": "D#2",
          "midi": 39,
          "time": 46.82427750000005,
          "velocity": 0.7874015748031497,
          "duration": 0.2027025000000009
        },
        {
          "name": "C2",
          "midi": 36,
          "time": 47.22968250000005,
          "velocity": 0.7874015748031497,
          "duration": 0.2027025000000009
        },
        {
          "name": "D2",
          "midi": 38,
          "time": 47.635087500000054,
          "velocity": 0.7874015748031497,
          "duration": 0.2027025000000009
        },
        {
          "name": "C#2",
          "midi": 37,
          "time": 48.040492500000056,
          "velocity": 0.7874015748031497,
          "duration": 0.2027025000000009
        },
        {
          "name": "D#2",
          "midi": 39,
          "time": 48.24319500000006,
          "velocity": 0.7874015748031497,
          "duration": 0.2027025000000009
        },
        {
          "name": "C#2",
          "midi": 37,
          "time": 48.44589750000006,
          "velocity": 0.7874015748031497,
          "duration": 0.2027025000000009
        },
        {
          "name": "C2",
          "midi": 36,
          "time": 48.85130250000006,
          "velocity": 0.7874015748031497,
          "duration": 0.2027025000000009
        },
        {
          "name": "D2",
          "midi": 38,
          "time": 49.25670750000006,
          "velocity": 0.7874015748031497,
          "duration": 0.2027025000000009
        },
        {
          "name": "C#2",
          "midi": 37,
          "time": 49.66211250000006,
          "velocity": 0.7874015748031497,
          "duration": 0.2027025000000009
        },
        {
          "name": "D#2",
          "midi": 39,
          "time": 50.067517500000065,
          "velocity": 0.7874015748031497,
          "duration": 0.2027025000000009
        },
        {
          "name": "C2",
          "midi": 36,
          "time": 50.47292250000007,
          "velocity": 0.7874015748031497,
          "duration": 0.2027025000000009
        },
        {
          "name": "D2",
          "midi": 38,
          "time": 50.87832750000007,
          "velocity": 0.7874015748031497,
          "duration": 0.2027025000000009
        },
        {
          "name": "C#2",
          "midi": 37,
          "time": 51.28373250000007,
          "velocity": 0.7874015748031497,
          "duration": 0.2027025000000009
        },
        {
          "name": "D#2",
          "midi": 39,
          "time": 51.48643500000007,
          "velocity": 0.7874015748031497,
          "duration": 0.2027025000000009
        },
        {
          "name": "C#2",
          "midi": 37,
          "time": 51.68913750000007,
          "velocity": 0.7874015748031497,
          "duration": 0.2027025000000009
        },
        {
          "name": "C2",
          "midi": 36,
          "time": 52.094542500000074,
          "velocity": 0.7874015748031497,
          "duration": 0.2027025000000009
        },
        {
          "name": "D2",
          "midi": 38,
          "time": 52.499947500000076,
          "velocity": 0.7874015748031497,
          "duration": 0.2027025000000009
        },
        {
          "name": "C#2",
          "midi": 37,
          "time": 52.90535250000008,
          "velocity": 0.7874015748031497,
          "duration": 0.2027025000000009
        },
        {
          "name": "D#2",
          "midi": 39,
          "time": 53.31075750000008,
          "velocity": 0.7874015748031497,
          "duration": 0.2027025000000009
        },
        {
          "name": "C2",
          "midi": 36,
          "time": 53.71616250000008,
          "velocity": 0.7874015748031497,
          "duration": 0.2027025000000009
        },
        {
          "name": "D2",
          "midi": 38,
          "time": 54.12156750000008,
          "velocity": 0.7874015748031497,
          "duration": 0.2027025000000009
        },
        {
          "name": "C#2",
          "midi": 37,
          "time": 54.526972500000085,
          "velocity": 0.7874015748031497,
          "duration": 0.2027025000000009
        },
        {
          "name": "D#2",
          "midi": 39,
          "time": 54.729675000000086,
          "velocity": 0.7874015748031497,
          "duration": 0.2027025000000009
        },
        {
          "name": "C#2",
          "midi": 37,
          "time": 54.93237750000009,
          "velocity": 0.7874015748031497,
          "duration": 0.2027025000000009
        },
        {
          "name": "D#2",
          "midi": 39,
          "time": 55.33778250000009,
          "velocity": 0.7874015748031497,
          "duration": 0.2027025000000009
        },
        {
          "name": "C#2",
          "midi": 37,
          "time": 55.74318750000009,
          "velocity": 0.7874015748031497,
          "duration": 0.2027025000000009
        },
        {
          "name": "D2",
          "midi": 38,
          "time": 56.14859250000009,
          "velocity": 0.7874015748031497,
          "duration": 0.2027025000000009
        },
        {
          "name": "C2",
          "midi": 36,
          "time": 56.553997500000094,
          "velocity": 0.7874015748031497,
          "duration": 0.2027025000000009
        },
        {
          "name": "D#2",
          "midi": 39,
          "time": 56.959402500000095,
          "velocity": 0.7874015748031497,
          "duration": 0.2027025000000009
        },
        {
          "name": "C#2",
          "midi": 37,
          "time": 57.3648075000001,
          "velocity": 0.7874015748031497,
          "duration": 0.2027025000000009
        },
        {
          "name": "D2",
          "midi": 38,
          "time": 57.7702125000001,
          "velocity": 0.7874015748031497,
          "duration": 0.2027025000000009
        },
        {
          "name": "C2",
          "midi": 36,
          "time": 57.9729150000001,
          "velocity": 0.7874015748031497,
          "duration": 0.2027025000000009
        },
        {
          "name": "D2",
          "midi": 38,
          "time": 58.1756175000001,
          "velocity": 0.7874015748031497,
          "duration": 0.2027025000000009
        },
        {
          "name": "D#2",
          "midi": 39,
          "time": 58.5810225000001,
          "velocity": 0.7874015748031497,
          "duration": 0.2027025000000009
        },
        {
          "name": "C#2",
          "midi": 37,
          "time": 58.986427500000104,
          "velocity": 0.7874015748031497,
          "duration": 0.2027025000000009
        },
        {
          "name": "D2",
          "midi": 38,
          "time": 59.391832500000106,
          "velocity": 0.7874015748031497,
          "duration": 0.2027025000000009
        },
        {
          "name": "C2",
          "midi": 36,
          "time": 59.79723750000011,
          "velocity": 0.7874015748031497,
          "duration": 0.2027025000000009
        },
        {
          "name": "D#2",
          "midi": 39,
          "time": 60.20264250000011,
          "velocity": 0.7874015748031497,
          "duration": 0.2027025000000009
        },
        {
          "name": "C#2",
          "midi": 37,
          "time": 60.60804750000011,
          "velocity": 0.7874015748031497,
          "duration": 0.2027025000000009
        },
        {
          "name": "D2",
          "midi": 38,
          "time": 61.01345250000011,
          "velocity": 0.7874015748031497,
          "duration": 0.2027025000000009
        },
        {
          "name": "C2",
          "midi": 36,
          "time": 61.216155000000114,
          "velocity": 0.7874015748031497,
          "duration": 0.2027025000000009
        },
        {
          "name": "D2",
          "midi": 38,
          "time": 61.418857500000115,
          "velocity": 0.7874015748031497,
          "duration": 0.2027025000000009
        },
        {
          "name": "G#2",
          "midi": 44,
          "time": 61.82426250000012,
          "velocity": 0.7874015748031497,
          "duration": 0.2027025000000009
        },
        {
          "name": "F2",
          "midi": 41,
          "time": 62.02696500000012,
          "velocity": 0.7874015748031497,
          "duration": 0.2027025000000009
        },
        {
          "name": "G2",
          "midi": 43,
          "time": 62.43237000000012,
          "velocity": 0.7874015748031497,
          "duration": 0.2027025000000009
        },
        {
          "name": "F#2",
          "midi": 42,
          "time": 62.83777500000012,
          "velocity": 0.7874015748031497,
          "duration": 0.2027025000000009
        },
        {
          "name": "G#2",
          "midi": 44,
          "time": 63.445882500000124,
          "velocity": 0.7874015748031497,
          "duration": 0.2027025000000009
        },
        {
          "name": "F2",
          "midi": 41,
          "time": 63.648585000000125,
          "velocity": 0.7874015748031497,
          "duration": 0.2027025000000009
        },
        {
          "name": "G2",
          "midi": 43,
          "time": 64.05399000000013,
          "velocity": 0.7874015748031497,
          "duration": 0.2027025000000009
        },
        {
          "name": "F#2",
          "midi": 42,
          "time": 64.45939500000013,
          "velocity": 0.7874015748031497,
          "duration": 0.2027025000000009
        },
        {
          "name": "G#2",
          "midi": 44,
          "time": 65.06750250000013,
          "velocity": 0.7874015748031497,
          "duration": 0.2027025000000009
        },
        {
          "name": "F2",
          "midi": 41,
          "time": 65.27020500000013,
          "velocity": 0.7874015748031497,
          "duration": 0.2027025000000009
        },
        {
          "name": "G2",
          "midi": 43,
          "time": 65.67561000000013,
          "velocity": 0.7874015748031497,
          "duration": 0.2027025000000009
        },
        {
          "name": "F#2",
          "midi": 42,
          "time": 66.08101500000014,
          "velocity": 0.7874015748031497,
          "duration": 0.2027025000000009
        },
        {
          "name": "G#2",
          "midi": 44,
          "time": 66.68912250000014,
          "velocity": 0.7874015748031497,
          "duration": 0.2027025000000009
        },
        {
          "name": "F2",
          "midi": 41,
          "time": 66.89182500000014,
          "velocity": 0.7874015748031497,
          "duration": 0.2027025000000009
        },
        {
          "name": "G2",
          "midi": 43,
          "time": 67.29723000000014,
          "velocity": 0.7874015748031497,
          "duration": 0.2027025000000009
        },
        {
          "name": "F#2",
          "midi": 42,
          "time": 67.70263500000014,
          "velocity": 0.7874015748031497,
          "duration": 0.2027025000000009
        },
        {
          "name": "C2",
          "midi": 36,
          "time": 68.10804000000014,
          "velocity": 0.7874015748031497,
          "duration": 6.48648
        },
        {
          "name": "D2",
          "midi": 38,
          "time": 74.59452000000014,
          "velocity": 0.7874015748031497,
          "duration": 3.24324
        },
        {
          "name": "C#2",
          "midi": 37,
          "time": 77.83776000000015,
          "velocity": 0.7874015748031497,
          "duration": 1.6216200000000072
        },
        {
          "name": "G#2",
          "midi": 44,
          "time": 79.45938000000015,
          "velocity": 0.7874015748031497,
          "duration": 0.2027025000000009
        },
        {
          "name": "F#2",
          "midi": 42,
          "time": 79.66208250000015,
          "velocity": 0.7874015748031497,
          "duration": 0.2027025000000009
        },
        {
          "name": "G#2",
          "midi": 44,
          "time": 79.86478500000015,
          "velocity": 0.7874015748031497,
          "duration": 0.2027025000000009
        },
        {
          "name": "F#2",
          "midi": 42,
          "time": 80.06748750000015,
          "velocity": 0.7874015748031497,
          "duration": 0.2027025000000009
        },
        {
          "name": "G#2",
          "midi": 44,
          "time": 80.27019000000016,
          "velocity": 0.7874015748031497,
          "duration": 0.2027025000000009
        },
        {
          "name": "F#2",
          "midi": 42,
          "time": 80.47289250000016,
          "velocity": 0.7874015748031497,
          "duration": 0.2027025000000009
        },
        {
          "name": "G#2",
          "midi": 44,
          "time": 80.67559500000016,
          "velocity": 0.7874015748031497,
          "duration": 0.2027025000000009
        },
        {
          "name": "F#2",
          "midi": 42,
          "time": 80.87829750000016,
          "velocity": 0.7874015748031497,
          "duration": 0.2027025000000009
        },
        {
          "name": "D#2",
          "midi": 39,
          "time": 81.08100000000016,
          "velocity": 0.7874015748031497,
          "duration": 0.2027025000000009
        },
        {
          "name": "C#2",
          "midi": 37,
          "time": 81.58775625000015,
          "velocity": 0.7874015748031497,
          "duration": 0.2027025000000009
        },
        {
          "name": "D#2",
          "midi": 39,
          "time": 81.89181000000015,
          "velocity": 0.7874015748031497,
          "duration": 0.2027025000000009
        },
        {
          "name": "D2",
          "midi": 38,
          "time": 82.29721500000015,
          "velocity": 0.7874015748031497,
          "duration": 0.2027025000000009
        },
        {
          "name": "D#2",
          "midi": 39,
          "time": 82.70262000000015,
          "velocity": 0.7874015748031497,
          "duration": 0.2027025000000009
        },
        {
          "name": "C#2",
          "midi": 37,
          "time": 83.20937625000015,
          "velocity": 0.7874015748031497,
          "duration": 0.2027025000000009
        },
        {
          "name": "D#2",
          "midi": 39,
          "time": 83.51343000000014,
          "velocity": 0.7874015748031497,
          "duration": 0.2027025000000009
        },
        {
          "name": "D2",
          "midi": 38,
          "time": 83.91883500000014,
          "velocity": 0.7874015748031497,
          "duration": 0.2027025000000009
        },
        {
          "name": "C2",
          "midi": 36,
          "time": 84.32424000000015,
          "velocity": 0.7874015748031497,
          "duration": 0.2027025000000009
        },
        {
          "name": "D2",
          "midi": 38,
          "time": 84.83099625000014,
          "velocity": 0.7874015748031497,
          "duration": 0.2027025000000009
        },
        {
          "name": "C2",
          "midi": 36,
          "time": 85.13505000000013,
          "velocity": 0.7874015748031497,
          "duration": 0.2027025000000009
        },
        {
          "name": "D#2",
          "midi": 39,
          "time": 85.54045500000014,
          "velocity": 0.7874015748031497,
          "duration": 0.2027025000000009
        },
        {
          "name": "C2",
          "midi": 36,
          "time": 85.94586000000014,
          "velocity": 0.7874015748031497,
          "duration": 0.2027025000000009
        },
        {
          "name": "D2",
          "midi": 38,
          "time": 86.45261625000013,
          "velocity": 0.7874015748031497,
          "duration": 0.2027025000000009
        },
        {
          "name": "C2",
          "midi": 36,
          "time": 86.75667000000013,
          "velocity": 0.7874015748031497,
          "duration": 0.2027025000000009
        },
        {
          "name": "D#2",
          "midi": 39,
          "time": 87.16207500000013,
          "velocity": 0.7874015748031497,
          "duration": 0.2027025000000009
        },
        {
          "name": "C#2",
          "midi": 37,
          "time": 87.56748000000013,
          "velocity": 0.7874015748031497,
          "duration": 3.24324
        },
        {
          "name": "D#2",
          "midi": 39,
          "time": 90.81072000000013,
          "velocity": 0.7874015748031497,
          "duration": 0.2027025000000009
        },
        {
          "name": "C#2",
          "midi": 37,
          "time": 91.01342250000013,
          "velocity": 0.7874015748031497,
          "duration": 0.2027025000000009
        },
        {
          "name": "D#2",
          "midi": 39,
          "time": 91.21612500000013,
          "velocity": 0.7874015748031497,
          "duration": 0.2027025000000009
        },
        {
          "name": "C#2",
          "midi": 37,
          "time": 91.41882750000013,
          "velocity": 0.7874015748031497,
          "duration": 0.2027025000000009
        },
        {
          "name": "D#2",
          "midi": 39,
          "time": 91.62153000000013,
          "velocity": 0.7874015748031497,
          "duration": 0.2027025000000009
        },
        {
          "name": "C#2",
          "midi": 37,
          "time": 91.82423250000014,
          "velocity": 0.7874015748031497,
          "duration": 0.2027025000000009
        },
        {
          "name": "D#2",
          "midi": 39,
          "time": 92.02693500000014,
          "velocity": 0.7874015748031497,
          "duration": 0.2027025000000009
        },
        {
          "name": "C#2",
          "midi": 37,
          "time": 92.22963750000014,
          "velocity": 0.7874015748031497,
          "duration": 0.2027025000000009
        },
        {
          "name": "G2",
          "midi": 43,
          "time": 92.43234000000014,
          "velocity": 0.7874015748031497,
          "duration": 0.10135124999999334
        },
        {
          "name": "F2",
          "midi": 41,
          "time": 92.53369125000013,
          "velocity": 0.7874015748031497,
          "duration": 0.10135124999999334
        },
        {
          "name": "G2",
          "midi": 43,
          "time": 92.63504250000013,
          "velocity": 0.7874015748031497,
          "duration": 0.10135124999999334
        },
        {
          "name": "F2",
          "midi": 41,
          "time": 92.73639375000012,
          "velocity": 0.7874015748031497,
          "duration": 0.10135124999999334
        },
        {
          "name": "G2",
          "midi": 43,
          "time": 92.83774500000011,
          "velocity": 0.7874015748031497,
          "duration": 0.10135124999999334
        },
        {
          "name": "F2",
          "midi": 41,
          "time": 92.9390962500001,
          "velocity": 0.7874015748031497,
          "duration": 0.10135124999999334
        },
        {
          "name": "G2",
          "midi": 43,
          "time": 93.0404475000001,
          "velocity": 0.7874015748031497,
          "duration": 0.10135124999999334
        },
        {
          "name": "F2",
          "midi": 41,
          "time": 93.14179875000009,
          "velocity": 0.7874015748031497,
          "duration": 0.10135124999999334
        },
        {
          "name": "G2",
          "midi": 43,
          "time": 93.24315000000009,
          "velocity": 0.7874015748031497,
          "duration": 0.10135124999999334
        },
        {
          "name": "F2",
          "midi": 41,
          "time": 93.34450125000008,
          "velocity": 0.7874015748031497,
          "duration": 0.10135124999999334
        },
        {
          "name": "G2",
          "midi": 43,
          "time": 93.44585250000007,
          "velocity": 0.7874015748031497,
          "duration": 0.10135124999999334
        },
        {
          "name": "F2",
          "midi": 41,
          "time": 93.54720375000007,
          "velocity": 0.7874015748031497,
          "duration": 0.10135124999999334
        },
        {
          "name": "G2",
          "midi": 43,
          "time": 93.64855500000006,
          "velocity": 0.7874015748031497,
          "duration": 0.10135124999999334
        },
        {
          "name": "F2",
          "midi": 41,
          "time": 93.74990625000005,
          "velocity": 0.7874015748031497,
          "duration": 0.10135124999999334
        },
        {
          "name": "G2",
          "midi": 43,
          "time": 93.85125750000005,
          "velocity": 0.7874015748031497,
          "duration": 0.10135124999999334
        },
        {
          "name": "F2",
          "midi": 41,
          "time": 93.95260875000004,
          "velocity": 0.7874015748031497,
          "duration": 0.10135124999999334
        },
        {
          "name": "D#2",
          "midi": 39,
          "time": 94.05396000000003,
          "velocity": 0.7874015748031497,
          "duration": 6.48648
        },
        {
          "name": "G2",
          "midi": 43,
          "time": 100.54044000000003,
          "velocity": 0.7874015748031497,
          "duration": 0.2027025000000009
        },
        {
          "name": "G2",
          "midi": 43,
          "time": 100.74314250000003,
          "velocity": 0.7874015748031497,
          "duration": 0.2027025000000009
        },
        {
          "name": "G2",
          "midi": 43,
          "time": 100.94584500000003,
          "velocity": 0.7874015748031497,
          "duration": 0.2027025000000009
        },
        {
          "name": "G2",
          "midi": 43,
          "time": 101.14854750000003,
          "velocity": 0.7874015748031497,
          "duration": 0.2027025000000009
        },
        {
          "name": "G2",
          "midi": 43,
          "time": 101.35125000000004,
          "velocity": 0.7874015748031497,
          "duration": 0.2027025000000009
        },
        {
          "name": "G2",
          "midi": 43,
          "time": 101.55395250000004,
          "velocity": 0.7874015748031497,
          "duration": 0.2027025000000009
        },
        {
          "name": "G2",
          "midi": 43,
          "time": 101.75665500000004,
          "velocity": 0.7874015748031497,
          "duration": 0.2027025000000009
        },
        {
          "name": "G2",
          "midi": 43,
          "time": 101.95935750000004,
          "velocity": 0.7874015748031497,
          "duration": 0.2027025000000009
        },
        {
          "name": "G2",
          "midi": 43,
          "time": 102.16206000000004,
          "velocity": 0.7874015748031497,
          "duration": 0.2027025000000009
        },
        {
          "name": "G2",
          "midi": 43,
          "time": 102.36476250000004,
          "velocity": 0.7874015748031497,
          "duration": 0.2027025000000009
        },
        {
          "name": "G2",
          "midi": 43,
          "time": 102.56746500000004,
          "velocity": 0.7874015748031497,
          "duration": 0.2027025000000009
        },
        {
          "name": "G2",
          "midi": 43,
          "time": 102.77016750000004,
          "velocity": 0.7874015748031497,
          "duration": 0.2027025000000009
        },
        {
          "name": "G2",
          "midi": 43,
          "time": 102.97287000000004,
          "velocity": 0.7874015748031497,
          "duration": 0.2027025000000009
        },
        {
          "name": "G2",
          "midi": 43,
          "time": 103.17557250000004,
          "velocity": 0.7874015748031497,
          "duration": 0.2027025000000009
        },
        {
          "name": "G2",
          "midi": 43,
          "time": 103.37827500000004,
          "velocity": 0.7874015748031497,
          "duration": 0.2027025000000009
        },
        {
          "name": "G2",
          "midi": 43,
          "time": 103.58097750000005,
          "velocity": 0.7874015748031497,
          "duration": 0.2027025000000009
        },
        {
          "name": "F2",
          "midi": 41,
          "time": 103.78368000000005,
          "velocity": 0.7874015748031497,
          "duration": 0.2027025000000009
        },
        {
          "name": "F2",
          "midi": 41,
          "time": 103.98638250000005,
          "velocity": 0.7874015748031497,
          "duration": 0.2027025000000009
        },
        {
          "name": "F2",
          "midi": 41,
          "time": 104.18908500000005,
          "velocity": 0.7874015748031497,
          "duration": 0.2027025000000009
        },
        {
          "name": "F2",
          "midi": 41,
          "time": 104.39178750000005,
          "velocity": 0.7874015748031497,
          "duration": 0.2027025000000009
        },
        {
          "name": "F2",
          "midi": 41,
          "time": 104.59449000000005,
          "velocity": 0.7874015748031497,
          "duration": 0.2027025000000009
        },
        {
          "name": "F2",
          "midi": 41,
          "time": 104.79719250000005,
          "velocity": 0.7874015748031497,
          "duration": 0.2027025000000009
        },
        {
          "name": "F2",
          "midi": 41,
          "time": 104.99989500000005,
          "velocity": 0.7874015748031497,
          "duration": 0.2027025000000009
        },
        {
          "name": "F2",
          "midi": 41,
          "time": 105.20259750000005,
          "velocity": 0.7874015748031497,
          "duration": 0.2027025000000009
        },
        {
          "name": "F2",
          "midi": 41,
          "time": 105.40530000000005,
          "velocity": 0.7874015748031497,
          "duration": 0.2027025000000009
        },
        {
          "name": "F2",
          "midi": 41,
          "time": 105.60800250000005,
          "velocity": 0.7874015748031497,
          "duration": 0.2027025000000009
        },
        {
          "name": "F2",
          "midi": 41,
          "time": 105.81070500000006,
          "velocity": 0.7874015748031497,
          "duration": 0.2027025000000009
        },
        {
          "name": "F2",
          "midi": 41,
          "time": 106.01340750000006,
          "velocity": 0.7874015748031497,
          "duration": 0.2027025000000009
        },
        {
          "name": "F2",
          "midi": 41,
          "time": 106.21611000000006,
          "velocity": 0.7874015748031497,
          "duration": 0.2027025000000009
        },
        {
          "name": "F2",
          "midi": 41,
          "time": 106.41881250000006,
          "velocity": 0.7874015748031497,
          "duration": 0.2027025000000009
        },
        {
          "name": "F2",
          "midi": 41,
          "time": 106.62151500000006,
          "velocity": 0.7874015748031497,
          "duration": 0.2027025000000009
        },
        {
          "name": "F2",
          "midi": 41,
          "time": 106.82421750000006,
          "velocity": 0.7874015748031497,
          "duration": 0.2027025000000009
        },
        {
          "name": "D2",
          "midi": 38,
          "time": 107.02692000000006,
          "velocity": 0.7874015748031497,
          "duration": 6.48648
        },
        {
          "name": "F2",
          "midi": 41,
          "time": 113.51340000000006,
          "velocity": 0.7874015748031497,
          "duration": 0.2027025000000009
        },
        {
          "name": "G2",
          "midi": 43,
          "time": 114.02015625000006,
          "velocity": 0.7874015748031497,
          "duration": 0.2027025000000009
        },
        {
          "name": "F2",
          "midi": 41,
          "time": 114.32421000000005,
          "velocity": 0.7874015748031497,
          "duration": 0.2027025000000009
        },
        {
          "name": "G2",
          "midi": 43,
          "time": 114.72961500000005,
          "velocity": 0.7874015748031497,
          "duration": 0.2027025000000009
        },
        {
          "name": "F2",
          "midi": 41,
          "time": 115.13502000000005,
          "velocity": 0.7874015748031497,
          "duration": 0.2027025000000009
        },
        {
          "name": "G2",
          "midi": 43,
          "time": 115.64177625000005,
          "velocity": 0.7874015748031497,
          "duration": 0.2027025000000009
        },
        {
          "name": "F2",
          "midi": 41,
          "time": 115.94583000000004,
          "velocity": 0.7874015748031497,
          "duration": 0.2027025000000009
        },
        {
          "name": "G2",
          "midi": 43,
          "time": 116.35123500000005,
          "velocity": 0.7874015748031497,
          "duration": 0.2027025000000009
        },
        {
          "name": "G2",
          "midi": 43,
          "time": 116.75664000000005,
          "velocity": 0.7874015748031497,
          "duration": 0.2027025000000009
        },
        {
          "name": "A2",
          "midi": 45,
          "time": 117.26339625000004,
          "velocity": 0.7874015748031497,
          "duration": 0.2027025000000009
        },
        {
          "name": "G2",
          "midi": 43,
          "time": 117.56745000000004,
          "velocity": 0.7874015748031497,
          "duration": 0.2027025000000009
        },
        {
          "name": "A2",
          "midi": 45,
          "time": 117.97285500000004,
          "velocity": 0.7874015748031497,
          "duration": 0.2027025000000009
        },
        {
          "name": "G2",
          "midi": 43,
          "time": 118.37826000000004,
          "velocity": 0.7874015748031497,
          "duration": 0.2027025000000009
        },
        {
          "name": "A2",
          "midi": 45,
          "time": 118.88501625000004,
          "velocity": 0.7874015748031497,
          "duration": 0.2027025000000009
        },
        {
          "name": "G2",
          "midi": 43,
          "time": 119.18907000000003,
          "velocity": 0.7874015748031497,
          "duration": 0.2027025000000009
        },
        {
          "name": "A2",
          "midi": 45,
          "time": 119.59447500000003,
          "velocity": 0.7874015748031497,
          "duration": 0.2027025000000009
        },
        {
          "name": "D2",
          "midi": 38,
          "time": 119.99988000000003,
          "velocity": 0.7874015748031497,
          "duration": 3.24324
        },
        {
          "name": "C2",
          "midi": 36,
          "time": 123.24312000000003,
          "velocity": 0.7874015748031497,
          "duration": 1.6216200000000072
        },
        {
          "name": "C#2",
          "midi": 37,
          "time": 124.86474000000004,
          "velocity": 0.7874015748031497,
          "duration": 1.6216200000000072
        },
        {
          "name": "D2",
          "midi": 38,
          "time": 126.48636000000005,
          "velocity": 0.7874015748031497,
          "duration": 3.2432400000000143
        },
        {
          "name": "C2",
          "midi": 36,
          "time": 129.72960000000006,
          "velocity": 0.7874015748031497,
          "duration": 1.6216200000000072
        },
        {
          "name": "C#2",
          "midi": 37,
          "time": 131.35122000000007,
          "velocity": 0.7874015748031497,
          "duration": 0.6081074999999885
        },
        {
          "name": "D#2",
          "midi": 39,
          "time": 131.95932750000006,
          "velocity": 0.7874015748031497,
          "duration": 1.0135124999999903
        },
        {
          "name": "G#2",
          "midi": 44,
          "time": 133.27689375000006,
          "velocity": 0.7874015748031497,
          "duration": 0.10135124999999334
        },
        {
          "name": "F2",
          "midi": 41,
          "time": 133.37824500000005,
          "velocity": 0.7874015748031497,
          "duration": 0.20270249999998668
        },
        {
          "name": "G#2",
          "midi": 44,
          "time": 133.78365000000002,
          "velocity": 0.7874015748031497,
          "duration": 0.20270249999998668
        },
        {
          "name": "F#2",
          "midi": 42,
          "time": 134.189055,
          "velocity": 0.7874015748031497,
          "duration": 0.20270249999998668
        },
        {
          "name": "G#2",
          "midi": 44,
          "time": 134.89851374999998,
          "velocity": 0.7874015748031497,
          "duration": 0.10135124999999334
        },
        {
          "name": "F2",
          "midi": 41,
          "time": 134.99986499999997,
          "velocity": 0.7874015748031497,
          "duration": 0.20270249999998668
        },
        {
          "name": "G#2",
          "midi": 44,
          "time": 135.40526999999994,
          "velocity": 0.7874015748031497,
          "duration": 0.20270249999998668
        },
        {
          "name": "F#2",
          "midi": 42,
          "time": 135.81067499999992,
          "velocity": 0.7874015748031497,
          "duration": 0.20270249999998668
        },
        {
          "name": "G2",
          "midi": 43,
          "time": 136.5201337499999,
          "velocity": 0.7874015748031497,
          "duration": 0.10135124999999334
        },
        {
          "name": "F#2",
          "midi": 42,
          "time": 136.6214849999999,
          "velocity": 0.7874015748031497,
          "duration": 0.20270249999998668
        },
        {
          "name": "G2",
          "midi": 43,
          "time": 137.02688999999987,
          "velocity": 0.7874015748031497,
          "duration": 0.20270249999998668
        },
        {
          "name": "G#2",
          "midi": 44,
          "time": 137.43229499999984,
          "velocity": 0.7874015748031497,
          "duration": 0.20270249999998668
        },
        {
          "name": "D2",
          "midi": 38,
          "time": 138.14175374999982,
          "velocity": 0.7874015748031497,
          "duration": 0.10135124999999334
        },
        {
          "name": "C#2",
          "midi": 37,
          "time": 138.24310499999982,
          "velocity": 0.7874015748031497,
          "duration": 0.20270249999998668
        },
        {
          "name": "D2",
          "midi": 38,
          "time": 138.6485099999998,
          "velocity": 0.7874015748031497,
          "duration": 0.20270249999998668
        },
        {
          "name": "D#2",
          "midi": 39,
          "time": 139.05391499999976,
          "velocity": 0.7874015748031497,
          "duration": 0.20270249999998668
        },
        {
          "name": "D#2",
          "midi": 39,
          "time": 139.76337374999974,
          "velocity": 0.7874015748031497,
          "duration": 0.10135124999999334
        },
        {
          "name": "C2",
          "midi": 36,
          "time": 139.86472499999974,
          "velocity": 0.7874015748031497,
          "duration": 0.20270249999998668
        },
        {
          "name": "D#2",
          "midi": 39,
          "time": 140.2701299999997,
          "velocity": 0.7874015748031497,
          "duration": 0.20270249999998668
        },
        {
          "name": "C#2",
          "midi": 37,
          "time": 140.67553499999968,
          "velocity": 0.7874015748031497,
          "duration": 0.20270249999998668
        },
        {
          "name": "D#2",
          "midi": 39,
          "time": 141.38499374999967,
          "velocity": 0.7874015748031497,
          "duration": 0.10135124999999334
        },
        {
          "name": "C2",
          "midi": 36,
          "time": 141.48634499999966,
          "velocity": 0.7874015748031497,
          "duration": 0.20270249999998668
        },
        {
          "name": "D#2",
          "midi": 39,
          "time": 141.89174999999963,
          "velocity": 0.7874015748031497,
          "duration": 0.20270249999998668
        },
        {
          "name": "C#2",
          "midi": 37,
          "time": 142.2971549999996,
          "velocity": 0.7874015748031497,
          "duration": 0.20270249999998668
        },
        {
          "name": "D2",
          "midi": 38,
          "time": 142.70255999999958,
          "velocity": 0.7874015748031497,
          "duration": 1.6216200000000072
        },
        {
          "name": "C2",
          "midi": 36,
          "time": 144.3241799999996,
          "velocity": 0.7874015748031497,
          "duration": 0.6081074999999885
        },
        {
          "name": "C#2",
          "midi": 37,
          "time": 144.93228749999957,
          "velocity": 0.7874015748031497,
          "duration": 1.0135124999999903
        },
        {
          "name": "D2",
          "midi": 38,
          "time": 145.94579999999956,
          "velocity": 0.7874015748031497,
          "duration": 6.48648
        },
        {
          "name": "D#2",
          "midi": 39,
          "time": 152.43227999999957,
          "velocity": 0.7874015748031497,
          "duration": 3.243239999999986
        },
        {
          "name": "C#2",
          "midi": 37,
          "time": 155.67551999999955,
          "velocity": 0.7874015748031497,
          "duration": 3.2432400000000143
        },
        {
          "name": "D#2",
          "midi": 39,
          "time": 158.91875999999957,
          "velocity": 0.7874015748031497,
          "duration": 6.48648
        },
        {
          "name": "C2",
          "midi": 36,
          "time": 165.40523999999957,
          "velocity": 0.7874015748031497,
          "duration": 3.243239999999986
        },
        {
          "name": "D2",
          "midi": 38,
          "time": 168.64847999999955,
          "velocity": 0.7874015748031497,
          "duration": 3.2432400000000143
        },
        {
          "name": "C2",
          "midi": 36,
          "time": 172.49982749999955,
          "velocity": 0.7874015748031497,
          "duration": 0.20270249999998668
        },
        {
          "name": "D2",
          "midi": 38,
          "time": 173.31063749999953,
          "velocity": 0.7874015748031497,
          "duration": 0.20270249999998668
        },
        {
          "name": "C2",
          "midi": 36,
          "time": 174.1214474999995,
          "velocity": 0.7874015748031497,
          "duration": 0.20270249999998668
        },
        {
          "name": "D2",
          "midi": 38,
          "time": 174.93225749999948,
          "velocity": 0.7874015748031497,
          "duration": 0.20270249999998668
        },
        {
          "name": "D#2",
          "midi": 39,
          "time": 175.74306749999946,
          "velocity": 0.7874015748031497,
          "duration": 0.20270249999998668
        },
        {
          "name": "C#2",
          "midi": 37,
          "time": 176.55387749999943,
          "velocity": 0.7874015748031497,
          "duration": 0.20270249999998668
        },
        {
          "name": "D#2",
          "midi": 39,
          "time": 177.3646874999994,
          "velocity": 0.7874015748031497,
          "duration": 0.20270249999998668
        },
        {
          "name": "C#2",
          "midi": 37,
          "time": 178.17549749999938,
          "velocity": 0.7874015748031497,
          "duration": 0.20270249999998668
        },
        {
          "name": "C2",
          "midi": 36,
          "time": 178.98630749999936,
          "velocity": 0.7874015748031497,
          "duration": 0.20270249999998668
        },
        {
          "name": "D2",
          "midi": 38,
          "time": 179.79711749999933,
          "velocity": 0.7874015748031497,
          "duration": 0.20270249999998668
        },
        {
          "name": "C2",
          "midi": 36,
          "time": 180.6079274999993,
          "velocity": 0.7874015748031497,
          "duration": 0.20270249999998668
        },
        {
          "name": "D2",
          "midi": 38,
          "time": 181.41873749999928,
          "velocity": 0.7874015748031497,
          "duration": 0.20270249999998668
        },
        {
          "name": "D#2",
          "midi": 39,
          "time": 182.22954749999926,
          "velocity": 0.7874015748031497,
          "duration": 0.20270249999998668
        },
        {
          "name": "C#2",
          "midi": 37,
          "time": 183.04035749999923,
          "velocity": 0.7874015748031497,
          "duration": 3.3445912500000077
        }
      ],
      "controlChanges": {
        "7": [
          {
            "number": 7,
            "time": 0,
            "value": 1
          }
        ],
        "32": [
          {
            "number": 32,
            "time": 0,
            "value": 0
          }
        ],
        "127": [
          {
            "number": 127,
            "time": 186.48207703124925,
            "value": 0
          }
        ]
      },
      "id": 1,
      "name": "Midi Coding",
      "instrumentNumber": 0,
      "instrument": "acoustic grand piano",
      "instrumentFamily": "piano",
      "channelNumber": 0,
      "isPercussion": false
    }
  ]
}