{
  "header": {
    "PPQ": 15360,
    "bpm": 110.9999056500802,
    "timeSignature": [
      4,
      4
    ],
    "name": "Perseus",
    "artist": "magician.io",
    "difficulty": "9"
  },
  "tempo": [
    {
      "absoluteTime": 0,
      "seconds": 0,
      "bpm": 110.9999056500802
    }
  ],
  "timeSignature": [
    {
      "absoluteTime": 0,
      "seconds": 0,
      "numerator": 4,
      "denominator": 2,
      "click": 24,
      "notesQ": 8
    }
  ],
  "startTime": 0,
  "duration": 270.27049999999974,
  "tracks": [
    {
      "startTime": 0,
      "duration": 0,
      "length": 0,
      "notes": [],
      "controlChanges": {},
      "id": 0,
      "name": "Transport"
    },
    {
      "startTime": 2.162164,
      "duration": 270.27049999999974,
      "length": 328,
      "notes": [
        {
          "name": "D2",
          "midi": 38,
          "time": 2.162164,
          "velocity": 0.7874015748031497,
          "duration": 4.3243279999999995
        },
        {
          "name": "C2",
          "midi": 36,
          "time": 6.486492,
          "velocity": 0.7874015748031497,
          "duration": 1.6216229999999996
        },
        {
          "name": "D#2",
          "midi": 39,
          "time": 8.108115,
          "velocity": 0.7874015748031497,
          "duration": 2.702705
        },
        {
          "name": "C2",
          "midi": 36,
          "time": 10.81082,
          "velocity": 0.7874015748031497,
          "duration": 4.324328000000001
        },
        {
          "name": "D#2",
          "midi": 39,
          "time": 15.135148000000001,
          "velocity": 0.7874015748031497,
          "duration": 1.6216229999999996
        },
        {
          "name": "C#2",
          "midi": 37,
          "time": 16.756771,
          "velocity": 0.7874015748031497,
          "duration": 2.7027050000000017
        },
        {
          "name": "D2",
          "midi": 38,
          "time": 19.459476000000002,
          "velocity": 0.7874015748031497,
          "duration": 4.324328000000001
        },
        {
          "name": "C2",
          "midi": 36,
          "time": 23.783804000000003,
          "velocity": 0.7874015748031497,
          "duration": 1.6216229999999996
        },
        {
          "name": "D#2",
          "midi": 39,
          "time": 25.405427000000003,
          "velocity": 0.7874015748031497,
          "duration": 2.7027050000000017
        },
        {
          "name": "C2",
          "midi": 36,
          "time": 28.108132000000005,
          "velocity": 0.7874015748031497,
          "duration": 4.324328000000001
        },
        {
          "name": "D#2",
          "midi": 39,
          "time": 32.432460000000006,
          "velocity": 0.7874015748031497,
          "duration": 1.6216229999999996
        },
        {
          "name": "C#2",
          "midi": 37,
          "time": 34.054083000000006,
          "velocity": 0.7874015748031497,
          "duration": 2.7027050000000017
        },
        {
          "name": "D2",
          "midi": 38,
          "time": 36.75678800000001,
          "velocity": 0.7874015748031497,
          "duration": 0.5405409999999975
        },
        {
          "name": "C2",
          "midi": 36,
          "time": 37.297329000000005,
          "velocity": 0.7874015748031497,
          "duration": 0.5405409999999975
        },
        {
          "name": "D2",
          "midi": 38,
          "time": 37.83787,
          "velocity": 0.7874015748031497,
          "duration": 0.5405409999999975
        },
        {
          "name": "C#2",
          "midi": 37,
          "time": 38.378411,
          "velocity": 0.7874015748031497,
          "duration": 0.5405409999999975
        },
        {
          "name": "D2",
          "midi": 38,
          "time": 38.918952,
          "velocity": 0.7874015748031497,
          "duration": 0.5405409999999975
        },
        {
          "name": "C2",
          "midi": 36,
          "time": 39.459492999999995,
          "velocity": 0.7874015748031497,
          "duration": 0.5405409999999975
        },
        {
          "name": "D2",
          "midi": 38,
          "time": 40.00003399999999,
          "velocity": 0.7874015748031497,
          "duration": 0.5405409999999975
        },
        {
          "name": "C#2",
          "midi": 37,
          "time": 40.54057499999999,
          "velocity": 0.7874015748031497,
          "duration": 0.5405409999999975
        },
        {
          "name": "D#2",
          "midi": 39,
          "time": 41.08111599999999,
          "velocity": 0.7874015748031497,
          "duration": 0.5405409999999975
        },
        {
          "name": "C2",
          "midi": 36,
          "time": 41.621656999999985,
          "velocity": 0.7874015748031497,
          "duration": 0.5405409999999975
        },
        {
          "name": "D#2",
          "midi": 39,
          "time": 42.16219799999998,
          "velocity": 0.7874015748031497,
          "duration": 0.5405409999999975
        },
        {
          "name": "D2",
          "midi": 38,
          "time": 42.70273899999998,
          "velocity": 0.7874015748031497,
          "duration": 0.5405409999999975
        },
        {
          "name": "D#2",
          "midi": 39,
          "time": 43.24327999999998,
          "velocity": 0.7874015748031497,
          "duration": 0.5405409999999975
        },
        {
          "name": "C2",
          "midi": 36,
          "time": 43.783820999999975,
          "velocity": 0.7874015748031497,
          "duration": 0.5405409999999975
        },
        {
          "name": "D#2",
          "midi": 39,
          "time": 44.32436199999997,
          "velocity": 0.7874015748031497,
          "duration": 0.5405409999999975
        },
        {
          "name": "D2",
          "midi": 38,
          "time": 44.86490299999997,
          "velocity": 0.7874015748031497,
          "duration": 0.5405409999999975
        },
        {
          "name": "D2",
          "midi": 38,
          "time": 45.40544399999997,
          "velocity": 0.7874015748031497,
          "duration": 0.5405409999999975
        },
        {
          "name": "C2",
          "midi": 36,
          "time": 45.945984999999965,
          "velocity": 0.7874015748031497,
          "duration": 0.5405409999999975
        },
        {
          "name": "D2",
          "midi": 38,
          "time": 46.48652599999996,
          "velocity": 0.7874015748031497,
          "duration": 0.5405409999999975
        },
        {
          "name": "C#2",
          "midi": 37,
          "time": 47.02706699999996,
          "velocity": 0.7874015748031497,
          "duration": 0.5405409999999975
        },
        {
          "name": "D2",
          "midi": 38,
          "time": 47.56760799999996,
          "velocity": 0.7874015748031497,
          "duration": 0.5405409999999975
        },
        {
          "name": "C2",
          "midi": 36,
          "time": 48.108148999999955,
          "velocity": 0.7874015748031497,
          "duration": 0.5405409999999975
        },
        {
          "name": "D2",
          "midi": 38,
          "time": 48.64868999999995,
          "velocity": 0.7874015748031497,
          "duration": 0.5405409999999975
        },
        {
          "name": "C#2",
          "midi": 37,
          "time": 49.18923099999995,
          "velocity": 0.7874015748031497,
          "duration": 0.5405409999999975
        },
        {
          "name": "D#2",
          "midi": 39,
          "time": 49.72977199999995,
          "velocity": 0.7874015748031497,
          "duration": 0.5405409999999975
        },
        {
          "name": "C2",
          "midi": 36,
          "time": 50.270312999999945,
          "velocity": 0.7874015748031497,
          "duration": 0.5405409999999975
        },
        {
          "name": "D#2",
          "midi": 39,
          "time": 50.81085399999994,
          "velocity": 0.7874015748031497,
          "duration": 0.5405409999999975
        },
        {
          "name": "D2",
          "midi": 38,
          "time": 51.35139499999994,
          "velocity": 0.7874015748031497,
          "duration": 0.5405409999999975
        },
        {
          "name": "D#2",
          "midi": 39,
          "time": 51.89193599999994,
          "velocity": 0.7874015748031497,
          "duration": 0.5405409999999975
        },
        {
          "name": "C2",
          "midi": 36,
          "time": 52.432476999999935,
          "velocity": 0.7874015748031497,
          "duration": 0.5405409999999975
        },
        {
          "name": "D#2",
          "midi": 39,
          "time": 52.97301799999993,
          "velocity": 0.7874015748031497,
          "duration": 0.5405409999999975
        },
        {
          "name": "D2",
          "midi": 38,
          "time": 53.51355899999993,
          "velocity": 0.7874015748031497,
          "duration": 0.5405409999999975
        },
        {
          "name": "D2",
          "midi": 38,
          "time": 54.189235249999925,
          "velocity": 0.7874015748031497,
          "duration": 0.2702705000000023
        },
        {
          "name": "C2",
          "midi": 36,
          "time": 54.594640999999925,
          "velocity": 0.7874015748031497,
          "duration": 0.2702705000000023
        },
        {
          "name": "D2",
          "midi": 38,
          "time": 55.13518199999993,
          "velocity": 0.7874015748031497,
          "duration": 0.2702705000000023
        },
        {
          "name": "C#2",
          "midi": 37,
          "time": 55.675722999999934,
          "velocity": 0.7874015748031497,
          "duration": 0.2702705000000023
        },
        {
          "name": "D#2",
          "midi": 39,
          "time": 56.486534499999934,
          "velocity": 0.7874015748031497,
          "duration": 0.2702705000000023
        },
        {
          "name": "C#2",
          "midi": 37,
          "time": 57.02707549999994,
          "velocity": 0.7874015748031497,
          "duration": 0.2702705000000023
        },
        {
          "name": "D#2",
          "midi": 39,
          "time": 57.56761649999994,
          "velocity": 0.7874015748031497,
          "duration": 0.2702705000000023
        },
        {
          "name": "C#2",
          "midi": 37,
          "time": 58.10815749999995,
          "velocity": 0.7874015748031497,
          "duration": 0.2702705000000023
        },
        {
          "name": "D#2",
          "midi": 39,
          "time": 58.51356324999995,
          "velocity": 0.7874015748031497,
          "duration": 0.2702705000000023
        },
        {
          "name": "C2",
          "midi": 36,
          "time": 58.91896899999995,
          "velocity": 0.7874015748031497,
          "duration": 0.2702705000000023
        },
        {
          "name": "D2",
          "midi": 38,
          "time": 59.45950999999995,
          "velocity": 0.7874015748031497,
          "duration": 0.2702705000000023
        },
        {
          "name": "C#2",
          "midi": 37,
          "time": 60.00005099999996,
          "velocity": 0.7874015748031497,
          "duration": 0.2702705000000023
        },
        {
          "name": "D#2",
          "midi": 39,
          "time": 60.810862499999956,
          "velocity": 0.7874015748031497,
          "duration": 0.2702705000000023
        },
        {
          "name": "C#2",
          "midi": 37,
          "time": 61.35140349999996,
          "velocity": 0.7874015748031497,
          "duration": 0.2702705000000023
        },
        {
          "name": "D#2",
          "midi": 39,
          "time": 61.891944499999966,
          "velocity": 0.7874015748031497,
          "duration": 0.2702705000000023
        },
        {
          "name": "C#2",
          "midi": 37,
          "time": 62.43248549999997,
          "velocity": 0.7874015748031497,
          "duration": 0.2702705000000023
        },
        {
          "name": "D#2",
          "midi": 39,
          "time": 62.973026499999975,
          "velocity": 0.7874015748031497,
          "duration": 0.1351352499999976
        },
        {
          "name": "C2",
          "midi": 36,
          "time": 63.10816174999997,
          "velocity": 0.7874015748031497,
          "duration": 0.1351352499999976
        },
        {
          "name": "D2",
          "midi": 38,
          "time": 63.24329699999997,
          "velocity": 0.7874015748031497,
          "duration": 0.1351352499999976
        },
        {
          "name": "C#2",
          "midi": 37,
          "time": 63.78383799999997,
          "velocity": 0.7874015748031497,
          "duration": 0.1351352499999976
        },
        {
          "name": "D#2",
          "midi": 39,
          "time": 64.18924374999996,
          "velocity": 0.7874015748031497,
          "duration": 0.1351352500000047
        },
        {
          "name": "C#2",
          "midi": 37,
          "time": 65.13519049999996,
          "velocity": 0.7874015748031497,
          "duration": 0.1351352500000047
        },
        {
          "name": "D2",
          "midi": 38,
          "time": 65.27032574999997,
          "velocity": 0.7874015748031497,
          "duration": 0.1351352500000047
        },
        {
          "name": "C2",
          "midi": 36,
          "time": 65.40546099999997,
          "velocity": 0.7874015748031497,
          "duration": 0.1351352500000047
        },
        {
          "name": "D#2",
          "midi": 39,
          "time": 65.94600199999998,
          "velocity": 0.7874015748031497,
          "duration": 0.1351352500000047
        },
        {
          "name": "C#2",
          "midi": 37,
          "time": 66.35140774999998,
          "velocity": 0.7874015748031497,
          "duration": 0.1351352500000047
        },
        {
          "name": "D2",
          "midi": 38,
          "time": 66.75681349999998,
          "velocity": 0.7874015748031497,
          "duration": 0.1351352500000047
        },
        {
          "name": "D#2",
          "midi": 39,
          "time": 67.29735449999998,
          "velocity": 0.7874015748031497,
          "duration": 0.1351352500000047
        },
        {
          "name": "C2",
          "midi": 36,
          "time": 67.43248974999999,
          "velocity": 0.7874015748031497,
          "duration": 0.1351352500000047
        },
        {
          "name": "D2",
          "midi": 38,
          "time": 67.56762499999999,
          "velocity": 0.7874015748031497,
          "duration": 0.1351352500000047
        },
        {
          "name": "C#2",
          "midi": 37,
          "time": 68.108166,
          "velocity": 0.7874015748031497,
          "duration": 0.1351352500000047
        },
        {
          "name": "D#2",
          "midi": 39,
          "time": 68.51357175,
          "velocity": 0.7874015748031497,
          "duration": 0.1351352500000047
        },
        {
          "name": "C#2",
          "midi": 37,
          "time": 69.4595185,
          "velocity": 0.7874015748031497,
          "duration": 0.1351352500000047
        },
        {
          "name": "D2",
          "midi": 38,
          "time": 69.59465375,
          "velocity": 0.7874015748031497,
          "duration": 0.1351352500000047
        },
        {
          "name": "C2",
          "midi": 36,
          "time": 69.72978900000001,
          "velocity": 0.7874015748031497,
          "duration": 0.1351352500000047
        },
        {
          "name": "D#2",
          "midi": 39,
          "time": 70.27033000000002,
          "velocity": 0.7874015748031497,
          "duration": 0.1351352500000047
        },
        {
          "name": "C#2",
          "midi": 37,
          "time": 70.67573575000002,
          "velocity": 0.7874015748031497,
          "duration": 0.1351352500000047
        },
        {
          "name": "D2",
          "midi": 38,
          "time": 71.08114150000002,
          "velocity": 0.7874015748031497,
          "duration": 0.1351352500000047
        },
        {
          "name": "D2",
          "midi": 38,
          "time": 71.35141200000002,
          "velocity": 0.7874015748031497,
          "duration": 0.1351352500000047
        },
        {
          "name": "D#2",
          "midi": 39,
          "time": 71.62168250000003,
          "velocity": 0.7874015748031497,
          "duration": 0.1351352500000047
        },
        {
          "name": "C#2",
          "midi": 37,
          "time": 71.75681775000004,
          "velocity": 0.7874015748031497,
          "duration": 0.1351352500000047
        },
        {
          "name": "D#2",
          "midi": 39,
          "time": 71.89195300000004,
          "velocity": 0.7874015748031497,
          "duration": 0.1351352500000047
        },
        {
          "name": "D2",
          "midi": 38,
          "time": 72.16222350000005,
          "velocity": 0.7874015748031497,
          "duration": 0.1351352500000047
        },
        {
          "name": "C#2",
          "midi": 37,
          "time": 72.43249400000006,
          "velocity": 0.7874015748031497,
          "duration": 0.1351352500000047
        },
        {
          "name": "D#2",
          "midi": 39,
          "time": 72.70276450000007,
          "velocity": 0.7874015748031497,
          "duration": 0.1351352500000047
        },
        {
          "name": "C#2",
          "midi": 37,
          "time": 72.97303500000008,
          "velocity": 0.7874015748031497,
          "duration": 0.1351352500000047
        },
        {
          "name": "C2",
          "midi": 36,
          "time": 73.24330550000009,
          "velocity": 0.7874015748031497,
          "duration": 0.1351352500000047
        },
        {
          "name": "C#2",
          "midi": 37,
          "time": 73.5135760000001,
          "velocity": 0.7874015748031497,
          "duration": 0.1351352500000047
        },
        {
          "name": "D#2",
          "midi": 39,
          "time": 73.78384650000011,
          "velocity": 0.7874015748031497,
          "duration": 0.1351352500000047
        },
        {
          "name": "C#2",
          "midi": 37,
          "time": 74.05411700000012,
          "velocity": 0.7874015748031497,
          "duration": 0.1351352500000047
        },
        {
          "name": "D#2",
          "midi": 39,
          "time": 74.32438750000013,
          "velocity": 0.7874015748031497,
          "duration": 0.1351352500000047
        },
        {
          "name": "C#2",
          "midi": 37,
          "time": 74.59465800000014,
          "velocity": 0.7874015748031497,
          "duration": 0.1351352500000047
        },
        {
          "name": "D#2",
          "midi": 39,
          "time": 74.86492850000015,
          "velocity": 0.7874015748031497,
          "duration": 0.1351352500000047
        },
        {
          "name": "D2",
          "midi": 38,
          "time": 75.13519900000016,
          "velocity": 0.7874015748031497,
          "duration": 0.1351352500000047
        },
        {
          "name": "D#2",
          "midi": 39,
          "time": 75.27033425000016,
          "velocity": 0.7874015748031497,
          "duration": 0.1351352500000047
        },
        {
          "name": "C#2",
          "midi": 37,
          "time": 75.40546950000017,
          "velocity": 0.7874015748031497,
          "duration": 0.1351352500000047
        },
        {
          "name": "C2",
          "midi": 36,
          "time": 75.54060475000017,
          "velocity": 0.7874015748031497,
          "duration": 0.1351352500000047
        },
        {
          "name": "C#2",
          "midi": 37,
          "time": 75.67574000000018,
          "velocity": 0.7874015748031497,
          "duration": 1.6216229999999996
        },
        {
          "name": "D#2",
          "midi": 39,
          "time": 77.29736300000017,
          "velocity": 0.7874015748031497,
          "duration": 2.7027049999999946
        },
        {
          "name": "D2",
          "midi": 38,
          "time": 80.00006800000017,
          "velocity": 0.7874015748031497,
          "duration": 3.243245999999999
        },
        {
          "name": "C2",
          "midi": 36,
          "time": 83.24331400000017,
          "velocity": 0.7874015748031497,
          "duration": 1.081081999999995
        },
        {
          "name": "C#2",
          "midi": 37,
          "time": 84.32439600000016,
          "velocity": 0.7874015748031497,
          "duration": 1.6216229999999996
        },
        {
          "name": "D#2",
          "midi": 39,
          "time": 85.94601900000016,
          "velocity": 0.7874015748031497,
          "duration": 2.7027049999999946
        },
        {
          "name": "D2",
          "midi": 38,
          "time": 88.64872400000016,
          "velocity": 0.7874015748031497,
          "duration": 4.324327999999994
        },
        {
          "name": "C2",
          "midi": 36,
          "time": 92.97305200000015,
          "velocity": 0.7874015748031497,
          "duration": 1.6216229999999996
        },
        {
          "name": "D2",
          "midi": 38,
          "time": 94.59467500000015,
          "velocity": 0.7874015748031497,
          "duration": 2.7027049999999946
        },
        {
          "name": "D2",
          "midi": 38,
          "time": 97.29738000000015,
          "velocity": 0.7874015748031497,
          "duration": 0.1351352500000047
        },
        {
          "name": "D#2",
          "midi": 39,
          "time": 97.56765050000016,
          "velocity": 0.7874015748031497,
          "duration": 0.1351352500000047
        },
        {
          "name": "C#2",
          "midi": 37,
          "time": 97.70278575000016,
          "velocity": 0.7874015748031497,
          "duration": 0.1351352500000047
        },
        {
          "name": "D#2",
          "midi": 39,
          "time": 97.83792100000016,
          "velocity": 0.7874015748031497,
          "duration": 0.1351352500000047
        },
        {
          "name": "D2",
          "midi": 38,
          "time": 98.10819150000017,
          "velocity": 0.7874015748031497,
          "duration": 0.1351352500000047
        },
        {
          "name": "C#2",
          "midi": 37,
          "time": 98.37846200000018,
          "velocity": 0.7874015748031497,
          "duration": 0.1351352500000047
        },
        {
          "name": "D#2",
          "midi": 39,
          "time": 98.6487325000002,
          "velocity": 0.7874015748031497,
          "duration": 0.1351352500000047
        },
        {
          "name": "C#2",
          "midi": 37,
          "time": 98.9190030000002,
          "velocity": 0.7874015748031497,
          "duration": 0.1351352500000047
        },
        {
          "name": "C2",
          "midi": 36,
          "time": 99.18927350000021,
          "velocity": 0.7874015748031497,
          "duration": 0.1351352500000047
        },
        {
          "name": "C#2",
          "midi": 37,
          "time": 99.45954400000022,
          "velocity": 0.7874015748031497,
          "duration": 0.1351352500000047
        },
        {
          "name": "D#2",
          "midi": 39,
          "time": 99.72981450000023,
          "velocity": 0.7874015748031497,
          "duration": 0.1351352500000047
        },
        {
          "name": "C#2",
          "midi": 37,
          "time": 100.00008500000024,
          "velocity": 0.7874015748031497,
          "duration": 0.1351352500000047
        },
        {
          "name": "D#2",
          "midi": 39,
          "time": 100.27035550000025,
          "velocity": 0.7874015748031497,
          "duration": 0.1351352500000047
        },
        {
          "name": "C#2",
          "midi": 37,
          "time": 100.54062600000026,
          "velocity": 0.7874015748031497,
          "duration": 0.1351352500000047
        },
        {
          "name": "D#2",
          "midi": 39,
          "time": 100.81089650000027,
          "velocity": 0.7874015748031497,
          "duration": 0.1351352500000047
        },
        {
          "name": "D2",
          "midi": 38,
          "time": 101.08116700000028,
          "velocity": 0.7874015748031497,
          "duration": 0.1351352500000047
        },
        {
          "name": "D#2",
          "midi": 39,
          "time": 101.21630225000028,
          "velocity": 0.7874015748031497,
          "duration": 0.1351352500000047
        },
        {
          "name": "C#2",
          "midi": 37,
          "time": 101.35143750000029,
          "velocity": 0.7874015748031497,
          "duration": 0.1351352500000047
        },
        {
          "name": "C2",
          "midi": 36,
          "time": 101.48657275000029,
          "velocity": 0.7874015748031497,
          "duration": 0.1351352500000047
        },
        {
          "name": "D2",
          "midi": 38,
          "time": 101.6217080000003,
          "velocity": 0.7874015748031497,
          "duration": 0.1351352500000047
        },
        {
          "name": "D#2",
          "midi": 39,
          "time": 101.8919785000003,
          "velocity": 0.7874015748031497,
          "duration": 0.1351352500000047
        },
        {
          "name": "C#2",
          "midi": 37,
          "time": 102.02711375000031,
          "velocity": 0.7874015748031497,
          "duration": 0.1351352500000047
        },
        {
          "name": "D#2",
          "midi": 39,
          "time": 102.16224900000032,
          "velocity": 0.7874015748031497,
          "duration": 0.1351352500000047
        },
        {
          "name": "D2",
          "midi": 38,
          "time": 102.43251950000032,
          "velocity": 0.7874015748031497,
          "duration": 0.1351352500000047
        },
        {
          "name": "C#2",
          "midi": 37,
          "time": 102.70279000000033,
          "velocity": 0.7874015748031497,
          "duration": 0.1351352500000047
        },
        {
          "name": "D#2",
          "midi": 39,
          "time": 102.97306050000034,
          "velocity": 0.7874015748031497,
          "duration": 0.1351352500000047
        },
        {
          "name": "C#2",
          "midi": 37,
          "time": 103.24333100000035,
          "velocity": 0.7874015748031497,
          "duration": 0.1351352500000047
        },
        {
          "name": "C2",
          "midi": 36,
          "time": 103.51360150000036,
          "velocity": 0.7874015748031497,
          "duration": 0.1351352500000047
        },
        {
          "name": "C#2",
          "midi": 37,
          "time": 103.78387200000037,
          "velocity": 0.7874015748031497,
          "duration": 0.1351352500000047
        },
        {
          "name": "D#2",
          "midi": 39,
          "time": 104.05414250000038,
          "velocity": 0.7874015748031497,
          "duration": 0.1351352500000047
        },
        {
          "name": "C#2",
          "midi": 37,
          "time": 104.32441300000039,
          "velocity": 0.7874015748031497,
          "duration": 0.1351352500000047
        },
        {
          "name": "D#2",
          "midi": 39,
          "time": 104.5946835000004,
          "velocity": 0.7874015748031497,
          "duration": 0.1351352500000047
        },
        {
          "name": "C#2",
          "midi": 37,
          "time": 104.86495400000041,
          "velocity": 0.7874015748031497,
          "duration": 0.1351352500000047
        },
        {
          "name": "D#2",
          "midi": 39,
          "time": 105.13522450000042,
          "velocity": 0.7874015748031497,
          "duration": 0.1351352500000047
        },
        {
          "name": "D2",
          "midi": 38,
          "time": 105.40549500000043,
          "velocity": 0.7874015748031497,
          "duration": 0.1351352500000047
        },
        {
          "name": "D#2",
          "midi": 39,
          "time": 105.54063025000043,
          "velocity": 0.7874015748031497,
          "duration": 0.1351352500000047
        },
        {
          "name": "C#2",
          "midi": 37,
          "time": 105.67576550000044,
          "velocity": 0.7874015748031497,
          "duration": 0.1351352500000047
        },
        {
          "name": "C2",
          "midi": 36,
          "time": 105.81090075000044,
          "velocity": 0.7874015748031497,
          "duration": 0.1351352500000047
        },
        {
          "name": "C#2",
          "midi": 37,
          "time": 105.94603600000045,
          "velocity": 0.7874015748031497,
          "duration": 4.324327999999994
        },
        {
          "name": "D2",
          "midi": 38,
          "time": 110.27036400000044,
          "velocity": 0.7874015748031497,
          "duration": 0.5405410000000046
        },
        {
          "name": "C2",
          "midi": 36,
          "time": 110.81090500000045,
          "velocity": 0.7874015748031497,
          "duration": 0.5405410000000046
        },
        {
          "name": "D#2",
          "midi": 39,
          "time": 111.35144600000045,
          "velocity": 0.7874015748031497,
          "duration": 0.5405410000000046
        },
        {
          "name": "C#2",
          "midi": 37,
          "time": 111.89198700000046,
          "velocity": 0.7874015748031497,
          "duration": 0.5405410000000046
        },
        {
          "name": "D2",
          "midi": 38,
          "time": 112.43252800000046,
          "velocity": 0.7874015748031497,
          "duration": 0.5405410000000046
        },
        {
          "name": "C2",
          "midi": 36,
          "time": 112.97306900000046,
          "velocity": 0.7874015748031497,
          "duration": 0.5405410000000046
        },
        {
          "name": "D#2",
          "midi": 39,
          "time": 113.51361000000047,
          "velocity": 0.7874015748031497,
          "duration": 0.5405410000000046
        },
        {
          "name": "C#2",
          "midi": 37,
          "time": 114.05415100000047,
          "velocity": 0.7874015748031497,
          "duration": 0.5405410000000046
        },
        {
          "name": "D2",
          "midi": 38,
          "time": 114.59469200000048,
          "velocity": 0.7874015748031497,
          "duration": 0.5405410000000046
        },
        {
          "name": "D2",
          "midi": 38,
          "time": 115.13523300000048,
          "velocity": 0.7874015748031497,
          "duration": 0.5405410000000046
        },
        {
          "name": "D2",
          "midi": 38,
          "time": 115.67577400000049,
          "velocity": 0.7874015748031497,
          "duration": 0.5405410000000046
        },
        {
          "name": "D2",
          "midi": 38,
          "time": 116.21631500000049,
          "velocity": 0.7874015748031497,
          "duration": 0.5405410000000046
        },
        {
          "name": "C2",
          "midi": 36,
          "time": 116.7568560000005,
          "velocity": 0.7874015748031497,
          "duration": 0.5405410000000046
        },
        {
          "name": "C2",
          "midi": 36,
          "time": 117.2973970000005,
          "velocity": 0.7874015748031497,
          "duration": 0.5405410000000046
        },
        {
          "name": "C2",
          "midi": 36,
          "time": 117.8379380000005,
          "velocity": 0.7874015748031497,
          "duration": 0.5405410000000046
        },
        {
          "name": "C2",
          "midi": 36,
          "time": 118.37847900000051,
          "velocity": 0.7874015748031497,
          "duration": 0.5405410000000046
        },
        {
          "name": "D2",
          "midi": 38,
          "time": 118.91902000000051,
          "velocity": 0.7874015748031497,
          "duration": 0.5405410000000046
        },
        {
          "name": "C2",
          "midi": 36,
          "time": 119.45956100000052,
          "velocity": 0.7874015748031497,
          "duration": 0.5405410000000046
        },
        {
          "name": "D#2",
          "midi": 39,
          "time": 120.00010200000052,
          "velocity": 0.7874015748031497,
          "duration": 0.5405410000000046
        },
        {
          "name": "C#2",
          "midi": 37,
          "time": 120.54064300000053,
          "velocity": 0.7874015748031497,
          "duration": 0.5405410000000046
        },
        {
          "name": "D2",
          "midi": 38,
          "time": 121.08118400000053,
          "velocity": 0.7874015748031497,
          "duration": 0.5405410000000046
        },
        {
          "name": "C2",
          "midi": 36,
          "time": 121.62172500000054,
          "velocity": 0.7874015748031497,
          "duration": 0.5405410000000046
        },
        {
          "name": "D#2",
          "midi": 39,
          "time": 122.16226600000054,
          "velocity": 0.7874015748031497,
          "duration": 0.5405410000000046
        },
        {
          "name": "C#2",
          "midi": 37,
          "time": 122.70280700000055,
          "velocity": 0.7874015748031497,
          "duration": 0.5405410000000046
        },
        {
          "name": "D2",
          "midi": 38,
          "time": 123.24334800000055,
          "velocity": 0.7874015748031497,
          "duration": 0.5405410000000046
        },
        {
          "name": "D2",
          "midi": 38,
          "time": 123.78388900000056,
          "velocity": 0.7874015748031497,
          "duration": 0.5405410000000046
        },
        {
          "name": "D2",
          "midi": 38,
          "time": 124.32443000000056,
          "velocity": 0.7874015748031497,
          "duration": 0.5405410000000046
        },
        {
          "name": "D2",
          "midi": 38,
          "time": 124.86497100000057,
          "velocity": 0.7874015748031497,
          "duration": 0.5405410000000046
        },
        {
          "name": "D2",
          "midi": 38,
          "time": 125.40551200000057,
          "velocity": 0.7874015748031497,
          "duration": 0.5405410000000046
        },
        {
          "name": "D2",
          "midi": 38,
          "time": 125.94605300000057,
          "velocity": 0.7874015748031497,
          "duration": 0.5405410000000046
        },
        {
          "name": "D2",
          "midi": 38,
          "time": 126.48659400000058,
          "velocity": 0.7874015748031497,
          "duration": 0.5405410000000046
        },
        {
          "name": "D2",
          "midi": 38,
          "time": 127.02713500000058,
          "velocity": 0.7874015748031497,
          "duration": 0.5405410000000046
        },
        {
          "name": "C2",
          "midi": 36,
          "time": 127.56767600000059,
          "velocity": 0.7874015748031497,
          "duration": 0.5405410000000046
        },
        {
          "name": "C2",
          "midi": 36,
          "time": 128.1082170000006,
          "velocity": 0.7874015748031497,
          "duration": 0.5405409999999904
        },
        {
          "name": "C2",
          "midi": 36,
          "time": 128.64875800000058,
          "velocity": 0.7874015748031497,
          "duration": 0.5405409999999904
        },
        {
          "name": "C2",
          "midi": 36,
          "time": 129.18929900000057,
          "velocity": 0.7874015748031497,
          "duration": 0.5405409999999904
        },
        {
          "name": "C2",
          "midi": 36,
          "time": 129.72984000000056,
          "velocity": 0.7874015748031497,
          "duration": 0.5405409999999904
        },
        {
          "name": "C2",
          "midi": 36,
          "time": 130.27038100000055,
          "velocity": 0.7874015748031497,
          "duration": 0.5405409999999904
        },
        {
          "name": "C2",
          "midi": 36,
          "time": 130.81092200000055,
          "velocity": 0.7874015748031497,
          "duration": 0.5405409999999904
        },
        {
          "name": "C2",
          "midi": 36,
          "time": 131.35146300000054,
          "velocity": 0.7874015748031497,
          "duration": 0.5405409999999904
        },
        {
          "name": "D#2",
          "midi": 39,
          "time": 131.89200400000053,
          "velocity": 0.7874015748031497,
          "duration": 0.5405409999999904
        },
        {
          "name": "D#2",
          "midi": 39,
          "time": 132.43254500000052,
          "velocity": 0.7874015748031497,
          "duration": 0.5405409999999904
        },
        {
          "name": "D#2",
          "midi": 39,
          "time": 132.9730860000005,
          "velocity": 0.7874015748031497,
          "duration": 0.5405409999999904
        },
        {
          "name": "D#2",
          "midi": 39,
          "time": 133.5136270000005,
          "velocity": 0.7874015748031497,
          "duration": 0.5405409999999904
        },
        {
          "name": "D#2",
          "midi": 39,
          "time": 134.0541680000005,
          "velocity": 0.7874015748031497,
          "duration": 0.5405409999999904
        },
        {
          "name": "D#2",
          "midi": 39,
          "time": 134.59470900000048,
          "velocity": 0.7874015748031497,
          "duration": 0.5405409999999904
        },
        {
          "name": "D#2",
          "midi": 39,
          "time": 135.13525000000047,
          "velocity": 0.7874015748031497,
          "duration": 0.5405409999999904
        },
        {
          "name": "D#2",
          "midi": 39,
          "time": 135.67579100000046,
          "velocity": 0.7874015748031497,
          "duration": 0.5405409999999904
        },
        {
          "name": "C#2",
          "midi": 37,
          "time": 136.21633200000045,
          "velocity": 0.7874015748031497,
          "duration": 0.5405409999999904
        },
        {
          "name": "C#2",
          "midi": 37,
          "time": 136.75687300000044,
          "velocity": 0.7874015748031497,
          "duration": 0.5405409999999904
        },
        {
          "name": "C#2",
          "midi": 37,
          "time": 137.29741400000043,
          "velocity": 0.7874015748031497,
          "duration": 0.5405409999999904
        },
        {
          "name": "C#2",
          "midi": 37,
          "time": 137.83795500000042,
          "velocity": 0.7874015748031497,
          "duration": 0.5405409999999904
        },
        {
          "name": "C#2",
          "midi": 37,
          "time": 138.3784960000004,
          "velocity": 0.7874015748031497,
          "duration": 0.5405409999999904
        },
        {
          "name": "C#2",
          "midi": 37,
          "time": 138.9190370000004,
          "velocity": 0.7874015748031497,
          "duration": 0.5405409999999904
        },
        {
          "name": "C#2",
          "midi": 37,
          "time": 139.4595780000004,
          "velocity": 0.7874015748031497,
          "duration": 0.5405409999999904
        },
        {
          "name": "C#2",
          "midi": 37,
          "time": 140.00011900000038,
          "velocity": 0.7874015748031497,
          "duration": 0.5405409999999904
        },
        {
          "name": "D2",
          "midi": 38,
          "time": 140.54066000000037,
          "velocity": 0.7874015748031497,
          "duration": 4.324328000000008
        },
        {
          "name": "C2",
          "midi": 36,
          "time": 144.86498800000038,
          "velocity": 0.7874015748031497,
          "duration": 4.324328000000008
        },
        {
          "name": "D#2",
          "midi": 39,
          "time": 149.1893160000004,
          "velocity": 0.7874015748031497,
          "duration": 0.5405409999999904
        },
        {
          "name": "D#2",
          "midi": 39,
          "time": 149.72985700000038,
          "velocity": 0.7874015748031497,
          "duration": 0.5405409999999904
        },
        {
          "name": "D#2",
          "midi": 39,
          "time": 150.27039800000037,
          "velocity": 0.7874015748031497,
          "duration": 0.5405409999999904
        },
        {
          "name": "D#2",
          "midi": 39,
          "time": 150.81093900000036,
          "velocity": 0.7874015748031497,
          "duration": 0.5405409999999904
        },
        {
          "name": "D#2",
          "midi": 39,
          "time": 151.35148000000035,
          "velocity": 0.7874015748031497,
          "duration": 0.5405409999999904
        },
        {
          "name": "D#2",
          "midi": 39,
          "time": 151.89202100000034,
          "velocity": 0.7874015748031497,
          "duration": 0.5405409999999904
        },
        {
          "name": "D#2",
          "midi": 39,
          "time": 152.43256200000033,
          "velocity": 0.7874015748031497,
          "duration": 0.5405409999999904
        },
        {
          "name": "D#2",
          "midi": 39,
          "time": 152.97310300000032,
          "velocity": 0.7874015748031497,
          "duration": 0.5405409999999904
        },
        {
          "name": "C#2",
          "midi": 37,
          "time": 153.5136440000003,
          "velocity": 0.7874015748031497,
          "duration": 4.324328000000008
        },
        {
          "name": "D2",
          "midi": 38,
          "time": 157.83797200000032,
          "velocity": 0.7874015748031497,
          "duration": 0.5405409999999904
        },
        {
          "name": "D2",
          "midi": 38,
          "time": 158.3785130000003,
          "velocity": 0.7874015748031497,
          "duration": 0.5405409999999904
        },
        {
          "name": "D2",
          "midi": 38,
          "time": 158.9190540000003,
          "velocity": 0.7874015748031497,
          "duration": 0.5405409999999904
        },
        {
          "name": "D2",
          "midi": 38,
          "time": 159.4595950000003,
          "velocity": 0.7874015748031497,
          "duration": 0.5405409999999904
        },
        {
          "name": "D2",
          "midi": 38,
          "time": 160.00013600000028,
          "velocity": 0.7874015748031497,
          "duration": 0.5405409999999904
        },
        {
          "name": "D2",
          "midi": 38,
          "time": 160.54067700000027,
          "velocity": 0.7874015748031497,
          "duration": 0.5405409999999904
        },
        {
          "name": "D2",
          "midi": 38,
          "time": 161.08121800000026,
          "velocity": 0.7874015748031497,
          "duration": 0.5405409999999904
        },
        {
          "name": "D2",
          "midi": 38,
          "time": 161.62175900000025,
          "velocity": 0.7874015748031497,
          "duration": 0.5405409999999904
        },
        {
          "name": "C2",
          "midi": 36,
          "time": 162.16230000000024,
          "velocity": 0.7874015748031497,
          "duration": 4.324328000000008
        },
        {
          "name": "D#2",
          "midi": 39,
          "time": 166.48662800000025,
          "velocity": 0.7874015748031497,
          "duration": 0.5405409999999904
        },
        {
          "name": "D#2",
          "midi": 39,
          "time": 167.02716900000024,
          "velocity": 0.7874015748031497,
          "duration": 0.5405409999999904
        },
        {
          "name": "D#2",
          "midi": 39,
          "time": 167.56771000000023,
          "velocity": 0.7874015748031497,
          "duration": 0.5405409999999904
        },
        {
          "name": "D#2",
          "midi": 39,
          "time": 168.10825100000022,
          "velocity": 0.7874015748031497,
          "duration": 0.5405409999999904
        },
        {
          "name": "D#2",
          "midi": 39,
          "time": 168.6487920000002,
          "velocity": 0.7874015748031497,
          "duration": 0.5405409999999904
        },
        {
          "name": "D#2",
          "midi": 39,
          "time": 169.1893330000002,
          "velocity": 0.7874015748031497,
          "duration": 0.5405409999999904
        },
        {
          "name": "D#2",
          "midi": 39,
          "time": 169.7298740000002,
          "velocity": 0.7874015748031497,
          "duration": 0.5405409999999904
        },
        {
          "name": "D#2",
          "midi": 39,
          "time": 170.27041500000018,
          "velocity": 0.7874015748031497,
          "duration": 0.5405409999999904
        },
        {
          "name": "C#2",
          "midi": 37,
          "time": 170.81095600000017,
          "velocity": 0.7874015748031497,
          "duration": 4.324328000000008
        },
        {
          "name": "D2",
          "midi": 38,
          "time": 175.13528400000018,
          "velocity": 0.7874015748031497,
          "duration": 0.1351352499999905
        },
        {
          "name": "D#2",
          "midi": 39,
          "time": 175.40555450000016,
          "velocity": 0.7874015748031497,
          "duration": 0.1351352499999905
        },
        {
          "name": "C#2",
          "midi": 37,
          "time": 175.54068975000015,
          "velocity": 0.7874015748031497,
          "duration": 0.1351352499999905
        },
        {
          "name": "D#2",
          "midi": 39,
          "time": 175.67582500000015,
          "velocity": 0.7874015748031497,
          "duration": 0.1351352499999905
        },
        {
          "name": "D2",
          "midi": 38,
          "time": 175.94609550000013,
          "velocity": 0.7874015748031497,
          "duration": 0.1351352499999905
        },
        {
          "name": "C#2",
          "midi": 37,
          "time": 176.2163660000001,
          "velocity": 0.7874015748031497,
          "duration": 0.1351352499999905
        },
        {
          "name": "D#2",
          "midi": 39,
          "time": 176.4866365000001,
          "velocity": 0.7874015748031497,
          "duration": 0.1351352499999905
        },
        {
          "name": "C#2",
          "midi": 37,
          "time": 176.75690700000007,
          "velocity": 0.7874015748031497,
          "duration": 0.1351352499999905
        },
        {
          "name": "C2",
          "midi": 36,
          "time": 177.02717750000005,
          "velocity": 0.7874015748031497,
          "duration": 0.1351352499999905
        },
        {
          "name": "C#2",
          "midi": 37,
          "time": 177.29744800000003,
          "velocity": 0.7874015748031497,
          "duration": 0.1351352499999905
        },
        {
          "name": "D#2",
          "midi": 39,
          "time": 177.5677185,
          "velocity": 0.7874015748031497,
          "duration": 0.1351352499999905
        },
        {
          "name": "C#2",
          "midi": 37,
          "time": 177.837989,
          "velocity": 0.7874015748031497,
          "duration": 0.1351352499999905
        },
        {
          "name": "D#2",
          "midi": 39,
          "time": 178.10825949999997,
          "velocity": 0.7874015748031497,
          "duration": 0.1351352499999905
        },
        {
          "name": "C#2",
          "midi": 37,
          "time": 178.37852999999996,
          "velocity": 0.7874015748031497,
          "duration": 0.1351352499999905
        },
        {
          "name": "D#2",
          "midi": 39,
          "time": 178.64880049999994,
          "velocity": 0.7874015748031497,
          "duration": 0.1351352499999905
        },
        {
          "name": "D2",
          "midi": 38,
          "time": 178.91907099999992,
          "velocity": 0.7874015748031497,
          "duration": 0.1351352499999905
        },
        {
          "name": "D#2",
          "midi": 39,
          "time": 179.0542062499999,
          "velocity": 0.7874015748031497,
          "duration": 0.1351352499999905
        },
        {
          "name": "C#2",
          "midi": 37,
          "time": 179.1893414999999,
          "velocity": 0.7874015748031497,
          "duration": 0.1351352499999905
        },
        {
          "name": "C2",
          "midi": 36,
          "time": 179.3244767499999,
          "velocity": 0.7874015748031497,
          "duration": 0.1351352499999905
        },
        {
          "name": "D2",
          "midi": 38,
          "time": 179.45961199999988,
          "velocity": 0.7874015748031497,
          "duration": 4.324328000000008
        },
        {
          "name": "C#2",
          "midi": 37,
          "time": 183.7839399999999,
          "velocity": 0.7874015748031497,
          "duration": 4.324328000000008
        },
        {
          "name": "D#2",
          "midi": 39,
          "time": 188.1082679999999,
          "velocity": 0.7874015748031497,
          "duration": 4.324328000000008
        },
        {
          "name": "D2",
          "midi": 38,
          "time": 192.4325959999999,
          "velocity": 0.7874015748031497,
          "duration": 0.1351352499999905
        },
        {
          "name": "D#2",
          "midi": 39,
          "time": 192.70286649999989,
          "velocity": 0.7874015748031497,
          "duration": 0.1351352499999905
        },
        {
          "name": "C#2",
          "midi": 37,
          "time": 192.83800174999988,
          "velocity": 0.7874015748031497,
          "duration": 0.1351352499999905
        },
        {
          "name": "D#2",
          "midi": 39,
          "time": 192.97313699999987,
          "velocity": 0.7874015748031497,
          "duration": 0.1351352499999905
        },
        {
          "name": "D2",
          "midi": 38,
          "time": 193.24340749999985,
          "velocity": 0.7874015748031497,
          "duration": 0.1351352499999905
        },
        {
          "name": "C#2",
          "midi": 37,
          "time": 193.51367799999983,
          "velocity": 0.7874015748031497,
          "duration": 0.1351352499999905
        },
        {
          "name": "D#2",
          "midi": 39,
          "time": 193.7839484999998,
          "velocity": 0.7874015748031497,
          "duration": 0.1351352499999905
        },
        {
          "name": "C#2",
          "midi": 37,
          "time": 194.0542189999998,
          "velocity": 0.7874015748031497,
          "duration": 0.1351352499999905
        },
        {
          "name": "C2",
          "midi": 36,
          "time": 194.32448949999977,
          "velocity": 0.7874015748031497,
          "duration": 0.1351352499999905
        },
        {
          "name": "C#2",
          "midi": 37,
          "time": 194.59475999999975,
          "velocity": 0.7874015748031497,
          "duration": 0.1351352499999905
        },
        {
          "name": "D#2",
          "midi": 39,
          "time": 194.86503049999973,
          "velocity": 0.7874015748031497,
          "duration": 0.1351352499999905
        },
        {
          "name": "C#2",
          "midi": 37,
          "time": 195.1353009999997,
          "velocity": 0.7874015748031497,
          "duration": 0.1351352499999905
        },
        {
          "name": "D#2",
          "midi": 39,
          "time": 195.4055714999997,
          "velocity": 0.7874015748031497,
          "duration": 0.1351352499999905
        },
        {
          "name": "C#2",
          "midi": 37,
          "time": 195.67584199999968,
          "velocity": 0.7874015748031497,
          "duration": 0.1351352499999905
        },
        {
          "name": "D#2",
          "midi": 39,
          "time": 195.94611249999966,
          "velocity": 0.7874015748031497,
          "duration": 0.1351352499999905
        },
        {
          "name": "D2",
          "midi": 38,
          "time": 196.21638299999964,
          "velocity": 0.7874015748031497,
          "duration": 0.1351352499999905
        },
        {
          "name": "D#2",
          "midi": 39,
          "time": 196.35151824999963,
          "velocity": 0.7874015748031497,
          "duration": 0.1351352499999905
        },
        {
          "name": "C#2",
          "midi": 37,
          "time": 196.48665349999962,
          "velocity": 0.7874015748031497,
          "duration": 0.1351352499999905
        },
        {
          "name": "C2",
          "midi": 36,
          "time": 196.6217887499996,
          "velocity": 0.7874015748031497,
          "duration": 0.1351352499999905
        },
        {
          "name": "D2",
          "midi": 38,
          "time": 196.7569239999996,
          "velocity": 0.7874015748031497,
          "duration": 4.324328000000008
        },
        {
          "name": "D#2",
          "midi": 39,
          "time": 201.0812519999996,
          "velocity": 0.7874015748031497,
          "duration": 4.324328000000008
        },
        {
          "name": "C#2",
          "midi": 37,
          "time": 205.40557999999962,
          "velocity": 0.7874015748031497,
          "duration": 4.324328000000008
        },
        {
          "name": "D#2",
          "midi": 39,
          "time": 210.00017849999963,
          "velocity": 0.7874015748031497,
          "duration": 0.5405409999999904
        },
        {
          "name": "C#2",
          "midi": 37,
          "time": 210.54071949999962,
          "velocity": 0.7874015748031497,
          "duration": 0.5405409999999904
        },
        {
          "name": "D2",
          "midi": 38,
          "time": 211.08126049999962,
          "velocity": 0.7874015748031497,
          "duration": 0.5405409999999904
        },
        {
          "name": "C2",
          "midi": 36,
          "time": 211.6218014999996,
          "velocity": 0.7874015748031497,
          "duration": 0.5405409999999904
        },
        {
          "name": "D#2",
          "midi": 39,
          "time": 212.1623424999996,
          "velocity": 0.7874015748031497,
          "duration": 0.5405409999999904
        },
        {
          "name": "C#2",
          "midi": 37,
          "time": 212.7028834999996,
          "velocity": 0.7874015748031497,
          "duration": 0.5405409999999904
        },
        {
          "name": "D2",
          "midi": 38,
          "time": 213.24342449999958,
          "velocity": 0.7874015748031497,
          "duration": 0.5405409999999904
        },
        {
          "name": "C2",
          "midi": 36,
          "time": 213.78396549999957,
          "velocity": 0.7874015748031497,
          "duration": 0.5405409999999904
        },
        {
          "name": "D#2",
          "midi": 39,
          "time": 214.32450649999956,
          "velocity": 0.7874015748031497,
          "duration": 0.5405409999999904
        },
        {
          "name": "C#2",
          "midi": 37,
          "time": 214.86504749999955,
          "velocity": 0.7874015748031497,
          "duration": 0.5405409999999904
        },
        {
          "name": "D2",
          "midi": 38,
          "time": 215.40558849999954,
          "velocity": 0.7874015748031497,
          "duration": 0.5405409999999904
        },
        {
          "name": "C2",
          "midi": 36,
          "time": 215.94612949999953,
          "velocity": 0.7874015748031497,
          "duration": 0.5405409999999904
        },
        {
          "name": "D#2",
          "midi": 39,
          "time": 216.48667049999952,
          "velocity": 0.7874015748031497,
          "duration": 0.5405409999999904
        },
        {
          "name": "C#2",
          "midi": 37,
          "time": 217.0272114999995,
          "velocity": 0.7874015748031497,
          "duration": 0.5405409999999904
        },
        {
          "name": "D2",
          "midi": 38,
          "time": 217.5677524999995,
          "velocity": 0.7874015748031497,
          "duration": 0.5405409999999904
        },
        {
          "name": "C2",
          "midi": 36,
          "time": 218.1082934999995,
          "velocity": 0.7874015748031497,
          "duration": 0.2702705000000094
        },
        {
          "name": "D2",
          "midi": 38,
          "time": 218.3785639999995,
          "velocity": 0.7874015748031497,
          "duration": 4.324328000000008
        },
        {
          "name": "C2",
          "midi": 36,
          "time": 222.7028919999995,
          "velocity": 0.7874015748031497,
          "duration": 4.324328000000008
        },
        {
          "name": "C2",
          "midi": 36,
          "time": 227.1623552499995,
          "velocity": 0.7874015748031497,
          "duration": 0.1351352499999905
        },
        {
          "name": "D2",
          "midi": 38,
          "time": 227.5677609999995,
          "velocity": 0.7874015748031497,
          "duration": 0.1351352499999905
        },
        {
          "name": "C#2",
          "midi": 37,
          "time": 228.1083019999995,
          "velocity": 0.7874015748031497,
          "duration": 0.1351352499999905
        },
        {
          "name": "D#2",
          "midi": 39,
          "time": 228.5137077499995,
          "velocity": 0.7874015748031497,
          "duration": 0.1351352499999905
        },
        {
          "name": "C2",
          "midi": 36,
          "time": 229.3245192499995,
          "velocity": 0.7874015748031497,
          "duration": 0.1351352499999905
        },
        {
          "name": "D2",
          "midi": 38,
          "time": 229.7299249999995,
          "velocity": 0.7874015748031497,
          "duration": 0.1351352499999905
        },
        {
          "name": "C#2",
          "midi": 37,
          "time": 230.2704659999995,
          "velocity": 0.7874015748031497,
          "duration": 0.1351352499999905
        },
        {
          "name": "D#2",
          "midi": 39,
          "time": 230.6758717499995,
          "velocity": 0.7874015748031497,
          "duration": 0.1351352499999905
        },
        {
          "name": "D#2",
          "midi": 39,
          "time": 231.0812774999995,
          "velocity": 0.7874015748031497,
          "duration": 0.1351352499999905
        },
        {
          "name": "C2",
          "midi": 36,
          "time": 231.35154799999947,
          "velocity": 0.7874015748031497,
          "duration": 4.324328000000008
        },
        {
          "name": "D2",
          "midi": 38,
          "time": 235.67587599999948,
          "velocity": 0.7874015748031497,
          "duration": 4.324328000000008
        },
        {
          "name": "C2",
          "midi": 36,
          "time": 240.00020399999948,
          "velocity": 0.7874015748031497,
          "duration": 4.324328000000008
        },
        {
          "name": "D2",
          "midi": 38,
          "time": 244.3245319999995,
          "velocity": 0.7874015748031497,
          "duration": 0.2702705000000094
        },
        {
          "name": "C2",
          "midi": 36,
          "time": 244.8650729999995,
          "velocity": 0.7874015748031497,
          "duration": 0.2702705000000094
        },
        {
          "name": "D#2",
          "midi": 39,
          "time": 245.40561399999953,
          "velocity": 0.7874015748031497,
          "duration": 0.2702705000000094
        },
        {
          "name": "C#2",
          "midi": 37,
          "time": 245.94615499999955,
          "velocity": 0.7874015748031497,
          "duration": 0.2702705000000094
        },
        {
          "name": "D2",
          "midi": 38,
          "time": 246.48669599999957,
          "velocity": 0.7874015748031497,
          "duration": 0.2702705000000094
        },
        {
          "name": "C2",
          "midi": 36,
          "time": 247.0272369999996,
          "velocity": 0.7874015748031497,
          "duration": 0.2702705000000094
        },
        {
          "name": "D#2",
          "midi": 39,
          "time": 247.5677779999996,
          "velocity": 0.7874015748031497,
          "duration": 0.2702705000000094
        },
        {
          "name": "C#2",
          "midi": 37,
          "time": 248.10831899999963,
          "velocity": 0.7874015748031497,
          "duration": 0.2702705000000094
        },
        {
          "name": "D2",
          "midi": 38,
          "time": 248.64885999999964,
          "velocity": 0.7874015748031497,
          "duration": 0.2702705000000094
        },
        {
          "name": "C2",
          "midi": 36,
          "time": 249.18940099999966,
          "velocity": 0.7874015748031497,
          "duration": 0.2702705000000094
        },
        {
          "name": "D#2",
          "midi": 39,
          "time": 249.72994199999968,
          "velocity": 0.7874015748031497,
          "duration": 0.2702705000000094
        },
        {
          "name": "C#2",
          "midi": 37,
          "time": 250.2704829999997,
          "velocity": 0.7874015748031497,
          "duration": 0.2702705000000094
        },
        {
          "name": "D2",
          "midi": 38,
          "time": 250.81102399999972,
          "velocity": 0.7874015748031497,
          "duration": 0.2702705000000094
        },
        {
          "name": "C2",
          "midi": 36,
          "time": 251.35156499999974,
          "velocity": 0.7874015748031497,
          "duration": 0.2702705000000094
        },
        {
          "name": "D#2",
          "midi": 39,
          "time": 251.89210599999976,
          "velocity": 0.7874015748031497,
          "duration": 0.2702705000000094
        },
        {
          "name": "C#2",
          "midi": 37,
          "time": 252.43264699999978,
          "velocity": 0.7874015748031497,
          "duration": 0.2702705000000094
        },
        {
          "name": "D2",
          "midi": 38,
          "time": 252.9731879999998,
          "velocity": 0.7874015748031497,
          "duration": 4.324328000000008
        },
        {
          "name": "C#2",
          "midi": 37,
          "time": 257.2975159999998,
          "velocity": 0.7874015748031497,
          "duration": 4.32432799999998
        },
        {
          "name": "D#2",
          "midi": 39,
          "time": 261.6218439999998,
          "velocity": 0.7874015748031497,
          "duration": 4.32432799999998
        },
        {
          "name": "C2",
          "midi": 36,
          "time": 265.94617199999976,
          "velocity": 0.7874015748031497,
          "duration": 4.32432799999998
        }
      ],
      "controlChanges": {
        "7": [
          {
            "number": 7,
            "time": 0,
            "value": 1
          }
        ],
        "32": [
          {
            "number": 32,
            "time": 0,
            "value": 0
          }
        ],
        "127": [
          {
            "number": 127,
            "time": 304.8650888085284,
            "value": 0
          }
        ]
      },
      "id": 1,
      "name": "Midi Coding",
      "instrumentNumber": 0,
      "instrument": "acoustic grand piano",
      "instrumentFamily": "piano",
      "channelNumber": 0,
      "isPercussion": false
    }
  ]
}