{
  "header": {
    "PPQ": 96,
    "bpm": 122.99996925000768,
    "timeSignature": [
      4,
      4
    ],
    "name": "Wisp",
    "artist": "9Hour",
    "difficulty": "8"
  },
  "tempo": [
    {
      "absoluteTime": 0,
      "seconds": 0,
      "bpm": 122.99996925000768
    }
  ],
  "timeSignature": [
    {
      "absoluteTime": 0,
      "seconds": 0,
      "numerator": 4,
      "denominator": 2,
      "click": 24,
      "notesQ": 8
    }
  ],
  "startTime": 0,
  "duration": 155.85369750000012,
  "tracks": [
    {
      "startTime": 0,
      "duration": 0,
      "length": 0,
      "notes": [],
      "controlChanges": {},
      "id": 0,
      "name": "Untitled"
    },
    {
      "startTime": 3.9024400000000004,
      "duration": 155.85369750000012,
      "length": 241,
      "notes": [
        {
          "name": "C#2",
          "midi": 37,
          "time": 3.9024400000000004,
          "velocity": 0.7874015748031497,
          "duration": 17.073175000000006
        },
        {
          "name": "D2",
          "midi": 38,
          "time": 21.219517500000006,
          "velocity": 0.7874015748031497,
          "duration": 0.7317074999999988
        },
        {
          "name": "D2",
          "midi": 38,
          "time": 25.121957500000004,
          "velocity": 0.7874015748031497,
          "duration": 0.7317074999999988
        },
        {
          "name": "D2",
          "midi": 38,
          "time": 29.024397500000003,
          "velocity": 0.7874015748031497,
          "duration": 0.7317074999999988
        },
        {
          "name": "D2",
          "midi": 38,
          "time": 32.926837500000005,
          "velocity": 0.7874015748031497,
          "duration": 0.7317074999999988
        },
        {
          "name": "C2",
          "midi": 36,
          "time": 35.365862500000006,
          "velocity": 0.7874015748031497,
          "duration": 0.24390249999999725
        },
        {
          "name": "D2",
          "midi": 38,
          "time": 36.097570000000005,
          "velocity": 0.7874015748031497,
          "duration": 0.24390249999999725
        },
        {
          "name": "C2",
          "midi": 36,
          "time": 37.317082500000005,
          "velocity": 0.7874015748031497,
          "duration": 0.24390249999999725
        },
        {
          "name": "D#2",
          "midi": 39,
          "time": 38.048790000000004,
          "velocity": 0.7874015748031497,
          "duration": 0.24390249999999725
        },
        {
          "name": "C2",
          "midi": 36,
          "time": 39.268302500000004,
          "velocity": 0.7874015748031497,
          "duration": 0.24390249999999725
        },
        {
          "name": "D2",
          "midi": 38,
          "time": 40.00001,
          "velocity": 0.7874015748031497,
          "duration": 0.24390249999999725
        },
        {
          "name": "C2",
          "midi": 36,
          "time": 41.219522500000004,
          "velocity": 0.7874015748031497,
          "duration": 0.24390249999999725
        },
        {
          "name": "C#2",
          "midi": 37,
          "time": 41.463425,
          "velocity": 0.7874015748031497,
          "duration": 0.24390249999999725
        },
        {
          "name": "D#2",
          "midi": 39,
          "time": 41.951229999999995,
          "velocity": 0.7874015748031497,
          "duration": 0.24390249999999725
        },
        {
          "name": "C2",
          "midi": 36,
          "time": 43.170742499999996,
          "velocity": 0.7874015748031497,
          "duration": 0.24390249999999725
        },
        {
          "name": "D#2",
          "midi": 39,
          "time": 43.902449999999995,
          "velocity": 0.7874015748031497,
          "duration": 0.24390249999999725
        },
        {
          "name": "C2",
          "midi": 36,
          "time": 45.121962499999995,
          "velocity": 0.7874015748031497,
          "duration": 0.24390249999999725
        },
        {
          "name": "D#2",
          "midi": 39,
          "time": 45.853669999999994,
          "velocity": 0.7874015748031497,
          "duration": 0.24390249999999725
        },
        {
          "name": "C2",
          "midi": 36,
          "time": 47.073182499999994,
          "velocity": 0.7874015748031497,
          "duration": 0.24390249999999725
        },
        {
          "name": "D#2",
          "midi": 39,
          "time": 47.80488999999999,
          "velocity": 0.7874015748031497,
          "duration": 0.24390249999999725
        },
        {
          "name": "C2",
          "midi": 36,
          "time": 49.024402499999994,
          "velocity": 0.7874015748031497,
          "duration": 0.24390249999999725
        },
        {
          "name": "D2",
          "midi": 38,
          "time": 49.26830499999999,
          "velocity": 0.7874015748031497,
          "duration": 0.24390249999999725
        },
        {
          "name": "D#2",
          "midi": 39,
          "time": 49.756109999999985,
          "velocity": 0.7874015748031497,
          "duration": 0.24390249999999725
        },
        {
          "name": "D2",
          "midi": 38,
          "time": 51.46342749999998,
          "velocity": 0.7874015748031497,
          "duration": 0.24390249999999725
        },
        {
          "name": "C#2",
          "midi": 37,
          "time": 51.70732999999998,
          "velocity": 0.7874015748031497,
          "duration": 0.24390249999999725
        },
        {
          "name": "D2",
          "midi": 38,
          "time": 52.439037499999976,
          "velocity": 0.7874015748031497,
          "duration": 0.24390249999999725
        },
        {
          "name": "C2",
          "midi": 36,
          "time": 52.682939999999974,
          "velocity": 0.7874015748031497,
          "duration": 0.24390249999999725
        },
        {
          "name": "D2",
          "midi": 38,
          "time": 53.41464749999997,
          "velocity": 0.7874015748031497,
          "duration": 0.24390249999999725
        },
        {
          "name": "C#2",
          "midi": 37,
          "time": 53.65854999999997,
          "velocity": 0.7874015748031497,
          "duration": 0.24390249999999725
        },
        {
          "name": "D2",
          "midi": 38,
          "time": 54.39025749999997,
          "velocity": 0.7874015748031497,
          "duration": 0.24390249999999725
        },
        {
          "name": "C2",
          "midi": 36,
          "time": 54.634159999999966,
          "velocity": 0.7874015748031497,
          "duration": 0.24390249999999725
        },
        {
          "name": "D2",
          "midi": 38,
          "time": 55.365867499999965,
          "velocity": 0.7874015748031497,
          "duration": 0.24390249999999725
        },
        {
          "name": "C#2",
          "midi": 37,
          "time": 55.60976999999996,
          "velocity": 0.7874015748031497,
          "duration": 0.24390249999999725
        },
        {
          "name": "D2",
          "midi": 38,
          "time": 56.34147749999996,
          "velocity": 0.7874015748031497,
          "duration": 0.24390249999999725
        },
        {
          "name": "D2",
          "midi": 38,
          "time": 57.31708749999996,
          "velocity": 0.7874015748031497,
          "duration": 0.24390249999999725
        },
        {
          "name": "C#2",
          "midi": 37,
          "time": 57.560989999999954,
          "velocity": 0.7874015748031497,
          "duration": 0.24390249999999725
        },
        {
          "name": "D2",
          "midi": 38,
          "time": 58.29269749999995,
          "velocity": 0.7874015748031497,
          "duration": 0.24390249999999725
        },
        {
          "name": "C2",
          "midi": 36,
          "time": 58.53659999999995,
          "velocity": 0.7874015748031497,
          "duration": 0.24390249999999725
        },
        {
          "name": "D2",
          "midi": 38,
          "time": 59.26830749999995,
          "velocity": 0.7874015748031497,
          "duration": 0.24390249999999725
        },
        {
          "name": "C#2",
          "midi": 37,
          "time": 59.512209999999946,
          "velocity": 0.7874015748031497,
          "duration": 0.24390249999999725
        },
        {
          "name": "D2",
          "midi": 38,
          "time": 60.243917499999945,
          "velocity": 0.7874015748031497,
          "duration": 0.24390249999999725
        },
        {
          "name": "D2",
          "midi": 38,
          "time": 61.21952749999994,
          "velocity": 0.7874015748031497,
          "duration": 0.24390249999999725
        },
        {
          "name": "C#2",
          "midi": 37,
          "time": 61.46342999999994,
          "velocity": 0.7874015748031497,
          "duration": 0.24390249999999725
        },
        {
          "name": "D2",
          "midi": 38,
          "time": 62.19513749999994,
          "velocity": 0.7874015748031497,
          "duration": 0.24390249999999725
        },
        {
          "name": "C2",
          "midi": 36,
          "time": 62.439039999999935,
          "velocity": 0.7874015748031497,
          "duration": 0.24390249999999725
        },
        {
          "name": "D2",
          "midi": 38,
          "time": 63.17074749999993,
          "velocity": 0.7874015748031497,
          "duration": 0.24390249999999725
        },
        {
          "name": "D#2",
          "midi": 39,
          "time": 63.41464999999993,
          "velocity": 0.7874015748031497,
          "duration": 0.24390249999999725
        },
        {
          "name": "D2",
          "midi": 38,
          "time": 64.14635749999992,
          "velocity": 0.7874015748031497,
          "duration": 0.24390250000000435
        },
        {
          "name": "C2",
          "midi": 36,
          "time": 64.87806499999992,
          "velocity": 0.7874015748031497,
          "duration": 0.24390250000000435
        },
        {
          "name": "D2",
          "midi": 38,
          "time": 65.12196749999993,
          "velocity": 0.7874015748031497,
          "duration": 0.24390250000000435
        },
        {
          "name": "C#2",
          "midi": 37,
          "time": 65.36586999999993,
          "velocity": 0.7874015748031497,
          "duration": 0.24390250000000435
        },
        {
          "name": "D2",
          "midi": 38,
          "time": 66.09757749999993,
          "velocity": 0.7874015748031497,
          "duration": 0.24390250000000435
        },
        {
          "name": "C2",
          "midi": 36,
          "time": 66.34147999999993,
          "velocity": 0.7874015748031497,
          "duration": 0.24390250000000435
        },
        {
          "name": "D2",
          "midi": 38,
          "time": 67.07318749999993,
          "velocity": 0.7874015748031497,
          "duration": 0.24390250000000435
        },
        {
          "name": "D#2",
          "midi": 39,
          "time": 67.31708999999994,
          "velocity": 0.7874015748031497,
          "duration": 0.24390250000000435
        },
        {
          "name": "D2",
          "midi": 38,
          "time": 68.04879749999994,
          "velocity": 0.7874015748031497,
          "duration": 0.24390250000000435
        },
        {
          "name": "D2",
          "midi": 38,
          "time": 69.02440749999994,
          "velocity": 0.7874015748031497,
          "duration": 0.24390250000000435
        },
        {
          "name": "C#2",
          "midi": 37,
          "time": 69.26830999999994,
          "velocity": 0.7874015748031497,
          "duration": 0.24390250000000435
        },
        {
          "name": "D2",
          "midi": 38,
          "time": 70.00001749999994,
          "velocity": 0.7874015748031497,
          "duration": 0.24390250000000435
        },
        {
          "name": "C2",
          "midi": 36,
          "time": 70.24391999999995,
          "velocity": 0.7874015748031497,
          "duration": 0.24390250000000435
        },
        {
          "name": "D2",
          "midi": 38,
          "time": 70.97562749999994,
          "velocity": 0.7874015748031497,
          "duration": 0.24390250000000435
        },
        {
          "name": "D#2",
          "midi": 39,
          "time": 71.21952999999995,
          "velocity": 0.7874015748031497,
          "duration": 0.24390250000000435
        },
        {
          "name": "D2",
          "midi": 38,
          "time": 71.95123749999995,
          "velocity": 0.7874015748031497,
          "duration": 0.24390250000000435
        },
        {
          "name": "C2",
          "midi": 36,
          "time": 72.68294499999995,
          "velocity": 0.7874015748031497,
          "duration": 0.24390250000000435
        },
        {
          "name": "D2",
          "midi": 38,
          "time": 72.92684749999995,
          "velocity": 0.7874015748031497,
          "duration": 0.24390250000000435
        },
        {
          "name": "C#2",
          "midi": 37,
          "time": 73.17074999999996,
          "velocity": 0.7874015748031497,
          "duration": 0.24390250000000435
        },
        {
          "name": "D2",
          "midi": 38,
          "time": 73.90245749999995,
          "velocity": 0.7874015748031497,
          "duration": 0.24390250000000435
        },
        {
          "name": "C2",
          "midi": 36,
          "time": 74.14635999999996,
          "velocity": 0.7874015748031497,
          "duration": 0.24390250000000435
        },
        {
          "name": "D2",
          "midi": 38,
          "time": 74.87806749999996,
          "velocity": 0.7874015748031497,
          "duration": 0.24390250000000435
        },
        {
          "name": "D#2",
          "midi": 39,
          "time": 75.12196999999996,
          "velocity": 0.7874015748031497,
          "duration": 0.24390250000000435
        },
        {
          "name": "D2",
          "midi": 38,
          "time": 75.85367749999996,
          "velocity": 0.7874015748031497,
          "duration": 0.24390250000000435
        },
        {
          "name": "D2",
          "midi": 38,
          "time": 76.82928749999996,
          "velocity": 0.7874015748031497,
          "duration": 0.24390250000000435
        },
        {
          "name": "C#2",
          "midi": 37,
          "time": 77.07318999999997,
          "velocity": 0.7874015748031497,
          "duration": 0.24390250000000435
        },
        {
          "name": "D2",
          "midi": 38,
          "time": 77.80489749999997,
          "velocity": 0.7874015748031497,
          "duration": 0.24390250000000435
        },
        {
          "name": "D2",
          "midi": 38,
          "time": 78.29270249999998,
          "velocity": 0.7874015748031497,
          "duration": 0.24390250000000435
        },
        {
          "name": "D#2",
          "midi": 39,
          "time": 79.02440999999997,
          "velocity": 0.7874015748031497,
          "duration": 0.24390250000000435
        },
        {
          "name": "D2",
          "midi": 38,
          "time": 80.00001999999998,
          "velocity": 0.7874015748031497,
          "duration": 0.24390250000000435
        },
        {
          "name": "D2",
          "midi": 38,
          "time": 80.24392249999998,
          "velocity": 0.7874015748031497,
          "duration": 0.24390250000000435
        },
        {
          "name": "D2",
          "midi": 38,
          "time": 80.48782499999999,
          "velocity": 0.7874015748031497,
          "duration": 0.24390250000000435
        },
        {
          "name": "D2",
          "midi": 38,
          "time": 80.73172749999999,
          "velocity": 0.7874015748031497,
          "duration": 0.24390250000000435
        },
        {
          "name": "D2",
          "midi": 38,
          "time": 80.97563,
          "velocity": 0.7874015748031497,
          "duration": 0.24390250000000435
        },
        {
          "name": "D2",
          "midi": 38,
          "time": 81.2195325,
          "velocity": 0.7874015748031497,
          "duration": 0.24390250000000435
        },
        {
          "name": "D2",
          "midi": 38,
          "time": 81.463435,
          "velocity": 0.7874015748031497,
          "duration": 0.24390250000000435
        },
        {
          "name": "D2",
          "midi": 38,
          "time": 81.70733750000001,
          "velocity": 0.7874015748031497,
          "duration": 0.24390250000000435
        },
        {
          "name": "D2",
          "midi": 38,
          "time": 81.95124000000001,
          "velocity": 0.7874015748031497,
          "duration": 0.4878049999999945
        },
        {
          "name": "C2",
          "midi": 36,
          "time": 82.43904500000001,
          "velocity": 0.7874015748031497,
          "duration": 0.4878049999999945
        },
        {
          "name": "D2",
          "midi": 38,
          "time": 82.92685,
          "velocity": 0.7874015748031497,
          "duration": 0.4878049999999945
        },
        {
          "name": "D2",
          "midi": 38,
          "time": 83.414655,
          "velocity": 0.7874015748031497,
          "duration": 0.4878049999999945
        },
        {
          "name": "D2",
          "midi": 38,
          "time": 83.90245999999999,
          "velocity": 0.7874015748031497,
          "duration": 0.4878049999999945
        },
        {
          "name": "C2",
          "midi": 36,
          "time": 84.39026499999999,
          "velocity": 0.7874015748031497,
          "duration": 0.4878049999999945
        },
        {
          "name": "D2",
          "midi": 38,
          "time": 84.87806999999998,
          "velocity": 0.7874015748031497,
          "duration": 0.4878049999999945
        },
        {
          "name": "D2",
          "midi": 38,
          "time": 85.36587499999997,
          "velocity": 0.7874015748031497,
          "duration": 0.4878049999999945
        },
        {
          "name": "D2",
          "midi": 38,
          "time": 85.85367999999997,
          "velocity": 0.7874015748031497,
          "duration": 0.4878049999999945
        },
        {
          "name": "C2",
          "midi": 36,
          "time": 86.34148499999996,
          "velocity": 0.7874015748031497,
          "duration": 0.4878049999999945
        },
        {
          "name": "D2",
          "midi": 38,
          "time": 86.82928999999996,
          "velocity": 0.7874015748031497,
          "duration": 0.4878049999999945
        },
        {
          "name": "D2",
          "midi": 38,
          "time": 87.31709499999995,
          "velocity": 0.7874015748031497,
          "duration": 0.4878049999999945
        },
        {
          "name": "D2",
          "midi": 38,
          "time": 87.80489999999995,
          "velocity": 0.7874015748031497,
          "duration": 0.4878049999999945
        },
        {
          "name": "C2",
          "midi": 36,
          "time": 88.29270499999994,
          "velocity": 0.7874015748031497,
          "duration": 0.4878049999999945
        },
        {
          "name": "D2",
          "midi": 38,
          "time": 88.78050999999994,
          "velocity": 0.7874015748031497,
          "duration": 0.4878049999999945
        },
        {
          "name": "D2",
          "midi": 38,
          "time": 89.26831499999993,
          "velocity": 0.7874015748031497,
          "duration": 0.24390250000000435
        },
        {
          "name": "D#2",
          "midi": 39,
          "time": 89.51221749999993,
          "velocity": 0.7874015748031497,
          "duration": 0.24390250000000435
        },
        {
          "name": "D2",
          "midi": 38,
          "time": 89.75611999999994,
          "velocity": 0.7874015748031497,
          "duration": 0.4878050000000087
        },
        {
          "name": "D#2",
          "midi": 39,
          "time": 90.00002249999994,
          "velocity": 0.7874015748031497,
          "duration": 0.24390250000000435
        },
        {
          "name": "C2",
          "midi": 36,
          "time": 90.24392499999995,
          "velocity": 0.7874015748031497,
          "duration": 0.24390250000000435
        },
        {
          "name": "D2",
          "midi": 38,
          "time": 90.73172999999996,
          "velocity": 0.7874015748031497,
          "duration": 0.4878049999999945
        },
        {
          "name": "D2",
          "midi": 38,
          "time": 91.21953499999995,
          "velocity": 0.7874015748031497,
          "duration": 0.23882119791666412
        },
        {
          "name": "C2",
          "midi": 36,
          "time": 91.46343749999996,
          "velocity": 0.7874015748031497,
          "duration": 0.24390250000000435
        },
        {
          "name": "D2",
          "midi": 38,
          "time": 91.70733999999996,
          "velocity": 0.7874015748031497,
          "duration": 0.4878049999999945
        },
        {
          "name": "C2",
          "midi": 36,
          "time": 92.19514499999995,
          "velocity": 0.7874015748031497,
          "duration": 0.4878049999999945
        },
        {
          "name": "D2",
          "midi": 38,
          "time": 92.68294999999995,
          "velocity": 0.7874015748031497,
          "duration": 0.4878049999999945
        },
        {
          "name": "D2",
          "midi": 38,
          "time": 93.17075499999994,
          "velocity": 0.7874015748031497,
          "duration": 0.24390250000000435
        },
        {
          "name": "D#2",
          "midi": 39,
          "time": 93.41465749999995,
          "velocity": 0.7874015748031497,
          "duration": 0.24390250000000435
        },
        {
          "name": "D2",
          "midi": 38,
          "time": 93.65855999999995,
          "velocity": 0.7874015748031497,
          "duration": 0.24390250000000435
        },
        {
          "name": "D#2",
          "midi": 39,
          "time": 93.90246249999996,
          "velocity": 0.7874015748031497,
          "duration": 0.24390250000000435
        },
        {
          "name": "C2",
          "midi": 36,
          "time": 94.14636499999996,
          "velocity": 0.7874015748031497,
          "duration": 0.24390250000000435
        },
        {
          "name": "D#2",
          "midi": 39,
          "time": 94.39026749999996,
          "velocity": 0.7874015748031497,
          "duration": 0.24390250000000435
        },
        {
          "name": "D2",
          "midi": 38,
          "time": 94.63416999999997,
          "velocity": 0.7874015748031497,
          "duration": 0.4878049999999945
        },
        {
          "name": "D2",
          "midi": 38,
          "time": 95.12197499999996,
          "velocity": 0.7874015748031497,
          "duration": 0.23882119791666412
        },
        {
          "name": "C2",
          "midi": 36,
          "time": 95.36587749999997,
          "velocity": 0.7874015748031497,
          "duration": 0.24390250000000435
        },
        {
          "name": "D2",
          "midi": 38,
          "time": 95.60977999999997,
          "velocity": 0.7874015748031497,
          "duration": 0.24390250000000435
        },
        {
          "name": "D#2",
          "midi": 39,
          "time": 95.85368249999998,
          "velocity": 0.7874015748031497,
          "duration": 0.24390250000000435
        },
        {
          "name": "C2",
          "midi": 36,
          "time": 96.09758499999998,
          "velocity": 0.7874015748031497,
          "duration": 0.4878049999999945
        },
        {
          "name": "D2",
          "midi": 38,
          "time": 96.58538999999998,
          "velocity": 0.7874015748031497,
          "duration": 0.4878049999999945
        },
        {
          "name": "D2",
          "midi": 38,
          "time": 97.07319499999997,
          "velocity": 0.7874015748031497,
          "duration": 0.24390250000000435
        },
        {
          "name": "D#2",
          "midi": 39,
          "time": 97.31709749999997,
          "velocity": 0.7874015748031497,
          "duration": 0.24390250000000435
        },
        {
          "name": "D2",
          "midi": 38,
          "time": 97.56099999999998,
          "velocity": 0.7874015748031497,
          "duration": 0.24390250000000435
        },
        {
          "name": "D#2",
          "midi": 39,
          "time": 97.80490249999998,
          "velocity": 0.7874015748031497,
          "duration": 0.24390250000000435
        },
        {
          "name": "C2",
          "midi": 36,
          "time": 98.04880499999999,
          "velocity": 0.7874015748031497,
          "duration": 0.24390250000000435
        },
        {
          "name": "D#2",
          "midi": 39,
          "time": 98.29270749999999,
          "velocity": 0.7874015748031497,
          "duration": 0.24390250000000435
        },
        {
          "name": "D2",
          "midi": 38,
          "time": 98.53661,
          "velocity": 0.7874015748031497,
          "duration": 0.4878049999999945
        },
        {
          "name": "D2",
          "midi": 38,
          "time": 99.02441499999999,
          "velocity": 0.7874015748031497,
          "duration": 0.23882119791666412
        },
        {
          "name": "C#2",
          "midi": 37,
          "time": 99.2683175,
          "velocity": 0.7874015748031497,
          "duration": 0.24390250000000435
        },
        {
          "name": "C2",
          "midi": 36,
          "time": 100.000025,
          "velocity": 0.7874015748031497,
          "duration": 0.4878049999999945
        },
        {
          "name": "D2",
          "midi": 38,
          "time": 100.48782999999999,
          "velocity": 0.7874015748031497,
          "duration": 0.4878049999999945
        },
        {
          "name": "D2",
          "midi": 38,
          "time": 100.97563499999998,
          "velocity": 0.7874015748031497,
          "duration": 0.24390250000000435
        },
        {
          "name": "D#2",
          "midi": 39,
          "time": 101.21953749999999,
          "velocity": 0.7874015748031497,
          "duration": 0.24390250000000435
        },
        {
          "name": "D2",
          "midi": 38,
          "time": 101.46343999999999,
          "velocity": 0.7874015748031497,
          "duration": 0.24390250000000435
        },
        {
          "name": "D#2",
          "midi": 39,
          "time": 101.7073425,
          "velocity": 0.7874015748031497,
          "duration": 0.24390250000000435
        },
        {
          "name": "C2",
          "midi": 36,
          "time": 101.951245,
          "velocity": 0.7874015748031497,
          "duration": 0.24390250000000435
        },
        {
          "name": "D#2",
          "midi": 39,
          "time": 102.1951475,
          "velocity": 0.7874015748031497,
          "duration": 0.24390250000000435
        },
        {
          "name": "D2",
          "midi": 38,
          "time": 102.43905000000001,
          "velocity": 0.7874015748031497,
          "duration": 0.4878049999999945
        },
        {
          "name": "D2",
          "midi": 38,
          "time": 102.926855,
          "velocity": 0.7874015748031497,
          "duration": 0.23882119791666412
        },
        {
          "name": "C2",
          "midi": 36,
          "time": 103.17075750000001,
          "velocity": 0.7874015748031497,
          "duration": 0.24390250000000435
        },
        {
          "name": "D2",
          "midi": 38,
          "time": 103.41466000000001,
          "velocity": 0.7874015748031497,
          "duration": 0.24390250000000435
        },
        {
          "name": "D#2",
          "midi": 39,
          "time": 103.65856250000002,
          "velocity": 0.7874015748031497,
          "duration": 0.24390250000000435
        },
        {
          "name": "C2",
          "midi": 36,
          "time": 103.90246500000002,
          "velocity": 0.7874015748031497,
          "duration": 0.4878049999999945
        },
        {
          "name": "D2",
          "midi": 38,
          "time": 104.39027000000002,
          "velocity": 0.7874015748031497,
          "duration": 0.4878049999999945
        },
        {
          "name": "D2",
          "midi": 38,
          "time": 104.87807500000001,
          "velocity": 0.7874015748031497,
          "duration": 0.24390250000000435
        },
        {
          "name": "D#2",
          "midi": 39,
          "time": 105.12197750000001,
          "velocity": 0.7874015748031497,
          "duration": 0.24390250000000435
        },
        {
          "name": "D2",
          "midi": 38,
          "time": 105.36588000000002,
          "velocity": 0.7874015748031497,
          "duration": 0.24390250000000435
        },
        {
          "name": "C#2",
          "midi": 37,
          "time": 105.60978250000002,
          "velocity": 0.7874015748031497,
          "duration": 0.24390250000000435
        },
        {
          "name": "C2",
          "midi": 36,
          "time": 105.85368500000003,
          "velocity": 0.7874015748031497,
          "duration": 0.24390250000000435
        },
        {
          "name": "D#2",
          "midi": 39,
          "time": 106.09758750000003,
          "velocity": 0.7874015748031497,
          "duration": 0.24390250000000435
        },
        {
          "name": "D2",
          "midi": 38,
          "time": 106.34149000000004,
          "velocity": 0.7874015748031497,
          "duration": 0.4878049999999945
        },
        {
          "name": "D2",
          "midi": 38,
          "time": 106.82929500000003,
          "velocity": 0.7874015748031497,
          "duration": 0.23882119791666412
        },
        {
          "name": "D#2",
          "midi": 39,
          "time": 107.07319750000003,
          "velocity": 0.7874015748031497,
          "duration": 0.24390250000000435
        },
        {
          "name": "D2",
          "midi": 38,
          "time": 107.31710000000004,
          "velocity": 0.7874015748031497,
          "duration": 0.24390250000000435
        },
        {
          "name": "D#2",
          "midi": 39,
          "time": 107.56100250000004,
          "velocity": 0.7874015748031497,
          "duration": 0.24390250000000435
        },
        {
          "name": "C2",
          "midi": 36,
          "time": 107.80490500000005,
          "velocity": 0.7874015748031497,
          "duration": 0.4878049999999945
        },
        {
          "name": "D2",
          "midi": 38,
          "time": 108.29271000000004,
          "velocity": 0.7874015748031497,
          "duration": 0.4878049999999945
        },
        {
          "name": "D2",
          "midi": 38,
          "time": 108.78051500000004,
          "velocity": 0.7874015748031497,
          "duration": 0.24390250000000435
        },
        {
          "name": "D#2",
          "midi": 39,
          "time": 109.02441750000004,
          "velocity": 0.7874015748031497,
          "duration": 0.24390250000000435
        },
        {
          "name": "D2",
          "midi": 38,
          "time": 109.26832000000005,
          "velocity": 0.7874015748031497,
          "duration": 0.24390250000000435
        },
        {
          "name": "C#2",
          "midi": 37,
          "time": 109.51222250000005,
          "velocity": 0.7874015748031497,
          "duration": 0.24390250000000435
        },
        {
          "name": "C2",
          "midi": 36,
          "time": 109.75612500000005,
          "velocity": 0.7874015748031497,
          "duration": 0.24390250000000435
        },
        {
          "name": "D#2",
          "midi": 39,
          "time": 110.00002750000006,
          "velocity": 0.7874015748031497,
          "duration": 0.24390250000000435
        },
        {
          "name": "D2",
          "midi": 38,
          "time": 110.24393000000006,
          "velocity": 0.7874015748031497,
          "duration": 0.4878049999999945
        },
        {
          "name": "D2",
          "midi": 38,
          "time": 110.73173500000006,
          "velocity": 0.7874015748031497,
          "duration": 0.23882119791666412
        },
        {
          "name": "D#2",
          "midi": 39,
          "time": 110.97563750000006,
          "velocity": 0.7874015748031497,
          "duration": 0.24390250000000435
        },
        {
          "name": "D2",
          "midi": 38,
          "time": 111.21954000000007,
          "velocity": 0.7874015748031497,
          "duration": 0.24390250000000435
        },
        {
          "name": "C#2",
          "midi": 37,
          "time": 111.46344250000007,
          "velocity": 0.7874015748031497,
          "duration": 0.24390250000000435
        },
        {
          "name": "C2",
          "midi": 36,
          "time": 111.70734500000007,
          "velocity": 0.7874015748031497,
          "duration": 0.4878049999999945
        },
        {
          "name": "D2",
          "midi": 38,
          "time": 112.19515000000007,
          "velocity": 0.7874015748031497,
          "duration": 0.4878049999999945
        },
        {
          "name": "D2",
          "midi": 38,
          "time": 112.68295500000006,
          "velocity": 0.7874015748031497,
          "duration": 0.24390250000000435
        },
        {
          "name": "D#2",
          "midi": 39,
          "time": 112.92685750000007,
          "velocity": 0.7874015748031497,
          "duration": 0.24390250000000435
        },
        {
          "name": "D2",
          "midi": 38,
          "time": 113.17076000000007,
          "velocity": 0.7874015748031497,
          "duration": 0.24390250000000435
        },
        {
          "name": "C#2",
          "midi": 37,
          "time": 113.41466250000008,
          "velocity": 0.7874015748031497,
          "duration": 0.24390250000000435
        },
        {
          "name": "C2",
          "midi": 36,
          "time": 113.65856500000008,
          "velocity": 0.7874015748031497,
          "duration": 0.24390250000000435
        },
        {
          "name": "D#2",
          "midi": 39,
          "time": 113.90246750000009,
          "velocity": 0.7874015748031497,
          "duration": 0.24390250000000435
        },
        {
          "name": "D2",
          "midi": 38,
          "time": 114.14637000000009,
          "velocity": 0.7874015748031497,
          "duration": 0.4878049999999945
        },
        {
          "name": "D#2",
          "midi": 39,
          "time": 114.87807750000009,
          "velocity": 0.7874015748031497,
          "duration": 0.24390250000000435
        },
        {
          "name": "D2",
          "midi": 38,
          "time": 115.1219800000001,
          "velocity": 0.7874015748031497,
          "duration": 0.24390250000000435
        },
        {
          "name": "C#2",
          "midi": 37,
          "time": 115.3658825000001,
          "velocity": 0.7874015748031497,
          "duration": 0.24390250000000435
        },
        {
          "name": "C2",
          "midi": 36,
          "time": 115.6097850000001,
          "velocity": 0.7874015748031497,
          "duration": 0.24390250000000435
        },
        {
          "name": "D#2",
          "midi": 39,
          "time": 115.8536875000001,
          "velocity": 0.7874015748031497,
          "duration": 0.24390250000000435
        },
        {
          "name": "D2",
          "midi": 38,
          "time": 116.09759000000011,
          "velocity": 0.7874015748031497,
          "duration": 0.4878049999999945
        },
        {
          "name": "D2",
          "midi": 38,
          "time": 116.5853950000001,
          "velocity": 0.7874015748031497,
          "duration": 0.24390250000000435
        },
        {
          "name": "D#2",
          "midi": 39,
          "time": 116.82929750000011,
          "velocity": 0.7874015748031497,
          "duration": 0.24390250000000435
        },
        {
          "name": "D2",
          "midi": 38,
          "time": 117.07320000000011,
          "velocity": 0.7874015748031497,
          "duration": 0.24390250000000435
        },
        {
          "name": "C#2",
          "midi": 37,
          "time": 117.31710250000012,
          "velocity": 0.7874015748031497,
          "duration": 0.24390250000000435
        },
        {
          "name": "C2",
          "midi": 36,
          "time": 117.56100500000012,
          "velocity": 0.7874015748031497,
          "duration": 0.24390250000000435
        },
        {
          "name": "D#2",
          "midi": 39,
          "time": 117.80490750000013,
          "velocity": 0.7874015748031497,
          "duration": 0.24390250000000435
        },
        {
          "name": "D2",
          "midi": 38,
          "time": 118.04881000000013,
          "velocity": 0.7874015748031497,
          "duration": 0.4878049999999945
        },
        {
          "name": "D#2",
          "midi": 39,
          "time": 118.78051750000013,
          "velocity": 0.7874015748031497,
          "duration": 0.24390250000000435
        },
        {
          "name": "D2",
          "midi": 38,
          "time": 119.02442000000013,
          "velocity": 0.7874015748031497,
          "duration": 0.24390250000000435
        },
        {
          "name": "C#2",
          "midi": 37,
          "time": 119.26832250000014,
          "velocity": 0.7874015748031497,
          "duration": 0.24390250000000435
        },
        {
          "name": "C2",
          "midi": 36,
          "time": 119.51222500000014,
          "velocity": 0.7874015748031497,
          "duration": 0.24390250000000435
        },
        {
          "name": "D#2",
          "midi": 39,
          "time": 119.75612750000015,
          "velocity": 0.7874015748031497,
          "duration": 0.24390250000000435
        },
        {
          "name": "D2",
          "midi": 38,
          "time": 120.00003000000015,
          "velocity": 0.7874015748031497,
          "duration": 0.4878049999999945
        },
        {
          "name": "D2",
          "midi": 38,
          "time": 120.48783500000015,
          "velocity": 0.7874015748031497,
          "duration": 0.24390250000000435
        },
        {
          "name": "D#2",
          "midi": 39,
          "time": 120.73173750000015,
          "velocity": 0.7874015748031497,
          "duration": 0.24390250000000435
        },
        {
          "name": "D2",
          "midi": 38,
          "time": 120.97564000000015,
          "velocity": 0.7874015748031497,
          "duration": 0.24390250000000435
        },
        {
          "name": "C#2",
          "midi": 37,
          "time": 121.21954250000016,
          "velocity": 0.7874015748031497,
          "duration": 0.24390250000000435
        },
        {
          "name": "C2",
          "midi": 36,
          "time": 121.46344500000016,
          "velocity": 0.7874015748031497,
          "duration": 0.24390250000000435
        },
        {
          "name": "D#2",
          "midi": 39,
          "time": 121.70734750000017,
          "velocity": 0.7874015748031497,
          "duration": 0.24390250000000435
        },
        {
          "name": "D2",
          "midi": 38,
          "time": 121.95125000000017,
          "velocity": 0.7874015748031497,
          "duration": 0.4878049999999945
        },
        {
          "name": "D#2",
          "midi": 39,
          "time": 122.68295750000017,
          "velocity": 0.7874015748031497,
          "duration": 0.24390250000000435
        },
        {
          "name": "D2",
          "midi": 38,
          "time": 122.92686000000018,
          "velocity": 0.7874015748031497,
          "duration": 0.24390250000000435
        },
        {
          "name": "C#2",
          "midi": 37,
          "time": 123.17076250000018,
          "velocity": 0.7874015748031497,
          "duration": 0.24390250000000435
        },
        {
          "name": "C2",
          "midi": 36,
          "time": 123.41466500000018,
          "velocity": 0.7874015748031497,
          "duration": 0.24390250000000435
        },
        {
          "name": "D#2",
          "midi": 39,
          "time": 123.65856750000019,
          "velocity": 0.7874015748031497,
          "duration": 0.24390250000000435
        },
        {
          "name": "D2",
          "midi": 38,
          "time": 123.90247000000019,
          "velocity": 0.7874015748031497,
          "duration": 0.4878049999999945
        },
        {
          "name": "D2",
          "midi": 38,
          "time": 124.39027500000019,
          "velocity": 0.7874015748031497,
          "duration": 0.24390250000000435
        },
        {
          "name": "D#2",
          "midi": 39,
          "time": 124.63417750000019,
          "velocity": 0.7874015748031497,
          "duration": 0.24390250000000435
        },
        {
          "name": "D2",
          "midi": 38,
          "time": 124.8780800000002,
          "velocity": 0.7874015748031497,
          "duration": 0.24390250000000435
        },
        {
          "name": "D#2",
          "midi": 39,
          "time": 125.1219825000002,
          "velocity": 0.7874015748031497,
          "duration": 0.24390250000000435
        },
        {
          "name": "C2",
          "midi": 36,
          "time": 125.3658850000002,
          "velocity": 0.7874015748031497,
          "duration": 0.24390250000000435
        },
        {
          "name": "C2",
          "midi": 36,
          "time": 125.60978750000021,
          "velocity": 0.7874015748031497,
          "duration": 0.24390250000000435
        },
        {
          "name": "D2",
          "midi": 38,
          "time": 125.85369000000021,
          "velocity": 0.7874015748031497,
          "duration": 0.4878049999999945
        },
        {
          "name": "D#2",
          "midi": 39,
          "time": 126.58539750000021,
          "velocity": 0.7874015748031497,
          "duration": 0.24390250000000435
        },
        {
          "name": "D2",
          "midi": 38,
          "time": 126.82930000000022,
          "velocity": 0.7874015748031497,
          "duration": 0.12195124999999507
        },
        {
          "name": "D2",
          "midi": 38,
          "time": 126.95125125000021,
          "velocity": 0.7874015748031497,
          "duration": 0.12195124999999507
        },
        {
          "name": "D2",
          "midi": 38,
          "time": 127.0732025000002,
          "velocity": 0.7874015748031497,
          "duration": 0.12195124999999507
        },
        {
          "name": "D2",
          "midi": 38,
          "time": 127.1951537500002,
          "velocity": 0.7874015748031497,
          "duration": 0.12195124999999507
        },
        {
          "name": "D2",
          "midi": 38,
          "time": 127.3171050000002,
          "velocity": 0.7874015748031497,
          "duration": 0.12195124999999507
        },
        {
          "name": "D2",
          "midi": 38,
          "time": 127.43905625000019,
          "velocity": 0.7874015748031497,
          "duration": 0.12195124999999507
        },
        {
          "name": "D2",
          "midi": 38,
          "time": 127.56100750000019,
          "velocity": 0.7874015748031497,
          "duration": 0.12195124999999507
        },
        {
          "name": "D2",
          "midi": 38,
          "time": 127.68295875000018,
          "velocity": 0.7874015748031497,
          "duration": 0.12195124999999507
        },
        {
          "name": "D2",
          "midi": 38,
          "time": 127.80491000000018,
          "velocity": 0.7874015748031497,
          "duration": 0.12195124999999507
        },
        {
          "name": "D2",
          "midi": 38,
          "time": 127.92686125000017,
          "velocity": 0.7874015748031497,
          "duration": 0.12195124999999507
        },
        {
          "name": "D2",
          "midi": 38,
          "time": 128.04881250000017,
          "velocity": 0.7874015748031497,
          "duration": 0.12195124999999507
        },
        {
          "name": "D2",
          "midi": 38,
          "time": 128.17076375000016,
          "velocity": 0.7874015748031497,
          "duration": 0.12195124999999507
        },
        {
          "name": "D2",
          "midi": 38,
          "time": 128.29271500000016,
          "velocity": 0.7874015748031497,
          "duration": 0.12195124999999507
        },
        {
          "name": "D2",
          "midi": 38,
          "time": 128.41466625000015,
          "velocity": 0.7874015748031497,
          "duration": 0.12195124999999507
        },
        {
          "name": "D2",
          "midi": 38,
          "time": 128.53661750000015,
          "velocity": 0.7874015748031497,
          "duration": 0.12195124999999507
        },
        {
          "name": "D2",
          "midi": 38,
          "time": 128.65856875000014,
          "velocity": 0.7874015748031497,
          "duration": 0.12195124999999507
        },
        {
          "name": "C2",
          "midi": 36,
          "time": 131.21954500000012,
          "velocity": 0.7874015748031497,
          "duration": 2.4390249999999867
        },
        {
          "name": "D2",
          "midi": 38,
          "time": 135.8536925000001,
          "velocity": 0.7874015748031497,
          "duration": 2.4390249999999867
        },
        {
          "name": "D#2",
          "midi": 39,
          "time": 138.2927175000001,
          "velocity": 0.7874015748031497,
          "duration": 3.170732500000014
        },
        {
          "name": "D#2",
          "midi": 39,
          "time": 146.09759750000012,
          "velocity": 0.7874015748031497,
          "duration": 1.9512200000000064
        },
        {
          "name": "D#2",
          "midi": 39,
          "time": 153.90247750000012,
          "velocity": 0.7874015748031497,
          "duration": 1.9512200000000064
        }
      ],
      "controlChanges": {
        "7": [
          {
            "number": 7,
            "time": 0,
            "value": 1
          }
        ],
        "32": [
          {
            "number": 32,
            "time": 0,
            "value": 0
          }
        ],
        "127": [
          {
            "number": 127,
            "time": 156.0925186979168,
            "value": 0
          }
        ]
      },
      "id": 1,
      "name": "Untitled",
      "instrumentNumber": 0,
      "instrument": "acoustic grand piano",
      "instrumentFamily": "piano",
      "channelNumber": 0,
      "isPercussion": false
    }
  ]
}