{
  "header": {
    "PPQ": 96,
    "bpm": 107.99991360006912,
    "timeSignature": [
      4,
      4
    ],
    "name": "Arrithmia",
    "artist": "9Hour",
    "difficulty": "6"
  },
  "tempo": [
    {
      "absoluteTime": 0,
      "seconds": 0,
      "bpm": 107.99991360006912
    }
  ],
  "timeSignature": [
    {
      "absoluteTime": 0,
      "seconds": 0,
      "numerator": 4,
      "denominator": 2,
      "click": 24,
      "notesQ": 8
    }
  ],
  "startTime": 0,
  "duration": 144.44455999999965,
  "tracks": [
    {
      "startTime": 0,
      "duration": 0,
      "length": 0,
      "notes": [],
      "controlChanges": {},
      "id": 0,
      "name": "Untitled"
    },
    {
      "startTime": 4.444448,
      "duration": 144.44455999999965,
      "length": 296,
      "notes": [
        {
          "name": "C2",
          "midi": 36,
          "time": 4.444448,
          "velocity": 0.7874015748031497,
          "duration": 0.5555560000000002
        },
        {
          "name": "C2",
          "midi": 36,
          "time": 5.000004000000001,
          "velocity": 0.7874015748031497,
          "duration": 0.5555560000000002
        },
        {
          "name": "C2",
          "midi": 36,
          "time": 5.555560000000001,
          "velocity": 0.7874015748031497,
          "duration": 0.5555560000000002
        },
        {
          "name": "C2",
          "midi": 36,
          "time": 6.111116000000001,
          "velocity": 0.7874015748031497,
          "duration": 0.5555560000000002
        },
        {
          "name": "C2",
          "midi": 36,
          "time": 6.666672000000001,
          "velocity": 0.7874015748031497,
          "duration": 0.5555560000000002
        },
        {
          "name": "C2",
          "midi": 36,
          "time": 7.222228000000001,
          "velocity": 0.7874015748031497,
          "duration": 0.5555560000000002
        },
        {
          "name": "C2",
          "midi": 36,
          "time": 7.777784000000001,
          "velocity": 0.7874015748031497,
          "duration": 0.5555560000000002
        },
        {
          "name": "C2",
          "midi": 36,
          "time": 8.333340000000002,
          "velocity": 0.7874015748031497,
          "duration": 0.5555559999999993
        },
        {
          "name": "C2",
          "midi": 36,
          "time": 8.888896,
          "velocity": 0.7874015748031497,
          "duration": 0.5555559999999993
        },
        {
          "name": "C2",
          "midi": 36,
          "time": 9.444452,
          "velocity": 0.7874015748031497,
          "duration": 0.5555559999999993
        },
        {
          "name": "C2",
          "midi": 36,
          "time": 10.000008,
          "velocity": 0.7874015748031497,
          "duration": 0.5555559999999993
        },
        {
          "name": "C2",
          "midi": 36,
          "time": 10.555563999999999,
          "velocity": 0.7874015748031497,
          "duration": 0.5555559999999993
        },
        {
          "name": "C2",
          "midi": 36,
          "time": 11.111119999999998,
          "velocity": 0.7874015748031497,
          "duration": 0.5555559999999993
        },
        {
          "name": "C2",
          "midi": 36,
          "time": 11.666675999999997,
          "velocity": 0.7874015748031497,
          "duration": 0.5555559999999993
        },
        {
          "name": "C2",
          "midi": 36,
          "time": 12.222231999999996,
          "velocity": 0.7874015748031497,
          "duration": 0.5555559999999993
        },
        {
          "name": "C2",
          "midi": 36,
          "time": 12.777787999999996,
          "velocity": 0.7874015748031497,
          "duration": 0.5555559999999993
        },
        {
          "name": "C2",
          "midi": 36,
          "time": 13.333343999999995,
          "velocity": 0.7874015748031497,
          "duration": 0.5555559999999993
        },
        {
          "name": "C2",
          "midi": 36,
          "time": 13.888899999999994,
          "velocity": 0.7874015748031497,
          "duration": 0.5555559999999993
        },
        {
          "name": "C2",
          "midi": 36,
          "time": 14.444455999999994,
          "velocity": 0.7874015748031497,
          "duration": 0.5555559999999993
        },
        {
          "name": "C2",
          "midi": 36,
          "time": 15.000011999999993,
          "velocity": 0.7874015748031497,
          "duration": 0.5555559999999993
        },
        {
          "name": "C2",
          "midi": 36,
          "time": 15.555567999999992,
          "velocity": 0.7874015748031497,
          "duration": 0.555556000000001
        },
        {
          "name": "C2",
          "midi": 36,
          "time": 16.111123999999993,
          "velocity": 0.7874015748031497,
          "duration": 0.5555559999999993
        },
        {
          "name": "C2",
          "midi": 36,
          "time": 16.666679999999992,
          "velocity": 0.7874015748031497,
          "duration": 0.5555559999999993
        },
        {
          "name": "C2",
          "midi": 36,
          "time": 17.22223599999999,
          "velocity": 0.7874015748031497,
          "duration": 0.5555559999999993
        },
        {
          "name": "C2",
          "midi": 36,
          "time": 17.77779199999999,
          "velocity": 0.7874015748031497,
          "duration": 0.5555559999999993
        },
        {
          "name": "C2",
          "midi": 36,
          "time": 18.33334799999999,
          "velocity": 0.7874015748031497,
          "duration": 0.5555559999999993
        },
        {
          "name": "C2",
          "midi": 36,
          "time": 18.88890399999999,
          "velocity": 0.7874015748031497,
          "duration": 0.5555559999999993
        },
        {
          "name": "C2",
          "midi": 36,
          "time": 19.44445999999999,
          "velocity": 0.7874015748031497,
          "duration": 0.5555559999999993
        },
        {
          "name": "C2",
          "midi": 36,
          "time": 20.000015999999988,
          "velocity": 0.7874015748031497,
          "duration": 0.5555559999999993
        },
        {
          "name": "C2",
          "midi": 36,
          "time": 20.555571999999987,
          "velocity": 0.7874015748031497,
          "duration": 0.5555559999999993
        },
        {
          "name": "C2",
          "midi": 36,
          "time": 21.111127999999987,
          "velocity": 0.7874015748031497,
          "duration": 0.5555559999999993
        },
        {
          "name": "C2",
          "midi": 36,
          "time": 21.666683999999986,
          "velocity": 0.7874015748031497,
          "duration": 0.5555559999999993
        },
        {
          "name": "C2",
          "midi": 36,
          "time": 22.222239999999985,
          "velocity": 0.7874015748031497,
          "duration": 0.5555559999999993
        },
        {
          "name": "C2",
          "midi": 36,
          "time": 22.777795999999984,
          "velocity": 0.7874015748031497,
          "duration": 0.5555559999999993
        },
        {
          "name": "C2",
          "midi": 36,
          "time": 23.333351999999984,
          "velocity": 0.7874015748031497,
          "duration": 0.5555559999999993
        },
        {
          "name": "C#2",
          "midi": 37,
          "time": 23.888907999999983,
          "velocity": 0.7874015748031497,
          "duration": 0.2777780000000014
        },
        {
          "name": "C2",
          "midi": 36,
          "time": 24.444463999999986,
          "velocity": 0.7874015748031497,
          "duration": 0.5555559999999993
        },
        {
          "name": "C2",
          "midi": 36,
          "time": 25.000019999999985,
          "velocity": 0.7874015748031497,
          "duration": 0.5555559999999993
        },
        {
          "name": "C2",
          "midi": 36,
          "time": 25.555575999999984,
          "velocity": 0.7874015748031497,
          "duration": 0.5555559999999993
        },
        {
          "name": "C#2",
          "midi": 37,
          "time": 26.111131999999984,
          "velocity": 0.7874015748031497,
          "duration": 0.2777780000000014
        },
        {
          "name": "C2",
          "midi": 36,
          "time": 26.666687999999986,
          "velocity": 0.7874015748031497,
          "duration": 0.5555559999999993
        },
        {
          "name": "C2",
          "midi": 36,
          "time": 27.222243999999986,
          "velocity": 0.7874015748031497,
          "duration": 0.5555559999999993
        },
        {
          "name": "C2",
          "midi": 36,
          "time": 27.777799999999985,
          "velocity": 0.7874015748031497,
          "duration": 0.5555559999999993
        },
        {
          "name": "C#2",
          "midi": 37,
          "time": 28.333355999999984,
          "velocity": 0.7874015748031497,
          "duration": 0.2777780000000014
        },
        {
          "name": "C2",
          "midi": 36,
          "time": 28.888911999999987,
          "velocity": 0.7874015748031497,
          "duration": 0.5555559999999993
        },
        {
          "name": "C2",
          "midi": 36,
          "time": 29.444467999999986,
          "velocity": 0.7874015748031497,
          "duration": 0.5555559999999993
        },
        {
          "name": "C2",
          "midi": 36,
          "time": 30.000023999999986,
          "velocity": 0.7874015748031497,
          "duration": 0.5555559999999993
        },
        {
          "name": "C#2",
          "midi": 37,
          "time": 30.555579999999985,
          "velocity": 0.7874015748031497,
          "duration": 0.2777780000000014
        },
        {
          "name": "C2",
          "midi": 36,
          "time": 31.111135999999988,
          "velocity": 0.7874015748031497,
          "duration": 0.5555559999999993
        },
        {
          "name": "C2",
          "midi": 36,
          "time": 31.666691999999987,
          "velocity": 0.7874015748031497,
          "duration": 0.5555559999999993
        },
        {
          "name": "C2",
          "midi": 36,
          "time": 32.222247999999986,
          "velocity": 0.7874015748031497,
          "duration": 0.5555559999999957
        },
        {
          "name": "C#2",
          "midi": 37,
          "time": 32.500025999999984,
          "velocity": 0.7874015748031497,
          "duration": 0.27777799999999786
        },
        {
          "name": "C2",
          "midi": 36,
          "time": 32.77780399999998,
          "velocity": 0.7874015748031497,
          "duration": 0.5555560000000028
        },
        {
          "name": "C2",
          "midi": 36,
          "time": 33.333359999999985,
          "velocity": 0.7874015748031497,
          "duration": 0.5555560000000028
        },
        {
          "name": "C2",
          "midi": 36,
          "time": 33.88891599999999,
          "velocity": 0.7874015748031497,
          "duration": 0.5555560000000028
        },
        {
          "name": "C2",
          "midi": 36,
          "time": 34.44447199999999,
          "velocity": 0.7874015748031497,
          "duration": 0.5555559999999957
        },
        {
          "name": "C#2",
          "midi": 37,
          "time": 34.72224999999999,
          "velocity": 0.7874015748031497,
          "duration": 0.27777799999999786
        },
        {
          "name": "C2",
          "midi": 36,
          "time": 35.000027999999986,
          "velocity": 0.7874015748031497,
          "duration": 0.5555560000000028
        },
        {
          "name": "C2",
          "midi": 36,
          "time": 35.55558399999999,
          "velocity": 0.7874015748031497,
          "duration": 0.5555560000000028
        },
        {
          "name": "C2",
          "midi": 36,
          "time": 36.11113999999999,
          "velocity": 0.7874015748031497,
          "duration": 0.5555560000000028
        },
        {
          "name": "C2",
          "midi": 36,
          "time": 36.666695999999995,
          "velocity": 0.7874015748031497,
          "duration": 0.5555559999999957
        },
        {
          "name": "C#2",
          "midi": 37,
          "time": 36.94447399999999,
          "velocity": 0.7874015748031497,
          "duration": 0.27777799999999786
        },
        {
          "name": "C2",
          "midi": 36,
          "time": 37.22225199999999,
          "velocity": 0.7874015748031497,
          "duration": 0.5555560000000028
        },
        {
          "name": "C2",
          "midi": 36,
          "time": 37.77780799999999,
          "velocity": 0.7874015748031497,
          "duration": 0.5555560000000028
        },
        {
          "name": "C2",
          "midi": 36,
          "time": 38.333363999999996,
          "velocity": 0.7874015748031497,
          "duration": 0.5555560000000028
        },
        {
          "name": "C2",
          "midi": 36,
          "time": 38.88892,
          "velocity": 0.7874015748031497,
          "duration": 0.5555559999999957
        },
        {
          "name": "C#2",
          "midi": 37,
          "time": 39.166698,
          "velocity": 0.7874015748031497,
          "duration": 0.27777799999999786
        },
        {
          "name": "C2",
          "midi": 36,
          "time": 39.444475999999995,
          "velocity": 0.7874015748031497,
          "duration": 0.5555560000000028
        },
        {
          "name": "C2",
          "midi": 36,
          "time": 40.000032,
          "velocity": 0.7874015748031497,
          "duration": 0.5555560000000028
        },
        {
          "name": "C2",
          "midi": 36,
          "time": 40.555588,
          "velocity": 0.7874015748031497,
          "duration": 0.5555560000000028
        },
        {
          "name": "C2",
          "midi": 36,
          "time": 41.111144,
          "velocity": 0.7874015748031497,
          "duration": 0.5555559999999957
        },
        {
          "name": "C#2",
          "midi": 37,
          "time": 41.111144,
          "velocity": 0.7874015748031497,
          "duration": 0.27777799999999786
        },
        {
          "name": "C2",
          "midi": 36,
          "time": 41.6667,
          "velocity": 0.7874015748031497,
          "duration": 0.5555560000000028
        },
        {
          "name": "C2",
          "midi": 36,
          "time": 42.222256,
          "velocity": 0.7874015748031497,
          "duration": 0.5555560000000028
        },
        {
          "name": "C2",
          "midi": 36,
          "time": 42.777812000000004,
          "velocity": 0.7874015748031497,
          "duration": 0.5555560000000028
        },
        {
          "name": "C#2",
          "midi": 37,
          "time": 43.33336800000001,
          "velocity": 0.7874015748031497,
          "duration": 0.27777799999999786
        },
        {
          "name": "C2",
          "midi": 36,
          "time": 43.888924,
          "velocity": 0.7874015748031497,
          "duration": 0.5555560000000028
        },
        {
          "name": "C2",
          "midi": 36,
          "time": 44.444480000000006,
          "velocity": 0.7874015748031497,
          "duration": 0.5555560000000028
        },
        {
          "name": "C2",
          "midi": 36,
          "time": 45.00003600000001,
          "velocity": 0.7874015748031497,
          "duration": 0.5555560000000028
        },
        {
          "name": "C#2",
          "midi": 37,
          "time": 45.55559200000001,
          "velocity": 0.7874015748031497,
          "duration": 0.27777799999999786
        },
        {
          "name": "C2",
          "midi": 36,
          "time": 46.11114800000001,
          "velocity": 0.7874015748031497,
          "duration": 0.5555560000000028
        },
        {
          "name": "C2",
          "midi": 36,
          "time": 46.66670400000001,
          "velocity": 0.7874015748031497,
          "duration": 0.5555560000000028
        },
        {
          "name": "C2",
          "midi": 36,
          "time": 47.22226000000001,
          "velocity": 0.7874015748031497,
          "duration": 0.5555560000000028
        },
        {
          "name": "C#2",
          "midi": 37,
          "time": 47.777816000000016,
          "velocity": 0.7874015748031497,
          "duration": 0.27777799999999786
        },
        {
          "name": "C2",
          "midi": 36,
          "time": 48.33337200000001,
          "velocity": 0.7874015748031497,
          "duration": 0.5555560000000028
        },
        {
          "name": "C2",
          "midi": 36,
          "time": 48.888928000000014,
          "velocity": 0.7874015748031497,
          "duration": 0.5555560000000028
        },
        {
          "name": "C2",
          "midi": 36,
          "time": 49.44448400000002,
          "velocity": 0.7874015748031497,
          "duration": 0.5555560000000028
        },
        {
          "name": "C#2",
          "midi": 37,
          "time": 50.00004000000002,
          "velocity": 0.7874015748031497,
          "duration": 0.27777799999999786
        },
        {
          "name": "C2",
          "midi": 36,
          "time": 50.555596000000016,
          "velocity": 0.7874015748031497,
          "duration": 0.5555560000000028
        },
        {
          "name": "C2",
          "midi": 36,
          "time": 51.11115200000002,
          "velocity": 0.7874015748031497,
          "duration": 0.5555560000000028
        },
        {
          "name": "C2",
          "midi": 36,
          "time": 51.66670800000002,
          "velocity": 0.7874015748031497,
          "duration": 0.5555560000000028
        },
        {
          "name": "C#2",
          "midi": 37,
          "time": 52.222264000000024,
          "velocity": 0.7874015748031497,
          "duration": 0.27777799999999786
        },
        {
          "name": "C2",
          "midi": 36,
          "time": 52.77782000000002,
          "velocity": 0.7874015748031497,
          "duration": 0.5555560000000028
        },
        {
          "name": "C2",
          "midi": 36,
          "time": 53.33337600000002,
          "velocity": 0.7874015748031497,
          "duration": 0.5555560000000028
        },
        {
          "name": "C2",
          "midi": 36,
          "time": 53.888932000000025,
          "velocity": 0.7874015748031497,
          "duration": 0.5555560000000028
        },
        {
          "name": "C#2",
          "midi": 37,
          "time": 54.44448800000003,
          "velocity": 0.7874015748031497,
          "duration": 0.27777799999999786
        },
        {
          "name": "C2",
          "midi": 36,
          "time": 55.000044000000024,
          "velocity": 0.7874015748031497,
          "duration": 0.5555560000000028
        },
        {
          "name": "C2",
          "midi": 36,
          "time": 55.55560000000003,
          "velocity": 0.7874015748031497,
          "duration": 0.5555560000000028
        },
        {
          "name": "C2",
          "midi": 36,
          "time": 56.11115600000003,
          "velocity": 0.7874015748031497,
          "duration": 0.5555560000000028
        },
        {
          "name": "C#2",
          "midi": 37,
          "time": 56.66671200000003,
          "velocity": 0.7874015748031497,
          "duration": 0.27777799999999786
        },
        {
          "name": "C2",
          "midi": 36,
          "time": 57.22226800000003,
          "velocity": 0.7874015748031497,
          "duration": 0.5555560000000028
        },
        {
          "name": "C2",
          "midi": 36,
          "time": 57.77782400000003,
          "velocity": 0.7874015748031497,
          "duration": 0.5555560000000028
        },
        {
          "name": "C2",
          "midi": 36,
          "time": 58.333380000000034,
          "velocity": 0.7874015748031497,
          "duration": 0.5555560000000028
        },
        {
          "name": "C#2",
          "midi": 37,
          "time": 58.88893600000004,
          "velocity": 0.7874015748031497,
          "duration": 0.27777799999999786
        },
        {
          "name": "D#2",
          "midi": 39,
          "time": 59.44449200000003,
          "velocity": 0.7874015748031497,
          "duration": 0.27777799999999786
        },
        {
          "name": "C2",
          "midi": 36,
          "time": 60.00004800000003,
          "velocity": 0.7874015748031497,
          "duration": 0.5555560000000028
        },
        {
          "name": "C2",
          "midi": 36,
          "time": 60.55560400000003,
          "velocity": 0.7874015748031497,
          "duration": 0.5555560000000028
        },
        {
          "name": "C#2",
          "midi": 37,
          "time": 61.111160000000034,
          "velocity": 0.7874015748031497,
          "duration": 0.27777799999999786
        },
        {
          "name": "D#2",
          "midi": 39,
          "time": 61.66671600000003,
          "velocity": 0.7874015748031497,
          "duration": 0.27777799999999786
        },
        {
          "name": "C2",
          "midi": 36,
          "time": 62.222272000000025,
          "velocity": 0.7874015748031497,
          "duration": 0.5555560000000028
        },
        {
          "name": "C2",
          "midi": 36,
          "time": 62.77782800000003,
          "velocity": 0.7874015748031497,
          "duration": 0.5555560000000028
        },
        {
          "name": "C#2",
          "midi": 37,
          "time": 63.33338400000003,
          "velocity": 0.7874015748031497,
          "duration": 0.27777799999999786
        },
        {
          "name": "D#2",
          "midi": 39,
          "time": 63.88894000000003,
          "velocity": 0.7874015748031497,
          "duration": 0.27777800000000497
        },
        {
          "name": "C2",
          "midi": 36,
          "time": 64.44449600000003,
          "velocity": 0.7874015748031497,
          "duration": 0.5555559999999957
        },
        {
          "name": "C2",
          "midi": 36,
          "time": 65.00005200000003,
          "velocity": 0.7874015748031497,
          "duration": 0.5555559999999957
        },
        {
          "name": "C#2",
          "midi": 37,
          "time": 65.55560800000002,
          "velocity": 0.7874015748031497,
          "duration": 0.27777799999999786
        },
        {
          "name": "D#2",
          "midi": 39,
          "time": 66.11116400000002,
          "velocity": 0.7874015748031497,
          "duration": 0.27777799999999786
        },
        {
          "name": "C2",
          "midi": 36,
          "time": 66.66672000000001,
          "velocity": 0.7874015748031497,
          "duration": 0.5555559999999957
        },
        {
          "name": "C2",
          "midi": 36,
          "time": 67.22227600000001,
          "velocity": 0.7874015748031497,
          "duration": 0.5555559999999957
        },
        {
          "name": "C2",
          "midi": 36,
          "time": 67.777832,
          "velocity": 0.7874015748031497,
          "duration": 0.5555559999999957
        },
        {
          "name": "C#2",
          "midi": 37,
          "time": 68.05561,
          "velocity": 0.7874015748031497,
          "duration": 0.27777799999999786
        },
        {
          "name": "D#2",
          "midi": 39,
          "time": 68.333388,
          "velocity": 0.7874015748031497,
          "duration": 0.27777799999999786
        },
        {
          "name": "C2",
          "midi": 36,
          "time": 68.888944,
          "velocity": 0.7874015748031497,
          "duration": 0.5555559999999957
        },
        {
          "name": "C2",
          "midi": 36,
          "time": 69.44449999999999,
          "velocity": 0.7874015748031497,
          "duration": 0.5555559999999957
        },
        {
          "name": "C2",
          "midi": 36,
          "time": 70.00005599999999,
          "velocity": 0.7874015748031497,
          "duration": 0.5555559999999957
        },
        {
          "name": "C#2",
          "midi": 37,
          "time": 70.27783399999998,
          "velocity": 0.7874015748031497,
          "duration": 0.27777799999999786
        },
        {
          "name": "D#2",
          "midi": 39,
          "time": 70.55561199999998,
          "velocity": 0.7874015748031497,
          "duration": 0.27777799999999786
        },
        {
          "name": "C2",
          "midi": 36,
          "time": 71.11116799999998,
          "velocity": 0.7874015748031497,
          "duration": 0.5555559999999957
        },
        {
          "name": "C2",
          "midi": 36,
          "time": 71.66672399999997,
          "velocity": 0.7874015748031497,
          "duration": 0.5555559999999957
        },
        {
          "name": "C2",
          "midi": 36,
          "time": 72.22227999999997,
          "velocity": 0.7874015748031497,
          "duration": 0.5555559999999957
        },
        {
          "name": "C#2",
          "midi": 37,
          "time": 72.50005799999997,
          "velocity": 0.7874015748031497,
          "duration": 0.27777799999999786
        },
        {
          "name": "D#2",
          "midi": 39,
          "time": 72.77783599999997,
          "velocity": 0.7874015748031497,
          "duration": 0.27777799999999786
        },
        {
          "name": "C2",
          "midi": 36,
          "time": 73.33339199999996,
          "velocity": 0.7874015748031497,
          "duration": 0.5555559999999957
        },
        {
          "name": "C2",
          "midi": 36,
          "time": 73.88894799999996,
          "velocity": 0.7874015748031497,
          "duration": 0.5555559999999957
        },
        {
          "name": "C2",
          "midi": 36,
          "time": 74.44450399999995,
          "velocity": 0.7874015748031497,
          "duration": 0.5555559999999957
        },
        {
          "name": "C#2",
          "midi": 37,
          "time": 74.72228199999995,
          "velocity": 0.7874015748031497,
          "duration": 0.27777799999999786
        },
        {
          "name": "D#2",
          "midi": 39,
          "time": 75.00005999999995,
          "velocity": 0.7874015748031497,
          "duration": 0.27777799999999786
        },
        {
          "name": "C2",
          "midi": 36,
          "time": 75.55561599999994,
          "velocity": 0.7874015748031497,
          "duration": 0.5555559999999957
        },
        {
          "name": "C2",
          "midi": 36,
          "time": 76.11117199999994,
          "velocity": 0.7874015748031497,
          "duration": 0.5555559999999957
        },
        {
          "name": "C#2",
          "midi": 37,
          "time": 76.66672799999994,
          "velocity": 0.7874015748031497,
          "duration": 0.27777799999999786
        },
        {
          "name": "D#2",
          "midi": 39,
          "time": 77.22228399999993,
          "velocity": 0.7874015748031497,
          "duration": 0.27777799999999786
        },
        {
          "name": "C2",
          "midi": 36,
          "time": 77.77783999999993,
          "velocity": 0.7874015748031497,
          "duration": 0.5555559999999957
        },
        {
          "name": "C2",
          "midi": 36,
          "time": 78.33339599999992,
          "velocity": 0.7874015748031497,
          "duration": 0.5555559999999957
        },
        {
          "name": "C#2",
          "midi": 37,
          "time": 78.88895199999992,
          "velocity": 0.7874015748031497,
          "duration": 0.27777799999999786
        },
        {
          "name": "D#2",
          "midi": 39,
          "time": 79.44450799999991,
          "velocity": 0.7874015748031497,
          "duration": 0.27777799999999786
        },
        {
          "name": "C2",
          "midi": 36,
          "time": 80.00006399999991,
          "velocity": 0.7874015748031497,
          "duration": 0.5555559999999957
        },
        {
          "name": "C2",
          "midi": 36,
          "time": 80.5556199999999,
          "velocity": 0.7874015748031497,
          "duration": 0.5555559999999957
        },
        {
          "name": "C#2",
          "midi": 37,
          "time": 81.1111759999999,
          "velocity": 0.7874015748031497,
          "duration": 0.27777799999999786
        },
        {
          "name": "D#2",
          "midi": 39,
          "time": 81.6667319999999,
          "velocity": 0.7874015748031497,
          "duration": 0.27777799999999786
        },
        {
          "name": "C2",
          "midi": 36,
          "time": 82.22228799999989,
          "velocity": 0.7874015748031497,
          "duration": 0.5555559999999957
        },
        {
          "name": "C2",
          "midi": 36,
          "time": 82.77784399999989,
          "velocity": 0.7874015748031497,
          "duration": 0.5555559999999957
        },
        {
          "name": "C#2",
          "midi": 37,
          "time": 83.33339999999988,
          "velocity": 0.7874015748031497,
          "duration": 0.27777799999999786
        },
        {
          "name": "D#2",
          "midi": 39,
          "time": 83.88895599999988,
          "velocity": 0.7874015748031497,
          "duration": 0.27777799999999786
        },
        {
          "name": "C2",
          "midi": 36,
          "time": 84.44451199999988,
          "velocity": 0.7874015748031497,
          "duration": 0.5555559999999957
        },
        {
          "name": "C2",
          "midi": 36,
          "time": 85.00006799999987,
          "velocity": 0.7874015748031497,
          "duration": 0.5555559999999957
        },
        {
          "name": "C#2",
          "midi": 37,
          "time": 85.55562399999987,
          "velocity": 0.7874015748031497,
          "duration": 0.27777799999999786
        },
        {
          "name": "D#2",
          "midi": 39,
          "time": 86.11117999999986,
          "velocity": 0.7874015748031497,
          "duration": 0.27777799999999786
        },
        {
          "name": "C2",
          "midi": 36,
          "time": 86.66673599999986,
          "velocity": 0.7874015748031497,
          "duration": 0.5555559999999957
        },
        {
          "name": "D2",
          "midi": 38,
          "time": 87.22229199999985,
          "velocity": 0.7874015748031497,
          "duration": 0.27777799999999786
        },
        {
          "name": "D2",
          "midi": 38,
          "time": 87.50006999999985,
          "velocity": 0.7874015748031497,
          "duration": 0.27777799999999786
        },
        {
          "name": "C#2",
          "midi": 37,
          "time": 87.77784799999985,
          "velocity": 0.7874015748031497,
          "duration": 0.27777799999999786
        },
        {
          "name": "D#2",
          "midi": 39,
          "time": 88.33340399999985,
          "velocity": 0.7874015748031497,
          "duration": 0.27777799999999786
        },
        {
          "name": "C2",
          "midi": 36,
          "time": 88.88895999999984,
          "velocity": 0.7874015748031497,
          "duration": 0.5555559999999957
        },
        {
          "name": "C2",
          "midi": 36,
          "time": 89.44451599999984,
          "velocity": 0.7874015748031497,
          "duration": 0.5555559999999957
        },
        {
          "name": "C#2",
          "midi": 37,
          "time": 90.00007199999983,
          "velocity": 0.7874015748031497,
          "duration": 0.27777799999999786
        },
        {
          "name": "D#2",
          "midi": 39,
          "time": 90.55562799999983,
          "velocity": 0.7874015748031497,
          "duration": 0.27777799999999786
        },
        {
          "name": "C2",
          "midi": 36,
          "time": 91.11118399999982,
          "velocity": 0.7874015748031497,
          "duration": 0.5555559999999957
        },
        {
          "name": "D2",
          "midi": 38,
          "time": 91.66673999999982,
          "velocity": 0.7874015748031497,
          "duration": 0.27777799999999786
        },
        {
          "name": "D2",
          "midi": 38,
          "time": 91.94451799999982,
          "velocity": 0.7874015748031497,
          "duration": 0.27777799999999786
        },
        {
          "name": "C#2",
          "midi": 37,
          "time": 92.22229599999982,
          "velocity": 0.7874015748031497,
          "duration": 0.27777799999999786
        },
        {
          "name": "D#2",
          "midi": 39,
          "time": 92.77785199999981,
          "velocity": 0.7874015748031497,
          "duration": 0.27777799999999786
        },
        {
          "name": "C2",
          "midi": 36,
          "time": 93.3334079999998,
          "velocity": 0.7874015748031497,
          "duration": 0.5555559999999957
        },
        {
          "name": "C2",
          "midi": 36,
          "time": 93.8889639999998,
          "velocity": 0.7874015748031497,
          "duration": 0.5555559999999957
        },
        {
          "name": "C2",
          "midi": 36,
          "time": 94.4445199999998,
          "velocity": 0.7874015748031497,
          "duration": 0.5555559999999957
        },
        {
          "name": "C#2",
          "midi": 37,
          "time": 94.7222979999998,
          "velocity": 0.7874015748031497,
          "duration": 0.27777799999999786
        },
        {
          "name": "D#2",
          "midi": 39,
          "time": 95.0000759999998,
          "velocity": 0.7874015748031497,
          "duration": 0.27777799999999786
        },
        {
          "name": "C2",
          "midi": 36,
          "time": 95.55563199999979,
          "velocity": 0.7874015748031497,
          "duration": 0.5555559999999957
        },
        {
          "name": "D2",
          "midi": 38,
          "time": 96.11118799999979,
          "velocity": 0.7874015748031497,
          "duration": 0.27777799999999786
        },
        {
          "name": "D2",
          "midi": 38,
          "time": 96.38896599999978,
          "velocity": 0.7874015748031497,
          "duration": 0.27777799999999786
        },
        {
          "name": "C2",
          "midi": 36,
          "time": 96.66674399999978,
          "velocity": 0.7874015748031497,
          "duration": 0.5555559999999957
        },
        {
          "name": "C#2",
          "midi": 37,
          "time": 96.94452199999978,
          "velocity": 0.7874015748031497,
          "duration": 0.27777799999999786
        },
        {
          "name": "D#2",
          "midi": 39,
          "time": 97.22229999999978,
          "velocity": 0.7874015748031497,
          "duration": 0.27777799999999786
        },
        {
          "name": "C2",
          "midi": 36,
          "time": 97.77785599999977,
          "velocity": 0.7874015748031497,
          "duration": 0.5555559999999957
        },
        {
          "name": "C2",
          "midi": 36,
          "time": 98.33341199999977,
          "velocity": 0.7874015748031497,
          "duration": 0.5555559999999957
        },
        {
          "name": "C2",
          "midi": 36,
          "time": 98.88896799999976,
          "velocity": 0.7874015748031497,
          "duration": 0.5555559999999957
        },
        {
          "name": "C#2",
          "midi": 37,
          "time": 99.16674599999976,
          "velocity": 0.7874015748031497,
          "duration": 0.27777799999999786
        },
        {
          "name": "D#2",
          "midi": 39,
          "time": 99.44452399999976,
          "velocity": 0.7874015748031497,
          "duration": 0.27777799999999786
        },
        {
          "name": "C2",
          "midi": 36,
          "time": 100.00007999999976,
          "velocity": 0.7874015748031497,
          "duration": 0.5555559999999957
        },
        {
          "name": "D2",
          "midi": 38,
          "time": 100.55563599999975,
          "velocity": 0.7874015748031497,
          "duration": 0.27777799999999786
        },
        {
          "name": "D2",
          "midi": 38,
          "time": 100.83341399999975,
          "velocity": 0.7874015748031497,
          "duration": 0.27777799999999786
        },
        {
          "name": "C2",
          "midi": 36,
          "time": 101.11119199999975,
          "velocity": 0.7874015748031497,
          "duration": 0.5555559999999957
        },
        {
          "name": "C#2",
          "midi": 37,
          "time": 101.38896999999974,
          "velocity": 0.7874015748031497,
          "duration": 0.27777799999999786
        },
        {
          "name": "D#2",
          "midi": 39,
          "time": 101.66674799999974,
          "velocity": 0.7874015748031497,
          "duration": 0.27777799999999786
        },
        {
          "name": "C2",
          "midi": 36,
          "time": 102.22230399999974,
          "velocity": 0.7874015748031497,
          "duration": 0.5555559999999957
        },
        {
          "name": "C2",
          "midi": 36,
          "time": 102.77785999999973,
          "velocity": 0.7874015748031497,
          "duration": 0.5555559999999957
        },
        {
          "name": "C2",
          "midi": 36,
          "time": 103.33341599999973,
          "velocity": 0.7874015748031497,
          "duration": 0.5555559999999957
        },
        {
          "name": "C#2",
          "midi": 37,
          "time": 103.33341599999973,
          "velocity": 0.7874015748031497,
          "duration": 0.27777799999999786
        },
        {
          "name": "D#2",
          "midi": 39,
          "time": 103.88897199999973,
          "velocity": 0.7874015748031497,
          "duration": 0.27777799999999786
        },
        {
          "name": "C2",
          "midi": 36,
          "time": 104.44452799999972,
          "velocity": 0.7874015748031497,
          "duration": 0.5555559999999957
        },
        {
          "name": "D2",
          "midi": 38,
          "time": 105.00008399999972,
          "velocity": 0.7874015748031497,
          "duration": 0.27777799999999786
        },
        {
          "name": "D2",
          "midi": 38,
          "time": 105.27786199999971,
          "velocity": 0.7874015748031497,
          "duration": 0.27777799999999786
        },
        {
          "name": "C#2",
          "midi": 37,
          "time": 105.55563999999971,
          "velocity": 0.7874015748031497,
          "duration": 0.27777799999999786
        },
        {
          "name": "C2",
          "midi": 36,
          "time": 106.11119599999971,
          "velocity": 0.7874015748031497,
          "duration": 0.5555559999999957
        },
        {
          "name": "D#2",
          "midi": 39,
          "time": 106.11119599999971,
          "velocity": 0.7874015748031497,
          "duration": 0.27777799999999786
        },
        {
          "name": "C2",
          "midi": 36,
          "time": 106.6667519999997,
          "velocity": 0.7874015748031497,
          "duration": 0.5555559999999957
        },
        {
          "name": "C2",
          "midi": 36,
          "time": 107.2223079999997,
          "velocity": 0.7874015748031497,
          "duration": 0.5555559999999957
        },
        {
          "name": "C#2",
          "midi": 37,
          "time": 107.7778639999997,
          "velocity": 0.7874015748031497,
          "duration": 0.27777799999999786
        },
        {
          "name": "D#2",
          "midi": 39,
          "time": 108.33341999999969,
          "velocity": 0.7874015748031497,
          "duration": 0.27777799999999786
        },
        {
          "name": "C2",
          "midi": 36,
          "time": 108.88897599999969,
          "velocity": 0.7874015748031497,
          "duration": 0.5555559999999957
        },
        {
          "name": "D2",
          "midi": 38,
          "time": 109.44453199999968,
          "velocity": 0.7874015748031497,
          "duration": 0.27777799999999786
        },
        {
          "name": "D2",
          "midi": 38,
          "time": 109.72230999999968,
          "velocity": 0.7874015748031497,
          "duration": 0.27777799999999786
        },
        {
          "name": "C#2",
          "midi": 37,
          "time": 110.00008799999968,
          "velocity": 0.7874015748031497,
          "duration": 0.27777799999999786
        },
        {
          "name": "D#2",
          "midi": 39,
          "time": 110.55564399999967,
          "velocity": 0.7874015748031497,
          "duration": 0.27777799999999786
        },
        {
          "name": "C2",
          "midi": 36,
          "time": 111.11119999999967,
          "velocity": 0.7874015748031497,
          "duration": 0.5555559999999957
        },
        {
          "name": "C2",
          "midi": 36,
          "time": 111.66675599999967,
          "velocity": 0.7874015748031497,
          "duration": 0.5555559999999957
        },
        {
          "name": "C2",
          "midi": 36,
          "time": 112.22231199999966,
          "velocity": 0.7874015748031497,
          "duration": 0.5555559999999957
        },
        {
          "name": "C#2",
          "midi": 37,
          "time": 112.50008999999966,
          "velocity": 0.7874015748031497,
          "duration": 0.27777799999999786
        },
        {
          "name": "D#2",
          "midi": 39,
          "time": 112.77786799999966,
          "velocity": 0.7874015748031497,
          "duration": 0.27777799999999786
        },
        {
          "name": "C2",
          "midi": 36,
          "time": 113.33342399999965,
          "velocity": 0.7874015748031497,
          "duration": 0.5555559999999957
        },
        {
          "name": "D2",
          "midi": 38,
          "time": 113.88897999999965,
          "velocity": 0.7874015748031497,
          "duration": 0.27777799999999786
        },
        {
          "name": "D2",
          "midi": 38,
          "time": 114.16675799999965,
          "velocity": 0.7874015748031497,
          "duration": 0.27777799999999786
        },
        {
          "name": "C2",
          "midi": 36,
          "time": 114.44453599999964,
          "velocity": 0.7874015748031497,
          "duration": 0.5555559999999957
        },
        {
          "name": "C#2",
          "midi": 37,
          "time": 114.72231399999964,
          "velocity": 0.7874015748031497,
          "duration": 0.27777799999999786
        },
        {
          "name": "D#2",
          "midi": 39,
          "time": 115.00009199999964,
          "velocity": 0.7874015748031497,
          "duration": 0.27777799999999786
        },
        {
          "name": "C2",
          "midi": 36,
          "time": 115.55564799999964,
          "velocity": 0.7874015748031497,
          "duration": 0.5555559999999957
        },
        {
          "name": "C2",
          "midi": 36,
          "time": 116.11120399999963,
          "velocity": 0.7874015748031497,
          "duration": 0.5555559999999957
        },
        {
          "name": "C2",
          "midi": 36,
          "time": 116.66675999999963,
          "velocity": 0.7874015748031497,
          "duration": 0.5555559999999957
        },
        {
          "name": "C#2",
          "midi": 37,
          "time": 116.94453799999962,
          "velocity": 0.7874015748031497,
          "duration": 0.27777799999999786
        },
        {
          "name": "D#2",
          "midi": 39,
          "time": 117.22231599999962,
          "velocity": 0.7874015748031497,
          "duration": 0.27777799999999786
        },
        {
          "name": "C2",
          "midi": 36,
          "time": 117.77787199999962,
          "velocity": 0.7874015748031497,
          "duration": 0.5555559999999957
        },
        {
          "name": "D2",
          "midi": 38,
          "time": 118.33342799999961,
          "velocity": 0.7874015748031497,
          "duration": 0.27777799999999786
        },
        {
          "name": "D2",
          "midi": 38,
          "time": 118.61120599999961,
          "velocity": 0.7874015748031497,
          "duration": 0.27777799999999786
        },
        {
          "name": "C2",
          "midi": 36,
          "time": 118.88898399999961,
          "velocity": 0.7874015748031497,
          "duration": 0.5555559999999957
        },
        {
          "name": "C#2",
          "midi": 37,
          "time": 119.16676199999961,
          "velocity": 0.7874015748031497,
          "duration": 0.27777799999999786
        },
        {
          "name": "D#2",
          "midi": 39,
          "time": 119.4445399999996,
          "velocity": 0.7874015748031497,
          "duration": 0.27777799999999786
        },
        {
          "name": "C2",
          "midi": 36,
          "time": 120.0000959999996,
          "velocity": 0.7874015748031497,
          "duration": 0.5555559999999957
        },
        {
          "name": "C#2",
          "midi": 37,
          "time": 120.2778739999996,
          "velocity": 0.7874015748031497,
          "duration": 0.27777799999999786
        },
        {
          "name": "C2",
          "midi": 36,
          "time": 120.5556519999996,
          "velocity": 0.7874015748031497,
          "duration": 0.5555559999999957
        },
        {
          "name": "C#2",
          "midi": 37,
          "time": 120.8334299999996,
          "velocity": 0.7874015748031497,
          "duration": 0.27777799999999786
        },
        {
          "name": "C2",
          "midi": 36,
          "time": 121.11120799999959,
          "velocity": 0.7874015748031497,
          "duration": 0.5555559999999957
        },
        {
          "name": "D#2",
          "midi": 39,
          "time": 121.66676399999959,
          "velocity": 0.7874015748031497,
          "duration": 0.27777799999999786
        },
        {
          "name": "C2",
          "midi": 36,
          "time": 122.22231999999958,
          "velocity": 0.7874015748031497,
          "duration": 0.5555559999999957
        },
        {
          "name": "C2",
          "midi": 36,
          "time": 122.77787599999958,
          "velocity": 0.7874015748031497,
          "duration": 0.5555559999999957
        },
        {
          "name": "D2",
          "midi": 38,
          "time": 122.77787599999958,
          "velocity": 0.7874015748031497,
          "duration": 0.27777799999999786
        },
        {
          "name": "D2",
          "midi": 38,
          "time": 123.05565399999958,
          "velocity": 0.7874015748031497,
          "duration": 0.27777799999999786
        },
        {
          "name": "C#2",
          "midi": 37,
          "time": 123.33343199999958,
          "velocity": 0.7874015748031497,
          "duration": 0.27777799999999786
        },
        {
          "name": "C2",
          "midi": 36,
          "time": 123.88898799999957,
          "velocity": 0.7874015748031497,
          "duration": 0.5555559999999957
        },
        {
          "name": "C2",
          "midi": 36,
          "time": 124.44454399999957,
          "velocity": 0.7874015748031497,
          "duration": 0.5555559999999957
        },
        {
          "name": "C#2",
          "midi": 37,
          "time": 124.72232199999956,
          "velocity": 0.7874015748031497,
          "duration": 0.27777799999999786
        },
        {
          "name": "C2",
          "midi": 36,
          "time": 125.00009999999956,
          "velocity": 0.7874015748031497,
          "duration": 0.5555559999999957
        },
        {
          "name": "C#2",
          "midi": 37,
          "time": 125.27787799999956,
          "velocity": 0.7874015748031497,
          "duration": 0.27777799999999786
        },
        {
          "name": "C2",
          "midi": 36,
          "time": 125.55565599999956,
          "velocity": 0.7874015748031497,
          "duration": 0.5555559999999957
        },
        {
          "name": "C2",
          "midi": 36,
          "time": 126.11121199999955,
          "velocity": 0.7874015748031497,
          "duration": 0.5555559999999957
        },
        {
          "name": "C2",
          "midi": 36,
          "time": 126.66676799999955,
          "velocity": 0.7874015748031497,
          "duration": 0.5555559999999957
        },
        {
          "name": "D2",
          "midi": 38,
          "time": 127.22232399999955,
          "velocity": 0.7874015748031497,
          "duration": 0.27777799999999786
        },
        {
          "name": "D2",
          "midi": 38,
          "time": 127.50010199999954,
          "velocity": 0.7874015748031497,
          "duration": 0.27777799999999786
        },
        {
          "name": "C#2",
          "midi": 37,
          "time": 127.77787999999954,
          "velocity": 0.7874015748031497,
          "duration": 0.27777799999999786
        },
        {
          "name": "C2",
          "midi": 36,
          "time": 128.33343599999955,
          "velocity": 0.7874015748031497,
          "duration": 0.5555559999999957
        },
        {
          "name": "C2",
          "midi": 36,
          "time": 128.88899199999955,
          "velocity": 0.7874015748031497,
          "duration": 0.5555560000000241
        },
        {
          "name": "C#2",
          "midi": 37,
          "time": 129.16676999999956,
          "velocity": 0.7874015748031497,
          "duration": 0.27777800000001207
        },
        {
          "name": "C2",
          "midi": 36,
          "time": 129.44454799999957,
          "velocity": 0.7874015748031497,
          "duration": 0.5555560000000241
        },
        {
          "name": "C#2",
          "midi": 37,
          "time": 129.44454799999957,
          "velocity": 0.7874015748031497,
          "duration": 0.27777800000001207
        },
        {
          "name": "C2",
          "midi": 36,
          "time": 130.0001039999996,
          "velocity": 0.7874015748031497,
          "duration": 0.5555559999999957
        },
        {
          "name": "C2",
          "midi": 36,
          "time": 130.5556599999996,
          "velocity": 0.7874015748031497,
          "duration": 0.5555559999999957
        },
        {
          "name": "C2",
          "midi": 36,
          "time": 131.1112159999996,
          "velocity": 0.7874015748031497,
          "duration": 0.5555559999999957
        },
        {
          "name": "C2",
          "midi": 36,
          "time": 131.66677199999958,
          "velocity": 0.7874015748031497,
          "duration": 0.5555560000000241
        },
        {
          "name": "D2",
          "midi": 38,
          "time": 131.66677199999958,
          "velocity": 0.7874015748031497,
          "duration": 0.27777800000001207
        },
        {
          "name": "D2",
          "midi": 38,
          "time": 131.9445499999996,
          "velocity": 0.7874015748031497,
          "duration": 0.27777800000001207
        },
        {
          "name": "C2",
          "midi": 36,
          "time": 132.2223279999996,
          "velocity": 0.7874015748031497,
          "duration": 0.5555560000000241
        },
        {
          "name": "C#2",
          "midi": 37,
          "time": 132.50010599999962,
          "velocity": 0.7874015748031497,
          "duration": 0.27777800000001207
        },
        {
          "name": "C2",
          "midi": 36,
          "time": 132.77788399999963,
          "velocity": 0.7874015748031497,
          "duration": 0.5555559999999957
        },
        {
          "name": "C2",
          "midi": 36,
          "time": 133.33343999999963,
          "velocity": 0.7874015748031497,
          "duration": 0.5555560000000241
        },
        {
          "name": "C#2",
          "midi": 37,
          "time": 133.61121799999964,
          "velocity": 0.7874015748031497,
          "duration": 0.27777800000001207
        },
        {
          "name": "C2",
          "midi": 36,
          "time": 133.88899599999965,
          "velocity": 0.7874015748031497,
          "duration": 0.5555560000000241
        },
        {
          "name": "C#2",
          "midi": 37,
          "time": 133.88899599999965,
          "velocity": 0.7874015748031497,
          "duration": 0.27777800000001207
        },
        {
          "name": "C2",
          "midi": 36,
          "time": 134.44455199999967,
          "velocity": 0.7874015748031497,
          "duration": 0.5555559999999957
        },
        {
          "name": "C2",
          "midi": 36,
          "time": 135.00010799999967,
          "velocity": 0.7874015748031497,
          "duration": 0.5555559999999957
        },
        {
          "name": "C2",
          "midi": 36,
          "time": 135.55566399999967,
          "velocity": 0.7874015748031497,
          "duration": 0.5555559999999957
        },
        {
          "name": "C2",
          "midi": 36,
          "time": 136.11121999999966,
          "velocity": 0.7874015748031497,
          "duration": 0.5555560000000241
        },
        {
          "name": "D2",
          "midi": 38,
          "time": 136.11121999999966,
          "velocity": 0.7874015748031497,
          "duration": 0.27777800000001207
        },
        {
          "name": "D2",
          "midi": 38,
          "time": 136.38899799999967,
          "velocity": 0.7874015748031497,
          "duration": 0.27777800000001207
        },
        {
          "name": "C2",
          "midi": 36,
          "time": 136.6667759999997,
          "velocity": 0.7874015748031497,
          "duration": 0.5555560000000241
        },
        {
          "name": "C#2",
          "midi": 37,
          "time": 136.9445539999997,
          "velocity": 0.7874015748031497,
          "duration": 0.27777800000001207
        },
        {
          "name": "C2",
          "midi": 36,
          "time": 137.2223319999997,
          "velocity": 0.7874015748031497,
          "duration": 0.5555559999999957
        },
        {
          "name": "C2",
          "midi": 36,
          "time": 137.7778879999997,
          "velocity": 0.7874015748031497,
          "duration": 0.5555559999999957
        },
        {
          "name": "C2",
          "midi": 36,
          "time": 138.3334439999997,
          "velocity": 0.7874015748031497,
          "duration": 0.5555559999999957
        },
        {
          "name": "C2",
          "midi": 36,
          "time": 138.8889999999997,
          "velocity": 0.7874015748031497,
          "duration": 0.5555559999999957
        },
        {
          "name": "C2",
          "midi": 36,
          "time": 139.4445559999997,
          "velocity": 0.7874015748031497,
          "duration": 0.5555559999999957
        },
        {
          "name": "C2",
          "midi": 36,
          "time": 140.0001119999997,
          "velocity": 0.7874015748031497,
          "duration": 0.5555559999999957
        },
        {
          "name": "C2",
          "midi": 36,
          "time": 140.55566799999968,
          "velocity": 0.7874015748031497,
          "duration": 0.5555559999999957
        },
        {
          "name": "C2",
          "midi": 36,
          "time": 141.11122399999968,
          "velocity": 0.7874015748031497,
          "duration": 0.5555559999999957
        },
        {
          "name": "C2",
          "midi": 36,
          "time": 141.66677999999968,
          "velocity": 0.7874015748031497,
          "duration": 0.5555559999999957
        },
        {
          "name": "C2",
          "midi": 36,
          "time": 142.22233599999967,
          "velocity": 0.7874015748031497,
          "duration": 0.5555559999999957
        },
        {
          "name": "C2",
          "midi": 36,
          "time": 142.77789199999967,
          "velocity": 0.7874015748031497,
          "duration": 0.5555559999999957
        },
        {
          "name": "C2",
          "midi": 36,
          "time": 143.33344799999966,
          "velocity": 0.7874015748031497,
          "duration": 0.5555559999999957
        },
        {
          "name": "C2",
          "midi": 36,
          "time": 143.88900399999966,
          "velocity": 0.7874015748031497,
          "duration": 0.5555559999999957
        }
      ],
      "controlChanges": {
        "7": [
          {
            "number": 7,
            "time": 0,
            "value": 1
          }
        ],
        "32": [
          {
            "number": 32,
            "time": 0,
            "value": 0
          }
        ]
      },
      "id": 1,
      "name": "Untitled",
      "instrumentNumber": 0,
      "instrument": "acoustic grand piano",
      "instrumentFamily": "piano",
      "channelNumber": 0,
      "isPercussion": false
    }
  ]
}